<?xml version="1.0" encoding="UTF-8"?>
<svg width="942px" height="791px" viewBox="0 0 942 791" version="1.1" xmlns="http://www.w3.org/2000/svg" xmlns:xlink="http://www.w3.org/1999/xlink">
    <title>b2b-para-empresas-servicos-essenciais-desk-942x791</title>
    <defs>
        <linearGradient x1="48.12588%" y1="42.0072391%" x2="49.9217031%" y2="54.4726907%" id="linearGradient-1">
            <stop stop-color="#A078B4" offset="0%"></stop>
            <stop stop-color="#AA7DC3" stop-opacity="0.676" offset="32.4%"></stop>
            <stop stop-color="#C085E3" stop-opacity="0" offset="100%"></stop>
        </linearGradient>
        <linearGradient x1="48.3820305%" y1="43.8032384%" x2="50.1683049%" y2="55.9556486%" id="linearGradient-2">
            <stop stop-color="#A078B4" offset="0%"></stop>
            <stop stop-color="#AA7DC3" stop-opacity="0.676" offset="32.4%"></stop>
            <stop stop-color="#C085E3" stop-opacity="0" offset="100%"></stop>
        </linearGradient>
        <linearGradient x1="25.3040774%" y1="38.2336324%" x2="67.7985601%" y2="69.0251087%" id="linearGradient-3">
            <stop stop-color="#A178B5" offset="0%"></stop>
            <stop stop-color="#C186E4" stop-opacity="0" offset="100%"></stop>
        </linearGradient>
        <linearGradient x1="25.2686753%" y1="38.2066692%" x2="67.7761163%" y2="69.0663906%" id="linearGradient-4">
            <stop stop-color="#A178B5" offset="0%"></stop>
            <stop stop-color="#C186E4" stop-opacity="0" offset="100%"></stop>
        </linearGradient>
        <linearGradient x1="50.4262295%" y1="-211.892843%" x2="50.4262295%" y2="330.681759%" id="linearGradient-5">
            <stop stop-color="#A178B5" offset="0%"></stop>
            <stop stop-color="#C186E4" stop-opacity="0" offset="100%"></stop>
        </linearGradient>
        <linearGradient x1="48.6612903%" y1="-205.709677%" x2="48.6612903%" y2="321.032258%" id="linearGradient-6">
            <stop stop-color="#A178B5" offset="0%"></stop>
            <stop stop-color="#C186E4" stop-opacity="0" offset="100%"></stop>
        </linearGradient>
        <linearGradient x1="49.3387097%" y1="-205.709677%" x2="49.3387097%" y2="321.032258%" id="linearGradient-7">
            <stop stop-color="#A178B5" offset="0%"></stop>
            <stop stop-color="#C186E4" stop-opacity="0" offset="100%"></stop>
        </linearGradient>
        <linearGradient x1="50.0819672%" y1="-211.560566%" x2="50.0819672%" y2="331.014035%" id="linearGradient-8">
            <stop stop-color="#A178B5" offset="0%"></stop>
            <stop stop-color="#C186E4" stop-opacity="0" offset="100%"></stop>
        </linearGradient>
        <linearGradient x1="49.9516129%" y1="-205.387097%" x2="49.9516129%" y2="321.354839%" id="linearGradient-9">
            <stop stop-color="#A178B5" offset="0%"></stop>
            <stop stop-color="#C186E4" stop-opacity="0" offset="100%"></stop>
        </linearGradient>
        <linearGradient x1="49%" y1="-205.387097%" x2="49%" y2="321.354839%" id="linearGradient-10">
            <stop stop-color="#A178B5" offset="0%"></stop>
            <stop stop-color="#C186E4" stop-opacity="0" offset="100%"></stop>
        </linearGradient>
    </defs>
    <g id="Page-1" stroke="none" stroke-width="1" fill="none" fill-rule="evenodd">
        <g id="b2b-para-empresas-servicos-essenciais-desk-942x791" fill-rule="nonzero">
            <g id="b2b-para-empresas-servicos-essenciais-desk-1920x791" transform="translate(-479.000000, 0.000000)">
                <polygon id="Path" fill="#F0F0F0" points="0.5 0.1 1933.7 0.1 1933.7 814 0.5 814"></polygon>
                <path d="M82,775.8 C79.3,732.4 100.7,689.4 133.7,661.2 C166.7,633 210.3,618.8 253.7,616.8 C309.4,614.2 369.3,629.7 418.3,603 C465.1,577.5 485.2,522.3 506.8,473.4 C541.1,395.5 590.1,321.4 661,274.4 C731.9,227.4 827.6,212 903.3,251 C941,270.5 973.9,302.7 1016,308.2 C1064.9,314.6 1110.5,282.5 1144.1,246.4 C1177.6,210.3 1205.9,167.7 1247.8,141.8 C1332.8,89.2 1441.5,104.6 1508.8,212.3 C1534.9,254.1 1551,307.2 1594.9,329.5 C1619.6,342.1 1648.6,341.9 1675.6,348.2 C1744,364.2 1816.5,411.3 1843.4,476.3 C1870.3,541.3 1873.5,628.7 1856.7,694" id="Path" fill="url(#linearGradient-1)" opacity="0.64"></path>
                <g id="Group" opacity="0.64" transform="translate(62.000000, 103.000000)" fill="url(#linearGradient-2)">
                    <path d="M1.2,664.4 C-1.4,622.9 18.9,578.9 54.1,549.4 C85.8,522.8 129.4,507 176.9,504.9 C194,504.1 211.7,505 228.8,505.8 C268.6,507.7 309.8,509.8 344.6,491.2 C387.7,468.2 408.3,421.4 428.3,376.1 C430.4,371.3 432.5,366.6 434.6,361.9 C475.6,271 528.6,204 592.3,162.6 C670.5,111.8 767.7,102.6 840.1,139.2 C852.7,145.6 865,153.5 876.9,161.1 C901.1,176.6 926.2,192.7 955,196.4 C984.2,200.1 1030.6,192.5 1085.3,134.7 C1094.9,124.6 1104.2,113.8 1113.2,103.4 C1136.4,76.5 1160.4,48.7 1191.2,30 C1235.2,3.3 1285,-5.5 1331.5,5.1 C1381.8,16.6 1425.6,49.6 1458.2,100.7 C1465.3,111.8 1471.8,123.9 1478,135.6 C1495.3,167.9 1513.1,201.4 1545.9,217.7 C1562.6,226 1581.6,228.8 1599.9,231.5 C1609.2,232.9 1618.9,234.3 1628.1,236.4 C1663.8,244.6 1699.9,260.8 1729.8,282.1 C1762.6,305.5 1786.7,334.1 1799.6,364.7 C1825.7,426.7 1831.2,514.3 1813.2,582.7 L1812.2,582.4 C1830.2,514.3 1824.7,426.9 1798.7,365.1 C1785.9,334.7 1761.8,306.2 1729.2,282.9 C1699.5,261.6 1663.5,245.5 1627.9,237.3 C1618.7,235.2 1609.1,233.8 1599.8,232.4 C1581.4,229.7 1562.3,226.9 1545.5,218.5 C1512.5,202 1494.5,168.5 1477.2,136 C1471,124.3 1464.5,112.2 1457.4,101.1 C1425,50.2 1381.4,17.3 1331.3,5.9 C1285.1,-4.6 1235.5,4.2 1191.7,30.7 C1161,49.3 1137,77.1 1113.9,103.9 C1104.9,114.3 1095.6,125.1 1086,135.2 C1038.4,185.5 997,198 967.6,198 C963.1,198 958.8,197.7 954.9,197.2 C925.9,193.5 900.7,177.4 876.4,161.8 C864.5,154.2 852.3,146.3 839.7,140 C767.7,103.6 670.8,112.8 592.9,163.4 C529.4,204.6 476.5,271.5 435.7,362.2 C433.6,366.9 431.5,371.6 429.4,376.4 C409.3,421.9 388.6,468.9 345.2,492 C310.1,510.7 268.8,508.7 228.9,506.8 C211.8,506 194.1,505.1 177.1,505.9 C129.9,508 86.5,523.8 54.9,550.2 C19.9,579.5 -0.3,623.3 2.3,664.4 L1.2,664.4 Z" id="Path"></path>
                </g>
                <path d="M1407.7,213.5 C1406.9,213.2 1406,213.1 1405.2,213.2 C1404.4,213.3 1403.7,212.6 1403.9,211.8 C1404.1,210.8 1404.1,209.8 1404,208.8 C1403.4,204.6 1400,201.3 1395.8,201 C1393.6,200.8 1391.5,201.4 1389.9,202.5 C1389.2,202.9 1388.3,202.6 1388.1,201.8 C1385.7,194 1378.5,188.3 1369.8,188.3 L1368.8,188.3 C1360.8,188.5 1354,193.4 1350.6,200.5 C1350.1,201.6 1348.9,202.3 1347.7,202.2 C1347.2,202.2 1346.8,202.1 1346.3,202.1 C1338.4,202.1 1331.9,208.2 1330.8,216.1 L1330.6,216.1 C1328.2,216.1 1326,217.3 1324.7,219.1 C1324,220.1 1324.6,221.5 1325.8,221.5 L1410.1,221.5 L1410,221.4 C1410.2,221.1 1410.5,220.7 1410.6,220.3 C1411.6,217.6 1410.4,214.6 1407.7,213.5 L1407.7,213.5 Z" id="Path" fill="url(#linearGradient-3)"></path>
                <path d="M982.7,397.1 C980.7,396.3 978.6,396 976.6,396.3 C974.6,396.5 973,394.8 973.4,392.8 C973.9,390.5 973.9,388 973.6,385.4 C972.2,375.1 963.7,367 953.4,366.1 C948,365.6 942.9,367 938.8,369.8 C937.1,370.9 934.9,370.1 934.3,368.2 C928.5,348.9 910.6,334.9 889.4,334.9 C888.6,334.9 887.8,334.9 887,335 C867.4,335.6 850.5,347.7 842.3,365.1 C841,367.9 838.1,369.5 835.2,369.3 C834.1,369.2 832.9,369.1 831.7,369.1 C812.3,369.1 796.3,384 793.5,403.5 L793.1,403.5 C787.2,403.5 781.9,406.4 778.5,410.9 C776.7,413.2 778.4,416.7 781.2,416.7 C781.2,416.7 988.2,416.8 988.2,416.7 L988.6,416.7 L988.3,416.5 C988.9,415.7 989.4,414.8 989.8,413.8 C992.4,407.1 989.2,399.7 982.7,397.1 L982.7,397.1 Z" id="Path" fill="url(#linearGradient-4)"></path>
                <path d="M1459.6,628.9 L949.3,628.9 C946.3,628.9 943.8,626.4 943.8,623.4 C943.8,620.4 946.3,617.9 949.3,617.9 L1459.6,617.9 C1462.6,617.9 1465.1,620.4 1465.1,623.4 C1465.1,626.5 1462.6,628.9 1459.6,628.9 Z M966,678.9 L853.4,678.9 C852.7,678.9 852.2,677.1 852.2,674.9 C852.2,672.7 852.7,670.9 853.4,670.9 L966,670.9 C966.7,670.9 967.2,672.7 967.2,674.9 C967.2,677.2 966.7,678.9 966,678.9 Z M868.2,646.5 L725,646.5 C724.1,646.5 723.5,645.4 723.5,644 C723.5,642.6 724.2,641.5 725,641.5 L868.2,641.5 C869.1,641.5 869.7,642.6 869.7,644 C869.8,645.4 869.1,646.5 868.2,646.5 Z" id="Shape" fill="#14001F" opacity="0.1"></path>
                <path d="M1374.8,584.5 L1360.5,584.5 C1357.4,584.5 1355.9,588.2 1358,590.4 L1387.7,625.1 C1388.3,625.7 1389.1,625.5 1389.8,625.5 L1390.2,625.5 C1394.8,625.5 1397.8,620.6 1395.5,616.6 C1388.2,604 1380,589.9 1377.7,586.1 C1377.1,585.1 1376,584.5 1374.8,584.5 Z" id="Path" fill="#B989D0"></path>
                <path d="M1369.1,584.5 L1354.8,584.5 C1351.7,584.5 1350.2,588.2 1352.3,590.4 L1386.4,624.5 C1389.3,627.4 1393.9,623.8 1391.9,620.3 C1384.1,606.7 1375.1,591.2 1372,586.1 C1371.4,585.1 1370.3,584.5 1369.1,584.5 L1369.1,584.5 Z" id="Path" fill="#C299D6"></path>
                <path d="M1042.2,584.3 L1027.9,584.3 C1026.7,584.3 1025.6,584.9 1024.9,586 C1021.9,591 1012.9,606.6 1005,620.2 C1003.7,622.5 1000.3,624 1002.3,624 C1002.3,624 1002.8,625.4 1002.9,625.4 L1004.8,625.4 C1007.9,625.3 1010.9,624 1013.1,621.8 L1044.6,590.3 C1046.9,588 1045.3,584.3 1042.2,584.3 L1042.2,584.3 Z" id="Path" fill="#B989D0"></path>
                <path d="M1022.9,584.3 L1037.2,584.3 C1040.3,584.3 1041.8,588 1039.7,590.2 L1005.6,624.3 C1002.7,627.2 998.1,623.6 1000.1,620.1 C1007.9,606.5 1016.9,591 1020,585.9 C1020.5,584.9 1021.7,584.3 1022.9,584.3 L1022.9,584.3 Z" id="Path" fill="#C299D6"></path>
                <path d="M1365.6,603.7 L1351.5,589.4 L1378.7,590 C1378.7,590 1375.9,590.1 1374.8,590.2 C1361.1,591.5 1365,602.3 1365.6,603.7 L1365.6,603.7 Z M1009.5,603.7 L1017.8,589.4 L1043.1,590.1 C1043.1,590.1 1039,590.8 1037.7,590.9 C1022.1,592.2 1011.1,602.3 1009.5,603.7 L1009.5,603.7 Z" id="Shape" fill="#B989D0"></path>
                <path d="M1435.6,275.8 L1078.8,275.8 L1078.8,590 L1435.6,590 C1448.4,590 1458.8,579.6 1458.8,566.8 L1458.8,299 C1458.7,286.2 1448.4,275.8 1435.6,275.8 Z" id="Path" fill="#791FA5"></path>
                <path d="M1423.8,283 L959,283 C950.2,283 943.1,290.1 943.1,298.9 L943.1,566.8 C943.1,575.6 950.2,582.7 959,582.7 L1423.7,582.7 C1432.5,582.7 1439.60104,575.6 1439.60104,566.8 L1439.60104,299 C1439.7,290.2 1432.6,283 1423.8,283 L1423.8,283 Z" id="Path" fill="#321A4C"></path>
                <path d="M1423.8,275.8 L959,275.8 C946.2,275.8 935.8,286.2 935.8,299 L935.8,566.9 C935.8,579.7 946.2,590.1 959,590.1 L1423.7,590.1 C1436.5,590.1 1446.9,579.7 1446.9,566.9 L1446.9,299 C1446.9,286.2 1436.5,275.8 1423.8,275.8 L1423.8,275.8 Z M1433.1,562.6 C1433.1,567.4 1429.2,571.3 1424.4,571.3 L959,571.3 C954.2,571.3 950.3,567.4 950.3,562.6 L950.3,299 C950.3,294.2 954.2,290.3 959,290.3 L1424.4,290.3 C1429.2,290.3 1433.1,294.2 1433.1,299 L1433.1,562.6 L1433.1,562.6 Z" id="Shape" fill="#8533AD"></path>
                <path d="M1202.7,583.7 L1180,583.7 C1178.8,583.7 1177.8,582.7 1177.8,581.5 C1177.8,580.3 1178.8,579.3 1180,579.3 L1202.7,579.3 C1203.9,579.3 1204.9,580.3 1204.9,581.5 C1205,582.7 1204,583.7 1202.7,583.7 Z M1452.8,399.3 C1451.8,399.3 1451.1,398.5 1451.1,397.6 L1451.1,387.1 C1451.1,386.1 1451.9,385.4 1452.8,385.4 C1453.8,385.4 1454.5,386.2 1454.5,387.1 L1454.5,397.6 C1454.6,398.5 1453.8,399.3 1452.8,399.3 Z M1452.8,380.1 C1451.8,380.1 1451.1,379.3 1451.1,378.4 L1451.1,367.9 C1451.1,366.9 1451.9,366.2 1452.8,366.2 C1453.8,366.2 1454.5,367 1454.5,367.9 L1454.5,378.4 C1454.6,379.3 1453.8,380.1 1452.8,380.1 Z" id="Shape" fill="#461E5F"></path>
                <path d="M1424.4,573.8 L959,573.8 C952.8,573.8 947.8,568.8 947.8,562.6 L947.8,299 C947.8,292.8 952.8,287.8 959,287.8 L1424.4,287.8 C1430.6,287.8 1435.6,292.8 1435.6,299 L1435.6,562.6 C1435.6,568.7 1430.6,573.8 1424.4,573.8 L1424.4,573.8 Z M959,292.7 C955.6,292.7 952.8,295.5 952.8,298.9 L952.8,562.5 C952.8,565.9 955.6,568.7 959,568.7 L1424.4,568.7 C1427.8,568.7 1430.6,565.9 1430.6,562.5 L1430.6,299 C1430.6,295.6 1427.8,292.8 1424.4,292.8 L959,292.8 L959,292.7 Z" id="Shape" fill="#321A4C"></path>
                <path d="M1196.8,343.5 C1146.8,343.5 1106.2,384.1 1106.2,434.1 C1106.2,484.1 1146.8,524.7 1196.8,524.7 C1246.8,524.7 1287.4,484.1 1287.4,434.1 C1287.4,384.1 1246.7,343.5 1196.8,343.5 Z M1276,403.4 C1268.9,394.6 1259,386.9 1247,381.5 C1241.6,370.4 1234.5,361.1 1226.3,354.5 C1249,362.8 1267.2,380.7 1276,403.4 Z M1251.3,414.5 C1241.6,412.8 1230.6,411.4 1218.9,410.8 C1218,398.9 1216.9,387.8 1214.9,377.9 C1224.8,379.3 1234.2,382.2 1242.7,385.8 C1246.7,394.3 1249.6,404 1251.3,414.5 L1251.3,414.5 Z M1250.4,389.5 C1266,398 1276.8,410.2 1280.5,424.1 C1275.1,420.7 1267.2,417.9 1257.2,415.6 C1255.8,406.3 1253.5,397.5 1250.4,389.5 Z M1252.7,434.1 C1252.7,438.6 1252.4,443.2 1251.8,447.7 C1242.7,449.4 1231.6,451.1 1218.9,451.7 C1219.2,445.7 1219.2,439.8 1219.2,434.1 C1219.2,428.1 1219.2,422.2 1218.9,416.5 C1231.7,417.4 1242.7,418.8 1251.8,420.5 C1252.7,425 1252.7,429.5 1252.7,434.1 Z M1196.8,452.5 C1190.8,452.5 1185.4,452.5 1180,452.2 C1179.7,446.5 1179.4,440.6 1179.4,434 C1179.4,427.8 1179.7,421.8 1180,415.8 C1185.4,415.5 1190.8,415.5 1196.8,415.5 C1202.8,415.5 1208.2,415.5 1213.6,415.8 C1213.9,421.5 1214.2,427.4 1214.2,434 C1214.2,440.2 1213.9,446.2 1213.6,452.2 C1208.1,452.2 1202.7,452.5 1196.8,452.5 Z M1213.2,457.9 C1212.3,471 1210.9,482 1208.9,491.1 C1204.9,491.4 1201,491.7 1196.7,491.7 C1192.4,491.7 1188.5,491.4 1184.5,491.1 C1182.8,482 1181.1,470.7 1180.2,457.9 C1185.6,458.2 1191,458.2 1196.7,458.2 C1202.4,458.2 1207.8,457.9 1213.2,457.9 Z M1140.8,434.1 C1140.8,429.6 1141.1,425 1141.7,420.5 C1150.8,418.8 1161.9,417.1 1174.6,416.5 C1174.3,422.5 1174.3,428.4 1174.3,434.1 C1174.3,440.1 1174.3,446 1174.6,451.7 C1161.8,450.8 1150.8,449.4 1141.7,447.7 C1141.1,443.2 1140.8,438.6 1140.8,434.1 Z M1180.3,410.2 C1181.2,397.1 1182.6,386.1 1184.6,377 C1188.6,376.7 1192.5,376.4 1196.8,376.4 C1201.1,376.4 1205,376.7 1209,377 C1210.7,386.1 1212.4,397.4 1213.3,410.2 C1207.9,409.9 1202.5,409.9 1196.8,409.9 C1191.1,409.9 1185.7,410.2 1180.3,410.2 Z M1213.8,371.9 C1211.8,362.8 1209.3,355.4 1206.1,350.3 C1219.2,353.7 1230.5,363.6 1238.7,378.1 C1231.1,375.3 1222.6,373 1213.8,371.9 L1213.8,371.9 Z M1207.8,371.3 C1204.1,371 1200.4,370.7 1196.7,370.7 C1193,370.7 1189.3,371 1185.6,371.3 C1189,357.1 1193.3,349.2 1196.7,349.2 C1200.1,349.2 1204.4,357.1 1207.8,371.3 Z M1179.7,371.9 C1170.9,373 1162.4,375.3 1154.7,378.1 C1162.9,363.6 1174.6,353.7 1187.3,350.3 C1184.3,355.4 1181.7,362.8 1179.7,371.9 Z M1178.6,377.9 C1176.9,387.8 1175.5,398.9 1174.6,410.8 C1163,411.7 1151.9,412.8 1142.2,414.5 C1143.9,404 1146.7,394.3 1150.7,385.8 C1159,382.1 1168.7,379.3 1178.6,377.9 Z M1136.3,415.6 C1126.4,417.9 1118.4,420.7 1113,424.1 C1116.7,410.2 1127.5,398 1143.1,389.5 C1140,397.5 1137.7,406.3 1136.3,415.6 Z M1135.7,421.9 C1135.4,425.9 1135.1,430.1 1135.1,434.4 C1135.1,438.7 1135.4,442.6 1135.7,446.9 C1120.4,443.2 1111.9,438.4 1111.9,434.4 C1111.9,430.4 1120.4,425.3 1135.7,421.9 Z M1136.3,452.5 C1137.7,461.9 1140,470.7 1143.1,478.6 C1127.5,470.1 1116.7,457.9 1113,444 C1118.4,447.4 1126.6,450.3 1136.3,452.5 Z M1142.2,453.7 C1151.9,455.4 1162.9,456.8 1174.6,457.4 C1175.5,469.3 1176.6,480.4 1178.6,490.3 C1168.7,488.9 1159.3,486 1150.8,482.4 C1146.8,473.8 1144,464.2 1142.2,453.7 L1142.2,453.7 Z M1179.7,496.3 C1181.7,505.4 1184.2,512.8 1187.4,517.9 C1174.3,514.5 1163,504.6 1154.8,490.1 C1162.4,493.1 1170.9,495.1 1179.7,496.3 L1179.7,496.3 Z M1185.7,496.8 C1189.4,497.1 1193.1,497.4 1196.8,497.4 C1200.5,497.4 1204.2,497.1 1207.9,496.8 C1204.5,511 1200.2,518.9 1196.8,518.9 C1193.4,518.9 1189.1,511 1185.7,496.8 Z M1213.8,496.3 C1222.6,495.2 1231.1,492.9 1238.8,490.1 C1230.6,504.6 1218.9,514.5 1206.2,517.9 C1209.3,512.7 1211.8,505.3 1213.8,496.3 Z M1214.9,490.3 C1216.6,480.4 1218,469.3 1218.9,457.4 C1230.5,456.5 1241.6,455.4 1251.3,453.7 C1249.6,464.2 1246.8,473.9 1242.8,482.7 C1234.5,486.3 1225.1,488.9 1214.9,490.3 L1214.9,490.3 Z M1257.2,452.5 C1267.1,450.2 1275.1,447.4 1280.5,444 C1276.8,457.9 1266,470.1 1250.4,478.6 C1253.5,470.7 1255.8,461.9 1257.2,452.5 Z M1257.8,446.6 C1258.1,442.6 1258.4,438.4 1258.4,434.1 C1258.4,429.8 1258.1,425.9 1257.8,421.6 C1273.1,425.3 1281.6,430.1 1281.6,434.1 C1281.6,438.1 1273.1,442.9 1257.8,446.6 Z M1167.5,354.3 C1159.3,360.8 1152.2,370.2 1146.8,381.3 C1134.9,387 1124.9,394.4 1117.8,403.2 C1126.4,380.7 1144.5,362.8 1167.5,354.3 Z M1117.6,464.7 C1124.7,473.5 1134.6,481.2 1146.6,486.6 C1152,497.7 1159.1,507 1167.3,513.6 C1144.5,505.3 1126.4,487.4 1117.6,464.7 Z M1226,513.9 C1234.2,507.4 1241.3,498 1246.7,486.9 C1258.6,481.2 1268.6,473.8 1275.7,465 C1267.2,487.4 1249,505.3 1226,513.9 Z" id="Shape" fill="#461E5F"></path>
                <g id="Group" transform="translate(721.000000, 534.000000)">
                    <path d="M1.5,108.9 C21.8,109.4 118.2,108.8 141.5,108.7 C142.2,108.7 142.3,107.7 141.6,107.5 L118.6,102.3 L22.8,102.3 L1.3,107.7 C0.7,107.9 0.8,108.9 1.5,108.9 L1.5,108.9 Z" id="Path" fill="#660099"></path>
                    <path d="M129.8,0.8 L21.2,0.8 C13,0.8 6.3,7.5 6.3,15.7 L6.3,93.6 C6.3,101.8 13,108.5 21.2,108.5 L129.7,108.5 C137.9,108.5 144.601105,101.8 144.601105,93.6 L144.601105,15.7 C144.7,7.5 138,0.8 129.8,0.8 L129.8,0.8 Z" id="Path" fill="#660099"></path>
                    <path d="M12.6,108.9 C32.9,109.4 129.3,108.8 152.6,108.7 C153.3,108.7 153.4,107.7 152.7,107.5 L129.7,102.3 L33.9,102.3 L12.4,107.7 C11.9,107.9 12,108.9 12.6,108.9 L12.6,108.9 Z" id="Path" fill="#8533AD"></path>
                    <path d="M139.5,0.8 L30.9,0.8 C22.7,0.8 16,7.5 16,15.7 L16,93.6 C16,101.8 22.7,108.5 30.9,108.5 L139.4,108.5 C147.6,108.5 154.301105,101.8 154.301105,93.6 L154.301105,15.7 C154.4,7.5 147.7,0.8 139.5,0.8 Z" id="Path" fill="#461E5F"></path>
                    <path d="M120.4,82.1 C120.5,82.3 120.5,82.5 120.4,82.6 L120.4,82.7 L117.8,87.3 L117.5,87.6 C117.4,87.7 117.2,87.7 117.1,87.7 L116.5,87.7 C116.3,87.7 116.2,87.6 116.1,87.6 L115.8,87.3 L113.2,82.7 L113.2,82.6 C113.1,82.4 113.1,82.3 113.2,82.1 C113.3,81.9 113.4,81.8 113.6,81.7 L114.3,81.4 C114.5,81.3 114.7,81.3 114.9,81.4 C115.1,81.5 115.2,81.6 115.3,81.8 L116.9,85 L118.5,81.8 C118.6,81.6 118.7,81.5 118.9,81.4 C119.1,81.3 119.3,81.3 119.5,81.4 L120.2,81.7 C120.2,81.8 120.3,82 120.4,82.1 L120.4,82.1 Z M123.6,79.6 C123.6,79.8 123.6,79.9 123.5,80.1 C123.4,80.3 123.3,80.4 123.2,80.5 C123.1,80.6 123,80.7 122.8,80.8 C122.6,80.9 122.5,80.9 122.3,80.9 C122.1,80.9 122,80.9 121.8,80.8 C121.6,80.7 121.5,80.6 121.4,80.5 C121.3,80.4 121.2,80.3 121.1,80.1 C121,79.9 121,79.8 121,79.6 C121,79.4 121,79.3 121.1,79.1 C121.2,78.9 121.3,78.8 121.4,78.7 C121.5,78.6 121.6,78.5 121.8,78.4 C122,78.3 122.1,78.3 122.3,78.3 C122.5,78.3 122.6,78.3 122.8,78.4 C123,78.5 123.1,78.6 123.2,78.7 C123.3,78.8 123.4,78.9 123.5,79.1 C123.6,79.3 123.6,79.4 123.6,79.6 Z M122.7,81.5 C122.9,81.5 123.1,81.6 123.2,81.7 C123.4,81.9 123.4,82 123.4,82.2 L123.4,86.9 C123.4,87.1 123.3,87.3 123.2,87.4 C123,87.6 122.9,87.6 122.7,87.6 L122,87.6 C121.8,87.6 121.6,87.5 121.5,87.4 C121.3,87.2 121.3,87.1 121.3,86.9 L121.3,82.2 C121.3,82 121.4,81.8 121.5,81.7 C121.7,81.5 121.8,81.5 122,81.5 L122.7,81.5 Z M131.6,82.1 C131.7,82.3 131.7,82.5 131.6,82.6 L131.6,82.7 L129,87.3 L128.7,87.6 C128.6,87.7 128.4,87.7 128.3,87.7 L127.7,87.7 C127.5,87.7 127.4,87.6 127.3,87.6 L127,87.3 L124.4,82.7 L124.4,82.6 C124.3,82.4 124.3,82.3 124.4,82.1 C124.5,81.9 124.6,81.8 124.8,81.7 L125.5,81.4 C125.7,81.3 125.9,81.3 126.1,81.4 C126.3,81.5 126.4,81.6 126.5,81.8 L128.1,85 L129.7,81.8 C129.8,81.6 129.9,81.5 130.1,81.4 C130.3,81.3 130.5,81.3 130.7,81.4 L131.4,81.7 C131.4,81.8 131.5,82 131.6,82.1 L131.6,82.1 Z" id="Shape" fill="#8533AD"></path>
                    <path d="M135.3,81.4 C135.7,81.4 136.2,81.5 136.5,81.7 C136.9,81.9 137.2,82.1 137.5,82.4 C137.8,82.7 138,83 138.2,83.4 C138.4,83.8 138.5,84.2 138.5,84.6 C138.5,85 138.4,85.5 138.2,85.8 C138,86.2 137.8,86.5 137.5,86.8 C137.2,87.1 136.9,87.3 136.5,87.5 C136.1,87.7 135.7,87.8 135.3,87.8 C134.9,87.8 134.4,87.7 134.1,87.5 C133.7,87.3 133.4,87.1 133.1,86.8 C132.8,86.5 132.6,86.2 132.4,85.8 C132.2,85.4 132.1,85 132.1,84.6 C132.1,84.2 132.2,83.7 132.4,83.4 C132.6,83 132.8,82.7 133.1,82.4 C133.4,82.1 133.7,81.9 134.1,81.7 C134.4,81.5 134.9,81.4 135.3,81.4 Z M135.3,85.9 C135.5,85.9 135.6,85.9 135.8,85.8 C136,85.7 136.1,85.6 136.2,85.5 C136.3,85.4 136.4,85.3 136.5,85.1 C136.6,84.9 136.6,84.8 136.6,84.6 C136.6,84.4 136.6,84.3 136.5,84.1 C136.4,83.9 136.3,83.8 136.2,83.7 C136.1,83.6 136,83.5 135.8,83.4 C135.6,83.3 135.5,83.3 135.3,83.3 C135.1,83.3 135,83.3 134.8,83.4 C134.6,83.5 134.5,83.6 134.4,83.7 C134.3,83.8 134.2,83.9 134.1,84.1 C134,84.3 134,84.4 134,84.6 C134,84.8 134,84.9 134.1,85.1 C134.2,85.3 134.3,85.4 134.4,85.5 C134.5,85.6 134.6,85.7 134.8,85.8 C135,85.8 135.1,85.9 135.3,85.9 Z M125.3,22.6 L46.7,22.6 C45.2,22.6 44,21.4 44,19.9 C44,18.4 45.2,17.2 46.7,17.2 L125.3,17.2 C126.8,17.2 128,18.4 128,19.9 C128,21.5 126.8,22.6 125.3,22.6 Z" id="Shape" fill="#660099"></path>
                    <circle id="Oval" fill="#B989D0" cx="88.6" cy="20" r="2.1"></circle>
                    <circle id="Oval" fill="#B989D0" cx="96.5" cy="20" r="2.1"></circle>
                    <circle id="Oval" fill="#B989D0" cx="104.5" cy="20" r="2.1"></circle>
                    <circle id="Oval" fill="#B989D0" cx="112.4" cy="20" r="2.1"></circle>
                    <circle id="Oval" fill="#B989D0" cx="120.4" cy="20" r="2.1"></circle>
                    <path d="M50,102.7 C49.4,102.7 49.4,103.5 50,103.6 C60.8,104.6 77.9,106 85.4,106.1 C91.9,106.1 109.6,104.6 120.6,103.6 C121.2,103.5 121.1,102.7 120.6,102.7 L50,102.7 Z" id="Path" fill="#660099"></path>
                    <path d="M96.5,15.7 C96,15.7 95.6,15.3 95.6,14.8 L95.6,11 C95.6,10.5 96,10.1 96.5,10.1 C97,10.1 97.4,10.5 97.4,11 L97.4,14.8 C97.4,15.3 97,15.7 96.5,15.7 L96.5,15.7 Z M104.5,15.7 C104,15.7 103.6,15.3 103.6,14.8 L103.6,11 C103.6,10.5 104,10.1 104.5,10.1 C105,10.1 105.4,10.5 105.4,11 L105.4,14.8 C105.3,15.3 105,15.7 104.5,15.7 L104.5,15.7 Z M112.4,15.7 C111.9,15.7 111.5,15.3 111.5,14.8 L111.5,11 C111.5,10.5 111.9,10.1 112.4,10.1 C112.9,10.1 113.3,10.5 113.3,11 L113.3,14.8 C113.3,15.3 112.9,15.7 112.4,15.7 L112.4,15.7 Z" id="Shape" fill="#B989D0"></path>
                    <path d="M120.4,15.7 C119.9,15.7 119.5,15.3 119.5,14.8 L119.5,11 C119.5,10.5 119.9,10.1 120.4,10.1 C120.9,10.1 121.3,10.5 121.3,11 L121.3,14.8 C121.3,15.3 120.9,15.7 120.4,15.7 L120.4,15.7 Z" id="Path" fill="#B989D0"></path>
                    <g transform="translate(86.000000, 9.000000)" fill="#B989D0" id="Path">
                        <path d="M2.6,3.4 C2.3,3.4 2.1,3.2 2.1,2.9 L2.1,1.3 C2.1,1 2.3,0.8 2.6,0.8 C2.9,0.8 3.1,1 3.1,1.3 L3.1,2.9 C3.1,3.1 2.8,3.4 2.6,3.4 Z"></path>
                        <path d="M2.6,6.4 C1.1,6.4 0,5.2 0,3.8 C0,3.1 0.3,2.4 0.8,1.9 C1,1.7 1.3,1.7 1.5,1.9 C1.7,2.1 1.7,2.4 1.5,2.6 C1.2,2.9 1,3.3 1,3.8 C1,4.7 1.7,5.4 2.6,5.4 C3.5,5.4 4.2,4.7 4.2,3.8 C4.2,3.4 4,3 3.7,2.6 C3.5,2.4 3.5,2.1 3.7,1.9 C3.9,1.7 4.2,1.7 4.4,1.9 C4.9,2.4 5.2,3.1 5.2,3.8 C5.2,5.2 4,6.4 2.6,6.4 Z"></path>
                    </g>
                    <g transform="translate(25.000000, 79.000000)" fill="#8533AD">
                        <path d="M24.5,0.8 C24.7,0.7 24.9,0.7 25.2,0.8 L25.3,0.8 L31.1,4.1 C31.3,4.2 31.4,4.3 31.5,4.5 C31.6,4.7 31.7,4.8 31.7,5 L31.7,5.8 C31.7,6 31.6,6.2 31.5,6.3 C31.4,6.5 31.3,6.6 31.1,6.7 L25.3,10 L25.2,10 C25,10.1 24.8,10.1 24.5,10 C24.3,9.9 24.1,9.8 24,9.5 L23.6,8.6 C23.5,8.4 23.5,8.1 23.6,7.9 C23.7,7.7 23.9,7.5 24.1,7.4 L28.2,5.4 L24.1,3.4 C23.9,3.3 23.7,3.1 23.6,2.9 C23.5,2.7 23.5,2.4 23.6,2.2 L24,1.3 C24.1,1 24.3,0.8 24.5,0.8 L24.5,0.8 Z" id="Path"></path>
                        <path d="M17.6,0.8 C17.8,0.7 18,0.7 18.3,0.8 L18.4,0.8 L24.2,4.1 C24.4,4.2 24.5,4.3 24.6,4.5 C24.7,4.7 24.8,4.8 24.8,5 L24.8,5.8 C24.8,6 24.7,6.2 24.6,6.3 C24.5,6.5 24.4,6.6 24.2,6.7 L18.4,10 L18.3,10 C18.1,10.1 17.9,10.1 17.6,10 C17.4,9.9 17.2,9.8 17.1,9.5 L16.7,8.6 C16.6,8.4 16.6,8.1 16.7,7.9 C16.8,7.7 17,7.5 17.2,7.4 L21.3,5.4 L17.2,3.4 C17,3.3 16.8,3.1 16.7,2.9 C16.6,2.7 16.6,2.4 16.7,2.2 L17.1,1.3 C17.2,1 17.3,0.8 17.6,0.8 L17.6,0.8 Z M11.6,10.5 C10,10.5 8.8,10.1 7.9,9.2 C7.6,8.9 7.3,8.5 7.1,8.1 L6.7,8.1 L6.7,9.8 C6.7,10.2 6.4,10.5 6,10.5 L5.2,10.5 C4.8,10.5 4.5,10.2 4.5,9.8 L4.5,8 L1.2,8 C0.8,8 0.5,7.7 0.5,7.3 L0.5,6.7 C0.5,6.6 0.5,6.4 0.6,6.3 L4.4,0.9 C4.5,0.7 4.7,0.6 5,0.6 L6,0.6 C6.4,0.6 6.7,0.9 6.7,1.3 L6.7,3.7 C6.9,2.9 7.4,2.2 7.9,1.6 C8.9,0.6 10.2,0.1 11.8,0.1 C12.6,0.1 13.5,0.2 14.1,0.5 C14.4,0.6 14.6,1 14.5,1.4 L14.3,2 C14.2,2.2 14.1,2.3 13.9,2.4 C13.7,2.5 13.5,2.5 13.3,2.4 C12.9,2.2 12.3,2.1 11.7,2.1 C9.8,2.1 8.7,3.2 8.7,5.2 C8.7,7.1 9.8,8.3 11.6,8.3 C12.1,8.3 12.4,8.3 12.6,8.2 L12.6,6.5 L11.5,6.5 C11.1,6.5 10.8,6.2 10.8,5.8 L10.8,5.2 C10.8,4.8 11.1,4.5 11.5,4.5 L14.1,4.5 C14.5,4.5 14.8,4.8 14.8,5.2 L14.8,9.2 C14.8,9.5 14.6,9.8 14.3,9.9 C14,10.2 12.9,10.5 11.6,10.5 L11.6,10.5 Z M3.2,6 L4.4,6 L4.4,4.3 L3.2,6 Z" id="Shape"></path>
                    </g>
                </g>
                <path d="M892.4,450.7 L887,455.5 C886.2,456.2 885,456.3 884.1,455.7 C882.5,454.7 880.9,453.9 879.1,453.3 C878.1,452.9 877.4,451.9 877.4,450.8 L877.8,443.7 C877.9,442.4 876.9,441.2 875.5,441.1 L869.1,440.7 C867.8,440.6 866.6,441.6 866.5,443 L866.1,450.1 C866,451.2 865.2,452.1 864.2,452.4 C862.4,452.8 860.7,453.4 859,454.2 C858,454.7 856.9,454.4 856.2,453.6 L851.4,448.2 C850.5,447.2 849,447.1 848,448 L843.2,452.3 C842.2,453.2 842.1,454.7 843,455.7 L847.8,461.1 C848.5,461.9 848.6,463.1 848,464 C847,465.6 846.2,467.2 845.6,469 C845.2,470 844.2,470.7 843.1,470.7 L836,470.3 C834.7,470.2 833.5,471.2 833.4,472.6 L833,479 C832.9,480.3 833.9,481.5 835.3,481.6 L842.4,482 C843.5,482.1 844.4,482.9 844.7,483.9 C845.1,485.7 845.7,487.4 846.5,489.1 C847,490.1 846.7,491.2 845.9,491.9 L840.5,496.7 C839.5,497.6 839.4,499.1 840.3,500.1 L844.6,504.9 C845.5,505.9 847,506 848,505.1 L853.4,500.3 C854.2,499.6 855.4,499.5 856.3,500.1 C857.9,501.1 859.5,501.9 861.3,502.5 C862.3,502.9 863,503.9 863,505 L862.6,512.1 C862.5,513.4 863.5,514.6 864.9,514.7 L871.3,515.1 C872.6,515.2 873.8,514.2 873.9,512.8 L874.3,505.7 C874.4,504.6 875.2,503.7 876.2,503.4 C878,503 879.7,502.4 881.4,501.6 C882.4,501.1 883.5,501.4 884.2,502.2 L889,507.6 C889.9,508.6 891.4,508.7 892.4,507.8 L897.2,503.5 C898.2,502.6 898.3,501.1 897.4,500.1 L892.6,494.7 C891.9,493.9 891.8,492.7 892.4,491.8 C893.4,490.2 894.2,488.6 894.8,486.8 C895.2,485.8 896.2,485.1 897.3,485.1 L904.4,485.5 C905.7,485.6 906.9,484.6 907,483.2 L907.4,476.8 C907.5,475.5 906.5,474.3 905.1,474.2 L898,473.8 C896.9,473.7 896,472.9 895.7,471.9 C895.3,470.1 894.7,468.4 893.9,466.7 C893.4,465.7 893.7,464.6 894.5,463.9 L899.9,459.1 C900.9,458.2 901,456.7 900.1,455.7 L895.8,450.9 C894.9,449.9 893.4,449.8 892.4,450.7 Z M878.6,487.3 C873.4,491.9 865.5,491.4 860.9,486.2 C856.3,481 856.8,473.1 862,468.5 C867.2,463.9 875.1,464.4 879.7,469.6 C884.2,474.8 883.7,482.7 878.6,487.3 Z" id="Shape" fill="#00ABDB"></path>
                <g id="Group" transform="translate(849.000000, 457.000000)">
                    <path d="M87.5,104.6 L32.4,104.6 C14.8,104.6 0.5,118.9 0.5,136.5 L0.5,185.6 C0.5,203.2 14.8,217.5 32.4,217.5 L87.5,217.5 C105.1,217.5 119.400521,203.2 119.400521,185.6 L119.400521,136.5 C119.5,118.9 105.2,104.6 87.5,104.6 Z" id="Path" fill="#660097"></path>
                    <path d="M87.5,91.7 L32.4,91.7 C14.8,91.7 0.5,106 0.5,123.6 L0.5,172.7 C0.5,190.3 14.8,204.6 32.4,204.6 L87.5,204.6 C105.1,204.6 119.400521,190.3 119.400521,172.7 L119.400521,123.6 C119.5,106 105.2,91.7 87.5,91.7 Z" id="Path" fill="#8533AD"></path>
                    <path d="M70.3,176.300939 C80,176.300939 88,168.5 88,158.8 L88,141.5 C88,129.2 88.1,45.7 88.1,35.1 L88.1,17.8 C88.1,8.1 80,0.2 70.3,0.299060981 L49.7,0.299060981 C40,0.299060981 31.9,8.1 31.9,17.8 L31.9,35.1 C31.9,45.7 32,129.2 32,141.5 L32,158.8 C32,168.5 40,176.4 49.7,176.300939 L70.3,176.300939 L70.3,176.300939 Z" id="Path" fill="#660097"></path>
                    <circle id="Oval" fill="#461E5F" cx="63" cy="16.1" r="1"></circle>
                    <circle id="Oval" fill="#461E5F" cx="60" cy="16.1" r="1"></circle>
                    <circle id="Oval" fill="#461E5F" cx="57" cy="16.1" r="1"></circle>
                    <circle id="Oval" fill="#461E5F" cx="63" cy="160.6" r="1"></circle>
                    <circle id="Oval" fill="#461E5F" cx="60" cy="160.6" r="1"></circle>
                    <circle id="Oval" fill="#461E5F" cx="57" cy="160.6" r="1"></circle>
                    <path d="M63.5,166.1 L56.8,166.1 C56.4,166.1 56.1,165.8 56.1,165.4 C56.1,165 56.4,164.7 56.8,164.7 L63.5,164.7 C65.2,164.7 66.6,163.3 66.6,161.6 C66.6,161.2 66.9,160.9 67.3,160.9 C67.7,160.9 68,161.2 68,161.6 C68.1,164 66.1,166.1 63.5,166.1 L63.5,166.1 Z" id="Path" fill="#8432AB"></path>
                    <path d="M52.6,161 C52.2,161 51.9,160.7 51.9,160.3 C51.9,157.7 54,155.7 56.5,155.7 L63.2,155.7 C63.6,155.7 63.9,156 63.9,156.4 C63.9,156.8 63.6,157.1 63.2,157.1 L56.5,157.1 C54.8,157.1 53.4,158.5 53.4,160.2 C53.3,160.7 53,161 52.6,161 Z" id="Path" fill="#55057F"></path>
                    <path d="M40,63.6 L79.9,63.6 C81.8,63.6 83.4,62 83.4,60.1 L83.4,35.1 C83.4,33.2 81.8,31.6 79.9,31.6 L40,31.6 C38.1,31.6 36.5,33.2 36.5,35.1 L36.5,60.1 C36.5,62 38.1,63.6 40,63.6 Z" id="Path" fill="#B787CE"></path>
                    <path d="M53.8,46.5 C53.9,46.7 53.9,46.9 53.8,47.1 L53.8,47.2 L50.9,52.4 C50.8,52.6 50.7,52.7 50.6,52.8 C50.5,52.9 50.3,52.9 50.1,52.9 L49.4,52.9 C49.2,52.9 49.1,52.8 48.9,52.8 C48.8,52.7 48.6,52.6 48.6,52.4 L45.7,47.2 L45.7,47.1 C45.6,46.9 45.6,46.7 45.7,46.5 C45.8,46.3 45.9,46.2 46.1,46.1 L46.9,45.8 C47.1,45.7 47.3,45.7 47.5,45.8 C47.7,45.9 47.9,46 48,46.3 L49.8,50 L51.6,46.3 C51.7,46.1 51.8,45.9 52.1,45.8 C52.3,45.7 52.5,45.7 52.7,45.8 L53.5,46.1 C53.6,46.2 53.8,46.3 53.8,46.5 L53.8,46.5 Z M57.5,43.6 C57.5,43.8 57.5,44 57.4,44.2 C57.3,44.4 57.2,44.5 57.1,44.7 C57,44.8 56.8,44.9 56.6,45 C56.4,45.1 56.2,45.1 56,45.1 C55.8,45.1 55.6,45.1 55.4,45 C55.2,44.9 55.1,44.8 54.9,44.7 C54.8,44.6 54.7,44.4 54.6,44.2 C54.5,44 54.5,43.8 54.5,43.6 C54.5,43.4 54.5,43.2 54.6,43 C54.7,42.8 54.8,42.7 54.9,42.5 C55,42.4 55.2,42.3 55.4,42.2 C55.6,42.1 55.8,42.1 56,42.1 C56.2,42.1 56.4,42.1 56.6,42.2 C56.8,42.3 56.9,42.4 57.1,42.5 C57.2,42.6 57.3,42.8 57.4,43 C57.5,43.3 57.5,43.4 57.5,43.6 Z M56.5,45.8 C56.7,45.8 56.9,45.9 57.1,46.1 C57.3,46.3 57.4,46.5 57.4,46.7 L57.4,52.1 C57.4,52.3 57.3,52.5 57.1,52.7 C56.9,52.9 56.7,53 56.5,53 L55.8,53 C55.6,53 55.4,52.9 55.2,52.7 C55,52.5 54.9,52.3 54.9,52.1 L54.9,46.7 C54.9,46.5 55,46.3 55.2,46.1 C55.4,45.9 55.6,45.8 55.8,45.8 L56.5,45.8 Z M66.6,46.5 C66.7,46.7 66.7,46.9 66.6,47.1 L66.6,47.2 L63.7,52.4 C63.6,52.6 63.5,52.7 63.4,52.8 C63.3,52.9 63.1,52.9 62.9,52.9 L62.2,52.9 C62,52.9 61.9,52.8 61.7,52.8 C61.6,52.7 61.4,52.6 61.4,52.4 L58.5,47.2 L58.5,47.1 C58.4,46.9 58.4,46.7 58.5,46.5 C58.6,46.3 58.7,46.2 58.9,46.1 L59.7,45.8 C59.9,45.7 60.1,45.7 60.3,45.8 C60.5,45.9 60.7,46 60.8,46.3 L62.6,50 L64.4,46.3 C64.5,46.1 64.6,45.9 64.9,45.8 C65.1,45.7 65.3,45.7 65.5,45.8 L66.3,46.1 C66.4,46.2 66.6,46.3 66.6,46.5 L66.6,46.5 Z M70.8,45.7 C71.3,45.7 71.8,45.8 72.2,46 C72.6,46.2 73,46.4 73.4,46.8 C73.7,47.1 74,47.5 74.2,48 C74.4,48.4 74.5,48.9 74.5,49.4 C74.5,49.9 74.4,50.4 74.2,50.8 C74,51.2 73.8,51.6 73.4,52 C73.1,52.3 72.7,52.6 72.2,52.8 C71.8,53 71.3,53.1 70.8,53.1 C70.3,53.1 69.8,53 69.4,52.8 C69,52.6 68.6,52.4 68.2,52 C67.9,51.7 67.6,51.3 67.4,50.8 C67.2,50.4 67.1,49.9 67.1,49.4 C67.1,48.9 67.2,48.4 67.4,48 C67.6,47.6 67.8,47.2 68.2,46.8 C68.5,46.5 68.9,46.2 69.4,46 C69.8,45.8 70.3,45.7 70.8,45.7 Z M70.8,50.8 C71,50.8 71.2,50.8 71.4,50.7 C71.6,50.6 71.7,50.5 71.9,50.4 C72,50.3 72.1,50.1 72.2,49.9 C72.3,49.7 72.3,49.5 72.3,49.3 C72.3,49.1 72.3,48.9 72.2,48.7 C72.1,48.5 72,48.4 71.9,48.2 C71.8,48.1 71.6,48 71.4,47.9 C71.2,47.8 71,47.8 70.8,47.8 C70.6,47.8 70.4,47.8 70.2,47.9 C70,48 69.9,48.1 69.7,48.2 C69.6,48.3 69.5,48.5 69.4,48.7 C69.3,48.9 69.3,49.1 69.3,49.3 C69.3,49.5 69.3,49.7 69.4,49.9 C69.5,50.1 69.6,50.2 69.7,50.4 C69.8,50.5 70,50.6 70.2,50.7 C70.4,50.7 70.6,50.8 70.8,50.8 Z" id="Shape" fill="#8533AD"></path>
                    <polygon id="Path" fill="#55057F" points="32 158.8 26.4 92.2 32.4 91.7"></polygon>
                    <polygon id="Path" fill="#55057F" points="88.4 158.8 93.9 92.2 87.9 91.7"></polygon>
                    <path d="M21.7,220.3 L20.8,220.3 C19.4,220.3 18.2,219.4 17.8,218 L16.5,212.7 C16,210.8 17.5,208.9 19.5,208.9 L23.1,208.9 C25.1,208.9 26.5,210.8 26.1,212.7 L24.8,218 C24.3,219.4 23.1,220.3 21.7,220.3 L21.7,220.3 Z M99.1,220.3 L98.2,220.3 C96.8,220.3 95.6,219.4 95.2,218 L93.9,212.7 C93.4,210.8 94.9,208.9 96.9,208.9 L100.5,208.9 C102.5,208.9 103.9,210.8 103.5,212.7 L102.2,218 C101.8,219.4 100.5,220.3 99.1,220.3 L99.1,220.3 Z" id="Shape" fill="#660097"></path>
                    <g transform="translate(50.000000, 6.000000)" id="Path">
                        <path d="M10,19.9 C8.7,19.9 7.5,19.7 6.4,19.2 C6.1,19.1 5.9,18.7 6,18.4 C6.1,18.1 6.5,17.9 6.8,18 C7.8,18.4 8.9,18.6 10,18.6 C14.7,18.6 18.4,14.8 18.4,10.2 C18.4,9.1 18.2,8.1 17.8,7.2 C17.7,6.9 17.8,6.5 18.2,6.4 C18.5,6.3 18.9,6.4 19,6.8 C19.4,7.9 19.7,9.1 19.7,10.3 C19.7,15.5 15.3,19.9 10,19.9 L10,19.9 Z" fill="#8432AB"></path>
                        <path d="M1.5,13.9 C1.2,13.9 1,13.7 0.9,13.5 C0.5,12.4 0.3,11.3 0.3,10.1 C0.3,4.7 4.7,0.4 10,0.4 C11.2,0.4 12.3,0.6 13.4,1 C13.7,1.1 13.9,1.5 13.8,1.8 C13.7,2.1 13.3,2.3 13,2.2 C12.1,1.8 11.1,1.7 10.1,1.7 C5.4,1.7 1.7,5.5 1.7,10.1 C1.7,11.1 1.9,12.1 2.2,13 C2.3,13.3 2.2,13.7 1.8,13.8 C1.6,13.9 1.5,13.9 1.5,13.9 L1.5,13.9 Z" fill="#55057F"></path>
                    </g>
                    <path d="M46.2,191.2 L39.8,191.2 C38.8,191.2 38,190.4 38,189.4 C38,188.4 38.8,187.6 39.8,187.6 L46.2,187.6 C47.2,187.6 48,188.4 48,189.4 C47.9,190.4 47.1,191.2 46.2,191.2 Z M80.2,191.2 L73.8,191.2 C72.8,191.2 72,190.4 72,189.4 C72,188.4 72.8,187.6 73.8,187.6 L80.2,187.6 C81.2,187.6 82,188.4 82,189.4 C82,190.4 81.2,191.2 80.2,191.2 Z" id="Shape" fill="#B787CE"></path>
                    <g transform="translate(40.000000, 69.000000)" fill="#461E5F">
                        <path d="M6.4,25.5 L4.5,25.5 C2.1,25.5 0.1,23.5 0.1,21.1 C0.1,18.7 2.1,16.7 4.5,16.7 L6.4,16.7 C8.8,16.7 10.8,18.7 10.8,21.1 C10.8,23.5 8.8,25.5 6.4,25.5 Z M21,25.5 L19.1,25.5 C16.7,25.5 14.7,23.5 14.7,21.1 C14.7,18.7 16.7,16.7 19.1,16.7 L21,16.7 C23.4,16.7 25.4,18.7 25.4,21.1 C25.4,23.5 23.4,25.5 21,25.5 Z M35.5,25.5 L33.6,25.5 C31.2,25.5 29.2,23.5 29.2,21.1 C29.2,18.7 31.2,16.7 33.6,16.7 L35.5,16.7 C37.9,16.7 39.9,18.7 39.9,21.1 C39.9,23.5 38,25.5 35.5,25.5 Z M6.4,37.6 L4.5,37.6 C2.1,37.6 0.1,35.6 0.1,33.2 C0.1,30.8 2.1,28.8 4.5,28.8 L6.4,28.8 C8.8,28.8 10.8,30.8 10.8,33.2 C10.8,35.6 8.8,37.6 6.4,37.6 Z M21,37.6 L19.1,37.6 C16.7,37.6 14.7,35.6 14.7,33.2 C14.7,30.8 16.7,28.8 19.1,28.8 L21,28.8 C23.4,28.8 25.4,30.8 25.4,33.2 C25.4,35.6 23.4,37.6 21,37.6 Z M35.5,37.6 L33.6,37.6 C31.2,37.6 29.2,35.6 29.2,33.2 C29.2,30.8 31.2,28.8 33.6,28.8 L35.5,28.8 C37.9,28.8 39.9,30.8 39.9,33.2 C39.9,35.6 38,37.6 35.5,37.6 Z M6.4,49.7 L4.5,49.7 C2.1,49.7 0.1,47.7 0.1,45.3 C0.1,42.9 2.1,40.9 4.5,40.9 L6.4,40.9 C8.8,40.9 10.8,42.9 10.8,45.3 C10.8,47.7 8.8,49.7 6.4,49.7 Z M21,49.7 L19.1,49.7 C16.7,49.7 14.7,47.7 14.7,45.3 C14.7,42.9 16.7,40.9 19.1,40.9 L21,40.9 C23.4,40.9 25.4,42.9 25.4,45.3 C25.4,47.7 23.4,49.7 21,49.7 Z M35.5,49.7 L33.6,49.7 C31.2,49.7 29.2,47.7 29.2,45.3 C29.2,42.9 31.2,40.9 33.6,40.9 L35.5,40.9 C37.9,40.9 39.9,42.9 39.9,45.3 C39.9,47.7 38,49.7 35.5,49.7 Z M6.4,61.8 L4.5,61.8 C2.1,61.8 0.1,59.8 0.1,57.4 C0.1,55 2.1,53 4.5,53 L6.4,53 C8.8,53 10.8,55 10.8,57.4 C10.8,59.8 8.8,61.8 6.4,61.8 Z M21,61.8 L19.1,61.8 C16.7,61.8 14.7,59.8 14.7,57.4 C14.7,55 16.7,53 19.1,53 L21,53 C23.4,53 25.4,55 25.4,57.4 C25.4,59.8 23.4,61.8 21,61.8 Z M35.5,61.8 L33.6,61.8 C31.2,61.8 29.2,59.8 29.2,57.4 C29.2,55 31.2,53 33.6,53 L35.5,53 C37.9,53 39.9,55 39.9,57.4 C39.9,59.8 38,61.8 35.5,61.8 Z" id="Shape"></path>
                        <path d="M6.4,73.9 L4.5,73.9 C2.1,73.9 0.1,71.9 0.1,69.5 C0.1,67.1 2.1,65.1 4.5,65.1 L6.4,65.1 C8.8,65.1 10.8,67.1 10.8,69.5 C10.8,71.9 8.8,73.9 6.4,73.9 Z M21,73.9 L19.1,73.9 C16.7,73.9 14.7,71.9 14.7,69.5 C14.7,67.1 16.7,65.1 19.1,65.1 L21,65.1 C23.4,65.1 25.4,67.1 25.4,69.5 C25.4,71.9 23.4,73.9 21,73.9 Z M35.5,73.9 L33.6,73.9 C31.2,73.9 29.2,71.9 29.2,69.5 C29.2,67.1 31.2,65.1 33.6,65.1 L35.5,65.1 C37.9,65.1 39.9,67.1 39.9,69.5 C39.9,71.9 38,73.9 35.5,73.9 Z" id="Shape"></path>
                        <path d="M23.4,12.7 L16.6,12.7 C13.3,12.7 10.6,10 10.6,6.7 C10.6,3.4 13.3,0.7 16.6,0.7 L23.4,0.7 C26.7,0.7 29.4,3.4 29.4,6.7 C29.4,10.1 26.7,12.7 23.4,12.7 Z" id="Path"></path>
                        <path d="M5.7,5.3 L2.4,5.3 C1.2,5.3 0.1,4.3 0.1,3 C0.1,1.8 1.1,0.7 2.4,0.7 L5.7,0.7 C6.9,0.7 8,1.7 8,3 C7.9,4.3 6.9,5.3 5.7,5.3 Z" id="Path"></path>
                        <path d="M5.7,12.3 L2.4,12.3 C1.2,12.3 0.1,11.3 0.1,10 C0.1,8.8 1.1,7.7 2.4,7.7 L5.7,7.7 C6.9,7.7 8,8.7 8,10 C7.9,11.3 6.9,12.3 5.7,12.3 Z" id="Path"></path>
                        <path d="M37.6,5.3 L34.3,5.3 C33.1,5.3 32,4.3 32,3 C32,1.8 33,0.7 34.3,0.7 L37.6,0.7 C38.8,0.7 39.9,1.7 39.9,3 C39.9,4.3 38.8,5.3 37.6,5.3 Z" id="Path"></path>
                        <path d="M37.6,12.3 L34.3,12.3 C33.1,12.3 32,11.3 32,10 C32,8.8 33,7.7 34.3,7.7 L37.6,7.7 C38.8,7.7 39.9,8.7 39.9,10 C39.9,11.3 38.8,12.3 37.6,12.3 Z" id="Path"></path>
                    </g>
                    <g transform="translate(40.000000, 68.000000)" fill="#8432AB">
                        <path d="M6.4,25 L4.5,25 C2.1,25 0.1,23 0.1,20.6 C0.1,18.2 2.1,16.2 4.5,16.2 L6.4,16.2 C8.8,16.2 10.8,18.2 10.8,20.6 C10.8,23 8.8,25 6.4,25 Z M21,25 L19.1,25 C16.7,25 14.7,23 14.7,20.6 C14.7,18.2 16.7,16.2 19.1,16.2 L21,16.2 C23.4,16.2 25.4,18.2 25.4,20.6 C25.4,23 23.4,25 21,25 Z M35.5,25 L33.6,25 C31.2,25 29.2,23 29.2,20.6 C29.2,18.2 31.2,16.2 33.6,16.2 L35.5,16.2 C37.9,16.2 39.9,18.2 39.9,20.6 C39.9,23 38,25 35.5,25 Z M6.4,37.1 L4.5,37.1 C2.1,37.1 0.1,35.1 0.1,32.7 C0.1,30.3 2.1,28.3 4.5,28.3 L6.4,28.3 C8.8,28.3 10.8,30.3 10.8,32.7 C10.8,35.2 8.8,37.1 6.4,37.1 Z M21,37.1 L19.1,37.1 C16.7,37.1 14.7,35.1 14.7,32.7 C14.7,30.3 16.7,28.3 19.1,28.3 L21,28.3 C23.4,28.3 25.4,30.3 25.4,32.7 C25.4,35.2 23.4,37.1 21,37.1 Z M35.5,37.1 L33.6,37.1 C31.2,37.1 29.2,35.1 29.2,32.7 C29.2,30.3 31.2,28.3 33.6,28.3 L35.5,28.3 C37.9,28.3 39.9,30.3 39.9,32.7 C39.9,35.2 38,37.1 35.5,37.1 Z M6.4,49.2 L4.5,49.2 C2.1,49.2 0.1,47.2 0.1,44.8 C0.1,42.4 2.1,40.4 4.5,40.4 L6.4,40.4 C8.8,40.4 10.8,42.4 10.8,44.8 C10.8,47.3 8.8,49.2 6.4,49.2 Z M21,49.2 L19.1,49.2 C16.7,49.2 14.7,47.2 14.7,44.8 C14.7,42.4 16.7,40.4 19.1,40.4 L21,40.4 C23.4,40.4 25.4,42.4 25.4,44.8 C25.4,47.3 23.4,49.2 21,49.2 Z M35.5,49.2 L33.6,49.2 C31.2,49.2 29.2,47.2 29.2,44.8 C29.2,42.4 31.2,40.4 33.6,40.4 L35.5,40.4 C37.9,40.4 39.9,42.4 39.9,44.8 C39.9,47.3 38,49.2 35.5,49.2 Z M6.4,61.4 L4.5,61.4 C2.1,61.4 0.1,59.4 0.1,57 C0.1,54.6 2.1,52.6 4.5,52.6 L6.4,52.6 C8.8,52.6 10.8,54.6 10.8,57 C10.8,59.4 8.8,61.4 6.4,61.4 Z M21,61.4 L19.1,61.4 C16.7,61.4 14.7,59.4 14.7,57 C14.7,54.6 16.7,52.6 19.1,52.6 L21,52.6 C23.4,52.6 25.4,54.6 25.4,57 C25.4,59.4 23.4,61.4 21,61.4 Z M35.5,61.4 L33.6,61.4 C31.2,61.4 29.2,59.4 29.2,57 C29.2,54.6 31.2,52.6 33.6,52.6 L35.5,52.6 C37.9,52.6 39.9,54.6 39.9,57 C39.9,59.4 38,61.4 35.5,61.4 Z" id="Shape"></path>
                        <path d="M6.4,73.5 L4.5,73.5 C2.1,73.5 0.1,71.5 0.1,69.1 C0.1,66.7 2.1,64.7 4.5,64.7 L6.4,64.7 C8.8,64.7 10.8,66.7 10.8,69.1 C10.8,71.5 8.8,73.5 6.4,73.5 Z M21,73.5 L19.1,73.5 C16.7,73.5 14.7,71.5 14.7,69.1 C14.7,66.7 16.7,64.7 19.1,64.7 L21,64.7 C23.4,64.7 25.4,66.7 25.4,69.1 C25.4,71.5 23.4,73.5 21,73.5 Z M35.5,73.5 L33.6,73.5 C31.2,73.5 29.2,71.5 29.2,69.1 C29.2,66.7 31.2,64.7 33.6,64.7 L35.5,64.7 C37.9,64.7 39.9,66.7 39.9,69.1 C39.9,71.5 38,73.5 35.5,73.5 Z" id="Shape"></path>
                        <path d="M23.4,12.3 L16.6,12.3 C13.3,12.3 10.6,9.6 10.6,6.3 C10.6,3 13.3,0.3 16.6,0.3 L23.4,0.3 C26.7,0.3 29.4,3 29.4,6.3 C29.4,9.6 26.7,12.3 23.4,12.3 Z" id="Path"></path>
                        <path d="M5.7,4.9 L2.4,4.9 C1.2,4.9 0.1,3.9 0.1,2.6 C0.1,1.4 1.1,0.3 2.4,0.3 L5.7,0.3 C6.9,0.3 8,1.3 8,2.6 C7.9,3.8 6.9,4.9 5.7,4.9 Z" id="Path"></path>
                        <path d="M5.7,11.9 L2.4,11.9 C1.2,11.9 0.1,10.9 0.1,9.6 C0.1,8.4 1.1,7.3 2.4,7.3 L5.7,7.3 C6.9,7.3 8,8.3 8,9.6 C7.9,10.9 6.9,11.9 5.7,11.9 Z" id="Path"></path>
                        <path d="M37.6,4.9 L34.3,4.9 C33.1,4.9 32,3.9 32,2.6 C32,1.4 33,0.3 34.3,0.3 L37.6,0.3 C38.8,0.3 39.9,1.3 39.9,2.6 C39.9,3.8 38.8,4.9 37.6,4.9 Z" id="Path"></path>
                        <path d="M37.6,11.9 L34.3,11.9 C33.1,11.9 32,10.9 32,9.6 C32,8.4 33,7.3 34.3,7.3 L37.6,7.3 C38.8,7.3 39.9,8.3 39.9,9.6 C39.9,10.9 38.8,11.9 37.6,11.9 Z" id="Path"></path>
                    </g>
                </g>
                <g id="Group" transform="translate(1201.000000, 491.000000)">
                    <path d="M318.6,178.2 L3.7,178.2 C2.1,178.2 0.8,176.9 0.8,175.3 C0.8,173.7 2.1,172.4 3.7,172.4 L318.6,172.4 C320.2,172.4 321.5,173.7 321.5,175.3 C321.5,176.9 320.2,178.2 318.6,178.2 Z M337.3,188.2 L268.2,188.2 C266.6,188.2 265.3,189.5 265.3,191.1 C265.3,192.7 266.6,194 268.2,194 L337.3,194 C338.9,194 340.2,192.7 340.2,191.1 C340.1,189.5 338.8,188.2 337.3,188.2 Z" id="Shape" fill="#461E5F" opacity="0.15"></path>
                    <polygon id="Path" fill="#461E5F" points="36.6 15.6 283.8 15.6 283.8 165.2 36.6 165.2"></polygon>
                    <path d="M283.8,17.1 L283.8,6.9 C283.8,3.2 280.8,0.3 277.2,0.3 L43.2,0.3 C39.5,0.3 36.6,3.3 36.6,6.9 L36.6,17.1 L283.8,17.1 L283.8,17.1 Z" id="Path" fill="#791FA5"></path>
                    <circle id="Oval" fill="#55057F" cx="160.1" cy="8.7" r="2.9"></circle>
                    <path d="M312.7,161.6 L8.6,161.6 C6.1,161.6 4.1,163.6 4.1,166.1 L4.1,167.4 C4.1,172 7.8,175.8 12.5,175.8 L310.2,175.8 C314.8,175.8 318.6,172.1 318.6,167.4 C318.5,164.2 315.9,161.6 312.7,161.6 Z" id="Path" fill="#8533AD"></path>
                    <path d="M136.3,168.6 L183,168.6 C187.8,168.6 191.8,165.7 193.5,161.5 L125.8,161.5 C127.4,165.7 131.5,168.6 136.3,168.6 Z" id="Path" fill="#660099"></path>
                </g>
                <path d="M824.8,486.6 L821.6,489.2 C821.1,489.6 820.5,489.6 820,489.3 C819.1,488.7 818.2,488.2 817.3,487.8 C816.7,487.6 816.4,487 816.4,486.3 L816.8,482.3 C816.9,481.5 816.3,480.9 815.6,480.8 L812,480.4 C811.2,480.3 810.6,480.9 810.5,481.6 L810.1,485.6 C810,486.2 809.6,486.7 808.9,486.8 C807.9,487 806.9,487.3 805.9,487.7 C805.3,487.9 804.7,487.8 804.3,487.3 L801.7,484.1 C801.2,483.5 800.4,483.4 799.8,483.9 L797,486.2 C796.4,486.7 796.3,487.5 796.8,488.1 L799.4,491.3 C799.8,491.8 799.8,492.4 799.5,492.9 C798.9,493.8 798.4,494.7 798,495.6 C797.8,496.2 797.2,496.5 796.5,496.5 L792.5,496.1 C791.7,496 791.1,496.6 791,497.3 L790.6,500.9 C790.5,501.7 791.1,502.3 791.8,502.4 L795.8,502.8 C796.4,502.9 796.9,503.3 797,504 C797.2,505 797.5,506 797.9,507 C798.1,507.6 798,508.2 797.5,508.6 L794.3,511.2 C793.7,511.7 793.6,512.5 794.1,513.1 L796.4,515.9 C796.9,516.5 797.7,516.6 798.3,516.1 L801.5,513.5 C802,513.1 802.6,513.1 803.1,513.4 C804,514 804.9,514.5 805.8,514.9 C806.4,515.1 806.7,515.7 806.7,516.4 L806.3,520.4 C806.2,521.2 806.8,521.8 807.5,521.9 L811.1,522.3 C811.9,522.4 812.5,521.8 812.6,521.1 L813,517.1 C813.1,516.5 813.5,516 814.2,515.9 C815.2,515.7 816.2,515.4 817.2,515 C817.8,514.8 818.4,514.9 818.8,515.4 L821.4,518.6 C821.9,519.2 822.7,519.3 823.3,518.8 L826.1,516.5 C826.7,516 826.8,515.2 826.3,514.6 L823.7,511.4 C823.3,510.9 823.3,510.3 823.6,509.8 C824.2,508.9 824.7,508 825.1,507.1 C825.3,506.5 825.9,506.2 826.6,506.2 L830.6,506.6 C831.4,506.7 832,506.1 832.1,505.4 L832.5,501.8 C832.6,501 832,500.4 831.3,500.3 L827.3,499.9 C826.7,499.8 826.2,499.4 826.1,498.7 C825.9,497.7 825.6,496.7 825.2,495.7 C825,495.1 825.1,494.5 825.6,494.1 L828.8,491.5 C829.4,491 829.5,490.2 829,489.6 L826.7,486.8 C826.2,486.2 825.4,486.1 824.8,486.6 Z M814.3,504.7 C812.5,506.2 809.7,505.9 808.2,504.1 C806.7,502.3 807,499.5 808.8,498 C810.6,496.5 813.4,496.8 814.9,498.6 C816.4,500.5 816.2,503.2 814.3,504.7 Z" id="Shape" fill="#FFAD33"></path>
                <path d="M1389.4,554.8 L1334,554.8 C1330,554.8 1326.7,558 1326.7,562.1 L1326.7,593.1 C1326.7,597.1 1329.9,600.4 1334,600.4 L1389.4,600.4 C1393.4,600.4 1396.7,597.2 1396.7,593.1 L1396.7,562.1 C1396.6,558.1 1393.4,554.8 1389.4,554.8 L1389.4,554.8 Z M1389.9,562.9 L1372.8,572.5 L1387.4,587.1 C1387.8,587.5 1387.8,588.2 1387.4,588.6 C1387.2,588.8 1386.9,588.9 1386.6,588.9 C1386.3,588.9 1386,588.8 1385.8,588.6 L1370.8,573.6 L1365.3,576.7 C1364.2,577.3 1362.9,577.6 1361.7,577.6 C1360.5,577.6 1359.2,577.3 1358.1,576.7 L1353.3,574 L1338.7,588.6 C1338.5,588.8 1338.2,588.9 1337.9,588.9 C1337.6,588.9 1337.3,588.8 1337.1,588.6 C1336.7,588.2 1336.7,587.5 1337.1,587.1 L1351.3,572.9 L1333.4,562.8 C1332.9,562.5 1332.7,561.9 1333,561.3 C1333.3,560.8 1333.9,560.6 1334.5,560.9 L1359.1,574.7 C1360.7,575.6 1362.6,575.6 1364.2,574.7 L1388.8,560.9 C1389.3,560.6 1390,560.8 1390.3,561.3 C1390.6,562 1390.4,562.6 1389.9,562.9 Z" id="Shape" fill="#EB3D7D"></path>
                <g id="Group" transform="translate(827.000000, 263.000000)">
                    <path d="M4.8,55.6 C5.5,55.6 6.2,55.3 6.8,54.8 L25,36.6 C26.1,35.5 26.1,33.8 25,32.7 C23.9,31.6 22.2,31.6 21.1,32.7 L2.9,50.9 C1.8,52 1.8,53.7 2.9,54.8 C3.3,55.3 4.1,55.6 4.8,55.6 Z" id="Path" fill="#D83582"></path>
                    <path d="M4.8,57.1 C5.9,57.1 7,56.7 7.9,55.8 L16.4,47.3 C18.1,45.6 18.1,42.8 16.4,41.1 C14.7,39.4 11.9,39.4 10.2,41.1 L1.7,49.6 C-1.13686838e-13,51.3 -1.13686838e-13,54.1 1.7,55.8 C2.5,56.7 3.6,57.1 4.8,57.1 Z" id="Path" fill="#660099"></path>
                    <path d="M13.8,20.4 C13.8,9.1 23,-2.84217094e-14 34.2,-2.84217094e-14 C45.5,-2.84217094e-14 54.6,9.2 54.6,20.4 C54.6,31.7 45.4,40.8 34.2,40.8 C23,40.8 13.8,31.6 13.8,20.4 Z M19.3,20.4 C19.3,28.6 26,35.3 34.2,35.3 C42.4,35.3 49.1,28.6 49.1,20.4 C49.1,12.2 42.4,5.5 34.2,5.5 C26,5.5 19.3,12.2 19.3,20.4 Z" id="Shape" fill="#EB3D7D"></path>
                    <path d="M47.2,19 C46.7,19 46.3,18.7 46.2,18.2 C46,17.3 45.8,16.4 45.4,15.5 C45.2,15 45.4,14.4 45.9,14.2 C46.4,14 47,14.2 47.2,14.7 C47.6,15.7 47.9,16.8 48.1,17.9 C48.2,18.4 47.8,19 47.3,19.1 C47.3,19 47.2,19 47.2,19 L47.2,19 Z M28.6,32.9 C28.5,32.9 28.3,32.9 28.2,32.8 C26.3,31.9 24.7,30.5 23.4,28.9 C23.1,28.5 23.1,27.8 23.6,27.5 C24,27.2 24.7,27.2 25,27.7 C26.1,29.1 27.6,30.3 29.2,31 C29.7,31.2 29.9,31.8 29.7,32.3 C29.3,32.7 29,32.9 28.6,32.9 L28.6,32.9 Z M44.6,13.2 C44.3,13.2 44,13.1 43.8,12.8 C41.5,9.8 38,8.1 34.3,8.1 C33.7,8.1 33.3,7.7 33.3,7.1 C33.3,6.5 33.7,6.1 34.3,6.1 C38.7,6.1 42.7,8.1 45.4,11.5 C45.7,11.9 45.7,12.6 45.2,12.9 C45.1,13.1 44.8,13.2 44.6,13.2 Z" id="Shape" fill="#FFFFFF"></path>
                </g>
                <g id="Group" transform="translate(1112.000000, 183.000000)" fill="#EB3D7D">
                    <path d="M36.2,0.2 C22.5,0.2 10.1,5.7 1,14.5 C-0.3,15.8 -0.3,17.8 1,19.1 C2.2,20.3 4.2,20.4 5.5,19.2 C13.5,11.5 24.3,6.7 36.3,6.7 C48.3,6.7 59.1,11.5 67.1,19.2 C68.4,20.4 70.4,20.4 71.6,19.1 C72.9,17.8 72.8,15.7 71.6,14.5 C62.3,5.7 49.9,0.2 36.2,0.2 L36.2,0.2 Z" id="Path"></path>
                    <path d="M36.2,15.2 C26.7,15.2 18,19 11.6,25.1 C10.3,26.3 10.3,28.4 11.6,29.7 C12.8,30.9 14.8,31 16.1,29.7 C21.3,24.7 28.4,21.6 36.2,21.6 C44,21.6 51.1,24.7 56.3,29.7 C57.6,30.9 59.6,30.9 60.8,29.7 C62.1,28.4 62.1,26.3 60.8,25.1 C54.4,19 45.7,15.2 36.2,15.2 Z" id="Path"></path>
                    <path d="M36.2,30.7 C30.9,30.7 26.2,32.7 22.6,36 C21.3,37.2 21.2,39.4 22.5,40.7 C23.7,41.9 25.7,41.9 27,40.7 C29.4,38.5 32.7,37.1 36.2,37.1 C39.8,37.1 43,38.5 45.4,40.7 C46.7,41.9 48.7,41.9 49.9,40.7 C51.2,39.4 51.1,37.3 49.8,36 C46.2,32.7 41.5,30.7 36.2,30.7 L36.2,30.7 Z" id="Path"></path>
                    <circle id="Oval" cx="36.2" cy="52" r="4.9"></circle>
                </g>
                <g id="Group" transform="translate(1015.000000, 242.000000)" opacity="0.61">
                    <path d="M25.4,3.7 C25.4,2 26.8,0.6 28.5,0.6 C30,0.6 31.3,1.7 31.5,3.1 L31.5,4.1 C31.3,5.5 30,6.6 28.5,6.6 C26.8,6.8 25.4,5.4 25.4,3.7 Z" id="Path" fill="url(#linearGradient-5)"></path>
                    <path d="M12.9,3.7 C12.9,2 14.3,0.6 16,0.6 C17.7,0.6 19.1,2 19.1,3.7 C19.1,5.4 17.7,6.8 16,6.8 C14.3,6.8 12.9,5.4 12.9,3.7 L12.9,3.7 Z" id="Path" fill="url(#linearGradient-6)"></path>
                    <path d="M0.3,3.7 C0.3,2 1.7,0.6 3.4,0.6 C5.1,0.6 6.5,2 6.5,3.7 C6.5,5.4 5.1,6.8 3.4,6.8 C1.7,6.8 0.3,5.4 0.3,3.7 Z" id="Path" fill="url(#linearGradient-7)"></path>
                </g>
                <g id="Group" transform="translate(981.000000, 686.000000)" opacity="0.61">
                    <path d="M25.7,3.4 C25.7,1.7 27.1,0.3 28.8,0.3 C30.3,0.3 31.6,1.4 31.8,2.8 L31.8,3.8 C31.6,5.2 30.3,6.3 28.8,6.3 C27.1,6.5 25.7,5.1 25.7,3.4 Z" id="Path" fill="url(#linearGradient-8)"></path>
                    <path d="M13.1,3.4 C13.1,1.7 14.5,0.3 16.2,0.3 C17.9,0.3 19.3,1.7 19.3,3.4 C19.3,5.1 17.9,6.5 16.2,6.5 C14.5,6.5 13.1,5.1 13.1,3.4 Z" id="Path" fill="url(#linearGradient-9)"></path>
                    <path d="M0.6,3.4 C0.6,1.7 2,0.3 3.7,0.3 C5.4,0.3 6.8,1.7 6.8,3.4 C6.8,5.1 5.4,6.5 3.7,6.5 C1.9,6.5 0.6,5.1 0.6,3.4 Z" id="Path" fill="url(#linearGradient-10)"></path>
                </g>
            </g>
        </g>
    </g>
</svg>