<svg version="1.1" id="Camada_1" xmlns="http://www.w3.org/2000/svg" x="0" y="0" viewBox="0 0 942 791" xml:space="preserve"><style>.st4{fill:#fff}.st27{fill:#fadb4f}.st28{fill:#609}.st31{opacity:.61}.st39{fill:#eb3d7d}.st40{fill:#660097}.st41{fill:#55057f}.st42{fill:#461e5f}.st43{fill:#b787ce}.st45{fill:#2054bc}.st46{fill:#00abdb}.st47{fill:#8533ad}.st48,.st49{fill:none;stroke:#2054bc;stroke-width:6.2967;stroke-linecap:round;stroke-linejoin:round;stroke-miterlimit:10}.st49{stroke:#2d4891;stroke-width:11.9826}</style><path fill="#f0f0f0" d="M-1-1.9h948.8V812H-1z"/><linearGradient id="SVGID_1_" gradientUnits="userSpaceOnUse" x1="-13.563" y1="-3094.459" x2="966.641" y2="-3094.459" gradientTransform="matrix(1 0 0 -1 0 -2517.123)"><stop offset="0" stop-color="#9d78b1"/><stop offset="1" stop-color="#bd82e0" stop-opacity="0"/></linearGradient><path d="M966.6 899.5H-13.6l5.2-602.7.2-.1c31.1-27.1 82.9-42.5 138.4-41.3 59.1 1.4 113 27.3 144.4 69.3 11.1 14.8 20.7 31.6 31 49.4 17.7 30.7 36 62.5 61.8 82.6 35.6 27.8 73.3 38.5 115.1 33 37-4.9 72.3-21.5 106.4-37.5 30.9-14.5 60-28.2 88.1-32.2 69-9.7 130.7-.1 178.3 28 53.1 31.3 93.7 83.1 111.2 142.3V899.5zm-979.2-1h978.2V590.3c-17.5-58.9-57.8-110.5-110.8-141.6-33.1-19.5-90.8-40.1-177.7-27.8-27.9 4-57 17.6-87.8 32.1-34.2 16.1-69.6 32.7-106.7 37.6-42.2 5.6-80.1-5.3-115.9-33.2-25.9-20.2-44.3-52.1-62.1-82.9-10.2-17.7-19.9-34.5-30.9-49.3-31.2-41.8-84.9-67.5-143.6-68.9C75 255.1 23.6 270.4-7.4 297.2l-5.2 601.3z" fill="url(#SVGID_1_)"/><linearGradient id="SVGID_2_" gradientUnits="userSpaceOnUse" x1="526.395" y1="-2834.946" x2="435.976" y2="-3395.875" gradientTransform="matrix(1 0 0 -1 0 -2517.123)"><stop offset="0" stop-color="#9d78b1"/><stop offset="1" stop-color="#bd82e0" stop-opacity="0"/></linearGradient><path d="M-7.9 310c31-27 83-42.4 138.1-41.2 55.1 1.3 111 24.9 144 69.1 30.7 41.1 52.5 100.6 92.9 132.1 115.9 90.4 249.2-22.9 310-36.6 60-13.5 125-3.3 178 27.9s93.5 83 111 142V912H-13.1l5.2-602z" opacity=".51" fill="url(#SVGID_2_)"/><linearGradient id="SVGID_3_" gradientUnits="userSpaceOnUse" x1="541.427" y1="618.868" x2="579.347" y2="690.495"><stop offset="0" stop-color="#a178b5"/><stop offset="1" stop-color="#c186e4" stop-opacity="0"/></linearGradient><path d="M604.7 655.1c-.8-.3-1.7-.4-2.6-.4-.8.1-1.5-.6-1.4-1.5.2-1 .2-2 .1-3.1-.6-4.3-4.1-7.7-8.5-8.1-2.3-.2-4.4.4-6.1 1.5-.7.5-1.6.1-1.9-.7-2.4-8.1-9.9-14-18.8-14h-1c-8.2.2-15.3 5.3-18.7 12.6-.5 1.2-1.7 1.9-3 1.7-.5 0-1-.1-1.5-.1-8.1 0-14.8 6.3-16 14.4h-.2c-2.5 0-4.7 1.2-6.1 3.1-.7 1-.1 2.4 1.1 2.4H607l-.1-.1c.2-.3.5-.7.6-1.1 1.3-2.3 0-5.5-2.8-6.6z" fill="url(#SVGID_3_)"/><path class="st4" d="M281.3 446.2c-20 0-37.2 12.1-45.4 29.6-1.3 2.7-4.1 4.4-7 4.1-1.1-.1-2.3-.2-3.4-.2-19.1 0-34.9 14.7-37.6 33.9h-.4c-5.8 0-11 2.9-14.4 7.3-1.7 2.3-.1 5.7 2.7 5.7h131v-73.3c-7.6-4.5-16.3-7.1-25.5-7.1z"/><linearGradient id="SVGID_4_" gradientUnits="userSpaceOnUse" x1="214.431" y1="441.439" x2="278.143" y2="561.784"><stop offset="0" stop-color="#a178b5"/><stop offset="1" stop-color="#c186e4" stop-opacity="0"/></linearGradient><path d="M281.3 446.2c-20 0-37.2 12.1-45.4 29.6-1.3 2.7-4.1 4.4-7 4.1-1.1-.1-2.3-.2-3.4-.2-19.1 0-34.9 14.7-37.6 33.9h-.4c-5.8 0-11 2.9-14.4 7.3-1.7 2.3-.1 5.7 2.7 5.7h131v-73.3c-7.6-4.5-16.3-7.1-25.5-7.1z" fill="url(#SVGID_4_)"/><linearGradient id="SVGID_5_" gradientUnits="userSpaceOnUse" x1="625.223" y1="467.787" x2="712.533" y2="568.076"><stop offset="0" stop-color="#a178b5"/><stop offset="1" stop-color="#c186e4" stop-opacity="0"/></linearGradient><path d="M657.1 529.4h42.7c.3 0 .5-.2.5-.5s-.2-.5-.5-.5h-42.7c-.3 0-.5.2-.5.5s.2.5.5.5z" fill="url(#SVGID_5_)"/><linearGradient id="SVGID_6_" gradientUnits="userSpaceOnUse" x1="622.204" y1="470.416" x2="709.514" y2="570.704"><stop offset="0" stop-color="#a178b5"/><stop offset="1" stop-color="#c186e4" stop-opacity="0"/></linearGradient><path d="M699.7 534.5H657c-.3 0-.5.2-.5.5s.2.5.5.5h42.7c.3 0 .5-.2.5-.5s-.2-.5-.5-.5z" fill="url(#SVGID_6_)"/><linearGradient id="SVGID_7_" gradientUnits="userSpaceOnUse" x1="619.185" y1="473.044" x2="706.495" y2="573.332"><stop offset="0" stop-color="#a178b5"/><stop offset="1" stop-color="#c186e4" stop-opacity="0"/></linearGradient><path d="M699.7 540.6H657c-.3 0-.5.2-.5.5s.2.5.5.5h42.7c.3 0 .5-.2.5-.5s-.2-.5-.5-.5z" fill="url(#SVGID_7_)"/><linearGradient id="SVGID_8_" gradientUnits="userSpaceOnUse" x1="616.166" y1="475.672" x2="703.476" y2="575.96"><stop offset="0" stop-color="#a178b5"/><stop offset="1" stop-color="#c186e4" stop-opacity="0"/></linearGradient><path d="M699.7 546.7H657c-.3 0-.5.2-.5.5s.2.5.5.5h42.7c.3 0 .5-.2.5-.5s-.2-.5-.5-.5z" fill="url(#SVGID_8_)"/><linearGradient id="SVGID_9_" gradientUnits="userSpaceOnUse" x1="613.148" y1="478.3" x2="700.457" y2="578.589"><stop offset="0" stop-color="#a178b5"/><stop offset="1" stop-color="#c186e4" stop-opacity="0"/></linearGradient><path d="M699.7 552.7H657c-.3 0-.5.2-.5.5s.2.5.5.5h42.7c.3 0 .5-.2.5-.5 0-.2-.2-.5-.5-.5z" fill="url(#SVGID_9_)"/><linearGradient id="SVGID_10_" gradientUnits="userSpaceOnUse" x1="610.129" y1="480.929" x2="697.438" y2="581.217"><stop offset="0" stop-color="#a178b5"/><stop offset="1" stop-color="#c186e4" stop-opacity="0"/></linearGradient><path d="M699.7 558.8H657c-.3 0-.5.2-.5.5s.2.5.5.5h42.7c.3 0 .5-.2.5-.5s-.2-.5-.5-.5z" fill="url(#SVGID_10_)"/><linearGradient id="SVGID_11_" gradientUnits="userSpaceOnUse" x1="602.159" y1="487.866" x2="689.469" y2="588.155"><stop offset="0" stop-color="#a178b5"/><stop offset="1" stop-color="#c186e4" stop-opacity="0"/></linearGradient><path d="M682.3 564.9H657c-.3 0-.5.2-.5.5s.2.5.5.5h25.3c.3 0 .5-.2.5-.5s-.2-.5-.5-.5z" fill="url(#SVGID_11_)"/><linearGradient id="SVGID_12_" gradientUnits="userSpaceOnUse" x1="-9.446" y1="306.995" x2="1246.377" y2="306.995" gradientTransform="matrix(1 .00595 -.00595 1 -6.993 -6.44)"><stop offset="0" stop-color="#a178b5"/><stop offset="1" stop-color="#c186e4" stop-opacity="0"/></linearGradient><path d="M605.2 240.5l-76.8-.5c-3.4 0-6.2 2.7-6.2 6.1l-.5 89.6-.2 25.6c0 3.4 2.7 6.2 6.1 6.2l76.8.5c3.4 0 6.2-2.7 6.2-6.1l.2-25.6.5-89.6c.1-3.5-2.7-6.2-6.1-6.2zm-66.1 114.3c-5.2 0-9.5-4.3-9.4-9.6s4.3-9.5 9.6-9.4 9.5 4.3 9.4 9.6c-.1 5.3-4.4 9.5-9.6 9.4zm.2-27.5c-5.2 0-9.5-4.3-9.4-9.6 0-5.2 4.3-9.5 9.6-9.4s9.5 4.3 9.4 9.6c-.1 5.2-4.4 9.4-9.6 9.4zm.1-27.9c-5.2 0-9.5-4.3-9.4-9.6 0-5.2 4.3-9.5 9.6-9.4 5.2 0 9.5 4.3 9.4 9.6 0 5.2-4.3 9.5-9.6 9.4zm.2-27.8c-5.2 0-9.5-4.3-9.4-9.6 0-5.2 4.3-9.5 9.6-9.4 5.2 0 9.5 4.3 9.4 9.6-.1 5.2-4.4 9.4-9.6 9.4zm40.4 78.7l-23.3-.1c-.6 0-1.1-.5-1.1-1.1 0-.6.5-1.1 1.1-1.1l23.3.1c.6 0 1.1.5 1.1 1.1s-.5 1.1-1.1 1.1zm15.4-7.2l-38.6-.2c-.6 0-1.1-.5-1.1-1.1s.5-1.1 1.1-1.1l38.6.2c.6 0 1.1.5 1.1 1.1 0 .6-.5 1.1-1.1 1.1zm-39.6-21.6c0-.6.5-1.1 1.1-1.1l23.3.1c.6 0 1.1.5 1.1 1.1s-.5 1.1-1.1 1.1l-23.3-.1c-.6 0-1.1-.5-1.1-1.1zm39.7-5.9l-38.6-.2c-.6 0-1.1-.5-1.1-1.1 0-.6.5-1.1 1.1-1.1l38.6.2c.6 0 1.1.5 1.1 1.1 0 .6-.5 1.1-1.1 1.1zm-39.6-21.9c0-.6.5-1.1 1.1-1.1l23.3.1c.6 0 1.1.5 1.1 1.1 0 .6-.5 1.1-1.1 1.1l-23.3-.1c-.6 0-1.1-.5-1.1-1.1zm39.8-6l-38.6-.2c-.6 0-1.1-.5-1.1-1.1s.5-1.1 1.1-1.1l38.6.2c.6 0 1.1.5 1.1 1.1s-.5 1.1-1.1 1.1zm-39.6-21.9c0-.6.5-1.1 1.1-1.1l23.3.1c.6 0 1.1.5 1.1 1.1s-.5 1.1-1.1 1.1l-23.3-.1c-.6 0-1.1-.5-1.1-1.1zm39.8-5.9l-38.6-.2c-.6 0-1.1-.5-1.1-1.1 0-.6.5-1.1 1.1-1.1l38.6.2c.6 0 1.1.5 1.1 1.1 0 .6-.5 1.1-1.1 1.1z" fill="url(#SVGID_12_)"/><linearGradient id="SVGID_13_" gradientUnits="userSpaceOnUse" x1="-165.764" y1="265.268" x2="888.429" y2="265.268" gradientTransform="matrix(1 .00595 -.00595 1 -6.993 -6.44)"><stop offset="0" stop-color="#a178b5"/><stop offset="1" stop-color="#c186e4" stop-opacity="0"/></linearGradient><circle cx="539.7" cy="262.1" r="9.5" fill="url(#SVGID_13_)"/><linearGradient id="SVGID_14_" gradientUnits="userSpaceOnUse" x1="-165.764" y1="261.616" x2="888.429" y2="261.616" gradientTransform="matrix(1 .00595 -.00595 1 -6.993 -6.44)"><stop offset="0" stop-color="#a178b5"/><stop offset="1" stop-color="#c186e4" stop-opacity="0"/></linearGradient><path d="M557.2 259.6l38.6.2c.6 0 1.1-.5 1.1-1.1 0-.6-.5-1.1-1.1-1.1l-38.6-.2c-.6 0-1.1.5-1.1 1.1 0 .6.5 1.1 1.1 1.1z" fill="url(#SVGID_14_)"/><linearGradient id="SVGID_15_" gradientUnits="userSpaceOnUse" x1="-165.764" y1="268.92" x2="888.429" y2="268.92" gradientTransform="matrix(1 .00595 -.00595 1 -6.993 -6.44)"><stop offset="0" stop-color="#a178b5"/><stop offset="1" stop-color="#c186e4" stop-opacity="0"/></linearGradient><path d="M557.2 266.9l23.3.1c.6 0 1.1-.5 1.1-1.1s-.5-1.1-1.1-1.1l-23.3-.1c-.6 0-1.1.5-1.1 1.1s.5 1.1 1.1 1.1z" fill="url(#SVGID_15_)"/><linearGradient id="SVGID_16_" gradientUnits="userSpaceOnUse" x1="-165.764" y1="293.121" x2="888.429" y2="293.121" gradientTransform="matrix(1 .00595 -.00595 1 -6.993 -6.44)"><stop offset="0" stop-color="#a178b5"/><stop offset="1" stop-color="#c186e4" stop-opacity="0"/></linearGradient><circle cx="539.5" cy="289.9" r="9.5" fill="url(#SVGID_16_)"/><linearGradient id="SVGID_17_" gradientUnits="userSpaceOnUse" x1="-165.764" y1="289.469" x2="888.429" y2="289.469" gradientTransform="matrix(1 .00595 -.00595 1 -6.993 -6.44)"><stop offset="0" stop-color="#a178b5"/><stop offset="1" stop-color="#c186e4" stop-opacity="0"/></linearGradient><path d="M595.7 285.5l-38.6-.2c-.6 0-1.1.5-1.1 1.1s.5 1.1 1.1 1.1l38.6.2c.6 0 1.1-.5 1.1-1.1s-.5-1.1-1.1-1.1z" fill="url(#SVGID_17_)"/><linearGradient id="SVGID_18_" gradientUnits="userSpaceOnUse" x1="-165.764" y1="296.773" x2="888.429" y2="296.773" gradientTransform="matrix(1 .00595 -.00595 1 -6.993 -6.44)"><stop offset="0" stop-color="#a178b5"/><stop offset="1" stop-color="#c186e4" stop-opacity="0"/></linearGradient><path d="M557 294.8l23.3.1c.6 0 1.1-.5 1.1-1.1 0-.6-.5-1.1-1.1-1.1l-23.3-.1c-.6 0-1.1.5-1.1 1.1s.5 1.1 1.1 1.1z" fill="url(#SVGID_18_)"/><linearGradient id="SVGID_19_" gradientUnits="userSpaceOnUse" x1="-165.764" y1="320.974" x2="888.429" y2="320.974" gradientTransform="matrix(1 .00595 -.00595 1 -6.993 -6.44)"><stop offset="0" stop-color="#a178b5"/><stop offset="1" stop-color="#c186e4" stop-opacity="0"/></linearGradient><circle cx="539.3" cy="317.8" r="9.5" fill="url(#SVGID_19_)"/><linearGradient id="SVGID_20_" gradientUnits="userSpaceOnUse" x1="-165.764" y1="317.322" x2="888.429" y2="317.322" gradientTransform="matrix(1 .00595 -.00595 1 -6.993 -6.44)"><stop offset="0" stop-color="#a178b5"/><stop offset="1" stop-color="#c186e4" stop-opacity="0"/></linearGradient><path d="M595.6 313.4l-38.6-.2c-.6 0-1.1.5-1.1 1.1 0 .6.5 1.1 1.1 1.1l38.6.2c.6 0 1.1-.5 1.1-1.1-.1-.6-.5-1.1-1.1-1.1z" fill="url(#SVGID_20_)"/><linearGradient id="SVGID_21_" gradientUnits="userSpaceOnUse" x1="-165.764" y1="324.626" x2="888.429" y2="324.626" gradientTransform="matrix(1 .00595 -.00595 1 -6.993 -6.44)"><stop offset="0" stop-color="#a178b5"/><stop offset="1" stop-color="#c186e4" stop-opacity="0"/></linearGradient><path d="M556.9 322.6l23.3.1c.6 0 1.1-.5 1.1-1.1s-.5-1.1-1.1-1.1l-23.3-.1c-.6 0-1.1.5-1.1 1.1 0 .6.5 1.1 1.1 1.1z" fill="url(#SVGID_21_)"/><linearGradient id="SVGID_22_" gradientUnits="userSpaceOnUse" x1="-165.764" y1="348.537" x2="888.429" y2="348.537" gradientTransform="matrix(1 .00595 -.00595 1 -6.993 -6.44)"><stop offset="0" stop-color="#a178b5"/><stop offset="1" stop-color="#c186e4" stop-opacity="0"/></linearGradient><circle cx="539.2" cy="345.4" r="9.5" fill="url(#SVGID_22_)"/><linearGradient id="SVGID_23_" gradientUnits="userSpaceOnUse" x1="-165.764" y1="344.885" x2="888.429" y2="344.885" gradientTransform="matrix(1 .00595 -.00595 1 -6.993 -6.44)"><stop offset="0" stop-color="#a178b5"/><stop offset="1" stop-color="#c186e4" stop-opacity="0"/></linearGradient><path d="M595.4 340.9l-38.6-.2c-.6 0-1.1.5-1.1 1.1s.5 1.1 1.1 1.1l38.6.2c.6 0 1.1-.5 1.1-1.1 0-.6-.5-1.1-1.1-1.1z" fill="url(#SVGID_23_)"/><linearGradient id="SVGID_24_" gradientUnits="userSpaceOnUse" x1="-165.764" y1="352.19" x2="888.429" y2="352.19" gradientTransform="matrix(1 .00595 -.00595 1 -6.993 -6.44)"><stop offset="0" stop-color="#a178b5"/><stop offset="1" stop-color="#c186e4" stop-opacity="0"/></linearGradient><path d="M580 348.2l-23.3-.1c-.6 0-1.1.5-1.1 1.1 0 .6.5 1.1 1.1 1.1l23.3.1c.6 0 1.1-.5 1.1-1.1s-.4-1.1-1.1-1.1z" fill="url(#SVGID_24_)"/><g><path d="M777.7 514.9h-68.6c-3.4 0-6.2-2.8-6.2-6.2v-64.1c0-3.4 2.8-6.2 6.2-6.2h68.6c3.4 0 6.2 2.8 6.2 6.2v64.1c0 3.4-2.8 6.2-6.2 6.2z" fill="#f90"/><path class="st27" d="M765.5 462.1H733c-1.1 0-1.9-.9-1.9-1.9 0-1.1.9-1.9 1.9-1.9h32.5c1.1 0 1.9.9 1.9 1.9 0 1.1-.9 1.9-1.9 1.9zM765.5 478.3H733c-1.1 0-1.9-.9-1.9-1.9 0-1.1.9-1.9 1.9-1.9h32.5c1.1 0 1.9.9 1.9 1.9 0 1.1-.9 1.9-1.9 1.9zM765.5 495H733c-1.1 0-1.9-.9-1.9-1.9 0-1.1.9-1.9 1.9-1.9h32.5c1.1 0 1.9.9 1.9 1.9 0 1-.9 1.9-1.9 1.9z"/><circle class="st28" cx="721.6" cy="460.2" r="4.7"/><circle class="st28" cx="721.6" cy="476.4" r="4.7"/><circle class="st28" cx="721.6" cy="493" r="4.7"/></g><g><linearGradient id="SVGID_25_" gradientUnits="userSpaceOnUse" x1="352.541" y1="638.03" x2="380.858" y2="710.002"><stop offset="0" stop-color="#a178b5"/><stop offset="1" stop-color="#c186e4" stop-opacity="0"/></linearGradient><path d="M380.5 649.9c-1.1-2.6-2.6-4.9-4.5-6.9-.8-.8-1.6-1.6-2.5-2.3-2.4-1.9-5.1-3.3-8-4.1-1.9-.5-4-.8-6.1-.8-12.1 0-21.9 9.4-22.8 21.2.6-1.4 2-2.3 3.6-2.3 1.8 0 3.3 1.2 3.8 2.8.6-8 7.2-14.3 15.4-14.3 2.2 0 4.2.4 6.1 1.2 3.6 1.5 6.5 4.4 8 8 .8 1.9 1.3 4 1.3 6.2s-.5 4.3-1.3 6.2c-1.6 3.6-4.5 6.4-8 8-1.6.7-3.3 1.1-5.1 1.2 1.7.4 3 2 3 3.8 0 1.6-.9 2.9-2.2 3.6 1.5-.1 2.9-.4 4.3-.8 2.8-.8 5.5-2.1 7.7-3.8 1-.7 1.9-1.6 2.8-2.5 1.9-2 3.4-4.3 4.5-6.9 1.1-2.7 1.8-5.7 1.8-8.8 0-3-.6-6-1.8-8.7z" fill="url(#SVGID_25_)"/><path d="M360.5 674.1c-.3-.1-.7-.1-1-.1-8.4 0-15.3-6.8-15.3-15.3 0-.4-.1-.8-.2-1.1-.5-1.6-2-2.8-3.8-2.8-1.6 0-3 1-3.6 2.3-.2.5-.4 1.1-.4 1.6 0 12.8 10.4 23.2 23.2 23.2.6 0 1.2-.1 1.7-.4 1.3-.6 2.2-2 2.2-3.6.2-1.8-1.1-3.3-2.8-3.8z" fill="#791fa5"/></g><g class="st31"><linearGradient id="SVGID_26_" gradientUnits="userSpaceOnUse" x1="206.995" y1="361.459" x2="234.293" y2="410.502"><stop offset="0" stop-color="#a178b5"/><stop offset="1" stop-color="#c186e4" stop-opacity="0"/></linearGradient><path d="M236.6 384l-14.4-18.1c-1.2-1.5-3.3-1.4-4.5 0l-14.1 18.3c-.8 1.1-.1 2.6 1.3 2.6l7.7-.1c.9 0 1.6.7 1.6 1.6l.2 15.2c0 3.3 2.7 6 6 5.9 3.3 0 6-2.7 5.9-6l-.2-15.2c0-.9.7-1.6 1.6-1.6l7.7-.1c1.3.1 2-1.5 1.2-2.5z" fill="url(#SVGID_26_)"/></g><g class="st31"><linearGradient id="SVGID_27_" gradientUnits="userSpaceOnUse" x1="301.982" y1="-2955.891" x2="329.279" y2="-2906.848" gradientTransform="rotate(180 518.522 -1162.701)"><stop offset="0" stop-color="#a178b5"/><stop offset="1" stop-color="#c186e4" stop-opacity="0"/></linearGradient><path d="M705.4 608l14.4 18.1c1.2 1.5 3.3 1.4 4.5 0l14.1-18.3c.8-1.1.1-2.6-1.3-2.6l-7.7.1c-.9 0-1.6-.7-1.6-1.6l-.2-15.2c0-3.3-2.7-6-6-5.9-3.3 0-6 2.7-5.9 6l.2 15.2c0 .9-.7 1.6-1.6 1.6l-7.7.1c-1.3-.1-2 1.4-1.2 2.5z" fill="url(#SVGID_27_)"/></g><g class="st31"><linearGradient id="SVGID_28_" gradientUnits="userSpaceOnUse" x1="273.831" y1="-2916.705" x2="294.027" y2="-2880.421" gradientTransform="rotate(180 518.522 -1162.701)"><stop offset="0" stop-color="#a178b5"/><stop offset="1" stop-color="#c186e4" stop-opacity="0"/></linearGradient><path d="M741.3 574.6L752 588c.9 1.1 2.4 1 3.3 0l10.4-13.6c.6-.8.1-1.9-1-1.9l-5.7.1c-.7 0-1.2-.5-1.2-1.2l-.1-11.2c0-2.4-2-4.4-4.4-4.4-2.4 0-4.4 2-4.4 4.4l.1 11.2c0 .7-.5 1.2-1.2 1.2l-5.7.1c-.9 0-1.4 1.2-.8 1.9z" fill="url(#SVGID_28_)"/></g><g class="st31"><linearGradient id="SVGID_29_" gradientUnits="userSpaceOnUse" x1="362.686" y1="-2671.793" x2="382.882" y2="-2635.508" gradientTransform="rotate(180 518.522 -1162.701)"><stop offset="0" stop-color="#a178b5"/><stop offset="1" stop-color="#c186e4" stop-opacity="0"/></linearGradient><path d="M652.4 329.7l10.7 13.4c.9 1.1 2.4 1 3.3 0l10.4-13.6c.6-.8.1-1.9-1-1.9l-5.7.1c-.7 0-1.2-.5-1.2-1.2l-.1-11.2c0-2.4-2-4.4-4.4-4.4-2.4 0-4.4 2-4.4 4.4l.1 11.2c0 .7-.5 1.2-1.2 1.2l-5.7.1c-.8 0-1.3 1.1-.8 1.9z" fill="url(#SVGID_29_)"/></g><g class="st31"><linearGradient id="SVGID_30_" gradientUnits="userSpaceOnUse" x1="1317.4" y1="655.157" x2="1337.596" y2="691.441" gradientTransform="translate(-925.094 22.619)"><stop offset="0" stop-color="#a178b5"/><stop offset="1" stop-color="#c186e4" stop-opacity="0"/></linearGradient><path d="M414.2 694.4L403.6 681c-.9-1.1-2.4-1-3.3 0l-10.4 13.6c-.6.8-.1 1.9 1 1.9l5.7-.1c.7 0 1.2.5 1.2 1.2l.1 11.2c0 2.4 2 4.4 4.4 4.4 2.4 0 4.4-2 4.4-4.4l-.1-11.2c0-.7.5-1.2 1.2-1.2l5.7-.1c.8.1 1.3-1.1.7-1.9z" fill="url(#SVGID_30_)"/></g><g class="st31"><linearGradient id="SVGID_31_" gradientUnits="userSpaceOnUse" x1="181.758" y1="332.165" x2="199.867" y2="364.7"><stop offset="0" stop-color="#a178b5"/><stop offset="1" stop-color="#c186e4" stop-opacity="0"/></linearGradient><path d="M201.4 347.1l-9.6-12c-.8-1-2.2-.9-3 0l-9.4 12.2c-.6.7-.1 1.7.9 1.7l5.1-.1c.6 0 1.1.5 1.1 1.1l.1 10.1c0 2.2 1.8 4 4 3.9 2.2 0 4-1.8 3.9-4l-.1-10.1c0-.6.5-1.1 1.1-1.1l5.1-.1c.9.1 1.3-.9.8-1.6z" fill="url(#SVGID_31_)"/></g><g class="st31"><linearGradient id="SVGID_32_" gradientUnits="userSpaceOnUse" x1="417.587" y1="664.165" x2="430.935" y2="688.148"><stop offset="0" stop-color="#a178b5"/><stop offset="1" stop-color="#c186e4" stop-opacity="0"/></linearGradient><path d="M432.1 675.2l-7.1-8.9c-.6-.7-1.6-.7-2.2 0l-6.9 9c-.4.5 0 1.3.6 1.3h3.8c.5 0 .8.3.8.8l.1 7.4c0 1.6 1.3 2.9 2.9 2.9 1.6 0 2.9-1.3 2.9-2.9l-.1-7.4c0-.5.3-.8.8-.8h3.8c.6-.2 1-.9.6-1.4z" fill="url(#SVGID_32_)"/></g><path class="st39" d="M663.7 630.4h-63.1c-4.6 0-8.3 3.7-8.3 8.3V674c0 4.6 3.7 8.3 8.3 8.3h63.1c4.6 0 8.3-3.7 8.3-8.3v-35.3c-.1-4.6-3.8-8.3-8.3-8.3zm.6 9.3l-19.5 11 16.6 16.6c.5.5.5 1.3 0 1.7-.2.2-.6.4-.9.4s-.6-.1-.9-.4l-17.1-17.1-6.3 3.6c-1.3.7-2.7 1.1-4.1 1.1-1.4 0-2.8-.4-4.1-1.1l-5.4-3.1L606 669c-.2.2-.6.4-.9.4-.3 0-.6-.1-.9-.4-.5-.5-.5-1.3 0-1.7l16.1-16.1-20.3-11.5c-.6-.3-.8-1.1-.5-1.7.3-.6 1.1-.8 1.7-.5l28 15.8c1.8 1 4 1 5.8 0l28-15.8c.6-.3 1.3-.1 1.7.5.4.6.2 1.3-.4 1.7z"/><g><path class="st40" d="M637.8 346.8h-63.3v255.3h63.3c2.5 0 4.6-2 4.6-4.6V351.4c0-2.5-2.1-4.6-4.6-4.6z"/><path class="st41" d="M633 346.8h-63.3v255.3H633c2.5 0 4.6-2 4.6-4.6V351.4c0-2.5-2.1-4.6-4.6-4.6zM397.9 606.4h-83.4c-6.4 0-11.5-5.2-11.5-11.5V358.4c0-6.4 5.2-11.5 11.5-11.5h83.4c8.4 0 15.1 6.8 15.1 15.1v229.3c0 8.3-6.8 15.1-15.1 15.1z"/><path class="st40" d="M467.6 346.8h102.9v255.3H467.6z"/><path class="st42" d="M570.9 532.9h-.8c-1.4 0-2.5-1.1-2.5-2.5v-14.2c0-1.4 1.1-2.5 2.5-2.5h.8c1.4 0 2.5 1.1 2.5 2.5v14.2c0 1.3-1.1 2.5-2.5 2.5z"/><path class="st43" d="M467.7 352.2h63.6v204.6h-63.6z"/><path class="st42" d="M555.4 352.2h-28.6v204.6h28.6c3.5 0 6.4-2.5 6.4-5.6V357.8c0-3.1-2.9-5.6-6.4-5.6z"/><path class="st40" d="M479.9 349.9v.1c0 4.1 3.3 7.4 7.4 7.4h58.8c4.1 0 7.4-3.3 7.4-7.4v-.1h-73.6z"/><path class="st41" d="M479.9 349.9c-.1 4.1 3.3 7.5 7.4 7.5 1.8 0 3.3-1.5 3.3-3.3v-.8c0-1.8-1.5-3.3-3.3-3.3h-7.4z"/><path d="M493.9 354.9c-.5 0-.8.5-.7.9.5 2.1 2.4 3.6 4.6 3.6h37.8c2.2 0 4.1-1.5 4.6-3.6.1-.5-.2-.9-.7-.9h-45.6z" fill="#ffd699"/><path class="st40" d="M463.9 400.9h73.6v128.4h-73.6z"/><path class="st40" d="M536.8 413.6H465v-18.7h71.9c3.7 0 6.7 3 6.7 6.7v5.4c-.1 3.6-3.1 6.6-6.8 6.6z"/><path class="st45" d="M461.1 394.9v18.7h10.4c1.5 0 2.6-1.2 2.6-2.6v-13.4c0-1.5-1.2-2.6-2.6-2.6h-10.4z"/><path class="st42" d="M461.1 394.9v18.7h10.4c1.5 0 2.6-1.2 2.6-2.6v-13.4c0-1.5-1.2-2.6-2.6-2.6h-10.4z"/><path class="st43" d="M492.8 411c-.9 0-1.6-.7-1.6-1.6v-10.2c0-.9.7-1.6 1.6-1.6s1.6.7 1.6 1.6v10.2c-.1.9-.8 1.6-1.6 1.6zM498.9 411c-.9 0-1.6-.7-1.6-1.6v-10.2c0-.9.7-1.6 1.6-1.6s1.6.7 1.6 1.6v10.2c0 .9-.7 1.6-1.6 1.6zM505.1 411c-.9 0-1.6-.7-1.6-1.6v-10.2c0-.9.7-1.6 1.6-1.6.9 0 1.6.7 1.6 1.6v10.2c-.1.9-.8 1.6-1.6 1.6zM511.2 411c-.9 0-1.6-.7-1.6-1.6v-10.2c0-.9.7-1.6 1.6-1.6.9 0 1.6.7 1.6 1.6v10.2c0 .9-.7 1.6-1.6 1.6zM517.4 411c-.9 0-1.6-.7-1.6-1.6v-10.2c0-.9.7-1.6 1.6-1.6s1.6.7 1.6 1.6v10.2c0 .9-.8 1.6-1.6 1.6zM523.5 411c-.9 0-1.6-.7-1.6-1.6v-10.2c0-.9.7-1.6 1.6-1.6s1.6.7 1.6 1.6v10.2c0 .9-.7 1.6-1.6 1.6zM529.7 411c-.9 0-1.6-.7-1.6-1.6v-10.2c0-.9.7-1.6 1.6-1.6.9 0 1.6.7 1.6 1.6v10.2c0 .9-.7 1.6-1.6 1.6zM535.8 411c-.9 0-1.6-.7-1.6-1.6v-10.2c0-.9.7-1.6 1.6-1.6.9 0 1.6.7 1.6 1.6v10.2c0 .9-.7 1.6-1.6 1.6z"/><circle class="st46" cx="479.8" cy="399.8" r="1.6"/><circle class="st39" cx="479.8" cy="405.8" r="1.6"/><path class="st40" d="M536.8 438.4H465v-18.7h71.9c3.7 0 6.7 3 6.7 6.7v5.4c-.1 3.6-3.1 6.6-6.8 6.6z"/><path class="st45" d="M461.1 419.7v18.7h10.4c1.5 0 2.6-1.2 2.6-2.6v-13.4c0-1.5-1.2-2.6-2.6-2.6h-10.4z"/><path class="st42" d="M461.1 419.7v18.7h10.4c1.5 0 2.6-1.2 2.6-2.6v-13.4c0-1.5-1.2-2.6-2.6-2.6h-10.4z"/><path class="st43" d="M492.8 435.8c-.9 0-1.6-.7-1.6-1.6V424c0-.9.7-1.6 1.6-1.6s1.6.7 1.6 1.6v10.2c-.1.9-.8 1.6-1.6 1.6zM498.9 435.8c-.9 0-1.6-.7-1.6-1.6V424c0-.9.7-1.6 1.6-1.6s1.6.7 1.6 1.6v10.2c0 .9-.7 1.6-1.6 1.6zM505.1 435.8c-.9 0-1.6-.7-1.6-1.6V424c0-.9.7-1.6 1.6-1.6.9 0 1.6.7 1.6 1.6v10.2c-.1.9-.8 1.6-1.6 1.6zM511.2 435.8c-.9 0-1.6-.7-1.6-1.6V424c0-.9.7-1.6 1.6-1.6.9 0 1.6.7 1.6 1.6v10.2c0 .9-.7 1.6-1.6 1.6zM517.4 435.8c-.9 0-1.6-.7-1.6-1.6V424c0-.9.7-1.6 1.6-1.6s1.6.7 1.6 1.6v10.2c0 .9-.8 1.6-1.6 1.6zM523.5 435.8c-.9 0-1.6-.7-1.6-1.6V424c0-.9.7-1.6 1.6-1.6s1.6.7 1.6 1.6v10.2c0 .9-.7 1.6-1.6 1.6zM529.7 435.8c-.9 0-1.6-.7-1.6-1.6V424c0-.9.7-1.6 1.6-1.6.9 0 1.6.7 1.6 1.6v10.2c0 .9-.7 1.6-1.6 1.6zM535.8 435.8c-.9 0-1.6-.7-1.6-1.6V424c0-.9.7-1.6 1.6-1.6.9 0 1.6.7 1.6 1.6v10.2c0 .9-.7 1.6-1.6 1.6z"/><circle class="st46" cx="479.8" cy="424.6" r="1.6"/><circle class="st39" cx="479.8" cy="430.6" r="1.6"/><path class="st40" d="M536.8 463.2H465v-18.7h71.9c3.7 0 6.7 3 6.7 6.7v5.4c-.1 3.6-3.1 6.6-6.8 6.6z"/><path class="st45" d="M461.1 444.5v18.7h10.4c1.5 0 2.6-1.2 2.6-2.6v-13.4c0-1.5-1.2-2.6-2.6-2.6h-10.4z"/><path class="st42" d="M461.1 444.5v18.7h10.4c1.5 0 2.6-1.2 2.6-2.6v-13.4c0-1.5-1.2-2.6-2.6-2.6h-10.4z"/><path class="st43" d="M492.8 460.6c-.9 0-1.6-.7-1.6-1.6v-10.2c0-.9.7-1.6 1.6-1.6s1.6.7 1.6 1.6V459c-.1.9-.8 1.6-1.6 1.6zM498.9 460.6c-.9 0-1.6-.7-1.6-1.6v-10.2c0-.9.7-1.6 1.6-1.6s1.6.7 1.6 1.6V459c0 .9-.7 1.6-1.6 1.6zM505.1 460.6c-.9 0-1.6-.7-1.6-1.6v-10.2c0-.9.7-1.6 1.6-1.6.9 0 1.6.7 1.6 1.6V459c-.1.9-.8 1.6-1.6 1.6zM511.2 460.6c-.9 0-1.6-.7-1.6-1.6v-10.2c0-.9.7-1.6 1.6-1.6.9 0 1.6.7 1.6 1.6V459c0 .9-.7 1.6-1.6 1.6zM517.4 460.6c-.9 0-1.6-.7-1.6-1.6v-10.2c0-.9.7-1.6 1.6-1.6s1.6.7 1.6 1.6V459c0 .9-.8 1.6-1.6 1.6zM523.5 460.6c-.9 0-1.6-.7-1.6-1.6v-10.2c0-.9.7-1.6 1.6-1.6s1.6.7 1.6 1.6V459c0 .9-.7 1.6-1.6 1.6zM529.7 460.6c-.9 0-1.6-.7-1.6-1.6v-10.2c0-.9.7-1.6 1.6-1.6.9 0 1.6.7 1.6 1.6V459c0 .9-.7 1.6-1.6 1.6zM535.8 460.6c-.9 0-1.6-.7-1.6-1.6v-10.2c0-.9.7-1.6 1.6-1.6.9 0 1.6.7 1.6 1.6V459c0 .9-.7 1.6-1.6 1.6z"/><circle class="st46" cx="479.8" cy="449.4" r="1.6"/><circle class="st39" cx="479.8" cy="455.4" r="1.6"/><path class="st40" d="M536.8 488H465v-18.7h71.9c3.7 0 6.7 3 6.7 6.7v5.4c-.1 3.6-3.1 6.6-6.8 6.6z"/><path class="st45" d="M461.1 469.3V488h10.4c1.5 0 2.6-1.2 2.6-2.6V472c0-1.5-1.2-2.6-2.6-2.6h-10.4z"/><path class="st42" d="M461.1 469.3V488h10.4c1.5 0 2.6-1.2 2.6-2.6V472c0-1.5-1.2-2.6-2.6-2.6h-10.4z"/><path class="st43" d="M492.8 485.4c-.9 0-1.6-.7-1.6-1.6v-10.2c0-.9.7-1.6 1.6-1.6s1.6.7 1.6 1.6v10.2c-.1.9-.8 1.6-1.6 1.6zM498.9 485.4c-.9 0-1.6-.7-1.6-1.6v-10.2c0-.9.7-1.6 1.6-1.6s1.6.7 1.6 1.6v10.2c0 .9-.7 1.6-1.6 1.6zM505.1 485.4c-.9 0-1.6-.7-1.6-1.6v-10.2c0-.9.7-1.6 1.6-1.6.9 0 1.6.7 1.6 1.6v10.2c-.1.9-.8 1.6-1.6 1.6zM511.2 485.4c-.9 0-1.6-.7-1.6-1.6v-10.2c0-.9.7-1.6 1.6-1.6.9 0 1.6.7 1.6 1.6v10.2c0 .9-.7 1.6-1.6 1.6zM517.4 485.4c-.9 0-1.6-.7-1.6-1.6v-10.2c0-.9.7-1.6 1.6-1.6s1.6.7 1.6 1.6v10.2c0 .9-.8 1.6-1.6 1.6zM523.5 485.4c-.9 0-1.6-.7-1.6-1.6v-10.2c0-.9.7-1.6 1.6-1.6s1.6.7 1.6 1.6v10.2c0 .9-.7 1.6-1.6 1.6zM529.7 485.4c-.9 0-1.6-.7-1.6-1.6v-10.2c0-.9.7-1.6 1.6-1.6.9 0 1.6.7 1.6 1.6v10.2c0 .9-.7 1.6-1.6 1.6zM535.8 485.4c-.9 0-1.6-.7-1.6-1.6v-10.2c0-.9.7-1.6 1.6-1.6.9 0 1.6.7 1.6 1.6v10.2c0 .9-.7 1.6-1.6 1.6z"/><circle class="st46" cx="479.8" cy="474.2" r="1.6"/><circle class="st39" cx="479.8" cy="480.2" r="1.6"/><path class="st40" d="M536.8 512.8H465v-18.7h71.9c3.7 0 6.7 3 6.7 6.7v5.4c-.1 3.6-3.1 6.6-6.8 6.6z"/><path class="st45" d="M461.1 494.1v18.7h10.4c1.5 0 2.6-1.2 2.6-2.6v-13.4c0-1.5-1.2-2.6-2.6-2.6h-10.4z"/><path class="st42" d="M461.1 494.1v18.7h10.4c1.5 0 2.6-1.2 2.6-2.6v-13.4c0-1.5-1.2-2.6-2.6-2.6h-10.4z"/><path class="st43" d="M492.8 510.2c-.9 0-1.6-.7-1.6-1.6v-10.2c0-.9.7-1.6 1.6-1.6s1.6.7 1.6 1.6v10.2c-.1.9-.8 1.6-1.6 1.6zM498.9 510.2c-.9 0-1.6-.7-1.6-1.6v-10.2c0-.9.7-1.6 1.6-1.6s1.6.7 1.6 1.6v10.2c0 .9-.7 1.6-1.6 1.6zM505.1 510.2c-.9 0-1.6-.7-1.6-1.6v-10.2c0-.9.7-1.6 1.6-1.6.9 0 1.6.7 1.6 1.6v10.2c-.1.9-.8 1.6-1.6 1.6zM511.2 510.2c-.9 0-1.6-.7-1.6-1.6v-10.2c0-.9.7-1.6 1.6-1.6.9 0 1.6.7 1.6 1.6v10.2c0 .9-.7 1.6-1.6 1.6zM517.4 510.2c-.9 0-1.6-.7-1.6-1.6v-10.2c0-.9.7-1.6 1.6-1.6s1.6.7 1.6 1.6v10.2c0 .9-.8 1.6-1.6 1.6zM523.5 510.2c-.9 0-1.6-.7-1.6-1.6v-10.2c0-.9.7-1.6 1.6-1.6s1.6.7 1.6 1.6v10.2c0 .9-.7 1.6-1.6 1.6zM529.7 510.2c-.9 0-1.6-.7-1.6-1.6v-10.2c0-.9.7-1.6 1.6-1.6.9 0 1.6.7 1.6 1.6v10.2c0 .9-.7 1.6-1.6 1.6zM535.8 510.2c-.9 0-1.6-.7-1.6-1.6v-10.2c0-.9.7-1.6 1.6-1.6.9 0 1.6.7 1.6 1.6v10.2c0 .9-.7 1.6-1.6 1.6z"/><circle class="st46" cx="479.8" cy="499" r="1.6"/><circle class="st39" cx="479.8" cy="505" r="1.6"/><path class="st40" d="M536.8 537.6H465v-18.7h71.9c3.7 0 6.7 3 6.7 6.7v5.4c-.1 3.6-3.1 6.6-6.8 6.6z"/><path class="st45" d="M461.1 518.9v18.7h10.4c1.5 0 2.6-1.2 2.6-2.6v-13.4c0-1.5-1.2-2.6-2.6-2.6h-10.4z"/><path class="st42" d="M461.1 518.9v18.7h10.4c1.5 0 2.6-1.2 2.6-2.6v-13.4c0-1.5-1.2-2.6-2.6-2.6h-10.4z"/><path class="st43" d="M492.8 535c-.9 0-1.6-.7-1.6-1.6v-10.2c0-.9.7-1.6 1.6-1.6s1.6.7 1.6 1.6v10.2c-.1.9-.8 1.6-1.6 1.6zM498.9 535c-.9 0-1.6-.7-1.6-1.6v-10.2c0-.9.7-1.6 1.6-1.6s1.6.7 1.6 1.6v10.2c0 .9-.7 1.6-1.6 1.6zM505.1 535c-.9 0-1.6-.7-1.6-1.6v-10.2c0-.9.7-1.6 1.6-1.6.9 0 1.6.7 1.6 1.6v10.2c-.1.9-.8 1.6-1.6 1.6zM511.2 535c-.9 0-1.6-.7-1.6-1.6v-10.2c0-.9.7-1.6 1.6-1.6.9 0 1.6.7 1.6 1.6v10.2c0 .9-.7 1.6-1.6 1.6zM517.4 535c-.9 0-1.6-.7-1.6-1.6v-10.2c0-.9.7-1.6 1.6-1.6s1.6.7 1.6 1.6v10.2c0 .9-.8 1.6-1.6 1.6zM523.5 535c-.9 0-1.6-.7-1.6-1.6v-10.2c0-.9.7-1.6 1.6-1.6s1.6.7 1.6 1.6v10.2c0 .9-.7 1.6-1.6 1.6zM529.7 535c-.9 0-1.6-.7-1.6-1.6v-10.2c0-.9.7-1.6 1.6-1.6.9 0 1.6.7 1.6 1.6v10.2c0 .9-.7 1.6-1.6 1.6zM535.8 535c-.9 0-1.6-.7-1.6-1.6v-10.2c0-.9.7-1.6 1.6-1.6.9 0 1.6.7 1.6 1.6v10.2c0 .9-.7 1.6-1.6 1.6z"/><g><circle class="st46" cx="479.8" cy="523.8" r="1.6"/></g><g><circle class="st39" cx="479.8" cy="529.8" r="1.6"/></g><g><path class="st47" d="M532.6 397.4c-.7 0-1.2-.5-1.2-1.2v-2.1c0-5-4.1-9.1-9.1-9.1h-58c-.7 0-1.2-.5-1.2-1.2s.5-1.2 1.2-1.2h58c6.3 0 11.4 5.1 11.4 11.4v2.1c.1.8-.4 1.3-1.1 1.3z"/></g><g><path class="st47" d="M502.7 398.1c-.7 0-1.2-.5-1.2-1.2 0-4.6-3.8-8.4-8.4-8.4H462c-.7 0-1.2-.5-1.2-1.2s.5-1.2 1.2-1.2h31.1c5.9 0 10.8 4.8 10.8 10.8 0 .6-.5 1.2-1.2 1.2z"/></g><g><path class="st47" d="M495.5 548.4h-31.6c-.7 0-1.2-.5-1.2-1.2s.5-1.2 1.2-1.2h31.6c5.5 0 10-4.5 10-10 0-.7.5-1.2 1.2-1.2s1.2.5 1.2 1.2c0 6.8-5.6 12.4-12.4 12.4z"/></g><g><path class="st40" d="M351.4 346.8c-2.5 0-4.6 2-4.6 4.6v250.4c0 2.5 2 4.6 4.6 4.6h116.2V346.8H351.4z"/></g><g><path class="st41" d="M416 457.2h-13.4c-6.2 0-11.3-5.1-11.3-11.3V437c0-6.2 5.1-11.3 11.3-11.3H416c6.2 0 11.3 5.1 11.3 11.3v8.9c0 6.3-5 11.3-11.3 11.3z"/></g><g><path class="st47" d="M423.4 460.4h-27.6c-4.2 0-7.7-3.4-7.7-7.7v-22.5c0-4.2 3.4-7.7 7.7-7.7h27.6c4.2 0 7.7 3.4 7.7 7.7v22.5c0 4.3-3.5 7.7-7.7 7.7zm-27.5-31.5c-.7 0-1.3.6-1.3 1.3v22.5c0 .7.6 1.3 1.3 1.3h27.6c.7 0 1.3-.6 1.3-1.3v-22.5c0-.7-.6-1.3-1.3-1.3h-27.6z"/></g><g><path class="st42" d="M558.7 581.8c-.3-.9-1-1.8-1.8-2.3-.7-.5-1.6-.8-2.6-.8-2.6 0-4.6 2.1-4.6 4.6v7.1c0 2.6 2.1 4.6 4.6 4.6 2.6 0 4.6-2.1 4.6-4.6v-7.1c.1-.5 0-1-.2-1.5z"/></g><g><path class="st42" d="M430.6 536.1h-42.5c-1.3 0-2.4-1.1-2.4-2.4 0-1.3 1.1-2.4 2.4-2.4h42.5c1.3 0 2.4 1.1 2.4 2.4 0 1.3-1.1 2.4-2.4 2.4z"/></g><g><path class="st42" d="M430.6 545.9h-42.5c-1.3 0-2.4-1.1-2.4-2.4 0-1.3 1.1-2.4 2.4-2.4h42.5c1.3 0 2.4 1.1 2.4 2.4 0 1.4-1.1 2.4-2.4 2.4z"/></g><g><path class="st42" d="M430.6 555.8h-42.5c-1.3 0-2.4-1.1-2.4-2.4 0-1.3 1.1-2.4 2.4-2.4h42.5c1.3 0 2.4 1.1 2.4 2.4 0 1.3-1.1 2.4-2.4 2.4z"/></g><g><path class="st42" d="M430.6 565.7h-42.5c-1.3 0-2.4-1.1-2.4-2.4 0-1.3 1.1-2.4 2.4-2.4h42.5c1.3 0 2.4 1.1 2.4 2.4 0 1.3-1.1 2.4-2.4 2.4z"/></g><g><path class="st42" d="M430.6 575.5h-42.5c-1.3 0-2.4-1.1-2.4-2.4 0-1.3 1.1-2.4 2.4-2.4h42.5c1.3 0 2.4 1.1 2.4 2.4 0 1.4-1.1 2.4-2.4 2.4z"/></g><g><path class="st47" d="M503.6 560.8c-.7 0-1.2-.5-1.2-1.2v-3.8c0-4.5 3.6-8.1 8.1-8.1h2.6c3.2 0 5.7-2.6 5.7-5.7v-5.7c0-.7.5-1.2 1.2-1.2s1.2.5 1.2 1.2v5.7c0 4.5-3.6 8.1-8.1 8.1h-2.6c-3.2 0-5.7 2.6-5.7 5.7v3.8c-.1.7-.6 1.2-1.2 1.2z"/></g><g><path class="st42" d="M570.9 424.8h-.8c-1.4 0-2.5-1.1-2.5-2.5v-14.2c0-1.4 1.1-2.5 2.5-2.5h.8c1.4 0 2.5 1.1 2.5 2.5v14.2c0 1.4-1.1 2.5-2.5 2.5z"/></g><g><circle class="st27" cx="383.3" cy="480.5" r="2"/><circle class="st46" cx="390.3" cy="480.5" r="2"/><circle class="st39" cx="397.4" cy="480.5" r="2"/></g><g><circle class="st27" cx="421.3" cy="480.5" r="2"/><circle class="st46" cx="428.3" cy="480.5" r="2"/><circle class="st39" cx="435.3" cy="480.5" r="2"/></g><g><circle class="st27" cx="402.3" cy="414.1" r="2"/></g><g><circle class="st46" cx="409.3" cy="414.1" r="2"/></g><g><circle class="st39" cx="416.3" cy="414.1" r="2"/></g><g><path class="st43" d="M564.4 586.3h-14.7c-.7 0-1.2-.5-1.2-1.2s.5-1.2 1.2-1.2h14.7c5.5 0 10-4.5 10-10v-26.1c0-5.7 4.6-10.3 10.3-10.3h3.7c.7 0 1.2.5 1.2 1.2s-.5 1.2-1.2 1.2h-3.7c-4.4 0-7.9 3.6-7.9 7.9v26.1c0 6.8-5.6 12.4-12.4 12.4z"/></g><g><path class="st40" d="M603.5 563.2h-3.7c-6.4 0-11.5-5.2-11.5-11.5v-6.8c0-6.4 5.2-11.5 11.5-11.5h3.7c6.4 0 11.5 5.2 11.5 11.5v6.8c.1 6.4-5.1 11.5-11.5 11.5z"/></g><g><path class="st41" d="M600.5 563.2h-3.7c-6.4 0-11.5-5.2-11.5-11.5v-6.8c0-6.4 5.2-11.5 11.5-11.5h3.7c6.4 0 11.5 5.2 11.5 11.5v6.8c0 6.4-5.1 11.5-11.5 11.5z"/></g><g><circle class="st40" cx="588.6" cy="536.7" r="1.2"/><circle class="st40" cx="608.7" cy="536.7" r="1.2"/><path class="st40" d="M608.7 558.7c-.7 0-1.2.6-1.2 1.2 0 .7.6 1.2 1.2 1.2.7 0 1.2-.6 1.2-1.2 0-.7-.6-1.2-1.2-1.2zM588.6 558.7c-.7 0-1.2.6-1.2 1.2 0 .7.6 1.2 1.2 1.2.7 0 1.2-.6 1.2-1.2.1-.7-.5-1.2-1.2-1.2z"/></g><g><ellipse class="st42" cx="598.6" cy="548.3" rx="10" ry="11.6"/></g><g><ellipse class="st40" cx="598.6" cy="548.3" rx="4.4" ry="5.1"/></g></g><path class="st4" d="M745.2 406.6c-1.2-.5-2.5-.7-3.8-.5-1.2.1-2.2-.9-2-2.2.3-1.5.3-3 .1-4.6-.9-6.4-6.1-11.4-12.5-12-3.4-.3-6.5.6-9.1 2.3-1 .7-2.4.2-2.8-1-3.6-11.9-14.7-20.6-27.8-20.6h-1.5c-12.2.4-22.6 7.8-27.7 18.6-.8 1.7-2.6 2.7-4.4 2.6-.7-.1-1.4-.1-2.1-.1-12 0-21.9 9.3-23.6 21.3h-.3c-3.7 0-6.9 1.8-9.1 4.6-1.1 1.5-.1 3.6 1.7 3.6 0 0 128.1.1 128.2 0h.3l-.2-.1c.4-.5.7-1.1.9-1.7 1.7-3.9-.2-8.5-4.3-10.2z"/><linearGradient id="SVGID_33_" gradientUnits="userSpaceOnUse" x1="651.673" y1="353.015" x2="707.717" y2="458.877"><stop offset="0" stop-color="#a178b5"/><stop offset="1" stop-color="#c186e4" stop-opacity="0"/></linearGradient><path d="M745.2 406.6c-1.2-.5-2.5-.7-3.8-.5-1.2.1-2.2-.9-2-2.2.3-1.5.3-3 .1-4.6-.9-6.4-6.1-11.4-12.5-12-3.4-.3-6.5.6-9.1 2.3-1 .7-2.4.2-2.8-1-3.6-11.9-14.7-20.6-27.8-20.6h-1.5c-12.2.4-22.6 7.8-27.7 18.6-.8 1.7-2.6 2.7-4.4 2.6-.7-.1-1.4-.1-2.1-.1-12 0-21.9 9.3-23.6 21.3h-.3c-3.7 0-6.9 1.8-9.1 4.6-1.1 1.5-.1 3.6 1.7 3.6 0 0 128.1.1 128.2 0h.3l-.2-.1c.4-.5.7-1.1.9-1.7 1.7-3.9-.2-8.5-4.3-10.2z" fill="url(#SVGID_33_)"/><g><linearGradient id="SVGID_34_" gradientUnits="userSpaceOnUse" x1="144.68" y1="695.042" x2="144.68" y2="727.7" gradientTransform="matrix(-1 0 0 1 806.211 0)"><stop offset="0" stop-color="#a178b5"/><stop offset="1" stop-color="#c186e4" stop-opacity="0"/></linearGradient><path d="M658.5 710.9c0-1.7 1.4-3.1 3.1-3.1 1.5 0 2.8 1.1 3 2.5v1c-.2 1.4-1.5 2.5-3 2.5-1.8.2-3.1-1.2-3.1-2.9z" opacity=".61" fill="url(#SVGID_34_)"/><linearGradient id="SVGID_35_" gradientUnits="userSpaceOnUse" x1="157.239" y1="695.042" x2="157.239" y2="727.7" gradientTransform="matrix(-1 0 0 1 806.211 0)"><stop offset="0" stop-color="#a178b5"/><stop offset="1" stop-color="#c186e4" stop-opacity="0"/></linearGradient><path d="M645.9 710.9c0-1.7 1.4-3.1 3.1-3.1 1.7 0 3.1 1.4 3.1 3.1s-1.4 3.1-3.1 3.1c-1.7 0-3.1-1.4-3.1-3.1z" opacity=".61" fill="url(#SVGID_35_)"/><linearGradient id="SVGID_36_" gradientUnits="userSpaceOnUse" x1="169.797" y1="695.042" x2="169.797" y2="727.7" gradientTransform="matrix(-1 0 0 1 806.211 0)"><stop offset="0" stop-color="#a178b5"/><stop offset="1" stop-color="#c186e4" stop-opacity="0"/></linearGradient><path d="M633.3 710.9c0-1.7 1.4-3.1 3.1-3.1 1.7 0 3.1 1.4 3.1 3.1s-1.4 3.1-3.1 3.1c-1.7 0-3.1-1.4-3.1-3.1z" opacity=".61" fill="url(#SVGID_36_)"/></g><g><linearGradient id="SVGID_37_" gradientUnits="userSpaceOnUse" x1="493.116" y1="285.836" x2="493.116" y2="318.493" gradientTransform="matrix(-1 0 0 1 806.211 0)"><stop offset="0" stop-color="#a178b5"/><stop offset="1" stop-color="#c186e4" stop-opacity="0"/></linearGradient><path d="M310 301.7c0-1.7 1.4-3.1 3.1-3.1 1.5 0 2.8 1.1 3 2.5v1c-.2 1.4-1.5 2.5-3 2.5-1.7.1-3.1-1.2-3.1-2.9z" opacity=".61" fill="url(#SVGID_37_)"/><linearGradient id="SVGID_38_" gradientUnits="userSpaceOnUse" x1="505.675" y1="285.836" x2="505.675" y2="318.493" gradientTransform="matrix(-1 0 0 1 806.211 0)"><stop offset="0" stop-color="#a178b5"/><stop offset="1" stop-color="#c186e4" stop-opacity="0"/></linearGradient><path d="M297.5 301.7c0-1.7 1.4-3.1 3.1-3.1 1.7 0 3.1 1.4 3.1 3.1s-1.4 3.1-3.1 3.1c-1.8-.1-3.1-1.4-3.1-3.1z" opacity=".61" fill="url(#SVGID_38_)"/><linearGradient id="SVGID_39_" gradientUnits="userSpaceOnUse" x1="518.233" y1="285.836" x2="518.233" y2="318.493" gradientTransform="matrix(-1 0 0 1 806.211 0)"><stop offset="0" stop-color="#a178b5"/><stop offset="1" stop-color="#c186e4" stop-opacity="0"/></linearGradient><path d="M284.9 301.7c0-1.7 1.4-3.1 3.1-3.1 1.7 0 3.1 1.4 3.1 3.1s-1.4 3.1-3.1 3.1c-1.7-.1-3.1-1.4-3.1-3.1z" opacity=".61" fill="url(#SVGID_39_)"/></g><g><linearGradient id="SVGID_40_" gradientUnits="userSpaceOnUse" x1="3.195" y1="364.962" x2="3.195" y2="397.619" gradientTransform="matrix(-1 0 0 1 806.211 0)"><stop offset="0" stop-color="#a178b5"/><stop offset="1" stop-color="#c186e4" stop-opacity="0"/></linearGradient><path d="M800 380.8c0-1.7 1.4-3.1 3.1-3.1 1.5 0 2.8 1.1 3 2.5v1c-.2 1.4-1.5 2.5-3 2.5-1.8.2-3.1-1.2-3.1-2.9z" opacity=".61" fill="url(#SVGID_40_)"/><linearGradient id="SVGID_41_" gradientUnits="userSpaceOnUse" x1="15.753" y1="364.962" x2="15.753" y2="397.619" gradientTransform="matrix(-1 0 0 1 806.211 0)"><stop offset="0" stop-color="#a178b5"/><stop offset="1" stop-color="#c186e4" stop-opacity="0"/></linearGradient><path d="M787.4 380.8c0-1.7 1.4-3.1 3.1-3.1s3.1 1.4 3.1 3.1c0 1.7-1.4 3.1-3.1 3.1s-3.1-1.4-3.1-3.1z" opacity=".61" fill="url(#SVGID_41_)"/><linearGradient id="SVGID_42_" gradientUnits="userSpaceOnUse" x1="28.312" y1="364.962" x2="28.312" y2="397.619" gradientTransform="matrix(-1 0 0 1 806.211 0)"><stop offset="0" stop-color="#a178b5"/><stop offset="1" stop-color="#c186e4" stop-opacity="0"/></linearGradient><path d="M774.8 380.8c0-1.7 1.4-3.1 3.1-3.1 1.7 0 3.1 1.4 3.1 3.1 0 1.7-1.4 3.1-3.1 3.1-1.7 0-3.1-1.4-3.1-3.1z" opacity=".61" fill="url(#SVGID_42_)"/></g><g><path class="st46" d="M318 374.1h-31.5c-3.5 0-6.3-2.8-6.3-6.3v-31.5c0-3.5 2.8-6.3 6.3-6.3H318c3.5 0 6.3 2.8 6.3 6.3v31.5c-.1 3.5-2.9 6.3-6.3 6.3z"/><path class="st27" d="M310.7 360.7c0 .1.1.2.1.3 0 .6-4.3 2.5-9.5 2.5-7.4 0-11.4-3.9-11.4-10.4 0-7.8 6.1-13.5 13.6-13.5 6.4 0 10 3.6 10 8.7 0 5.7-4.1 8.8-7.9 8.8-2.1 0-2.5-1.2-2.6-2-.5.7-1.5 2-3.3 2-1.7 0-2.7-1.2-2.7-3.5 0-3.9 2.3-7.4 5.2-7.4 1.3 0 2 .7 2.2 1l.1-.3c.1-.2.3-.3.5-.3h1.9c.2 0 .3.1.3.3v.3l-1.3 6.1c-.1.3-.1.5-.1.7 0 .7.5.8 1 .8 1.9 0 4.1-2.2 4.1-6.3 0-3.9-2.6-6.7-7.6-6.7-6.4 0-10.9 4.9-10.9 11.4 0 5.2 3.2 8.2 8.8 8.2 5.5 0 8.3-2.1 8.8-2.1.1 0 .2.1.3.2l.4 1.2zm-6.9-11.7c-.3-.3-.7-.6-1.4-.6-1.6 0-2.3 3.3-2.3 5.4 0 .7.2 1.1.8 1.1 1.3 0 2-1.5 2.3-2.6l.6-3.3z"/></g></svg>