<?xml version="1.0" encoding="UTF-8"?>
<svg width="320px" height="320px" viewBox="0 0 320 320" version="1.1" xmlns="http://www.w3.org/2000/svg" xmlns:xlink="http://www.w3.org/1999/xlink">
    <title>servicos-digitais</title>
    <g id="Page-1" stroke="none" stroke-width="1" fill="none" fill-rule="evenodd">
        <g id="servicos-digitais" transform="translate(0.000000, 46.000000)" fill="#666666" fill-rule="nonzero">
            <path d="M235.136364,226.272727 L66.0454545,226.272727 C29.7727273,226.272727 0.272727273,196.772727 0.272727273,160.5 C0.272727273,145.818182 5.36363636,131.772727 15,119.863636 C23.6818182,109.090909 35.4545455,101.090909 48.1818182,97.2272727 C49.0454545,70.8181818 58.3636364,46.7727273 74.6818182,29.2272727 C92.0909091,10.4545455 116.545455,0.136363636 143.454545,0.136363636 C182.090909,0.181818182 217.363636,22.2727273 234.227273,57.0909091 L235.181818,57.0909091 C281.863636,57.0909091 319.818182,95.0454545 319.818182,141.727273 C319.818182,188.409091 281.772727,226.272727 235.136364,226.272727 Z M143.409091,18.2727273 C132.272727,18.2727273 121.727273,20.3636364 112.136364,24.5 C102.954545,28.4545455 94.7272727,34.2727273 87.9545455,41.5909091 C73.9545455,56.6818182 66.2727273,77.8181818 66.2727273,101.181818 C66.2727273,105.681818 64.1818182,111.590909 54.2727273,114.363636 C44.6818182,117.090909 35.7272727,123.090909 29.0909091,131.272727 C24.2272727,137.318182 18.4090909,147.272727 18.4090909,160.5 C18.4545455,186.772727 39.7272727,208.045455 66,208.090909 L235.090909,208.090909 C271.727273,208.090909 301.545455,178.272727 301.545455,141.636364 C301.545455,105 271.727273,75.1818182 235.090909,75.1818182 C234.272727,75.1818182 233.318182,75.2272727 232.363636,75.2727273 C231.681818,75.3181818 231.045455,75.3181818 230.363636,75.3636364 C227.909091,75.4545455 221.818182,74.8181818 218.818182,67.2272727 L218.772727,67.0909091 C205.5,37.4545455 175.954545,18.3181818 143.409091,18.2727273 Z" id="Shape"></path>
        </g>
    </g>
</svg>