<?xml version="1.0" encoding="UTF-8"?>
<svg width="320px" height="320px" viewBox="0 0 320 320" version="1.1" xmlns="http://www.w3.org/2000/svg" xmlns:xlink="http://www.w3.org/1999/xlink">
    <title>vivo-total</title>
    <g id="Page-1" stroke="none" stroke-width="1" fill="none" fill-rule="evenodd">
        <g id="vivo-total" transform="translate(35.000000, 0.000000)" fill="#666666" fill-rule="nonzero">
            <path d="M249.481481,260.512821 C249.527066,260.148148 249.57265,131.737892 249.57265,131.737892 C249.57265,131.282051 249.57265,129.458689 249.57265,129.002849 C249.57265,125.356125 247.384615,122.02849 244.011396,120.615385 L211.418803,106.803419 C211.327635,105.982906 208.683761,94.9059829 208.638177,94.6324786 C208.638177,94.6324786 208.638177,94.6324786 208.638177,94.6324786 C205.675214,82.2792023 193.549858,74.4387464 181.014245,76.8091168 L181.014245,76.8091168 C179.373219,77.1282051 175.179487,78.1310541 161.823362,81.3219373 C170.666667,71.3846154 173.903134,58.1652422 173.903134,48.8205128 C173.903134,35.8746439 168.752137,23.6581197 159.361823,14.4501425 C150.062678,5.33333333 137.80057,0.273504274 124.854701,0.273504274 C111.908832,0.273504274 99.6467236,5.28774929 90.3475783,14.4501425 C80.957265,23.6581197 75.8062678,35.8746439 75.8062678,48.8205128 C75.8062678,58.1652422 78.997151,71.3390313 87.8860399,81.3219373 C74.5299145,78.1310541 70.3361823,77.1282051 68.6951567,76.8091168 L68.6951567,76.8091168 C56.2051282,74.4387464 44.0797721,82.2792023 41.1168091,94.6324786 C41.1168091,94.6780627 41.1168091,94.7236467 41.0712251,94.7236467 C40.8888889,95.4074074 38.4273504,105.982906 38.2905983,106.803419 L5.6980057,120.615385 C2.32478632,122.02849 0.136752137,125.356125 0.136752137,129.002849 C0.136752137,129.367521 0.136752137,130.917379 0.136752137,131.282051 C0.136752137,131.282051 0.136752137,260.421652 0.182336182,260.740741 C-0.227920228,264.615385 1.91452991,268.444444 5.6980057,270.039886 L121.253561,319.042735 C122.393162,319.54416 123.623932,319.77208 124.809117,319.77208 C126.039886,319.77208 127.225071,319.54416 128.364672,319.042735 L243.920228,270.039886 C247.840456,268.39886 249.982906,264.478632 249.481481,260.512821 Z M18.4615385,142.769231 L115.783476,184.022792 L115.783476,296.888889 L18.4615385,255.635328 L18.4615385,142.769231 Z M134.017094,184.022792 L231.339031,142.769231 L231.339031,255.635328 L134.017094,296.888889 L134.017094,184.022792 Z M166.290598,150.564103 L161.048433,144.045584 C160.182336,142.951567 159.817664,142.131054 159.726496,141.811966 C159.726496,141.720798 159.726496,141.62963 159.726496,141.584046 C160,141.401709 160.729345,140.991453 162.279202,140.581197 C162.507123,140.535613 163.509972,140.262108 165.059829,139.897436 C186.803419,134.655271 192.547009,133.287749 194.507123,132.695157 L194.507123,132.695157 C199.475783,131.236467 203.669516,128.273504 206.632479,124.444444 L217.116809,128.911681 L166.290598,150.564103 Z M56.5242165,108.626781 C56.7065527,107.988604 58.2564103,101.698006 58.8490028,98.8262108 L58.8490028,98.8262108 C59.5327635,95.9088319 62.4045584,94.0854701 65.3219373,94.6324786 C65.3219373,94.6324786 65.3675214,94.6324786 65.3675214,94.6324786 C66.9173789,94.951567 78.2678063,97.6866097 95.2250712,101.698006 L95.5897436,101.789174 C95.6353276,101.789174 95.6809117,101.789174 95.6809117,101.834758 L96.2279202,101.97151 C98.9173789,102.564103 101.97151,103.293447 105.162393,103.065527 C110.905983,102.700855 115.327635,99.5099715 117.242165,94.2678063 C119.065527,89.3903134 118.42735,84.6039886 115.464387,80.6837607 C113.504274,78.1310541 111.042735,76.5356125 108.626781,74.9401709 L108.444444,74.8490028 C106.666667,73.7094017 104.706553,72.3418803 102.42735,70.0626781 C96.2279202,63.8632479 94.039886,54.7008547 94.039886,48.7293447 C94.039886,40.7065527 97.2763533,33.0940171 103.111111,27.3504274 C108.991453,21.6068376 116.695157,18.4159544 124.854701,18.4159544 C133.014245,18.4159544 140.717949,21.6068376 146.598291,27.3504274 C152.433048,33.0940171 155.669516,40.7065527 155.669516,48.7293447 C155.669516,54.7008547 153.481481,63.9088319 147.282051,70.0626781 C145.002849,72.3418803 143.042735,73.7094017 141.219373,74.8945869 L141.082621,74.985755 C138.666667,76.5356125 136.159544,78.1766382 134.245014,80.7293447 C131.282051,84.6039886 130.643875,89.4358974 132.467236,94.3133903 C134.42735,99.5555556 138.849003,102.746439 144.592593,103.111111 C147.783476,103.293447 150.837607,102.609687 153.527066,102.017094 L154.074074,101.880342 C154.119658,101.880342 154.119658,101.880342 154.165242,101.834758 L155.578348,101.51567 C178.37037,96.045584 183.475783,94.8603989 184.387464,94.6780627 C184.387464,94.6780627 184.387464,94.6780627 184.433048,94.6780627 C187.396011,94.1310541 190.222222,95.954416 190.905983,98.8717949 L190.905983,98.8717949 C191.179487,100.011396 193.230769,108.535613 193.230769,108.626781 C193.91453,111.54416 192.22792,114.461538 189.356125,115.327635 C187.94302,115.692308 178.324786,118.017094 160.774929,122.25641 C158.905983,122.712251 158.176638,122.894587 157.811966,122.985755 L157.811966,122.985755 C143.589744,126.632479 141.447293,136.524217 141.447293,142.08547 C141.447293,147.60114 144.319088,152.387464 146.735043,155.441595 C146.735043,155.487179 146.780627,155.487179 146.780627,155.487179 L148.786325,157.994302 L124.900285,168.11396 L100.968661,157.948718 C102.245014,156.39886 102.974359,155.441595 102.974359,155.441595 C102.974359,155.396011 103.019943,155.396011 103.019943,155.350427 C105.435897,152.296296 108.307692,147.509972 108.307692,141.994302 C108.307692,136.433048 106.165242,126.495726 91.9430199,122.894587 L91.9430199,122.894587 C91.7150997,122.849003 91.1680912,122.712251 89.6182336,122.347578 C67.4188034,117.014245 61.4017094,115.509972 60.3988604,115.282051 C57.5726496,114.461538 55.8404558,111.54416 56.5242165,108.626781 Z M43.1680912,124.535613 C46.1310541,128.364672 50.2792023,131.282051 55.2934473,132.786325 L55.2934473,132.786325 C57.2079772,133.333333 62.997151,134.746439 85.3789174,140.125356 C86.5641026,140.39886 87.3390313,140.581197 87.5213675,140.626781 C89.0712251,141.037037 89.8005698,141.401709 90.0740741,141.584046 C90.0740741,141.62963 90.0740741,141.720798 90.0740741,141.811966 C89.982906,142.131054 89.6182336,142.951567 88.7521368,144.045584 C88.4786325,144.410256 86.4273504,146.917379 83.5099715,150.518519 L32.6837607,129.002849 L43.1680912,124.535613 Z" id="Shape"></path>
        </g>
    </g>
</svg>