<svg id="Layer_1" xmlns="http://www.w3.org/2000/svg" viewBox="0 0 108 108"><style>.st3{fill:#784fa1}.st4{fill:#609}.st7{fill:#fff}</style><path d="M65.8 98.9h-61c-1.7 0-3-1.3-3-3V13c0-1.7 1.3-3 3-3h61c1.7 0 3 1.3 3 3v82.9c0 1.7-1.3 3-3 3z" fill="#8533ad"/><path d="M68.8 87.1v-6.4h-.9c-9.5 0-17.1-7.7-17.1-17.1 0-9.5 7.7-17.1 17.1-17.1h.9v-6.4h-.9c-13 0-23.5 10.5-23.5 23.5s10.5 23.5 23.5 23.5c.3.1.6.1.9 0z" fill="#791fa5"/><path d="M75.1 80.3H60.4S49.1 74.7 48.1 61s12.3-20 12.3-20h14.7v39.3z" fill="#956cad"/><path class="st3" d="M75.1 78.4c-2.2 1-4.6 1.6-7.2 1.6-9.5 0-17.1-7.7-17.1-17.1 0-9.5 7.7-17.1 17.1-17.1 2.6 0 5 .6 7.2 1.6V41H60.4s-13.2 6.3-12.3 20c.9 13.7 12.3 19.3 12.3 19.3h14.7v-1.9z"/><path class="st4" d="M49.1 22.9H15.4c-.6 0-1-.5-1-1s.5-1 1-1h33.7c.6 0 1 .5 1 1s-.4 1-1 1zM49.1 55.4H15.4c-.6 0-1-.5-1-1 0-.6.5-1 1-1h33.7c.6 0 1 .5 1 1s-.4 1-1 1z"/><path class="st3" d="M61.4 55.9H47.7c-.8 0-1.5-.7-1.5-1.5s.7-1.5 1.5-1.5h13.7c.8 0 1.5.7 1.5 1.5s-.7 1.5-1.5 1.5z"/><path class="st4" d="M49.1 66.2H15.4c-.6 0-1-.5-1-1s.5-1 1-1h33.7c.6 0 1 .5 1 1s-.4 1-1 1z"/><path class="st3" d="M63.3 66.7H48.6c-.8 0-1.5-.7-1.5-1.5s.7-1.5 1.5-1.5h14.6c.8 0 1.5.7 1.5 1.5s-.6 1.5-1.4 1.5z"/><path class="st4" d="M39.7 77.1H15.4c-.6 0-1-.5-1-1s.5-1 1-1h24.3c.6 0 1 .5 1 1s-.5 1-1 1zM44.4 87.9h-29c-.6 0-1-.5-1-1s.5-1 1-1h29c.6 0 1 .5 1 1s-.4 1-1 1zM54.3 33.7H15.4c-.6 0-1-.5-1-1 0-.6.5-1 1-1h38.9c.6 0 1 .5 1 1s-.4 1-1 1zM54.3 44.5H15.4c-.6 0-1-.5-1-1s.5-1 1-1h38.9c.6 0 1 .5 1 1s-.4 1-1 1z"/><path d="M101.9 101.7c-.8 0-1.6-.3-2.3-.9l-21-21c-1.2-1.2-1.2-3.3 0-4.5 1.2-1.2 3.3-1.2 4.5 0l21 21c1.2 1.2 1.2 3.3 0 4.5-.6.6-1.4.9-2.2.9z" fill="#d83582"/><path class="st4" d="M101.9 103.5c-1.3 0-2.6-.5-3.5-1.5l-9.8-9.8c-2-2-2-5.1 0-7.1s5.1-2 7.1 0l9.8 9.8c2 2 2 5.1 0 7.1-1.1 1-2.4 1.5-3.6 1.5z"/><path d="M67.9 84.7c-13 0-23.5-10.5-23.5-23.5S55 37.7 67.9 37.7s23.5 10.5 23.5 23.5-10.5 23.5-23.5 23.5zm0-40.7c-9.5 0-17.1 7.7-17.1 17.1 0 9.5 7.7 17.1 17.1 17.1S85 70.5 85 61.1c.1-9.4-7.6-17.1-17.1-17.1z" fill="#eb3d7d"/><path class="st7" d="M68.4 50.3c4.1 0 7.8 1.9 10.1 5.2 1.1 1.6 3.7.1 2.6-1.5-2.9-4.2-7.6-6.7-12.7-6.7-1.9 0-1.9 3 0 3zM62.8 51.2c1.9 0 1.9-3 0-3s-2 3 0 3z"/></svg>