<svg width="320" height="320" viewBox="0 0 320 320" fill="none" xmlns="http://www.w3.org/2000/svg">
<g clip-path="url(#clip0)">
<path fill-rule="evenodd" clip-rule="evenodd" d="M203.618 297.61C211.307 290.145 218.3 280.848 224.482 269.843C230.978 258.277 236.332 245.252 240.455 231.205H289.162C274.08 266.746 245.496 288.946 203.618 297.61ZM29.8305 231.205H73.3321C77.4558 245.252 82.8095 258.277 89.306 269.843C95.0686 280.103 101.535 288.881 108.614 296.072C70.4055 286.487 44.0839 264.811 29.8305 231.205ZM17.2345 159.54C17.2345 143.525 18.6149 128.853 21.3614 115.522H66.9268C64.6292 129.554 63.4344 144.222 63.4344 159.2C63.4344 177.81 65.2743 195.946 68.7926 212.97H23.602C19.3666 197.231 17.2345 179.422 17.2345 159.54ZM107.857 23.1161C101.075 30.1596 94.8616 38.6655 89.306 48.5569C81.2792 62.8477 74.9933 79.3623 70.6247 97.2872H26.2492C39.3265 58.4833 66.6013 33.6871 107.857 23.1161ZM292.691 97.2872H243.162C238.794 79.3623 232.509 62.8477 224.482 48.5569C218.524 37.9503 211.812 28.9361 204.451 21.6131C229.213 26.8997 249.39 36.9593 264.706 51.7201C277.161 63.7252 286.5 78.9615 292.691 97.2872ZM167.75 212.97V115.522H228.378C230.837 129.444 232.118 144.134 232.118 159.2C232.118 177.959 230.136 196.135 226.358 212.97H167.75ZM167.75 298.72V231.205H221.391C217.911 241.948 213.626 251.936 208.583 260.913C197.065 281.419 182.858 294.472 167.75 298.72ZM149.516 231.205V299.538C133.117 296.424 117.603 282.987 105.204 260.913C100.161 251.936 95.8763 241.948 92.3958 231.205H149.516ZM149.516 18.8619V97.2872H89.4195C93.3121 82.6682 98.6147 69.2184 105.204 57.4868C117.603 35.413 133.117 21.9759 149.516 18.8619ZM167.75 19.6802C182.858 23.928 197.065 36.9802 208.583 57.4868C215.173 69.2184 220.475 82.6682 224.368 97.2872H167.75V19.6802ZM81.6689 159.2C81.6689 144.134 82.9499 129.444 85.4088 115.522H149.516V212.97H87.4288C83.6515 196.135 81.6689 177.959 81.6689 159.2ZM295.394 212.97H244.995C248.513 195.946 250.353 177.81 250.353 159.2C250.353 144.222 249.158 129.554 246.86 115.522H297.598C300.367 128.882 301.765 143.562 301.765 159.54C301.765 179.422 299.632 197.231 295.394 212.97ZM320 159.54C320 106.555 305.654 65.8619 277.359 38.5917C250.103 12.3203 210.435 -1 159.46 -1C108.49 -1 68.835 12.3212 41.5977 38.594C13.3319 65.8582 -1 106.55 -1 159.54C-1 212.525 13.3328 253.205 41.6004 280.449C68.8305 306.693 108.484 320 159.46 320C210.441 320 250.107 306.694 277.357 280.451C305.653 253.201 320 212.521 320 159.54Z" fill="#666666"/>
</g>
<defs>
<clipPath id="clip0">
<rect width="320" height="320" fill="white"/>
</clipPath>
</defs>
</svg>
