<?xml version="1.0" encoding="UTF-8"?>
<svg width="219px" height="19px" viewBox="0 0 219 19" version="1.1" xmlns="http://www.w3.org/2000/svg" xmlns:xlink="http://www.w3.org/1999/xlink">
    <!-- Generator: Sketch 54.1 (76490) - https://sketchapp.com -->
    <title>Group 56</title>
    <desc>Created with Sketch.</desc>
    <g id="Page-1" stroke="none" stroke-width="1" fill="none" fill-rule="evenodd">
        <g id="Group-56" fill="#003345">
            <path d="M154.2265,5.904 L154.3405,5.801 C154.1825,5.548 154.1245,5.086 154.1315,4.818 C154.1915,2.538 156.5935,1.249 160.3485,1.249 L162.4265,1.249 C161.2195,1.953 160.2055,2.884 159.4305,4.643 C159.0955,5.399 157.5065,9.467 156.8565,11.293 C156.0525,13.468 155.5345,14.456 154.8925,14.818 L155.0045,15.01 C156.8005,15.127 157.8775,14.205 158.5685,12.506 C159.2255,10.9 160.0965,8.341 160.5245,7.209 C161.9085,3.549 162.5125,2.01 163.6145,1.249 C165.1565,1.24 166.6375,1.24 166.6375,1.24 C168.2865,1.195 168.9925,0.788 169.5105,0.144 L169.3935,0 C168.9795,0.22 168.0825,0.266 167.3205,0.27 L159.8605,0.27 C155.6635,0.27 153.0925,1.651 152.6725,3.7 C152.4675,4.692 153.0215,5.767 154.2265,5.904" id="Fill-1"></path>
            <path d="M199.7314,2.985 C200.2114,2.981 200.6904,2.532 200.7924,2.005 C200.9124,1.459 200.5934,1.038 200.1124,1.051 C199.6364,1.054 199.1604,1.491 199.0464,2.033 C198.9444,2.567 199.2394,2.991 199.7314,2.985" id="Fill-3"></path>
            <path d="M175.664,4.901 C175.924,4.901 176.028,5.083 176.028,5.312 C176.018,6.384 174.7,7.758 172.994,8.762 C173.425,7.1 174.618,4.889 175.664,4.901 M170.678,10.503 C170.664,11.612 171.253,12.542 172.754,12.489 C174.366,12.442 175.832,11.511 177.1,10.181 C176.776,11.035 176.507,11.772 176.344,12.167 C175.871,13.342 175.527,14.299 174.801,14.842 L174.881,14.991 C177.003,15.109 177.798,13.62 178.671,11.187 C179.547,8.754 180.285,6.635 180.861,5.164 C181.788,5.164 183.107,5.197 183.844,5.031 C181.921,5.884 180.285,8.952 180.476,10.973 C180.563,11.875 181.096,12.489 182.236,12.489 C184.444,12.489 186.302,9.877 187.015,8.151 C187.416,7.165 187.689,6.322 187.727,5.475 C188.259,5.38 188.76,5.29 189.011,5.253 C189.492,5.19 189.399,5.723 189.247,6.124 C188.347,8.647 186.783,12.309 186.774,12.365 L188.501,12.365 C189.247,10.811 189.711,9.812 190.305,8.756 C191.023,7.513 192.63,5.46 193.267,5.456 C193.492,5.456 193.552,5.601 193.496,5.819 C193.384,6.662 191.318,9.892 191.351,11.489 C191.372,12.535 191.926,13.168 192.879,13.404 L193.079,13.294 C192.961,13.062 192.944,12.777 192.944,12.442 C192.927,11.381 193.794,9.517 194.127,8.794 C194.657,7.659 195.608,6.002 195.548,5.086 C195.513,4.643 195.185,4.247 194.421,4.241 C193.014,4.232 191.612,5.601 190.44,7.428 L190.405,7.423 C190.88,6.361 191.246,5.371 191.235,4.889 C191.225,4.448 190.975,4.272 190.445,4.272 C190.079,4.289 189.569,4.43 189.073,4.563 C188.38,4.739 187.648,4.928 186.849,5.098 C186.352,5.164 186.183,5.253 186.198,5.433 C186.298,8.231 184.393,11.52 183.125,11.531 C182.576,11.531 182.457,11.13 182.457,10.582 C182.448,8.647 184.039,5.399 185.599,4.88 C185.728,4.839 185.86,4.818 185.949,4.787 L186.147,4.26 C185.817,4.332 185.033,4.343 184.619,4.354 L181.21,4.354 C182.11,2.21 183.374,0.814 185.229,0.733 C186.373,0.694 187.153,1.13 187.223,1.789 C187.267,2.349 187.109,2.803 186.666,3.268 L186.79,3.396 C187.807,2.915 188.502,2.103 188.511,1.546 C188.524,0.688 187.485,0.157 185.83,0.17 C183.724,0.185 181.128,0.662 179.321,4.419 C178.776,4.5 178.284,4.703 177.874,5.146 L177.945,5.312 C178.245,5.203 178.598,5.19 178.984,5.19 C178.735,5.801 178.236,7.145 177.729,8.512 C176.202,10.531 174.669,11.489 173.546,11.489 C172.933,11.511 172.684,11.169 172.683,10.582 C172.675,10.21 172.763,9.701 172.842,9.422 C174.038,8.824 175.249,8.144 176.337,7.023 C176.935,6.375 177.351,5.723 177.369,5.053 C177.378,4.419 176.987,4.095 176.189,4.082 C175.05,4.068 173.672,4.85 172.771,5.801 C171.604,7.08 170.69,8.888 170.678,10.503" id="Fill-5"></path>
            <path d="M183.223,18 C165.752,18 148,18.211 148,18.468 C148,18.728 165.752,18.946 183.223,18.946 C200.702,18.946 218.45,18.728 218.45,18.468 C218.45,18.211 200.702,18 183.223,18" id="Path"></path>
            <path d="M166.3232,4.901 C166.5852,4.901 166.6762,5.083 166.6762,5.312 C166.6762,6.384 165.3442,7.758 163.6532,8.762 C164.0752,7.1 165.2752,4.889 166.3232,4.901 M167.8862,8.578 C166.8372,10.108 165.3632,11.489 164.0992,11.489 C163.5622,11.511 163.3242,11.204 163.3362,10.582 C163.3362,10.21 163.4242,9.69 163.4922,9.422 C164.6902,8.824 165.9062,8.144 166.9932,7.023 C167.5982,6.375 167.9992,5.723 168.0212,5.053 C168.0302,4.419 167.6292,4.095 166.8442,4.082 C165.6962,4.068 164.3242,4.85 163.4322,5.801 C162.2612,7.08 161.3542,8.888 161.3282,10.503 C161.3192,11.641 161.8572,12.542 163.3242,12.489 C164.8952,12.442 166.4352,11.233 167.2322,10.36 C167.1362,10.739 167.0712,11.088 167.0712,11.377 C167.0712,12.389 167.5762,13.108 168.5702,13.409 L168.7652,13.316 C168.6752,13.044 168.6522,12.762 168.6752,12.44 C168.7492,11.454 169.1362,10.35 169.7162,8.886 C170.8072,6.124 172.4012,2.972 173.1022,1.108 L171.4302,1.421 C171.1702,1.478 171.0052,1.676 170.9192,1.868 C170.1112,3.581 169.2852,5.413 168.2472,7.789 C168.1302,8.043 168.0212,8.312 167.8862,8.578" id="Fill-10"></path>
            <path d="M209.6415,5.1667 C210.1425,4.9337 210.5615,4.9207 210.9135,4.9877 C210.7825,5.2667 210.1775,6.4867 209.7075,7.5867 C208.9635,9.3097 207.8385,11.0457 206.8015,11.2947 C206.4465,11.3977 206.2325,11.2417 206.2395,10.8887 C206.2705,9.3587 207.9495,5.9607 209.6415,5.1667 M194.9025,11.3167 C194.9025,12.0737 195.3875,12.5477 196.3115,12.5217 C197.2685,12.5057 198.2395,11.9377 199.0465,11.1607 C199.1975,11.9767 199.7925,12.5787 201.0015,12.5347 C202.2595,12.4887 203.4635,11.6987 204.2995,10.7897 L204.2995,11.0507 C204.2995,11.8967 204.7355,12.5257 205.7015,12.5257 C206.7385,12.5257 207.9365,11.7497 208.8845,10.3987 L208.9145,10.4167 C208.8295,10.7387 208.7255,11.2767 208.7095,11.6417 C208.6975,12.6497 209.2985,13.2407 210.1355,13.4037 L210.3405,13.3217 C210.0345,12.5877 210.4595,10.7527 210.6385,10.1457 C211.2625,8.1357 212.2535,5.8407 212.8275,4.6517 C212.5665,4.4307 211.9545,4.2747 211.3065,4.2477 C209.1405,4.1697 206.9645,5.0597 205.3745,7.8697 C205.1035,8.3597 204.8035,8.9237 204.5845,9.5177 C204.3605,9.8177 204.1255,10.0837 204.0225,10.1817 C203.4515,10.7387 202.6315,11.4427 201.8045,11.4537 C201.3325,11.4607 201.0745,11.1297 201.0825,10.5467 C201.0945,8.2947 203.0795,4.8807 204.4215,4.8717 C204.7945,4.8717 204.9515,5.0357 204.9515,5.3517 C204.9515,5.7237 204.6955,6.2397 204.3305,6.5707 L204.4905,6.7097 C205.3945,6.3657 206.2325,5.7387 206.2395,5.0677 C206.2395,4.3047 205.3575,4.1607 204.5765,4.1697 C203.5255,4.1847 202.2175,4.6957 201.1645,5.8457 C199.8485,7.2797 199.1705,9.0047 199.0365,10.2357 C198.4355,10.9337 197.7605,11.4137 197.3175,11.4207 C197.0595,11.4297 196.8805,11.2947 196.8805,11.0247 C196.8805,10.7937 197.0105,10.3167 197.2455,9.7007 C197.8285,8.2467 198.6645,6.4417 199.7025,4.2967 C199.7025,4.2967 198.1245,4.5627 197.9005,4.6257 C197.6635,4.6877 197.4815,4.8397 197.3765,5.0597 C196.7035,6.4867 195.8995,8.1357 195.4025,9.3657 C195.0965,10.1457 194.9025,10.8737 194.9025,11.3167" id="Fill-12"></path>
            <path d="M4.1552,5.5856 C4.7212,5.5856 5.3612,5.7036 6.0022,5.8956 L6.4622,4.6026 C5.6602,4.3366 4.8812,4.1756 4.0902,4.1756 C3.1722,4.1756 2.4132,4.3896 1.8582,4.7746 C1.2062,5.2226 0.8752,5.8846 0.8752,6.6636 C0.8752,7.7116 1.4732,8.3506 2.6372,8.8206 L3.3322,9.1006 C4.0802,9.3986 4.3572,9.6956 4.3572,10.1366 C4.3572,10.9266 3.4502,11.1176 2.6802,11.1176 C1.9332,11.1176 1.0142,10.9376 0.3632,10.6916 L0.0002,12.0476 C0.8972,12.3786 1.8252,12.5296 2.6912,12.5296 C3.7162,12.5296 4.5922,12.3146 5.2122,11.8656 C5.8742,11.3856 6.1412,10.7126 6.1412,9.9416 C6.1412,8.8866 5.6382,8.2326 4.5072,7.7646 L3.8122,7.4756 C2.9362,7.1116 2.6262,6.8446 2.6262,6.4506 C2.6262,5.8526 3.3002,5.5856 4.1552,5.5856" id="Fill-14"></path>
            <path d="M12.33,9.9118 C11.945,10.6378 11.411,11.0968 10.579,11.0968 C9.767,11.0968 9.243,10.6588 9.243,9.3768 C9.243,8.5338 9.467,7.5398 9.851,6.8038 C10.237,6.0648 10.769,5.6168 11.593,5.6168 C12.403,5.6168 12.938,6.0438 12.938,7.3368 C12.938,8.1708 12.714,9.1748 12.33,9.9118 M11.678,4.1758 C10.022,4.1758 8.901,4.8918 8.196,6.0868 C7.662,6.9948 7.341,8.2328 7.341,9.3548 C7.341,11.5988 8.613,12.5298 10.471,12.5298 C12.095,12.5298 13.259,11.8758 13.986,10.6268 C14.53,9.6958 14.829,8.4378 14.829,7.3478 C14.829,5.0948 13.558,4.1758 11.678,4.1758" id="Fill-16"></path>
            <polygon id="Fill-18" points="18.7656 4.3366 16.9386 4.3366 15.5296 12.3686 20.9226 12.3686 21.1466 11.0436 17.5796 11.0436"></polygon>
            <path d="M27.6865,9.1745 C27.5485,9.9315 27.3765,10.3505 27.1205,10.6375 C26.8855,10.9045 26.4905,11.1295 25.8495,11.1295 C25.3475,11.1295 24.9745,10.9895 24.7495,10.7015 C24.5575,10.4565 24.5035,10.1365 24.5035,9.8585 C24.5035,9.7295 24.5155,9.5055 24.5895,9.0575 L25.4225,4.3365 L23.6275,4.3365 L22.8695,8.5865 C22.7735,9.1215 22.7305,9.5055 22.7305,9.8795 C22.7305,10.7215 22.9445,11.3545 23.5205,11.8445 C24.0775,12.3145 24.8135,12.5295 25.7755,12.5295 C26.6935,12.5295 27.5045,12.3345 28.1565,11.7895 C28.6595,11.3745 29.0545,10.7435 29.2355,9.7185 L30.1865,4.3365 L28.5415,4.3365 L27.6865,9.1745 Z" id="Fill-20"></path>
            <path d="M32.2436,5.3405 C31.2716,6.3755 30.8326,7.9985 30.8326,9.3465 C30.8326,11.1625 31.6456,12.1525 33.1826,12.4355 C33.0456,12.6145 32.9306,12.8375 32.9056,12.9885 C32.8946,13.0515 32.8946,13.0955 32.8946,13.1145 C32.8946,13.4035 33.0126,13.5445 33.5146,13.7245 C33.7376,13.8085 34.0056,13.8855 34.0056,14.0975 C34.0056,14.3115 33.7266,14.3975 33.3646,14.3975 C33.1826,14.3975 32.9156,14.3745 32.6596,14.3115 L32.4986,15.1645 C32.7986,15.2635 33.2156,15.3255 33.5886,15.3255 C34.0586,15.3255 34.4316,15.2195 34.7316,14.9745 C35.0096,14.7495 35.1686,14.4295 35.1686,14.0135 C35.1686,13.4375 34.8696,13.2655 34.2726,12.9555 C34.1226,12.8795 33.9946,12.8045 33.9946,12.6765 C33.9986,12.6275 34.0146,12.5725 34.0306,12.5205 C34.0806,12.5225 34.1246,12.5295 34.1766,12.5295 C34.8486,12.5295 35.6286,12.4315 36.1416,12.2825 L36.1836,10.9455 C35.6926,11.0435 35.0626,11.1075 34.5716,11.1075 C33.8776,11.1075 33.3856,10.9795 33.0766,10.5735 C32.8096,10.2325 32.7346,9.7295 32.7346,9.2475 C32.7346,8.3205 33.0126,7.2955 33.4496,6.6115 C33.9726,5.7885 34.6566,5.5945 35.3616,5.5945 C35.9586,5.5945 36.5256,5.7345 37.0176,5.8735 L37.4776,4.5695 C36.7936,4.3455 36.0656,4.1755 35.2116,4.1755 C34.1126,4.1755 33.0656,4.4625 32.2436,5.3405" id="Fill-22"></path>
            <path d="M41.582,2.8605 C42.084,2.8605 42.489,3.3635 43.184,3.3635 C43.964,3.3635 44.54,2.7425 44.711,1.7605 L43.899,1.6325 C43.762,1.9965 43.558,2.1875 43.26,2.1875 C42.767,2.1875 42.372,1.6755 41.657,1.6755 C40.867,1.6755 40.301,2.3055 40.14,3.2895 L40.952,3.4175 C41.091,3.0545 41.282,2.8605 41.582,2.8605" id="Fill-24"></path>
            <path d="M42.7993,9.9118 C42.4163,10.6378 41.8813,11.0968 41.0483,11.0968 C40.2363,11.0968 39.7133,10.6588 39.7133,9.3768 C39.7133,8.5338 39.9373,7.5398 40.3213,6.8038 C40.7063,6.0648 41.2403,5.6168 42.0633,5.6168 C42.8743,5.6168 43.4083,6.0438 43.4083,7.3368 C43.4083,8.1708 43.1843,9.1748 42.7993,9.9118 M42.1473,4.1758 C40.4923,4.1758 39.3703,4.8918 38.6653,6.0868 C38.1323,6.9948 37.8113,8.2328 37.8113,9.3548 C37.8113,11.5988 39.0823,12.5298 40.9403,12.5298 C42.5653,12.5298 43.7283,11.8758 44.4553,10.6268 C45.0003,9.6958 45.2993,8.4378 45.2993,7.3478 C45.2993,5.0948 44.0283,4.1758 42.1473,4.1758" id="Fill-26"></path>
            <polygon id="Fill-28" points="45.999 12.3688 51.488 12.3688 51.703 11.0438 48.071 11.0438 48.423 8.9818 51.179 8.9818 51.425 7.6038 48.669 7.6038 49 5.6608 52.461 5.6608 52.835 4.3368 47.409 4.3368"></polygon>
            <path d="M56.9936,5.5856 C57.5596,5.5856 58.1996,5.7036 58.8406,5.8956 L59.2996,4.6026 C58.4986,4.3366 57.7196,4.1756 56.9286,4.1756 C56.0106,4.1756 55.2516,4.3896 54.6966,4.7746 C54.0446,5.2226 53.7136,5.8846 53.7136,6.6636 C53.7136,7.7116 54.3116,8.3506 55.4766,8.8206 L56.1696,9.1006 C56.9186,9.3986 57.1966,9.6956 57.1966,10.1366 C57.1966,10.9266 56.2876,11.1176 55.5186,11.1176 C54.7716,11.1176 53.8526,10.9376 53.2016,10.6916 L52.8376,12.0476 C53.7356,12.3786 54.6636,12.5296 55.5286,12.5296 C56.5546,12.5296 57.4306,12.3146 58.0506,11.8656 C58.7126,11.3856 58.9796,10.7126 58.9796,9.9416 C58.9796,8.8866 58.4776,8.2326 57.3456,7.7646 L56.6506,7.4756 C55.7746,7.1116 55.4646,6.8446 55.4646,6.4506 C55.4646,5.8526 56.1386,5.5856 56.9936,5.5856" id="Fill-30"></path>
            <polygon id="Fill-32" points="62.6601 12.3688 68.1491 12.3688 68.3641 11.0438 64.7321 11.0438 65.0841 8.9818 67.8401 8.9818 68.0851 7.6038 65.3301 7.6038 65.6611 5.6608 69.1221 5.6608 69.4961 4.3368 64.0701 4.3368"></polygon>
            <polygon id="Fill-34" points="74.1996 8.7692 72.4796 4.3362 71.0706 4.3362 69.6606 12.3692 71.1986 12.3692 72.0536 7.5282 73.2266 10.5312 74.6376 10.5312 76.8056 7.6782 75.9946 12.3692 77.6706 12.3692 79.0806 4.3362 77.5746 4.3362"></polygon>
            <path d="M84.1708,7.8815 C83.8288,8.1385 83.3918,8.2235 82.8788,8.2235 L82.1408,8.2235 L82.5788,5.6605 L83.3798,5.6605 C83.9788,5.6605 84.3098,5.8105 84.4908,6.0245 C84.6188,6.1725 84.7058,6.3965 84.7058,6.7075 C84.7058,7.1555 84.5338,7.6045 84.1708,7.8815 M83.5508,4.3365 L80.9868,4.3365 L79.5778,12.3685 L81.4138,12.3685 L81.8958,9.5895 L82.8348,9.5895 C84.0748,9.5895 85.0668,9.3355 85.7088,8.7035 C86.1898,8.2335 86.5208,7.5085 86.5208,6.6425 C86.5208,5.8185 86.2208,5.3075 85.8578,4.9875 C85.3998,4.5915 84.6298,4.3365 83.5508,4.3365" id="Fill-36"></path>
            <path d="M91.7167,7.7116 C91.3737,8.0306 90.9147,8.1266 90.2957,8.1266 L89.5907,8.1266 L90.0177,5.6606 L90.9367,5.6606 C91.4717,5.6606 91.7587,5.7886 91.9197,5.9476 C92.0577,6.0866 92.1547,6.3326 92.1547,6.6426 C92.1547,7.0386 92.0047,7.4326 91.7167,7.7116 M91.1607,4.3366 L88.4267,4.3366 L87.0177,12.3686 L88.8537,12.3686 L89.3567,9.4526 L90.4347,9.4526 L91.3737,12.3686 L93.3397,12.3686 L92.0907,9.1516 C92.7527,8.8956 93.2657,8.4906 93.5317,8.1156 C93.7997,7.7436 93.9707,7.1966 93.9707,6.6116 C93.9707,5.9166 93.7357,5.3076 93.2877,4.9216 C92.8487,4.5506 92.1647,4.3366 91.1607,4.3366" id="Fill-38"></path>
            <polygon id="Fill-40" points="94.8295 12.3688 100.3185 12.3688 100.5335 11.0438 96.9015 11.0438 97.2535 8.9818 100.0095 8.9818 100.2545 7.6038 97.4995 7.6038 97.8305 5.6608 101.2905 5.6608 101.6645 4.3368 96.2385 4.3368"></polygon>
            <path d="M105.8251,5.5856 C106.3901,5.5856 107.0311,5.7036 107.6721,5.8956 L108.1311,4.6026 C107.3301,4.3366 106.5511,4.1756 105.7611,4.1756 C104.8421,4.1756 104.0831,4.3896 103.5281,4.7746 C102.8761,5.2226 102.5451,5.8846 102.5451,6.6636 C102.5451,7.7116 103.1431,8.3506 104.3071,8.8206 L105.0021,9.1006 C105.7491,9.3986 106.0271,9.6956 106.0271,10.1366 C106.0271,10.9266 105.1191,11.1176 104.3491,11.1176 C103.6031,11.1176 102.6841,10.9376 102.0321,10.6916 L101.6691,12.0476 C102.5671,12.3786 103.4951,12.5296 104.3611,12.5296 C105.3861,12.5296 106.2621,12.3146 106.8811,11.8656 C107.5441,11.3856 107.8111,10.7126 107.8111,9.9416 C107.8111,8.8866 107.3091,8.2326 106.1761,7.7646 L105.4831,7.4756 C104.6061,7.1116 104.2961,6.8446 104.2961,6.4506 C104.2961,5.8526 104.9701,5.5856 105.8251,5.5856" id="Fill-42"></path>
            <path d="M111.5956,9.0231 L112.9206,6.2261 L112.9416,6.2261 L113.3376,9.0231 L111.5956,9.0231 Z M112.2366,4.3361 L108.1366,12.3691 L109.9716,12.3691 L110.9436,10.3501 L113.5506,10.3501 L113.8716,12.3691 L115.7496,12.3691 L114.2566,4.3361 L112.2366,4.3361 Z" id="Fill-44"></path>
            <path d="M121.6088,7.7116 C121.2678,8.0306 120.8068,8.1266 120.1868,8.1266 L119.4838,8.1266 L119.9098,5.6606 L120.8298,5.6606 C121.3618,5.6606 121.6498,5.7886 121.8108,5.9476 C121.9508,6.0866 122.0458,6.3326 122.0458,6.6426 C122.0458,7.0386 121.8988,7.4326 121.6088,7.7116 M121.0538,4.3366 L118.3178,4.3366 L116.9078,12.3686 L118.7458,12.3686 L119.2488,9.4526 L120.3268,9.4526 L121.2678,12.3686 L123.2338,12.3686 L121.9828,9.1516 C122.6448,8.8956 123.1558,8.4906 123.4238,8.1156 C123.6918,7.7436 123.8618,7.1966 123.8618,6.6116 C123.8618,5.9166 123.6258,5.3076 123.1788,4.9216 C122.7408,4.5506 122.0578,4.3366 121.0538,4.3366" id="Fill-46"></path>
            <polygon id="Fill-48" points="126.1962 4.3366 124.7962 12.3686 126.6222 12.3686 128.0322 4.3366"></polygon>
            <path d="M131.2724,9.0231 L132.5964,6.2261 L132.6184,6.2261 L133.0114,9.0231 L131.2724,9.0231 Z M131.9114,4.3361 L127.8114,12.3691 L129.6474,12.3691 L130.6184,10.3501 L133.2254,10.3501 L133.5444,12.3691 L135.4264,12.3691 L133.9294,4.3361 L131.9114,4.3361 Z" id="Fill-50"></path>
            <polygon id="Fill-52" points="136.6581 12.3688 138.4871 12.3688 139.8971 4.3368 138.0591 4.3368"></polygon>
            <path d="M144.4609,5.5856 C145.0259,5.5856 145.6679,5.7036 146.3079,5.8956 L146.7669,4.6026 C145.9659,4.3366 145.1859,4.1756 144.3959,4.1756 C143.4779,4.1756 142.7189,4.3896 142.1609,4.7746 C141.5119,5.2226 141.1809,5.8846 141.1809,6.6636 C141.1809,7.7116 141.7789,8.3506 142.9409,8.8206 L143.6389,9.1006 C144.3849,9.3986 144.6619,9.6956 144.6619,10.1366 C144.6619,10.9266 143.7559,11.1176 142.9849,11.1176 C142.2379,11.1176 141.3189,10.9376 140.6689,10.6916 L140.3049,12.0476 C141.2009,12.3786 142.1319,12.5296 142.9959,12.5296 C144.0209,12.5296 144.8969,12.3146 145.5169,11.8656 C146.1799,11.3856 146.4469,10.7126 146.4469,9.9416 C146.4469,8.8866 145.9419,8.2326 144.8109,7.7646 L144.1169,7.4756 C143.2419,7.1116 142.9329,6.8446 142.9329,6.4506 C142.9329,5.8526 143.6059,5.5856 144.4609,5.5856" id="Fill-54"></path>
        </g>
    </g>
</svg>