<?xml version="1.0" encoding="UTF-8"?>
<svg width="136px" height="24px" viewBox="0 0 136 24" version="1.1" xmlns="http://www.w3.org/2000/svg" xmlns:xlink="http://www.w3.org/1999/xlink">
    <!-- Generator: Sketch 54.1 (76490) - https://sketchapp.com -->
    <title>Logo_Cyber_Secured</title>
    <desc>Created with Sketch.</desc>
    <g id="Componentes-Forms" stroke="none" stroke-width="1" fill="none" fill-rule="evenodd">
        <g id="Logo_Cyber_Secured" fill="#004250" fill-rule="nonzero">
            <path d="M40.33,3.71 C40.33,2.42 40.63,1.42 41.25,0.79 C41.75,0.27 42.51,0 43.39,0 C44,0 44.58,0.1 45.03,0.27 L44.91,0.97 C44.45,0.85 43.94,0.77 43.5,0.77 C42.78,0.77 42.26,0.96 41.92,1.34 C41.49,1.82 41.3,2.58 41.3,3.69 C41.3,4.76 41.49,5.53 41.95,6 C42.33,6.39 42.89,6.58 43.73,6.58 C44.03,6.58 44.58,6.52 44.98,6.44 L45.06,7.14 C44.65,7.26 44,7.35 43.5,7.35 C41.37,7.35 40.33,6.14 40.33,3.71 Z" id="Path"></path>
            <polygon id="Path" points="47.94 4.31 45.65 0.14 46.66 0.14 48.46 3.54 50.33 0.14 51.26 0.14 48.86 4.33 48.86 7.2 47.94 7.2 47.94 4.31"></polygon>
            <path d="M52.28,0.13 L54.17,0.13 C55.09,0.13 55.69,0.29 56.06,0.66 C56.35,0.95 56.5,1.37 56.5,1.89 C56.5,2.63 56.16,3.17 55.56,3.44 C56.44,3.65 56.95,4.27 56.95,5.21 C56.95,5.84 56.77,6.32 56.41,6.65 C56,7.02 55.37,7.21 54.41,7.21 L52.27,7.21 L52.27,0.13 L52.28,0.13 Z M54.11,3.19 C54.73,3.19 55.08,3.09 55.31,2.85 C55.5,2.65 55.59,2.36 55.59,2 C55.59,1.63 55.5,1.34 55.3,1.15 C55.07,0.93 54.71,0.85 54.1,0.85 L53.2,0.85 L53.2,3.18 L54.11,3.18 L54.11,3.19 Z M54.14,6.48 C54.97,6.48 55.38,6.4 55.66,6.15 C55.88,5.95 56.01,5.65 56.01,5.2 C56.01,4.79 55.91,4.49 55.7,4.28 C55.42,4.01 55.02,3.92 54.26,3.92 L53.2,3.92 L53.2,6.48 L54.14,6.48 L54.14,6.48 Z" id="Shape"></path>
            <polygon id="Path" points="58.39 0.13 62.44 0.13 62.36 0.85 59.31 0.85 59.31 3.25 61.78 3.25 61.78 4 59.31 4 59.31 6.48 62.5 6.48 62.5 7.2 58.39 7.2"></polygon>
            <path d="M63.87,0.13 L65.93,0.13 C66.91,0.13 67.59,0.3 68,0.7 C68.35,1.04 68.53,1.57 68.53,2.27 C68.53,3.35 68.04,4.04 67.21,4.33 L68.73,7.2 L67.7,7.2 C67.25,6.3 66.79,5.39 66.33,4.48 C66.21,4.49 66.02,4.5 65.88,4.5 L64.81,4.5 L64.81,7.2 L63.89,7.2 L63.89,0.13 L63.87,0.13 Z M65.89,3.76 C66.62,3.76 67.02,3.62 67.26,3.34 C67.48,3.09 67.57,2.73 67.57,2.28 C67.57,1.79 67.47,1.45 67.25,1.24 C66.98,0.97 66.53,0.87 65.82,0.87 L64.79,0.87 L64.79,3.77 L65.89,3.77 L65.89,3.76 Z" id="Shape"></path>
            <path d="M71.96,7 L72.12,6.3 C72.66,6.46 73.32,6.58 73.89,6.58 C74.47,6.58 74.86,6.48 75.14,6.26 C75.39,6.06 75.52,5.78 75.52,5.4 C75.52,3.62 71.89,4.32 71.89,1.89 C71.89,0.64 72.83,0 74.24,0 C74.85,0 75.49,0.1 75.98,0.27 L75.85,0.97 C75.33,0.84 74.79,0.76 74.32,0.76 C73.36,0.76 72.77,1.07 72.77,1.82 C72.77,3.43 76.41,2.88 76.41,5.3 C76.41,5.92 76.2,6.41 75.85,6.74 C75.43,7.14 74.8,7.34 73.98,7.34 C73.31,7.35 72.5,7.22 71.96,7 Z" id="Path"></path>
            <polygon id="Path" points="77.8 0.13 81.85 0.13 81.77 0.85 78.72 0.85 78.72 3.25 81.19 3.25 81.19 4 78.72 4 78.72 6.48 81.91 6.48 81.91 7.2 77.8 7.2"></polygon>
            <path d="M83.01,3.71 C83.01,2.42 83.31,1.42 83.93,0.79 C84.42,0.27 85.19,0 86.06,0 C86.67,0 87.25,0.1 87.7,0.27 L87.58,0.97 C87.12,0.85 86.61,0.77 86.17,0.77 C85.45,0.77 84.93,0.96 84.59,1.34 C84.16,1.82 83.97,2.58 83.97,3.69 C83.97,4.76 84.16,5.53 84.62,6 C85,6.39 85.56,6.58 86.4,6.58 C86.7,6.58 87.25,6.52 87.65,6.44 L87.73,7.14 C87.32,7.26 86.67,7.35 86.17,7.35 C84.04,7.35 83.01,6.14 83.01,3.71 Z" id="Path"></path>
            <path d="M89.66,6.76 C89.16,6.32 88.94,5.65 88.94,4.66 L88.94,0.13 L89.86,0.13 L89.86,4.6 C89.86,5.38 89.98,5.82 90.3,6.13 C90.58,6.4 90.99,6.55 91.57,6.55 C92.1,6.55 92.52,6.39 92.79,6.13 C93.11,5.81 93.25,5.34 93.25,4.6 L93.25,0.13 L94.09,0.13 L94.09,4.65 C94.09,5.61 93.85,6.28 93.4,6.72 C92.98,7.12 92.36,7.34 91.55,7.34 C90.72,7.35 90.08,7.14 89.66,6.76 Z" id="Path"></path>
            <path d="M95.72,0.13 L97.78,0.13 C98.76,0.13 99.44,0.3 99.85,0.7 C100.2,1.04 100.38,1.57 100.38,2.27 C100.38,3.35 99.89,4.04 99.06,4.33 L100.58,7.2 L99.56,7.2 C99.11,6.3 98.65,5.39 98.19,4.48 C98.07,4.49 97.88,4.5 97.74,4.5 L96.67,4.5 L96.67,7.2 L95.75,7.2 L95.75,0.13 L95.72,0.13 Z M97.73,3.76 C98.46,3.76 98.86,3.62 99.1,3.34 C99.32,3.09 99.41,2.73 99.41,2.28 C99.41,1.79 99.31,1.45 99.09,1.24 C98.82,0.97 98.37,0.87 97.66,0.87 L96.63,0.87 L96.63,3.77 L97.73,3.77 L97.73,3.76 Z" id="Shape"></path>
            <polygon id="Path" points="101.93 0.13 105.98 0.13 105.9 0.85 102.85 0.85 102.85 3.25 105.32 3.25 105.32 4 102.85 4 102.85 6.48 106.04 6.48 106.04 7.2 101.93 7.2"></polygon>
            <path d="M107.41,0.13 L109.2,0.13 C110.5,0.13 111.34,0.39 111.9,1 C112.41,1.56 112.65,2.4 112.65,3.62 C112.65,4.92 112.37,5.85 111.8,6.43 C111.28,6.96 110.5,7.19 109.39,7.19 L107.41,7.19 L107.41,0.13 L107.41,0.13 Z M109.37,6.47 C110.16,6.47 110.66,6.3 111.02,5.95 C111.5,5.5 111.7,4.72 111.7,3.64 C111.7,2.68 111.55,1.99 111.18,1.54 C110.8,1.08 110.21,0.87 109.15,0.87 L108.33,0.87 L108.33,6.47 L109.37,6.47 Z" id="Shape"></path>
            <path d="M116.19,0.13 L118.08,0.13 C119,0.13 119.6,0.29 119.97,0.66 C120.26,0.95 120.41,1.37 120.41,1.89 C120.41,2.63 120.07,3.17 119.47,3.44 C120.35,3.65 120.86,4.27 120.86,5.21 C120.86,5.84 120.68,6.32 120.32,6.65 C119.91,7.02 119.28,7.21 118.32,7.21 L116.18,7.21 L116.18,0.13 L116.19,0.13 Z M118.02,3.19 C118.64,3.19 118.99,3.09 119.22,2.85 C119.41,2.65 119.5,2.36 119.5,2 C119.5,1.63 119.41,1.34 119.21,1.15 C118.98,0.93 118.62,0.85 118.01,0.85 L117.11,0.85 L117.11,3.18 L118.02,3.18 L118.02,3.19 Z M118.05,6.48 C118.88,6.48 119.29,6.4 119.57,6.15 C119.79,5.95 119.92,5.65 119.92,5.2 C119.92,4.79 119.82,4.49 119.61,4.28 C119.33,4.01 118.93,3.92 118.17,3.92 L117.11,3.92 L117.11,6.48 L118.05,6.48 L118.05,6.48 Z" id="Shape"></path>
            <polygon id="Path" points="123.55 4.31 121.26 0.14 122.27 0.14 124.07 3.54 125.94 0.14 126.87 0.14 124.47 4.33 124.47 7.2 123.55 7.2"></polygon>
            <path d="M42.63,18.42 C42.63,19.46 42.67,20.34 42.76,21.31 C42.8,21.75 42.97,21.85 43.37,21.85 L47.53,21.85 C47.97,21.85 48.03,21.95 48.03,22.31 L48.03,23.36 C48.03,23.7 47.97,23.82 47.53,23.82 L43.14,23.82 C42.16,23.82 41.51,23.71 41.09,23.36 C40.67,23.01 40.53,22.5 40.42,21.6 C40.3,20.58 40.25,19.19 40.25,18.02 L40.25,17.23 C40.25,16.12 40.31,14.66 40.42,13.65 C40.51,12.71 40.74,12.19 41.17,11.85 C41.61,11.5 42.24,11.43 43.14,11.43 L47.55,11.43 C47.99,11.43 48.03,11.53 48.03,11.89 L48.03,12.94 C48.03,13.29 47.99,13.4 47.55,13.4 L43.37,13.4 C43.01,13.4 42.78,13.53 42.74,13.98 C42.68,14.65 42.62,15.51 42.62,16.45 L46.91,16.45 C47.35,16.45 47.39,16.55 47.39,16.91 L47.39,17.96 C47.39,18.3 47.35,18.42 46.91,18.42 L42.63,18.42 L42.63,18.42 Z" id="Path"></path>
            <path d="M52.22,21.28 C52.22,21.74 52.37,21.91 52.78,21.91 L53.36,21.91 C53.7,21.91 53.8,22.03 53.8,22.37 L53.8,23.37 C53.8,23.73 53.69,23.83 53.36,23.83 L52.08,23.83 C51.27,23.83 50.85,23.7 50.51,23.37 C50.13,22.99 49.95,22.45 49.95,21.49 L49.95,11.33 C49.95,10.95 50.07,10.85 50.49,10.85 L51.7,10.85 C52.12,10.85 52.24,10.95 52.24,11.33 L52.24,21.28 L52.22,21.28 Z" id="Path"></path>
            <path d="M62.63,19.67 C62.63,20.07 62.51,20.23 62.11,20.23 L57.32,20.23 C57.34,21 57.47,21.48 57.8,21.76 C58.05,21.99 58.57,22.14 59.49,22.14 C60.12,22.14 61.02,21.97 61.56,21.74 C61.79,21.64 61.98,21.64 62.1,22.05 L62.35,22.97 C62.43,23.26 62.37,23.37 62.01,23.51 C61.2,23.82 60.21,24.01 59.23,24.01 C57.68,24.01 56.66,23.7 56.01,23.03 C55.26,22.26 55.01,21.15 55.01,19.39 L55.01,18.87 C55.01,15.86 56.01,14.27 58.96,14.27 C60.26,14.27 61.05,14.58 61.66,15.13 C62.29,15.7 62.64,16.53 62.64,18.37 L62.64,19.67 L62.63,19.67 Z M57.78,16.47 C57.43,16.83 57.28,17.5 57.28,18.42 L60.1,18.42 C60.29,18.42 60.35,18.34 60.35,18.15 C60.35,17.31 60.25,16.75 59.98,16.44 C59.75,16.19 59.44,16.08 58.87,16.08 C58.37,16.08 58.03,16.2 57.78,16.47 Z" id="Shape"></path>
            <path d="M68.51,23.83 L67.15,23.83 C66.71,23.83 66.5,23.72 66.34,23.33 C65.42,21.05 64.29,17.67 63.58,14.88 C63.5,14.55 63.68,14.44 64.02,14.44 L65.28,14.44 C65.61,14.44 65.74,14.55 65.82,14.84 C66.41,17.08 67.1,19.48 67.78,21.43 L67.88,21.43 C68.57,19.48 69.26,17.08 69.81,14.84 C69.89,14.55 70.02,14.44 70.35,14.44 L71.61,14.44 C71.95,14.44 72.13,14.55 72.05,14.88 C71.34,17.68 70.21,21.05 69.31,23.33 C69.16,23.71 68.95,23.83 68.51,23.83 Z" id="Path"></path>
            <path d="M80.62,19.67 C80.62,20.07 80.51,20.23 80.1,20.23 L75.31,20.23 C75.33,21 75.46,21.48 75.79,21.76 C76.04,21.99 76.56,22.14 77.48,22.14 C78.11,22.14 79.01,21.97 79.55,21.74 C79.78,21.64 79.97,21.64 80.09,22.05 L80.34,22.97 C80.42,23.26 80.36,23.37 80,23.51 C79.19,23.82 78.2,24.01 77.22,24.01 C75.67,24.01 74.65,23.7 74,23.03 C73.25,22.26 73,21.15 73,19.39 L73,18.87 C73,15.86 74,14.27 76.95,14.27 C78.25,14.27 79.04,14.58 79.65,15.13 C80.28,15.7 80.63,16.53 80.63,18.37 L80.63,19.67 L80.62,19.67 Z M75.77,16.47 C75.42,16.83 75.27,17.5 75.27,18.42 L78.09,18.42 C78.28,18.42 78.34,18.34 78.34,18.15 C78.34,17.31 78.24,16.75 77.98,16.44 C77.75,16.19 77.44,16.08 76.87,16.08 C76.37,16.08 76.02,16.2 75.77,16.47 Z" id="Shape"></path>
            <path d="M90.38,23.35 C90.38,23.73 90.27,23.83 89.84,23.83 L88.63,23.83 C88.21,23.83 88.09,23.73 88.09,23.35 L88.09,18 C88.09,17.23 87.99,16.81 87.69,16.5 C87.4,16.21 87.04,16.1 86.42,16.1 C85.87,16.1 85.44,16.21 85.19,16.44 C84.94,16.67 84.79,16.98 84.79,17.76 L84.79,23.34 C84.79,23.72 84.68,23.82 84.25,23.82 L83.04,23.82 C82.62,23.82 82.5,23.72 82.5,23.34 L82.5,14.87 C82.5,14.54 82.63,14.43 82.96,14.43 L83.67,14.43 C83.99,14.43 84.11,14.49 84.17,14.77 L84.27,15.23 L84.33,15.23 C84.87,14.67 85.62,14.25 86.94,14.25 C88.3,14.25 89.24,14.61 89.85,15.53 C90.27,16.18 90.37,17.12 90.37,18.1 L90.37,23.35 L90.38,23.35 Z" id="Path"></path>
            <path d="M95.48,23.34 C95.48,23.74 95.38,23.82 94.96,23.82 L93.58,23.82 C93.16,23.82 93.06,23.74 93.06,23.34 L93.06,12.17 C93.06,11.6 93.21,11.42 93.73,11.37 C94.48,11.27 95.49,11.25 96.66,11.25 C98.31,11.25 99.55,11.48 100.38,12.13 C101.17,12.74 101.51,13.7 101.51,15.1 L101.51,15.44 C101.51,16.86 101.07,17.88 100.26,18.51 C99.36,19.22 98.17,19.47 96.58,19.47 L95.47,19.47 L95.47,23.34 L95.48,23.34 Z M95.69,13.24 C95.56,13.26 95.48,13.36 95.48,13.51 L95.48,17.46 L96.67,17.46 C98.41,17.46 99.05,16.9 99.05,15.35 L99.05,15.1 C99.05,14.31 98.89,13.91 98.55,13.62 C98.17,13.31 97.72,13.2 96.73,13.2 C96.38,13.2 95.98,13.2 95.69,13.24 Z" id="Shape"></path>
            <path d="M107.94,23.02 C107.58,23.65 106.98,24 105.83,24 L105.12,24 C104.12,24 103.53,23.83 103.01,23.39 C102.45,22.91 102.19,22.16 102.19,21.24 L102.19,20.8 C102.19,19.77 102.44,19.04 103,18.58 C103.59,18.08 104.49,17.87 105.8,17.87 L106.49,17.87 C106.83,17.87 107.24,17.89 107.56,17.91 L107.56,17.39 C107.56,16.89 107.46,16.6 107.23,16.41 C106.96,16.2 106.6,16.14 105.91,16.14 C105.22,16.14 104.32,16.27 103.55,16.5 C103.24,16.6 103.13,16.46 103.07,16.19 L102.9,15.29 C102.82,14.97 102.86,14.81 103.19,14.72 C103.9,14.49 105.07,14.26 106.08,14.26 C107.44,14.26 108.19,14.43 108.84,14.87 C109.53,15.35 109.84,16.04 109.84,17.4 L109.84,23.46 C109.84,23.71 109.71,23.82 109.44,23.82 L108.56,23.82 C108.27,23.82 108.16,23.72 108.1,23.48 L107.98,23.02 L107.94,23.02 Z M107.55,19.72 C107.22,19.7 106.82,19.68 106.44,19.68 L105.77,19.68 C105.33,19.68 104.96,19.74 104.77,19.91 C104.56,20.08 104.48,20.41 104.48,20.85 L104.48,21.08 C104.48,21.5 104.58,21.77 104.77,21.94 C104.93,22.07 105.19,22.17 105.61,22.17 L106.3,22.17 C107.18,22.17 107.55,21.77 107.55,20.89 L107.55,19.72 Z" id="Shape"></path>
            <path d="M114.87,14.43 L116.77,14.43 C117.1,14.43 117.17,14.54 117.17,14.93 L117.17,15.87 C117.17,16.19 117.09,16.35 116.77,16.35 L114.87,16.35 L114.87,20.53 C114.87,21.22 114.91,21.45 115.1,21.66 C115.27,21.85 115.48,21.91 116,21.91 L116.94,21.91 C117.34,21.91 117.4,22.03 117.4,22.41 L117.4,23.35 C117.4,23.71 117.36,23.83 116.94,23.83 L115.56,23.83 C114.45,23.83 113.8,23.66 113.32,23.22 C112.82,22.76 112.59,22.01 112.59,20.92 L112.59,16.36 L111.44,16.36 C111.15,16.36 111.06,16.28 111.06,16 L111.06,15.16 C111.06,14.85 111.14,14.8 111.37,14.76 L112.6,14.55 L112.6,12.54 C112.6,12.16 112.72,12.06 113.14,12.06 L114.35,12.06 C114.77,12.06 114.89,12.16 114.89,12.54 L114.89,14.43 L114.87,14.43 Z" id="Path"></path>
            <path d="M124.55,17.99 C124.55,17.22 124.45,16.8 124.15,16.49 C123.86,16.2 123.48,16.09 122.92,16.09 C122.25,16.09 121.9,16.21 121.65,16.44 C121.4,16.67 121.25,16.98 121.25,17.76 L121.25,23.34 C121.25,23.72 121.14,23.82 120.71,23.82 L119.5,23.82 C119.08,23.82 118.96,23.72 118.96,23.34 L118.96,11.32 C118.96,10.94 119.07,10.84 119.5,10.84 L120.71,10.84 C121.13,10.84 121.25,10.94 121.25,11.32 L121.25,14.94 C121.77,14.54 122.48,14.25 123.61,14.25 C124.76,14.25 125.72,14.6 126.33,15.59 C126.73,16.24 126.83,17.12 126.83,18.1 L126.83,23.33 C126.83,23.71 126.72,23.81 126.29,23.81 L125.08,23.81 C124.66,23.81 124.54,23.71 124.54,23.33 L124.54,17.99 L124.55,17.99 Z" id="Path"></path>
            <path d="M128.91,23.44 C128.56,23.31 128.53,23.19 128.6,22.86 L128.81,21.92 C128.88,21.61 129.06,21.52 129.35,21.63 C130.04,21.9 130.98,22.13 131.65,22.13 C132.28,22.13 132.65,22.07 132.9,21.9 C133.13,21.75 133.23,21.52 133.23,21.15 L133.23,21.02 C133.23,20.41 132.9,20.22 132.12,20.02 L130.97,19.75 C130.05,19.54 129.65,19.29 129.28,18.89 C128.89,18.47 128.71,17.88 128.71,17.13 L128.71,16.96 C128.71,15.92 129.02,15.31 129.55,14.89 C130.09,14.47 130.87,14.26 132.14,14.26 C133.12,14.26 134.17,14.45 134.71,14.64 C134.98,14.74 135.02,14.81 134.96,15.1 L134.73,16.17 C134.67,16.46 134.5,16.5 134.25,16.42 C133.81,16.27 133,16.11 132.39,16.11 C131.76,16.11 131.41,16.17 131.2,16.32 C131.01,16.45 130.93,16.64 130.93,16.93 L130.93,17.06 C130.93,17.63 131.31,17.79 131.91,17.92 L133.1,18.19 C134.02,18.4 134.65,18.73 135.04,19.22 C135.35,19.64 135.46,20.14 135.46,20.81 L135.46,21.04 C135.46,21.92 135.21,22.61 134.69,23.11 C134.08,23.69 133.14,23.97 131.85,23.97 C130.84,23.99 129.73,23.78 128.91,23.44 Z" id="Path"></path>
            <path d="M0.85,7.7 C0.77,7.82 0.7,8.05 0.7,8.2 L0.7,23.5 C0.7,23.65 0.83,23.78 0.98,23.78 L8.35,23.78 C8.5,23.78 8.63,23.66 8.63,23.5 L8.63,0.28 C8.62,0.12 8.5,0 8.35,0 L6.26,0 C6.11,0 5.91,0.1 5.83,0.23 L0.85,7.7 Z" id="Path"></path>
            <path d="M12.74,7.7 C12.65,7.83 12.59,8.06 12.59,8.21 L12.59,23.51 C12.59,23.66 12.71,23.79 12.87,23.79 L20.24,23.79 C20.39,23.79 20.52,23.67 20.52,23.51 L20.52,0.28 C20.52,0.13 20.39,0 20.24,0 L18.15,0 C18,8.8817842e-16 17.8,0.1 17.72,0.23 L12.74,7.7 Z" id="Path"></path>
            <path d="M24.76,0 C24.61,0 24.48,0.12 24.48,0.28 L24.48,15.58 C24.48,15.73 24.61,15.86 24.76,15.86 L26.85,15.86 C27,15.86 27.2,15.76 27.28,15.63 L32.26,8.17 C32.34,8.04 32.41,7.81 32.41,7.66 L32.41,0.28 C32.4,0.12 32.28,0 32.13,0 L24.76,0 Z" id="Path"></path>
        </g>
    </g>
</svg>