<svg width="320" height="320" viewBox="0 0 320 320" fill="none" xmlns="http://www.w3.org/2000/svg">
<path fill-rule="evenodd" clip-rule="evenodd" d="M71.7468 265.682C71.7468 291.318 81.2782 300.849 106.914 300.849H213.096C238.732 300.849 248.263 291.318 248.263 265.682V53.3179C248.263 28.3393 238.075 18.1508 213.096 18.1508H106.914C94.026 18.1508 85.1371 20.784 79.7404 26.2011C74.3614 31.6001 71.7468 40.4699 71.7468 53.3179V265.682ZM66.8819 13.3903C75.8589 4.37978 88.9533 0 106.914 0H213.096C230.896 0 243.97 4.47145 253.064 13.6698C262.047 22.7547 266.414 35.7244 266.414 53.3179V265.682C266.414 283.747 262.029 296.877 253.008 305.824C244.069 314.69 231.014 319 213.096 319H106.914C88.996 319 75.9406 314.69 67.0018 305.824C57.9813 296.877 53.596 283.747 53.596 265.682V53.3179C53.596 35.424 57.9418 22.3636 66.8819 13.3903ZM160.005 245.058C171.273 245.058 178 251.809 178 263.118C178 268.638 176.422 273.052 173.31 276.239C170.154 279.471 165.554 281.18 160.005 281.18C154.456 281.18 149.856 279.471 146.7 276.239C143.588 273.052 142.01 268.638 142.01 263.118C142.01 251.809 148.737 245.058 160.005 245.058Z" fill="#666666"/>
</svg>
