<?xml version="1.0" encoding="UTF-8"?>
<svg width="320px" height="320px" viewBox="0 0 320 320" version="1.1" xmlns="http://www.w3.org/2000/svg" xmlns:xlink="http://www.w3.org/1999/xlink">
    <title>para-voce</title>
    <g id="Page-1" stroke="none" stroke-width="1" fill="none" fill-rule="evenodd">
        <g id="para-voce" fill="#666666" fill-rule="nonzero">
            <path d="M115.618777,204.381223 C155.812233,204.381223 177.934566,182.30441 177.934566,142.201991 C177.934566,121.854908 172.290185,106.105263 161.183499,95.4082504 C150.486486,85.1209104 135.146515,79.886202 115.618777,79.886202 C75.5163585,79.886202 53.4395448,102.008535 53.4395448,142.201991 C53.4395448,182.30441 75.5163585,204.381223 115.618777,204.381223 Z M115.618777,98.0938834 C130.27596,98.0938834 141.382646,101.598862 148.529161,108.517781 C155.948791,115.664296 159.726885,126.998578 159.726885,142.201991 C159.726885,172.199147 145.70697,186.173542 115.618777,186.173542 C85.6216216,186.173542 71.6472262,172.199147 71.6472262,142.201991 C71.6472262,112.113798 85.6216216,98.0938834 115.618777,98.0938834 Z" id="Shape"></path>
            <path d="M151.852063,212.984353 L79.2944523,212.984353 C54.1678521,212.984353 33.5476529,220.677098 19.6642959,235.152205 C6.91891892,248.489331 0.13655761,266.924609 0.13655761,288.500711 L0.13655761,310.668563 C0.13655761,315.675676 4.23328592,319.772404 9.24039829,319.772404 L222.088193,319.772404 C227.095306,319.772404 231.192034,315.675676 231.192034,310.668563 L231.192034,288.500711 C231.192034,266.924609 224.409673,248.443812 211.573257,235.106686 C197.644381,220.631579 176.978663,212.984353 151.852063,212.984353 Z M212.984353,301.564723 L18.344239,301.564723 L18.344239,288.500711 C18.344239,271.704125 23.3513514,257.593172 32.7738265,247.715505 C43.3342817,236.699858 58.9473684,231.146515 79.2944523,231.146515 L151.852063,231.146515 C172.199147,231.146515 187.857752,236.745377 198.463727,247.715505 C207.97724,257.593172 212.984353,271.704125 212.984353,288.455192 L212.984353,301.564723 Z" id="Shape"></path>
            <path d="M318.224751,52.8477952 C315.857752,45.7467994 309.849218,40.6486486 302.611664,39.5561878 L277.302987,35.7325747 L265.923186,11.6529161 C262.645804,4.68847795 255.908962,0.364153627 248.352774,0.364153627 C240.796586,0.364153627 234.059744,4.68847795 230.782361,11.6529161 L219.40256,35.7325747 L194.093883,39.5561878 C186.810811,40.6486486 180.847795,45.7467994 178.480797,52.8477952 C176.068279,60.1308677 177.843528,68.0512091 183.214794,73.4679943 L201.74111,92.3129445 L197.371266,118.987198 C196.096728,126.725462 199.237553,134.28165 205.519203,138.742532 C211.573257,143.021337 219.357041,143.476529 225.866287,139.926031 L248.443812,127.544808 L271.021337,139.926031 C273.934566,141.519203 277.12091,142.29303 280.261735,142.29303 C284.130868,142.29303 288,141.109531 291.368421,138.742532 C297.650071,134.28165 300.790896,126.725462 299.516358,118.987198 L295.146515,92.3129445 L313.672831,73.4679943 C318.86202,68.0512091 320.637269,60.1763869 318.224751,52.8477952 Z M300.881935,61.086771 L280.716927,81.5704125 C277.803698,84.5291607 276.438122,88.8079659 277.12091,92.9502134 L281.900427,121.900427 C282.128023,123.357041 281.354196,124.085349 280.990043,124.358464 C280.216216,124.904694 279.669986,124.58606 279.396871,124.449502 L254.452347,110.793741 C252.540541,109.746799 250.446657,109.200569 248.307255,109.200569 C246.167852,109.200569 244.119488,109.746799 242.162162,110.793741 L217.217639,124.449502 C216.944523,124.58606 216.398293,124.904694 215.624467,124.358464 C215.260313,124.085349 214.486486,123.357041 214.714083,121.900427 L219.493599,92.9502134 C220.176387,88.8079659 218.85633,84.5746799 215.897582,81.5704125 L195.732575,61.086771 C194.776671,60.1308677 195.049787,58.9018492 195.186344,58.4466572 C195.368421,57.8549075 195.778094,57.1721195 196.688478,57.0355619 L224.59175,52.802276 C228.825036,52.1650071 232.466572,49.4338549 234.28734,45.5647226 L246.714083,19.2091038 C247.078236,18.4352774 247.624467,18.0711238 248.307255,18.0711238 C248.990043,18.0711238 249.536273,18.4352774 249.900427,19.2091038 L262.372688,45.5647226 C264.238976,49.4793741 267.834993,52.1650071 272.068279,52.802276 L299.97155,57.0355619 C300.836415,57.1721195 301.291607,57.9004267 301.473684,58.4466572 C301.610242,58.9018492 301.837838,60.1308677 300.881935,61.086771 Z" id="Shape"></path>
        </g>
    </g>
</svg>