<svg width="320" height="320" viewBox="0 0 320 320" fill="none" xmlns="http://www.w3.org/2000/svg">
<path fill-rule="evenodd" clip-rule="evenodd" d="M91.8501 119.972C82.6456 117.246 82.641 112.216 82.641 109.579C82.641 103.712 85.9992 99.7131 91.8501 98.2853V119.972ZM103.208 135.662C112.909 137.888 114.382 142.264 114.382 146.744C114.382 152.999 110.223 157.358 103.208 158.855V135.662ZM103.208 177.405V172.062C109.845 171.159 115.432 168.852 119.586 165.253C124.956 160.599 127.795 154.039 127.795 146.281C127.795 136.787 123.473 124.975 103.208 121.918V98.3307C106.356 98.9867 109.461 100.167 112.688 101.921C112.722 101.939 112.757 101.957 112.792 101.975C113.773 102.465 115.096 103.029 116.631 103.029C120.234 103.029 123.164 100.098 123.164 96.4953C123.164 95.0793 122.668 92.398 119.35 90.3563C114.836 87.5619 109.245 85.7211 103.208 84.9915V79.9569C103.208 76.8204 100.665 74.2782 97.5289 74.2782C94.3924 74.2782 91.8501 76.8204 91.8501 79.9569V85.0078C77.9385 86.9359 69.2273 96.3758 69.2273 110.158C69.2273 119.254 73.2533 130.52 91.8501 133.917V158.874C87.3553 157.99 82.8327 156.047 78.3451 153.055C77.0272 152.176 75.4521 151.672 74.0238 151.672C70.2936 151.672 67.2593 154.655 67.2593 158.322C67.2593 160.766 68.3323 162.757 70.4489 164.239L70.4494 164.239C76.651 168.581 84.2461 171.384 91.8501 172.225V177.405C91.8501 180.541 94.3924 183.083 97.5289 183.083C100.665 183.083 103.208 180.541 103.208 177.405Z" fill="#666666"/>
<mask id="mask0" mask-type="alpha" maskUnits="userSpaceOnUse" x="17" y="0" width="285" height="320">
<path d="M17.5475 0H301.452V319.374H17.5475V0Z" fill="white"/>
</mask>
<g mask="url(#mask0)">
<path fill-rule="evenodd" clip-rule="evenodd" d="M283.293 265.993C283.293 291.659 273.75 301.202 248.084 301.202H141.778C116.112 301.202 106.57 291.659 106.57 265.993V208.222C127.512 206.788 144.15 200.247 156.111 188.721C170.286 175.062 177.474 154.823 177.474 128.567C177.474 102.311 170.286 82.0722 156.111 68.4132C144.173 56.9089 127.576 50.3702 106.688 48.9201C107.886 27.1536 118.313 18.172 141.778 18.172H248.084C260.988 18.172 269.887 20.8084 275.29 26.2318C280.675 31.6366 283.293 40.5173 283.293 53.3804V265.993ZM35.7319 128.567C35.7319 107.437 41.0476 91.6012 51.5315 81.4989C61.6656 71.7337 77.1373 66.7823 97.5168 66.7823C117.896 66.7823 133.368 71.7337 143.502 81.4989C153.986 91.6012 159.302 107.437 159.302 128.567C159.302 149.697 153.986 165.533 143.502 175.636C133.368 185.401 117.896 190.352 97.5168 190.352C77.1373 190.352 61.6656 185.401 51.5315 175.636C41.0476 165.533 35.7319 149.697 35.7319 128.567ZM288.163 13.406C279.176 4.38537 266.066 0 248.084 0H141.778C123.958 0 110.868 4.47668 101.763 13.6858C93.548 21.9941 89.1917 33.5488 88.4985 48.911C67.5398 50.3397 50.8901 56.8812 38.9224 68.4132C24.7473 82.0722 17.5598 102.311 17.5598 128.567C17.5598 154.823 24.7473 175.062 38.9224 188.721C50.871 200.235 67.4861 206.774 88.3976 208.218V265.993C88.3976 284.079 92.788 297.225 101.819 306.183C110.768 315.059 123.839 319.374 141.778 319.374H248.084C266.023 319.374 279.094 315.059 288.043 306.183C297.074 297.225 301.465 284.079 301.465 265.993V53.3804C301.465 35.4655 297.114 22.3898 288.163 13.406Z" fill="#666666"/>
</g>
<path fill-rule="evenodd" clip-rule="evenodd" d="M194.932 245.343C183.65 245.343 176.916 252.103 176.916 263.425C176.916 268.951 178.495 273.371 181.611 276.561C184.77 279.797 189.376 281.507 194.932 281.507C200.487 281.507 205.093 279.797 208.252 276.562C211.368 273.371 212.947 268.951 212.947 263.425C212.947 252.103 206.213 245.343 194.932 245.343Z" fill="#666666"/>
</svg>
