<?xml version="1.0" encoding="UTF-8"?>
<svg width="1920px" height="791px" viewBox="0 0 1920 791" version="1.1" xmlns="http://www.w3.org/2000/svg" xmlns:xlink="http://www.w3.org/1999/xlink">
    <title>vivo-conheca-combos-desk-1920x791</title>
    <defs>
        <linearGradient x1="54.9544386%" y1="30.5969425%" x2="45.4666107%" y2="70.3656009%" id="linearGradient-1">
            <stop stop-color="#9E78B2" offset="0%"></stop>
            <stop stop-color="#BE83E1" stop-opacity="0" offset="100%"></stop>
        </linearGradient>
        <linearGradient x1="-0.965893588%" y1="49.9999909%" x2="101.899465%" y2="49.9999909%" id="linearGradient-2">
            <stop stop-color="#9E78B2" offset="0%"></stop>
            <stop stop-color="#BE83E1" stop-opacity="0" offset="100%"></stop>
        </linearGradient>
        <linearGradient x1="98.4232068%" y1="106.345936%" x2="-16.1675105%" y2="-26.9989737%" id="linearGradient-3">
            <stop stop-color="#9E78B2" offset="0%"></stop>
            <stop stop-color="#BE83E1" stop-opacity="0" offset="100%"></stop>
        </linearGradient>
        <linearGradient x1="136.203868%" y1="128.220393%" x2="-78.6873523%" y2="-67.8663589%" id="linearGradient-4">
            <stop stop-color="#9E78B2" offset="0%"></stop>
            <stop stop-color="#BE83E1" stop-opacity="0" offset="100%"></stop>
        </linearGradient>
        <linearGradient x1="92.11125%" y1="143.37%" x2="-66.26375%" y2="-19.736875%" id="linearGradient-5">
            <stop stop-color="#9E78B2" offset="0%"></stop>
            <stop stop-color="#BE83E1" stop-opacity="0" offset="100%"></stop>
        </linearGradient>
        <linearGradient x1="195.968125%" y1="248.000625%" x2="-34.300625%" y2="14.525625%" id="linearGradient-6">
            <stop stop-color="#9E78B2" offset="0%"></stop>
            <stop stop-color="#BE83E1" stop-opacity="0" offset="100%"></stop>
        </linearGradient>
        <linearGradient x1="195.595625%" y1="247.623125%" x2="-34.673125%" y2="14.148125%" id="linearGradient-7">
            <stop stop-color="#9E78B2" offset="0%"></stop>
            <stop stop-color="#BE83E1" stop-opacity="0" offset="100%"></stop>
        </linearGradient>
        <linearGradient x1="92.263125%" y1="143.524375%" x2="-66.118125%" y2="-19.581875%" id="linearGradient-8">
            <stop stop-color="#9E78B2" offset="0%"></stop>
            <stop stop-color="#BE83E1" stop-opacity="0" offset="100%"></stop>
        </linearGradient>
        <linearGradient x1="115.770647%" y1="116.81624%" x2="-39.3860697%" y2="-40.5874137%" id="linearGradient-9">
            <stop stop-color="#9E78B2" offset="0%"></stop>
            <stop stop-color="#BE83E1" stop-opacity="0" offset="100%"></stop>
        </linearGradient>
        <linearGradient x1="151.300624%" y1="120.397634%" x2="-112.739326%" y2="-63.6216144%" id="linearGradient-10">
            <stop stop-color="#9E78B2" offset="0%"></stop>
            <stop stop-color="#BE83E1" stop-opacity="0" offset="100%"></stop>
        </linearGradient>
        <linearGradient x1="195.957927%" y1="247.993902%" x2="-35.2737805%" y2="13.5359756%" id="linearGradient-11">
            <stop stop-color="#9E78B2" offset="0%"></stop>
            <stop stop-color="#BE83E1" stop-opacity="0" offset="100%"></stop>
        </linearGradient>
        <linearGradient x1="102.206218%" y1="58.1511531%" x2="-74.4377545%" y2="24.6797234%" id="linearGradient-12">
            <stop stop-color="#9E78B2" offset="0%"></stop>
            <stop stop-color="#BE83E1" stop-opacity="0" offset="100%"></stop>
        </linearGradient>
        <linearGradient x1="9.55628748%" y1="79.3285894%" x2="183.791956%" y2="-40.6918436%" id="linearGradient-13">
            <stop stop-color="#9E78B2" offset="0%"></stop>
            <stop stop-color="#BE83E1" stop-opacity="0" offset="100%"></stop>
        </linearGradient>
        <linearGradient x1="85.7246611%" y1="83.0571885%" x2="-21.7022763%" y2="-14.3221674%" id="linearGradient-14">
            <stop stop-color="#9E78B2" offset="0%"></stop>
            <stop stop-color="#BE83E1" stop-opacity="0" offset="100%"></stop>
        </linearGradient>
        <linearGradient x1="99.9997827%" y1="49.9999805%" x2="8.38084296e-05%" y2="49.9999805%" id="linearGradient-15">
            <stop stop-color="#9E78B2" offset="0%"></stop>
            <stop stop-color="#BE83E1" stop-opacity="0" offset="100%"></stop>
        </linearGradient>
        <linearGradient x1="30.62181%" y1="84.8444097%" x2="124.767196%" y2="-30.2944068%" id="linearGradient-16">
            <stop stop-color="#9E78B2" offset="0%"></stop>
            <stop stop-color="#BE83E1" stop-opacity="0" offset="100%"></stop>
        </linearGradient>
        <linearGradient x1="50.5686147%" y1="46.1283943%" x2="45.7577922%" y2="62.4756002%" id="linearGradient-17">
            <stop stop-color="#9E78B2" offset="0%"></stop>
            <stop stop-color="#BE83E1" stop-opacity="0" offset="100%"></stop>
        </linearGradient>
    </defs>
    <g id="Page-1" stroke="none" stroke-width="1" fill="none" fill-rule="evenodd">
        <g id="vivo-conheca-combos-desk-1920x791" fill-rule="nonzero">
            <g id="vivo-conheca-combos-desk-942x791" transform="translate(-179.000000, -413.000000)">
                <polygon id="Path" fill="#F1F1F1" points="173.849879 0.425882787 2113.79597 0.425882787 2113.79597 1664.55122 173.849879 1664.55122"></polygon>
                <path d="M2156.38596,1142.87466 C2108.19834,1050.97912 2034.67263,972.437851 1945.31062,919.926113 C1825.40715,849.306879 1678.35574,826.219821 1542.61597,856.776221 C1405.06633,887.785308 1103.49781,1144.23272 841.293827,939.618015 C749.895716,868.319749 700.576933,733.645248 631.123418,640.617987 C556.466545,540.574072 430.002327,487.156959 305.347972,484.214491 C184.992043,481.498367 71.1968701,514.091859 0.385957172,571.130472 L0.385957172,1940.05717 L2156.38596,1940.05717 L2156.38596,1142.87466 Z" id="Path" fill="url(#linearGradient-1)" opacity="0.51" transform="translate(1078.385957, 1212.057168) scale(-1, 1) translate(-1078.385957, -1212.057168) "></path>
                <path d="M304.927462,456.703509 C437.740139,459.870216 559.239982,518.001911 629.832069,612.550738 C654.720305,646.027356 676.667204,683.801648 699.745386,724.064066 C740.019077,793.731623 781.424051,865.887306 840.250791,911.578366 C921.250686,974.686315 1007.00197,999.341391 1102.48229,986.674563 C1186.42353,975.591088 1266.51839,938.04299 1343.89818,901.625858 C1413.58524,868.82782 1479.42594,838.065522 1542.55156,829.017788 C1739.16862,801.196004 1869.71873,848.01803 1944.6097,891.899543 C2034.4336,944.828791 2108.19328,1023.77027 2156.38596,1116.05717 L2156.38596,1111.30711 C2108.19328,1020.15118 2034.88611,942.340664 1945.96724,889.863803 C1838.26905,826.529661 1698.66867,804.588904 1542.55156,826.529661 C1479.19968,835.577395 1413.13273,866.565886 1343.21941,899.363924 C1266.06588,935.554863 1186.19727,973.102961 1102.48229,984.186436 C1007.68074,996.853264 922.381969,972.424381 842.060844,909.542626 C783.686618,864.077759 742.281644,792.148269 702.23421,722.706906 C679.156027,682.444487 657.209129,644.444002 632.094636,610.967384 C561.050035,515.966171 439.097679,457.382089 305.379975,454.215382 C184.332646,451.501062 71.4305579,483.846713 0.385957172,540.847441 L0.385957172,543.787955 C70.5255311,486.561033 183.653876,453.989189 304.927462,456.703509 Z" id="Path" fill="url(#linearGradient-2)" transform="translate(1078.385957, 785.057168) scale(-1, 1) translate(-1078.385957, -785.057168) "></path>
                <g id="Group-2" transform="translate(1123.736634, 476.063180)">
                    <path d="M30.5608111,183.897414 L30.5608111,84.1104565 C30.5608111,82.7538363 31.7666958,81.397216 33.2740517,81.397216 L135.020572,81.397216 C136.377192,81.397216 137.733812,82.6031007 137.733812,84.1104565 L137.733812,183.897414 C137.733812,185.254034 136.527928,186.610654 135.020572,186.610654 L33.4247873,186.610654 C31.7666958,186.459919 30.5608111,185.40477 30.5608111,183.897414 Z M76.2336935,261.375505 L76.2336935,204.698925 C76.2336935,203.945247 76.9873714,203.191569 77.7410493,203.191569 L135.322043,203.191569 C136.075721,203.191569 136.829399,203.945247 136.829399,204.698925 L136.829399,261.375505 C136.829399,262.129183 136.075721,262.882861 135.322043,262.882861 L77.7410493,262.882861 C76.8366358,262.882861 76.2336935,262.279918 76.2336935,261.375505 Z" id="Shape" fill="#FFFFFF"></path>
                    <path d="M30.5608111,183.897414 L30.5608111,84.1104565 C30.5608111,82.7538363 31.7666958,81.397216 33.2740517,81.397216 L135.020572,81.397216 C136.377192,81.397216 137.733812,82.6031007 137.733812,84.1104565 L137.733812,183.897414 C137.733812,185.254034 136.527928,186.610654 135.020572,186.610654 L33.4247873,186.610654 C31.7666958,186.459919 30.5608111,185.40477 30.5608111,183.897414 Z" id="Path" fill="url(#linearGradient-3)" opacity="0.51"></path>
                    <polygon id="Path" fill="#FFFFFF" opacity="0.48" points="124.469081 173.496659 124.469081 93.4560628 43.9762782 93.4560628 43.9762782 173.948865 124.469081 173.948865"></polygon>
                    <path d="M32.6711093,185.706241 C32.5203738,185.706241 32.3696382,185.706241 32.2189026,185.555505 C32.068167,185.40477 32.068167,184.952563 32.2189026,184.801827 L43.5240715,173.496659 C43.6748071,173.345923 44.1270138,173.345923 44.2777494,173.496659 C44.428485,173.647394 44.428485,174.099601 44.2777494,174.250336 L32.9725805,185.555505 C32.9725805,185.555505 32.9725805,185.706241 32.6711093,185.706241 Z M136.829399,185.706241 C136.678663,185.706241 136.527928,185.706241 136.377192,185.555505 L124.016874,173.948865 C123.866138,173.79813 123.715403,173.345923 124.016874,173.195187 C124.16761,173.044452 124.619816,172.893716 124.770552,173.195187 L137.13087,184.801827 C137.281605,184.952563 137.432341,185.40477 137.13087,185.555505 C137.13087,185.555505 136.980134,185.706241 136.829399,185.706241 Z M43.9762782,94.0590051 C43.8255426,94.0590051 43.6748071,94.0590051 43.6748071,93.9082696 L31.1637535,82.3016295 C30.8622823,82.1508939 30.8622823,81.6986872 31.1637535,81.5479516 C31.3144891,81.2464804 31.7666958,81.2464804 31.9174314,81.5479516 L44.428485,93.1545916 C44.7299562,93.3053272 44.7299562,93.757534 44.428485,93.9082696 C44.2777494,93.757534 44.2777494,94.0590051 43.9762782,94.0590051 Z M124.469081,94.0590051 C124.318345,94.0590051 124.16761,94.0590051 124.016874,93.9082696 C123.866138,93.757534 123.866138,93.3053272 124.016874,93.1545916 L136.377192,81.5479516 C136.527928,81.397216 136.980134,81.397216 137.13087,81.5479516 C137.281605,81.6986872 137.281605,82.1508939 137.13087,82.3016295 L124.770552,93.9082696 C124.770552,94.0590051 124.619816,94.0590051 124.469081,94.0590051 Z" id="Shape" fill="url(#linearGradient-4)" opacity="0.51"></path>
                    <polygon id="Path" fill="url(#linearGradient-5)" opacity="0.51" points="84.2226795 133.702464 60.1049858 133.702464 60.1049858 109.58477"></polygon>
                    <polygon id="Path" fill="url(#linearGradient-6)" opacity="0.51" points="108.340373 133.702464 84.2226795 133.702464 84.2226795 109.58477"></polygon>
                    <polygon id="Path" fill="url(#linearGradient-7)" opacity="0.51" points="84.2226795 157.669422 60.1049858 157.669422 60.1049858 133.551728"></polygon>
                    <polygon id="Path" fill="url(#linearGradient-8)" opacity="0.51" points="108.340373 157.669422 84.2226795 157.669422 84.2226795 133.551728"></polygon>
                    <path d="M76.2336935,261.375505 L76.2336935,204.698925 C76.2336935,203.945247 76.9873714,203.191569 77.7410493,203.191569 L135.322043,203.191569 C136.075721,203.191569 136.829399,203.945247 136.829399,204.698925 L136.829399,261.375505 C136.829399,262.129183 136.075721,262.882861 135.322043,262.882861 L77.7410493,262.882861 C76.8366358,262.882861 76.2336935,262.279918 76.2336935,261.375505 Z" id="Path" fill="url(#linearGradient-9)" opacity="0.51"></path>
                    <polygon id="Path" fill="#FFFFFF" opacity="0.48" points="129.443355 255.647552 129.443355 210.276141 83.9212083 210.276141 83.9212083 255.798288 129.443355 255.798288"></polygon>
                    <path d="M77.4395781,262.581389 C77.2888426,262.581389 77.2888426,262.581389 77.2888426,262.430654 C77.138107,262.279918 77.138107,262.129183 77.2888426,261.978447 L83.7704727,255.496817 C83.9212083,255.346081 84.0719439,255.346081 84.2226795,255.496817 C84.3734151,255.647552 84.3734151,255.798288 84.2226795,255.949024 L77.7410493,262.430654 C77.5903137,262.430654 77.4395781,262.581389 77.4395781,262.581389 L77.4395781,262.581389 Z M136.527928,262.581389 C136.377192,262.581389 136.377192,262.581389 136.377192,262.430654 L129.443355,255.798288 C129.292619,255.647552 129.292619,255.496817 129.443355,255.346081 C129.594091,255.195346 129.744826,255.195346 129.895562,255.346081 L136.829399,261.978447 C136.980134,262.129183 136.980134,262.279918 136.829399,262.430654 C136.678663,262.430654 136.678663,262.581389 136.527928,262.581389 L136.527928,262.581389 Z M83.9212083,210.577612 C83.7704727,210.577612 83.7704727,210.577612 83.7704727,210.426877 L76.6859002,203.945247 C76.5351646,203.794511 76.5351646,203.643776 76.6859002,203.49304 C76.8366358,203.342304 76.9873714,203.342304 77.138107,203.49304 L84.2226795,209.97467 C84.3734151,210.125406 84.3734151,210.276141 84.2226795,210.426877 C84.0719439,210.426877 84.0719439,210.577612 83.9212083,210.577612 L83.9212083,210.577612 Z M129.443355,210.577612 C129.292619,210.577612 129.292619,210.577612 129.292619,210.426877 C129.141884,210.276141 129.141884,210.125406 129.292619,209.97467 L136.226456,203.49304 C136.377192,203.342304 136.527928,203.342304 136.678663,203.49304 C136.829399,203.643776 136.829399,203.794511 136.678663,203.945247 L129.744826,210.426877 C129.594091,210.577612 129.443355,210.577612 129.443355,210.577612 L129.443355,210.577612 Z" id="Shape" fill="url(#linearGradient-10)" opacity="0.51"></path>
                    <polygon id="Path" fill="url(#linearGradient-11)" opacity="0.51" points="119.344071 246.151211 94.6234348 246.151211 94.6234348 221.430575"></polygon>
                    <path d="M662.59512,639.118881 L6.74458869,639.118881 C4.93576167,639.118881 3.27767023,639.872559 2.07178555,641.078444 C-2.29954642,645.29904 0.715165286,652.685084 6.74458869,652.685084 L662.59512,652.685084 C668.624543,652.685084 671.639255,645.29904 667.267923,641.078444 C665.911303,639.872559 664.253211,639.118881 662.59512,639.118881 Z" id="Path" fill="#14001F" opacity="0.1"></path>
                    <path d="M661.389235,501.798763 L5.99091077,501.798763 C4.48355492,501.798763 4.03134816,499.8392 5.23723284,499.085522 L22.270354,488.986238 C26.3402148,486.574469 31.0130179,485.217849 35.8365566,485.217849 L631.694325,485.217849 C636.517864,485.217849 641.190667,486.574469 645.260527,488.986238 L662.293649,499.085522 C663.499533,499.8392 662.896591,501.798763 661.389235,501.798763 Z M650.234802,618.618842 L639.834046,618.618842 C637.573013,618.618842 636.367128,621.332082 638.025219,622.990173 L662.896591,647.861545 C665.006889,649.971843 668.323072,647.409338 666.966452,644.846833 C661.238499,634.898285 654.606134,623.593116 652.495836,619.824726 C651.892893,619.071048 651.139215,618.618842 650.234802,618.618842 L650.234802,618.618842 Z M18.0497576,618.468106 L28.450513,618.468106 C30.7115467,618.468106 31.9174314,621.181346 30.25934,622.839438 L5.38796843,647.710809 C3.27767023,649.821108 -0.0385126397,647.258603 1.31810763,644.696098 C7.04605986,634.747549 13.6784256,623.44238 15.7887238,619.673991 C16.3916661,618.920313 17.1453441,618.468106 18.0497576,618.468106 Z" id="Shape" fill="#00ABDB"></path>
                    <path d="M647.672297,632.637251 L637.271541,622.08576 L653.852456,622.537967 C653.852456,622.537967 653.550985,622.688702 652.646571,622.839438 C642.848758,623.743851 647.22009,631.582102 647.672297,632.637251 Z M8.25194454,632.637251 L14.281368,622.08576 L30.4100756,622.537967 C30.4100756,622.537967 29.6563976,622.688702 28.7519841,622.688702 C17.2960797,623.743851 9.45782923,631.582102 8.25194454,632.637251 L8.25194454,632.637251 Z" id="Shape" fill="#2E95CE"></path>
                    <path d="M656.414961,622.990173 L10.8144495,622.990173 C5.08649726,622.990173 0.564429701,618.468106 0.564429701,612.740154 L0.564429701,507.526715 C0.564429701,501.798763 5.08649726,497.276695 10.8144495,497.276695 L656.414961,497.276695 C662.142913,497.276695 666.664981,501.798763 666.664981,507.526715 L666.664981,612.740154 C666.664981,618.468106 662.142913,622.990173 656.414961,622.990173 Z" id="Path" fill="#82C7E5"></path>
                    <path d="M639.834046,609.1225 L27.5460994,609.1225 C21.3659405,609.1225 16.5424017,604.298961 16.5424017,598.118802 L16.5424017,522.298803 C16.5424017,516.118644 21.3659405,511.295105 27.5460994,511.295105 L639.834046,511.295105 C646.014205,511.295105 650.837744,516.118644 650.837744,522.298803 L650.837744,598.118802 C650.837744,604.148225 645.86347,609.1225 639.834046,609.1225 Z M27.5460994,512.802461 C22.270354,512.802461 18.0497576,517.023057 18.0497576,522.298803 L18.0497576,598.118802 C18.0497576,603.394547 22.270354,607.615144 27.5460994,607.615144 L639.834046,607.615144 C645.109792,607.615144 649.330388,603.394547 649.330388,598.118802 L649.330388,522.298803 C649.330388,517.023057 645.109792,512.802461 639.834046,512.802461 L27.5460994,512.802461 Z" id="Shape" fill="#00ABDB"></path>
                    <path d="M483.973451,494.864926 L182.803752,494.864926 C181.748603,494.864926 180.994925,493.960513 180.994925,493.056099 C180.994925,492.00095 181.899339,491.247272 182.803752,491.247272 L483.973451,491.247272 C485.0286,491.247272 485.782278,492.151686 485.782278,493.056099 C485.782278,493.960513 485.0286,494.864926 483.973451,494.864926 Z" id="Path" fill="#2E95CE"></path>
                    <path d="M190.792738,494.864926 L138.035283,494.864926 C136.980134,494.864926 136.226456,493.960513 136.226456,493.056099 C136.226456,492.00095 137.13087,491.247272 138.035283,491.247272 L190.792738,491.247272 C191.847887,491.247272 192.601565,492.151686 192.601565,493.056099 C192.601565,493.960513 191.847887,494.864926 190.792738,494.864926 Z" id="Path" fill="#2E95CE"></path>
                    <path d="M446.440291,472.857531 L438.752776,472.857531 C437.094684,472.857531 436.190271,474.817093 437.396156,476.022978 L455.936632,494.563455 C457.443988,496.070811 460.006493,494.261984 458.951344,492.302421 C454.730748,484.916377 449.756474,476.475185 448.098382,473.761944 C447.646175,473.159002 447.043233,472.857531 446.440291,472.857531 Z M222.14574,472.706795 L229.833255,472.706795 C231.491346,472.706795 232.39576,474.666358 231.189875,475.872242 L212.649398,494.412719 C211.142042,495.920075 208.579537,494.111248 209.634686,492.151686 C213.855283,484.765642 218.829557,476.324449 220.487648,473.611209 C220.78912,473.008266 221.392062,472.706795 222.14574,472.706795 L222.14574,472.706795 Z" id="Shape" fill="#0054A1"></path>
                    <path d="M444.631464,483.258286 L436.943949,475.420036 L449.304267,475.721507 C449.304267,475.721507 449.002796,475.872242 448.399853,475.872242 C441.01381,476.62592 444.179257,482.504608 444.631464,483.258286 L444.631464,483.258286 Z M214.910432,483.258286 L219.432499,475.420036 L231.340611,475.721507 C231.340611,475.721507 230.737668,475.721507 230.134726,475.872242 C221.542798,476.62592 215.66411,482.504608 214.910432,483.258286 Z" id="Shape" fill="#461E5F"></path>
                    <path d="M478.999177,471.953117 L189.586854,471.953117 C185.064786,471.953117 181.296396,468.184728 181.296396,463.66266 L181.296396,317.599878 C181.296396,313.07781 185.064786,309.309421 189.586854,309.309421 L478.999177,309.309421 C483.521245,309.309421 487.289634,313.07781 487.289634,317.599878 L487.289634,463.66266 C487.289634,468.184728 483.521245,471.953117 478.999177,471.953117 Z" id="Path" fill="#321A4C"></path>
                    <path d="M478.54697,475.872242 L189.888325,475.872242 C182.954488,475.872242 177.377271,470.295026 177.377271,463.361189 L177.377271,318.052085 C177.377271,311.118248 182.954488,305.541031 189.888325,305.541031 L478.54697,305.541031 C485.480807,305.541031 491.060933,311.118248 491.060933,318.052085 L491.060933,463.361189 C491.208759,470.14429 485.480807,475.872242 478.54697,475.872242 Z M189.888325,313.07781 C187.32582,313.07781 185.215522,315.188109 185.215522,317.750614 L185.215522,460.798684 C185.215522,463.361189 187.32582,465.471487 189.888325,465.471487 L478.848441,465.471487 C481.410946,465.471487 483.521245,463.361189 483.521245,460.798684 L483.521245,317.750614 C483.521245,315.188109 481.410946,313.07781 478.848441,313.07781 L189.888325,313.07781 L189.888325,313.07781 Z" id="Shape" fill="#0066CC"></path>
                    <path d="M340.473174,472.405324 L328.112856,472.405324 C327.509914,472.405324 326.906972,471.802382 326.906972,471.199439 C326.906972,470.596497 327.509914,469.993555 328.112856,469.993555 L340.473174,469.993555 C341.076117,469.993555 341.679059,470.596497 341.679059,471.199439 C341.679059,471.802382 341.076117,472.405324 340.473174,472.405324 Z" id="Path" fill="#461E5F"></path>
                    <path d="M334.443751,608.670293 L332.936395,608.670293 L332.936395,512.50099 L334.443751,512.50099 L334.443751,608.670293 Z M353.58717,583.045243 C350.270987,583.045243 347.557747,580.332003 347.557747,577.01582 L347.557747,549.129737 C347.557747,545.813554 350.270987,543.100313 353.58717,543.100313 C356.903353,543.100313 359.616594,545.813554 359.616594,549.129737 L359.616594,577.01582 C359.616594,580.332003 356.903353,583.045243 353.58717,583.045243 Z M353.58717,544.607669 C351.175401,544.607669 349.065103,546.717967 349.065103,549.129737 L349.065103,577.01582 C349.065103,579.427589 351.175401,581.537888 353.58717,581.537888 C356.149675,581.537888 358.109238,579.578325 358.109238,577.01582 L358.109238,549.129737 C358.109238,546.717967 355.99894,544.607669 353.58717,544.607669 Z M311.833413,583.045243 C308.51723,583.045243 305.80399,580.332003 305.80399,577.01582 L305.80399,549.129737 C305.80399,545.813554 308.51723,543.100313 311.833413,543.100313 C315.149596,543.100313 317.862836,545.813554 317.862836,549.129737 L317.862836,577.01582 C317.712101,580.482738 314.99886,583.045243 311.833413,583.045243 Z M311.833413,544.607669 C309.421644,544.607669 307.311346,546.717967 307.311346,549.129737 L307.311346,577.01582 C307.311346,579.427589 309.421644,581.537888 311.833413,581.537888 C314.245182,581.537888 316.204745,579.578325 316.355481,577.01582 L316.355481,549.129737 C316.355481,546.717967 314.245182,544.607669 311.833413,544.607669 Z" id="Shape" fill="#00ABDB"></path>
                    <path d="M167.277987,463.964131 C167.277987,468.184728 160.645621,471.651646 152.656635,471.651646 C144.667649,471.651646 138.035283,468.184728 138.035283,463.964131" id="Path" fill="#FF5500"></path>
                    <path d="M152.5059,474.817093 C148.73751,475.420036 144.96912,472.857531 144.366178,469.089141 L139.542639,441.806 C139.391904,441.203058 139.391904,440.600115 139.391904,440.147909 C139.84411,433.96775 145.119856,429.144211 151.300015,429.144211 C157.630909,429.144211 162.755919,433.96775 163.208126,440.147909 C163.208126,440.750851 163.208126,441.353793 163.057391,441.956736 L157.932381,469.239877 C157.630909,472.103853 155.369876,474.364887 152.5059,474.817093 L152.5059,474.817093 Z" id="Path" fill="#88CE00"></path>
                    <path d="M146.777947,463.964131 C146.627212,463.964131 146.476476,463.813396 146.325741,463.66266 C146.325741,463.511924 144.215442,452.960433 142.858822,443.614827 C141.351466,434.118485 151.149279,429.144211 151.149279,428.993475 C151.300015,428.84274 151.601486,428.993475 151.752222,429.144211 C151.902957,429.294947 151.752222,429.596418 151.601486,429.747153 C151.45075,429.747153 142.25588,434.570692 143.763236,443.464092 C145.119856,452.658962 147.230154,463.361189 147.230154,463.511924 C147.230154,463.66266 147.079418,463.964131 146.777947,463.964131 L146.777947,463.964131 Z" id="Path" fill="#00A43D"></path>
                    <path d="M156.274289,463.964131 C155.972818,463.964131 155.822082,463.66266 155.822082,463.511924 C155.822082,463.361189 157.932381,452.809698 159.289001,443.464092 C160.645621,434.570692 151.45075,429.747153 151.45075,429.747153 C151.300015,429.596418 151.149279,429.445682 151.300015,429.144211 C151.45075,428.993475 151.601486,428.84274 151.902957,428.993475 C152.053693,428.993475 161.70077,434.118485 160.193414,443.614827 C158.836794,452.809698 156.726496,463.511924 156.726496,463.66266 C156.726496,463.813396 156.57576,463.964131 156.274289,463.964131 L156.274289,463.964131 Z" id="Path" fill="#00A43D"></path>
                    <path d="M151.300015,462.456775 C150.998544,462.456775 150.847808,462.30604 150.847808,462.004569 L150.847808,429.445682 C150.847808,429.144211 150.998544,428.993475 151.300015,428.993475 C151.601486,428.993475 151.752222,429.144211 151.752222,429.445682 L151.752222,462.004569 C151.752222,462.155304 151.601486,462.456775 151.300015,462.456775 Z" id="Path" fill="#00A43D"></path>
                    <polygon id="Path" fill="#00A43D" points="151.149279 459.291328 160.494886 456.427352 159.439736 460.798684"></polygon>
                    <path d="M142.105144,436.078048 L141.954409,436.078048 L139.693375,435.022899 C139.542639,434.872163 139.391904,434.721428 139.542639,434.419956 C139.693375,434.118485 139.84411,434.118485 140.145582,434.269221 L142.406615,435.32437 C142.557351,435.475106 142.708087,435.625841 142.557351,435.927312 C142.406615,436.078048 142.25588,436.078048 142.105144,436.078048 Z M142.858822,434.570692 L142.708087,434.570692 L140.447053,433.515543 C140.296317,433.364807 140.145582,433.214072 140.296317,432.912601 C140.447053,432.611129 140.597788,432.611129 140.899259,432.761865 L143.160293,433.817014 C143.311029,433.96775 143.461764,434.118485 143.311029,434.419956 C143.160293,434.419956 143.009558,434.570692 142.858822,434.570692 Z M155.068404,452.809698 C154.917669,452.809698 154.766933,452.658962 154.766933,452.658962 C154.616198,452.508227 154.766933,452.206756 154.917669,452.05602 L155.671347,451.754549 C155.822082,451.603813 156.123554,451.754549 156.274289,451.905284 C156.425025,452.05602 156.274289,452.357491 156.123554,452.508227 L155.369876,452.809698 L155.068404,452.809698 L155.068404,452.809698 Z M154.314727,451.151606 C154.163991,451.151606 154.013255,451.000871 154.013255,451.000871 C153.86252,450.850135 154.013255,450.548664 154.163991,450.397928 L154.917669,450.096457 C155.068404,449.945722 155.369876,450.096457 155.520611,450.247193 C155.671347,450.397928 155.520611,450.6994 155.369876,450.850135 L154.616198,451.151606 L154.314727,451.151606 L154.314727,451.151606 Z M159.891943,435.022899 C159.741208,435.022899 159.590472,434.872163 159.590472,434.721428 C159.439736,434.570692 159.590472,434.269221 159.741208,434.118485 L162.002241,433.063336 C162.152977,432.912601 162.454448,433.063336 162.605184,433.214072 C162.755919,433.364807 162.605184,433.666279 162.454448,433.817014 L160.193414,434.872163 C160.042679,435.022899 160.042679,435.022899 159.891943,435.022899 L159.891943,435.022899 Z M159.138265,433.364807 C158.98753,433.364807 158.836794,433.214072 158.836794,433.063336 C158.686059,432.912601 158.836794,432.611129 158.98753,432.460394 L161.248563,431.405245 C161.399299,431.254509 161.70077,431.405245 161.851506,431.55598 C162.002241,431.706716 161.851506,432.008187 161.70077,432.158923 L159.439736,433.214072 C159.289001,433.214072 159.138265,433.364807 159.138265,433.364807 L159.138265,433.364807 Z M149.792659,443.916298 L149.641923,443.916298 L148.586774,443.464092 C148.436039,443.313356 148.285303,443.16262 148.436039,442.861149 C148.586774,442.710414 148.73751,442.559678 149.038981,442.710414 L150.09413,443.16262 C150.244866,443.313356 150.395601,443.464092 150.244866,443.765563 C150.09413,443.765563 149.943395,443.916298 149.792659,443.916298 Z M149.189717,445.57439 L149.038981,445.57439 L147.983832,445.122183 C147.833096,444.971447 147.682361,444.820712 147.833096,444.519241 C147.983832,444.368505 148.134568,444.217769 148.436039,444.368505 L149.491188,444.820712 C149.641923,444.971447 149.792659,445.122183 149.641923,445.423654 C149.491188,445.423654 149.340452,445.57439 149.189717,445.57439 Z M139.994846,454.317054 C139.84411,454.317054 139.693375,454.166318 139.693375,454.015583 C139.542639,453.864847 139.693375,453.563376 139.84411,453.41264 L142.105144,452.357491 C142.25588,452.206756 142.557351,452.357491 142.708087,452.508227 C142.858822,452.658962 142.708087,452.960433 142.557351,453.111169 L140.296317,454.166318 C140.145582,454.317054 139.994846,454.317054 139.994846,454.317054 L139.994846,454.317054 Z M140.748524,455.975145 C140.597788,455.975145 140.447053,455.82441 140.447053,455.673674 C140.296317,455.522938 140.447053,455.221467 140.597788,455.070732 L142.858822,454.015583 C143.009558,453.864847 143.311029,454.015583 143.461764,454.166318 C143.6125,454.317054 143.461764,454.618525 143.311029,454.76926 L141.049995,455.82441 C140.899259,455.975145 140.748524,455.975145 140.748524,455.975145 L140.748524,455.975145 Z M149.792659,429.747153 C149.641923,429.747153 149.491188,429.596418 149.340452,429.445682 L148.888246,427.636855 C148.888246,427.48612 149.038981,427.184648 149.189717,427.184648 C149.340452,427.184648 149.641923,427.335384 149.641923,427.48612 L150.09413,429.294947 C150.244866,429.596418 150.09413,429.747153 149.792659,429.747153 Z M152.656635,429.747153 C152.355164,429.747153 152.204428,429.445682 152.204428,429.294947 L152.656635,427.48612 C152.656635,427.335384 152.958106,427.184648 153.108842,427.184648 C153.259577,427.184648 153.410313,427.48612 153.410313,427.636855 L152.958106,429.445682 C152.958106,429.747153 152.807371,429.747153 152.656635,429.747153 Z M151.300015,429.596418 C151.149279,429.596418 150.847808,429.445682 150.847808,429.294947 L150.697073,426.883177 C150.697073,426.581706 150.847808,426.43097 150.998544,426.43097 C151.300015,426.43097 151.45075,426.581706 151.45075,426.732442 L151.601486,429.144211 C151.752222,429.294947 151.601486,429.596418 151.300015,429.596418 Z" id="Shape" fill="#A0D843"></path>
                    <path d="M162.303713,463.66266 L133.814687,463.66266 L140.597788,489.438445 C140.597788,491.247272 142.105144,492.754628 143.913971,492.754628 L159.289001,492.754628 C161.097828,492.754628 162.605184,491.247272 162.605184,489.438445 L169.388285,463.66266 L162.303713,463.66266 L162.303713,463.66266 Z" id="Path" fill="#FF9300"></path>
                    <path d="M166.222838,463.813396 C150.395601,465.170016 134.719101,467.129578 136.075721,472.857531 L132.910273,461.100155 L161.550035,461.552362 L166.222838,463.813396 Z" id="Path" fill="#FF8400"></path>
                    <path d="M169.086814,459.291328 L133.965423,459.291328 C132.759538,459.291328 131.704389,460.346477 131.704389,461.552362 C131.704389,462.758246 132.608802,463.66266 133.663951,463.813396 L169.23755,463.813396 C170.443434,463.66266 171.347848,462.758246 171.347848,461.552362 C171.347848,460.346477 170.443434,459.291328 169.086814,459.291328 Z" id="Path" fill="#FFA800"></path>
                    <g id="Group" transform="translate(168.182400, 444.669976)">
                        <path d="M15.5257653,1.35662027 C18.0882702,1.35662027 20.1985684,3.46691846 20.1985684,5.87868782 L20.1985684,26.529463 C20.1985684,29.0919679 18.0882702,31.0515305 15.6765009,31.0515305 C15.0735585,31.0515305 14.4706162,30.900795 14.0184094,30.7500594 C12.360318,30.147117 11.0036977,28.4890256 11.0036977,26.529463 L11.0036977,5.87868782 C10.8529621,3.31618287 12.9632603,1.35662027 15.5257653,1.35662027 Z" id="Path" fill="#99CC33"></path>
                        <path d="M15.5257653,1.35662027 C12.360318,10.7022265 11.6066401,21.4044531 13.8676738,30.900795 C12.2095824,30.2978526 10.8529621,28.6397612 10.8529621,26.6801986 L10.8529621,6.02942341 C10.8529621,3.31618287 12.9632603,1.35662027 15.5257653,1.35662027 Z" id="Path" fill="#94BA3C"></path>
                        <path d="M4.67280314,32.709622 L24.8713716,32.709622 C26.8309342,32.709622 28.4890256,31.0515305 28.4890256,29.0919679 L28.4890256,27.7353477 C28.4890256,25.7757851 26.8309342,24.1176936 24.8713716,24.1176936 L4.67280314,24.1176936 C2.71324053,24.1176936 1.0551491,25.7757851 1.0551491,27.7353477 L1.0551491,29.0919679 C1.0551491,31.2022661 2.71324053,32.709622 4.67280314,32.709622 Z" id="Path" fill="#FF9900"></path>
                        <path d="M26.529463,31.5037373 L23.966958,46.4265602 C23.8162225,47.6324449 22.7610734,48.3861228 21.5551887,48.3861228 L8.44119277,48.3861228 C7.23530809,48.3861228 6.33089458,47.4817093 6.02942341,46.4265602 L3.31618287,31.8052085" id="Path" fill="#FF9900"></path>
                        <polygon id="Path" fill="#F18B0E" points="26.3787274 32.709622 3.76838963 32.709622 4.82353873 38.136103"></polygon>
                        <path d="M4.22059638,8.1397216 C4.67280314,7.53677926 5.42648107,7.23530809 6.18015899,7.23530809 C7.53677926,7.23530809 8.74266394,8.44119277 8.74266394,9.79781304 L8.74266394,11.3051689 C8.74266394,12.9632603 10.0992842,14.4706162 11.9081112,14.4706162 C13.2647315,14.4706162 14.4706162,15.6765009 14.4706162,17.0331211 C14.4706162,18.0882702 13.8676738,18.9926837 12.9632603,19.4448905 C12.6617892,19.5956261 12.2095824,19.7463617 11.9081112,19.7463617 C7.38604367,19.7463617 3.61765404,15.977972 3.61765404,11.4559045 L3.61765404,9.94854862 C3.61765404,9.1948707 3.76838963,8.59192835 4.22059638,8.1397216 Z" id="Path" fill="#99CC33"></path>
                        <path d="M4.22059638,8.1397216 C3.76838963,12.9632603 7.83825043,17.9375346 12.9632603,19.2941549 C12.6617892,19.4448905 12.2095824,19.5956261 11.9081112,19.5956261 C7.38604367,19.5956261 3.61765404,15.8272364 3.61765404,11.3051689 L3.61765404,9.79781304 C3.61765404,9.1948707 3.76838963,8.59192835 4.22059638,8.1397216 L4.22059638,8.1397216 Z" id="Path" fill="#94BA3C"></path>
                        <path d="M11.9081112,19.8970972 C11.7573756,19.8970972 11.6066401,19.7463617 11.6066401,19.5956261 C11.6066401,19.4448905 11.7573756,19.2941549 11.9081112,19.2941549 C12.2095824,19.2941549 12.5110536,19.2941549 12.8125247,18.9926837 C13.7169383,18.6912126 14.169145,17.786799 14.169145,16.8823855 C14.169145,16.73165 14.3198806,16.5809144 14.4706162,16.5809144 C14.6213518,16.5809144 14.7720873,16.73165 14.7720873,16.8823855 C14.7720873,18.0882702 14.169145,18.9926837 13.1139959,19.4448905 C12.6617892,19.8970972 12.2095824,19.8970972 11.9081112,19.8970972 L11.9081112,19.8970972 Z" id="Path" fill="#94BA3C"></path>
                        <path d="M17.1838567,5.87868782 L16.8823855,5.87868782 L15.977972,4.97427431 C15.8272364,4.82353873 15.8272364,4.67280314 15.977972,4.52206756 C16.1287076,4.37133197 16.2794432,4.37133197 16.4301788,4.52206756 L17.3345923,5.42648107 C17.4853279,5.57721665 17.4853279,5.72795224 17.1838567,5.87868782 L17.1838567,5.87868782 Z M14.169145,8.74266394 L13.8676738,8.74266394 L12.9632603,7.83825043 C12.8125247,7.68751484 12.8125247,7.53677926 12.9632603,7.38604367 C13.1139959,7.23530809 13.2647315,7.23530809 13.4154671,7.38604367 L14.3198806,8.29045718 C14.4706162,8.44119277 14.4706162,8.59192835 14.169145,8.74266394 L14.169145,8.74266394 Z M11.4559045,16.73165 L11.1544333,16.73165 L10.2500198,15.8272364 C10.0992842,15.6765009 10.0992842,15.5257653 10.2500198,15.3750297 C10.4007554,15.2242941 10.551491,15.2242941 10.7022265,15.3750297 L11.6066401,16.2794432 C11.7573756,16.4301788 11.7573756,16.5809144 11.4559045,16.73165 L11.4559045,16.73165 Z M7.38604367,14.3198806 L7.0845725,14.3198806 L6.18015899,13.4154671 C6.02942341,13.2647315 6.02942341,13.1139959 6.18015899,12.9632603 C6.33089458,12.8125247 6.48163016,12.8125247 6.63236575,12.9632603 L7.53677926,13.8676738 C7.68751484,14.0184094 7.68751484,14.169145 7.38604367,14.3198806 L7.38604367,14.3198806 Z M6.33089458,10.4007554 L6.02942341,10.4007554 L5.1250099,9.49634187 C4.97427431,9.34560628 4.97427431,9.1948707 5.1250099,9.04413511 C5.27574548,8.89339952 5.42648107,8.89339952 5.57721665,9.04413511 L6.48163016,9.94854862 C6.63236575,10.0992842 6.63236575,10.2500198 6.33089458,10.4007554 L6.33089458,10.4007554 Z M13.2647315,4.37133197 L12.9632603,4.37133197 L12.0588468,3.46691846 C11.9081112,3.31618287 11.9081112,3.16544729 12.0588468,3.0147117 C12.2095824,2.86397612 12.360318,2.86397612 12.5110536,3.0147117 L13.4154671,3.91912521 C13.5662027,4.0698608 13.5662027,4.22059638 13.2647315,4.37133197 L13.2647315,4.37133197 Z M18.3897414,10.2500198 L18.0882702,10.2500198 L17.1838567,9.34560628 C17.0331211,9.1948707 17.0331211,9.04413511 17.1838567,8.89339952 C17.3345923,8.74266394 17.4853279,8.74266394 17.6360635,8.89339952 L18.540477,9.79781304 C18.6912126,9.94854862 18.6912126,10.0992842 18.3897414,10.2500198 L18.3897414,10.2500198 Z M15.5257653,13.1139959 L15.2242941,13.1139959 L14.3198806,12.2095824 C14.169145,12.0588468 14.169145,11.9081112 14.3198806,11.7573756 C14.4706162,11.6066401 14.6213518,11.6066401 14.7720873,11.7573756 L15.6765009,12.6617892 C15.8272364,12.8125247 15.8272364,12.9632603 15.5257653,13.1139959 L15.5257653,13.1139959 Z M19.2941549,15.2242941 L18.9926837,15.2242941 L18.0882702,14.3198806 C17.9375346,14.169145 17.9375346,14.0184094 18.0882702,13.8676738 C18.2390058,13.7169383 18.3897414,13.7169383 18.540477,13.8676738 L19.4448905,14.7720873 C19.5956261,14.9228229 19.5956261,15.0735585 19.2941549,15.2242941 L19.2941549,15.2242941 Z M16.2794432,18.0882702 L15.977972,18.0882702 L15.0735585,17.1838567 C14.9228229,17.0331211 14.9228229,16.8823855 15.0735585,16.73165 C15.2242941,16.5809144 15.3750297,16.5809144 15.5257653,16.73165 L16.4301788,17.6360635 C16.5809144,17.786799 16.5809144,17.9375346 16.2794432,18.0882702 L16.2794432,18.0882702 Z M12.6617892,21.4044531 L12.360318,21.4044531 L11.4559045,20.5000396 C11.3051689,20.349304 11.3051689,20.1985684 11.4559045,20.0478328 C11.6066401,19.8970972 11.7573756,19.8970972 11.9081112,20.0478328 L12.8125247,20.9522463 C12.9632603,21.1029819 12.9632603,21.2537175 12.6617892,21.4044531 L12.6617892,21.4044531 Z M20.6507752,20.1985684 L20.349304,20.1985684 L19.4448905,19.2941549 C19.2941549,19.1434193 19.2941549,18.9926837 19.4448905,18.8419481 C19.5956261,18.6912126 19.7463617,18.6912126 19.8970972,18.8419481 L20.8015108,19.7463617 C20.9522463,19.8970972 20.9522463,20.0478328 20.6507752,20.1985684 L20.6507752,20.1985684 Z M17.6360635,23.0625445 L17.3345923,23.0625445 L16.4301788,22.158131 C16.2794432,22.0073954 16.2794432,21.8566598 16.4301788,21.7059243 C16.5809144,21.5551887 16.73165,21.5551887 16.8823855,21.7059243 L17.786799,22.6103378 C17.9375346,22.7610734 17.9375346,22.9118089 17.6360635,23.0625445 L17.6360635,23.0625445 Z" id="Shape" fill="#D6EBAD"></path>
                    </g>
                    <g id="Group" transform="translate(609.837665, 296.949103)">
                        <path d="M54.4155462,307.651329 L111.092126,307.651329 C111.242862,307.651329 111.393597,307.802065 111.544333,308.103536 C111.845804,309.00795 111.695069,310.515305 111.092126,310.515305 L54.4155462,310.515305 C53.9633395,310.515305 53.6618683,309.00795 53.9633395,308.103536 C54.1140751,307.802065 54.2648107,307.651329 54.4155462,307.651329 Z" id="Path" fill="#14001F" opacity="0.1"></path>
                        <path d="M1.0551491,191.8864 C0.30147117,195.051847 1.0551491,198.36803 2.86397612,201.684213 C3.16544729,202.13642 3.91912521,202.437891 4.37133197,201.985684 L7.0845725,200.176857 C7.98898601,199.72465 8.89339952,200.327593 8.59192835,201.382742 L7.23530809,206.959958 C7.23530809,207.26143 7.23530809,207.713636 7.38604367,208.015108 C13.1139959,214.044531 21.5551887,219.169541 28.1875544,220.676897 C40.3971368,223.691608 52.6067192,216.305565 55.3199598,204.548189 C58.0332003,192.790813 50.496421,180.882702 38.2868386,177.86799 C26.3787274,175.456221 3.91912521,180.27976 1.0551491,191.8864 L1.0551491,191.8864 Z" id="Path" fill="url(#linearGradient-12)" opacity="0.51"></path>
                        <path d="M95.4156254,141.992921 L95.4156254,132.195108 C95.4156254,131.742901 95.566361,131.290695 96.1693033,130.989224 C107.173001,124.507593 123.150973,121.19141 130.537017,128.577454 C134.003935,132.044373 135.059084,137.470854 134.606878,143.198806 C134.606878,143.952484 133.8532,144.404691 133.250257,144.404691 L129.783339,144.404691 C128.577454,144.404691 127.974512,145.761311 128.878925,146.665724 L132.647315,150.434114 C132.948786,150.735585 133.099522,151.338528 132.948786,151.639999 C131.742901,155.709859 129.934074,159.478249 128.125247,162.794432 C127.974512,163.095903 127.371569,163.54811 126.919363,163.54811 L117.12155,163.54811 C115.915665,163.54811 115.312723,164.90473 116.217136,165.809144 L120.588468,170.180476 C121.040675,170.632682 121.040675,171.687832 120.437733,172.140038 C111.092126,179.526082 97.375188,178.772404 88.9339952,170.180476 C80.3420669,161.588547 79.7391246,148.022345 86.9744326,138.676738 C87.4266394,137.92306 88.3310529,137.92306 88.9339952,138.526003 L93.3053272,142.897335 C93.9082696,143.651013 95.4156254,143.198806 95.4156254,141.992921 L95.4156254,141.992921 Z" id="Path" fill="url(#linearGradient-13)" opacity="0.51"></path>
                        <path d="M12.360318,92.4009137 C9.64707745,95.1141542 8.1397216,99.184015 7.83825043,103.555347 C7.83825043,104.309025 8.29045718,104.911967 9.04413511,104.911967 L13.1139959,104.911967 C14.3198806,104.911967 14.9228229,106.268588 14.0184094,107.173001 L8.89339952,112.298011 C8.59192835,112.599482 8.44119277,113.051689 8.59192835,113.503896 C10.7022265,123.60318 16.1287076,134.003935 22.0073954,140.033359 C32.8603576,150.886321 50.0442143,151.187792 60.4449697,140.787037 C70.845725,130.386281 70.5442539,113.051689 59.6912917,102.349462 C49.1398008,91.3457646 22.9118089,82.0001583 12.360318,92.4009137 L12.360318,92.4009137 Z" id="Path" fill="url(#linearGradient-14)" opacity="0.51"></path>
                        <path d="M43.1103774,50.9486278 L30.5993238,45.2206756 C30.2978526,45.06994 29.8456459,44.7684688 29.8456459,44.1655265 C28.33829,27.7353477 33.0110932,6.93383692 45.8236179,2.11029819 C51.8530413,-0.150735585 58.9376138,1.65809144 65.5699795,5.57721665 C66.0221863,5.87868782 66.4743931,6.63236575 66.0221863,7.38604367 L63.6104169,12.6617892 C63.1582102,13.7169383 64.0626237,14.9228229 65.1177728,14.4706162 L72.8052876,11.7573756 C73.2574944,11.6066401 73.8604367,11.7573756 74.1619079,11.9081112 C78.3825043,15.5257653 82.0001583,19.7463617 85.01487,24.1176936 C85.3163412,24.4191648 85.3163412,25.0221071 85.1656056,25.3235783 L79.4376534,37.8346319 C78.9854466,38.889781 79.8898601,40.0956657 80.9450092,39.6434589 L89.6876732,36.4780116 C90.4413511,36.1765404 91.195029,36.6287472 91.4965002,37.3824251 C95.1141542,52.6067192 86.9744326,68.4339557 72.0516097,73.8604367 C57.1287868,79.2869178 40.5478724,72.5038165 33.7647711,58.485407 C33.4632999,57.7317291 33.7647711,56.9780512 34.518449,56.67658 L43.2611129,53.5111327 C43.8640553,53.2096616 44.1655265,52.4559836 43.8640553,51.7023057 C43.5625841,51.4008345 43.4118485,51.0993634 43.1103774,50.9486278 L43.1103774,50.9486278 Z" id="Path" fill="url(#linearGradient-15)" opacity="0.51"></path>
                        <path d="M125.562742,171.084889 C125.110536,172.290774 123.60318,172.290774 123.150973,171.235625 L118.930377,162.19149 C118.628906,161.739283 118.025963,161.287076 117.423021,161.437812 C115.312723,162.19149 113.35316,162.643696 111.695069,163.54811 C99.0332795,169.577533 93.4560628,184.801827 99.3347506,197.765088 C105.364174,210.426877 120.588468,216.004094 133.551728,210.125406 C146.213518,204.095982 162.643696,183.746678 156.765009,170.934154 C153.147355,162.945168 141.992921,159.77972 130.838488,159.77972 C130.386281,159.77972 129.783339,160.081191 129.632603,160.684134 L125.562742,171.084889 L125.562742,171.084889 Z M149.831172,70.845725 C139.430416,60.4449697 113.051689,69.7905759 102.500198,80.6435381 C91.6472358,91.4965002 91.3457646,108.680357 101.74652,119.081112 C112.147275,129.481868 129.481868,129.180396 140.184094,118.327434 C146.062782,112.448747 151.489263,101.897256 153.599561,91.7979714 C153.750297,91.3457646 153.599561,90.8935579 153.29809,90.5920867 L148.17308,85.4670768 C147.268667,84.5626633 147.871609,83.206043 149.077494,83.206043 L153.147355,83.206043 C153.901032,83.206043 154.353239,82.4523651 154.353239,81.8494227 C154.051768,77.6288264 152.695148,73.5589656 149.831172,70.845725 L149.831172,70.845725 Z M9.79781304,143.04807 C11.0036977,143.04807 11.6066401,144.404691 11.0036977,145.45984 L5.57721665,150.886321 C5.27574548,151.037056 5.1250099,151.639999 5.27574548,152.092205 C7.83825043,161.136341 12.8125247,169.879004 17.9375346,175.15475 C29.3934391,186.610654 48.2353873,186.610654 59.6912917,175.15475 C70.2427827,164.301788 71.1471962,147.419402 61.8015899,135.812762 C61.3493832,135.059084 60.4449697,135.059084 59.8420273,135.662027 L53.8126039,141.69145 C52.9081904,142.595864 51.5515701,141.992921 51.5515701,140.787037 L51.5515701,127.673041 C51.5515701,127.220834 51.250099,126.617892 50.7978922,126.467156 C37.2316895,118.47817 17.1838567,114.106838 7.98898601,123.301709 C3.61765404,127.673041 2.26103378,134.456142 2.86397612,141.842186 C3.0147117,142.595864 3.61765404,143.04807 4.22059638,143.04807 L9.79781304,143.04807 L9.79781304,143.04807 Z" id="Shape" fill="url(#linearGradient-16)" opacity="0.51"></path>
                        <path d="M44.0147909,254.140197 L121.342146,254.140197 C123.60318,254.140197 125.562742,252.180634 125.562742,249.9196 L125.562742,242.835028 C125.562742,240.573994 123.60318,238.614431 121.342146,238.614431 L44.0147909,238.614431 C41.7537571,238.614431 39.7941945,240.573994 39.7941945,242.835028 L39.7941945,249.9196 C39.7941945,252.180634 41.7537571,254.140197 44.0147909,254.140197 Z" id="Path" fill="#FFFFFF"></path>
                        <path d="M86.3714903,253.085047 C86.5222259,253.085047 86.5222259,253.085047 86.3714903,253.085047 C86.6729615,253.085047 86.8236971,252.934312 86.8236971,252.632841 C84.5626633,198.518766 13.8676738,192.187871 13.1139959,192.037136 C12.8125247,192.037136 12.6617892,192.187871 12.6617892,192.489342 C12.6617892,192.790813 12.8125247,192.941549 13.1139959,192.941549 C13.8676738,192.941549 83.5075142,199.272444 85.768548,252.482105 C85.9192835,252.934312 86.0700191,253.085047 86.3714903,253.085047 Z M84.5626633,207.713636 C84.8641344,207.713636 85.01487,207.562901 85.01487,207.26143 C87.4266394,179.676818 97.5259236,161.588547 105.816381,151.338528 C114.70978,140.184094 123.000237,135.511291 123.000237,135.511291 C123.150973,135.360555 123.301709,135.059084 123.150973,134.757613 C123.000237,134.606878 122.698766,134.456142 122.397295,134.606878 C122.095824,134.757613 88.4817885,153.901032 83.6582498,207.26143 L84.5626633,207.713636 L84.5626633,207.713636 Z M84.5626633,188.268746 C84.8641344,188.268746 85.01487,187.967275 85.01487,187.816539 C78.6839755,134.456142 23.8162225,98.4303371 23.3640157,98.1288659 C23.2132801,97.9781304 22.9118089,97.9781304 22.6103378,98.2796015 C22.4596022,98.4303371 22.4596022,98.7318083 22.7610734,99.0332795 C23.2132801,99.3347506 77.7795619,135.20982 83.9597209,187.816539 C83.9597209,188.11801 84.4119277,188.268746 84.5626633,188.268746 L84.5626633,188.268746 Z" id="Shape" fill="#BF96D3"></path>
                        <path d="M82.1508939,253.989461 C82.4523651,253.989461 82.6031007,253.838725 82.6031007,253.537254 C82.7538363,252.029898 98.5810727,95.8678322 47.4817093,9.34560628 C47.3309737,9.1948707 47.0295026,9.04413511 46.7280314,9.1948707 C46.5772958,9.34560628 46.4265602,9.64707745 46.5772958,9.94854862 C97.6766592,96.3200389 82.0001583,252.029898 81.6986872,253.68799 C81.397216,253.537254 81.6986872,253.989461 82.1508939,253.989461 C82.0001583,253.989461 82.0001583,253.989461 82.1508939,253.989461 Z" id="Path" fill="#BF96D3"></path>
                        <path d="M84.5626633,177.86799 C84.2611921,177.86799 84.1104565,177.566519 84.1104565,177.415784 C83.206043,114.559045 134.908349,85.01487 135.511291,84.7133989 C135.662027,84.5626633 135.963498,84.7133989 136.264969,84.8641344 C136.415705,85.01487 136.264969,85.3163412 136.114233,85.6178124 C135.662027,85.9192835 84.4119277,115.161987 85.3163412,177.415784 C85.01487,177.717255 84.8641344,177.86799 84.5626633,177.86799 Z M83.9597209,220.827632 C83.8089854,220.827632 83.6582498,220.676897 83.6582498,220.375426 C80.0405957,176.963577 15.8272364,132.044373 15.2242941,131.592166 C14.9228229,131.44143 14.9228229,131.139959 15.0735585,130.838488 C15.2242941,130.537017 15.5257653,130.537017 15.8272364,130.687752 C16.5809144,131.139959 80.9450092,176.360635 84.7133989,220.375426 C84.5626633,220.526161 84.4119277,220.827632 83.9597209,220.827632 C84.2611921,220.827632 84.2611921,220.827632 83.9597209,220.827632 Z" id="Shape" fill="#BF96D3"></path>
                        <path d="M83.6582498,229.570296 C83.9597209,229.570296 84.1104565,229.419561 84.1104565,229.118089 C89.386202,190.379044 145.45984,177.86799 145.912046,177.86799 C146.213518,177.86799 146.364253,177.566519 146.213518,177.114313 C146.213518,176.812841 145.912046,176.662106 145.45984,176.812841 C145.007633,176.963577 88.1803173,189.474631 82.7538363,228.967354 C83.206043,229.268825 83.3567786,229.419561 83.6582498,229.570296 Z M44.0147909,254.140197 L121.342146,254.140197 C123.60318,254.140197 125.562742,252.180634 125.562742,249.9196 L125.562742,242.835028 C125.562742,240.573994 123.60318,238.614431 121.342146,238.614431 L44.0147909,238.614431 C41.7537571,238.614431 39.7941945,240.573994 39.7941945,242.835028 L39.7941945,249.9196 C39.7941945,252.180634 41.7537571,254.140197 44.0147909,254.140197 Z M117.423021,254.140197 L109.283299,301.169699 C108.831092,304.485882 105.816381,306.746916 102.500198,306.746916 L62.7060034,306.746916 C59.3898206,306.746916 56.67658,304.335146 55.9229021,301.169699 L47.7831805,254.140197 L117.423021,254.140197 L117.423021,254.140197 Z" id="Shape" fill="#BF96D3"></path>
                        <polygon id="Path" fill="url(#linearGradient-17)" opacity="0.51" points="117.423021 254.140197 115.011251 267.857135 47.7831805 254.140197"></polygon>
                    </g>
                    <g id="Group" transform="translate(296.307648, 0.000000)">
                        <path d="M63.9118881,310.063099 C62.7060034,309.309421 61.3493832,309.309421 59.9927629,309.761628 L45.9743535,315.640315 C45.2206756,315.941787 44.6177332,316.393993 44.316262,316.996936 L100.540635,351.364649 L112.298011,345.938168 C114.860516,344.732283 115.011251,341.114629 112.599482,339.758009 L63.9118881,310.063099 L63.9118881,310.063099 Z" id="Path" fill="#FF9600"></path>
                        <path d="M44.1655265,316.996936 C43.7133197,317.599878 43.4118485,318.353556 43.4118485,319.107234 L43.4118485,320.463854 C43.4118485,321.97121 44.1655265,323.32783 45.3714111,324.081508 L100.088429,357.695544 L100.540635,351.213913 L44.1655265,316.996936 L44.1655265,316.996936 Z" id="Path" fill="#EE880E"></path>
                        <path d="M135.20982,354.680832 C130.386281,351.364649 102.801669,383.622064 111.393597,388.144132 C119.985526,392.666199 141.842186,359.202899 135.20982,354.680832 Z M45.8236179,641.078444 C46.1250891,644.394627 54.1140751,652.232877 65.1177728,657.357887 C75.9707349,662.482897 79.588389,663.236575 79.588389,659.31745 C79.588389,655.398324 71.4486674,645.148305 60.5957052,642.284328 C49.5920075,639.571088 45.5221467,638.81741 45.8236179,641.078444 Z" id="Shape" fill="#C91F59"></path>
                        <path d="M78.9854466,651.026992 C77.7795619,670.019676 69.036898,675.747628 58.0332003,691.273394 C49.7427431,703.030769 48.9890652,712.22564 45.8236179,710.718284 C42.8089062,709.210928 40.8493436,704.236654 43.1103774,693.685163 C45.3714111,683.133672 53.3603971,671.677768 49.5920075,673.185123 C45.8236179,674.692479 35.1213913,687.957211 35.8750693,694.13737 C36.9302184,702.427827 34.3677134,723.83228 29.0919679,719.913155 C26.8309342,718.255063 27.5846121,712.22564 26.3787274,705.442539 C24.1176936,692.479278 23.6654869,688.861624 24.4191648,683.435143 C25.9265206,673.63733 36.9302184,651.931406 54.867753,637.912996 C62.2537967,632.034309 79.8898601,637.159319 78.9854466,651.026992 L78.9854466,651.026992 Z" id="Path" fill="#F4D7BA"></path>
                        <path d="M208.919521,186.309183 C167.467235,192.941549 114.559045,489.890652 79.7391246,550.637093 C50.6471566,601.58572 42.6581706,614.699716 50.7978922,631.129895 C59.0883494,647.861545 90.7428223,657.357887 98.7318083,646.354189 C119.985526,616.659279 157.217215,536.920154 175.456221,475.420036 C193.695227,413.919917 262.430654,177.717255 208.919521,186.309183 L208.919521,186.309183 Z" id="Path" fill="#EE880E"></path>
                        <path d="M140.787037,371.864689 C139.279681,369.302184 128.577454,350.158764 122.548031,345.033754 C116.518607,339.908745 97.2244524,329.80946 91.6472358,325.7396 C86.0700191,321.669739 88.6325241,330.864609 91.6472358,334.331528 C94.6619475,337.949182 102.349462,341.4161 101.294313,346.54111 C100.239164,351.66612 79.588389,344.883019 79.588389,344.883019 L62.856739,334.632999 C62.856739,334.632999 68.2832201,344.732283 70.3935183,349.555822 C74.9155858,360.258049 81.5479516,367.794828 89.6876732,372.919838 C97.8273948,378.044848 111.99654,378.949261 124.055387,387.541189 C124.055387,387.541189 124.055387,394.625762 131.139959,384.978685 C138.224532,375.482343 140.787037,371.864689 140.787037,371.864689 L140.787037,371.864689 Z" id="Path" fill="#F4D7BA"></path>
                        <path d="M98.2796015,614.548981 C98.2796015,614.548981 91.6472358,628.265919 92.7023849,630.828424 C93.757534,633.390929 97.8273948,639.872559 102.349462,639.872559 C106.87153,639.872559 110.489184,629.773275 111.99654,626.155621 C113.35316,622.537967 102.801669,609.876178 98.2796015,614.548981 L98.2796015,614.548981 Z" id="Path" fill="#E83D7D"></path>
                        <path d="M208.467314,185.40477 C199.423179,192.640078 193.393756,202.890098 191.283458,214.195267 C180.581231,271.625524 145.761311,454.467789 121.342146,523.806158 C107.625208,562.846675 100.691371,587.567311 97.375188,601.58572 C95.2648898,610.629856 96.9229813,619.221784 103.555347,625.703414 L108.077415,629.471804 C108.077415,629.471804 143.04807,560.133434 158.875307,476.173714 C172.140038,405.62946 193.544491,308.706478 211.33129,222.485724 C213.290853,212.989382 227.158527,188.268746 228.364412,181.033438 C230.625445,168.522384 219.772483,176.360635 219.772483,176.360635 L208.467314,185.40477 L208.467314,185.40477 Z" id="Path" fill="#FF9600"></path>
                        <path d="M412.261825,990.634266 C407.287551,971.943053 377.29117,820.303054 373.372044,794.225798 C355.735981,679.817489 352.118327,554.556218 352.118327,554.556218 C352.118327,554.556218 298.004252,561.339319 242.985763,558.475343 C187.967275,555.611367 160.382663,546.567232 160.382663,546.567232 C160.382663,546.567232 210.577612,825.428064 260.772562,997.869574 C313.228546,1002.39164 377.29117,1018.67108 412.261825,990.634266 Z" id="Path" fill="#2E90C9"></path>
                        <path d="M147.720873,1003.74826 C239.66958,798.295659 363.724967,516.721586 363.724967,516.721586 C363.724967,516.721586 280.971131,542.798842 232.283537,547.471645 C183.595943,552.144448 150.434114,511.44584 150.434114,511.44584 C150.434114,511.44584 130.08481,577.166556 89.6876732,670.92409 C66.3236575,725.038165 18.9926837,924.762815 0.904413511,987.318083 C37.2316895,1021.53506 85.4670768,1004.04973 147.720873,1003.74826 Z" id="Path" fill="#00A6D6"></path>
                        <path d="M306.143973,182.088587 C306.143973,182.088587 290.316737,162.040754 256.853437,163.246639 C234.092364,164.151052 223.390137,179.224611 223.390137,179.224611 C223.390137,179.224611 215.250416,188.268746 210.426877,208.165843 C199.72465,252.180634 186.610654,298.456459 171.838567,377.441905 C153.750297,473.91268 140.33483,525.162779 140.33483,525.162779 C140.33483,525.162779 152.242941,555.762103 240.121787,562.846675 C296.798367,567.368743 305.842502,556.666516 305.842502,556.666516 L306.143973,182.088587 L306.143973,182.088587 Z" id="Path" fill="#461E5F"></path>
                        <path d="M269.665962,182.239322 C269.213755,177.717255 238.915902,489.890652 213.140117,559.831963 L241.026201,563.600353 C241.026201,563.600353 275.695385,242.985763 269.665962,182.239322 L269.665962,182.239322 Z" id="Path" fill="#321A4C"></path>
                        <path d="M207.412165,664.140988 C207.412165,664.140988 207.110694,669.718205 203.342304,677.254984 C202.13642,679.817489 200.930535,682.681465 200.026122,684.188821 C198.518766,686.751326 199.573915,689.916773 202.287155,690.971922 C214.346002,696.096932 244.040912,706.799159 282.629222,706.497688 C341.4161,706.045481 366.739679,690.519716 374.728665,684.038085 C376.688227,682.53073 377.592641,680.11896 377.441905,677.556455 L374.728665,649.821108 L207.412165,664.140988 L207.412165,664.140988 Z" id="Path" fill="#E83D7D"></path>
                        <path d="M261.375505,163.246639 C261.375505,163.246639 273.13288,164.151052 270.871847,186.76139 C267.404928,221.732046 257.456379,342.47125 235.59972,527.122341 C225.651171,610.177649 211.783497,647.861545 206.206281,660.221863 C205.000396,662.935104 206.357016,666.100551 209.220992,667.1557 C223.390137,672.129974 263.93801,684.641028 307.199123,681.324845 C317.750614,680.571167 330.713874,678.159398 343.375663,675.295422 C372.015424,668.964527 391.61105,642.133593 389.048545,612.890889 L376.386756,466.526636 C376.386756,466.526636 359.052164,210.879084 351.364649,197.765088 C344.430812,186.158448 316.695464,171.687832 299.511608,168.070177 C286.096141,165.356937 261.375505,163.246639 261.375505,163.246639 L261.375505,163.246639 Z" id="Path" fill="#FF9600"></path>
                        <path d="M249.618129,420.100076 C249.618129,420.100076 265.143894,314.132959 274.489501,278.25789 C283.835107,242.382821 297.099838,221.732046 297.099838,221.732046 L249.618129,420.100076 Z M254.743139,474.666358 C276.449063,493.960513 297.250574,502.703177 310.967512,473.159002 C324.68445,443.464092 338.70286,387.390454 349.405086,318.655027 C356.037452,276.599799 359.353635,223.99308 353.173476,214.798209 C347.144053,205.754074 321.97121,349.254351 306.897651,397.941945 C291.673357,446.629539 254.743139,474.666358 254.743139,474.666358 Z" id="Shape" fill="#EE880E"></path>
                        <path d="M140.937772,108.831092 C143.349541,126.617892 137.92306,134.305406 145.158369,135.059084 C150.132643,135.662027 153.448826,131.592166 157.970893,138.526003 C162.342225,145.309104 170.481947,161.136341 177.86799,163.698845 C185.254034,166.26135 189.625366,158.724571 207.562901,159.478249 C227.309262,160.231927 222.485724,181.033438 219.923219,197.765088 C219.018805,203.49304 220.375426,212.989382 228.06294,214.948944 C239.66958,217.963656 252.783576,209.97467 258.963735,200.779799 C264.993159,191.735664 269.06302,182.993 265.29463,166.412086 C264.088745,160.985605 252.33137,127.070098 253.537254,121.492882 C256.551966,107.775943 262.129183,62.856739 235.750455,30.5993238 C209.371728,-1.65809144 170.783418,2.86397612 147.871609,24.2684292 C113.503896,56.2243733 136.56644,75.6692638 140.937772,108.831092 L140.937772,108.831092 Z" id="Path" fill="#F4D7BA"></path>
                        <path d="M304.485882,169.577533 C304.485882,169.577533 252.180634,420.703018 249.165922,417.839042 C239.518845,408.191965 173.044452,372.316895 151.790734,361.011726 C148.776023,359.353635 144.856897,361.011726 144.103219,364.478645 C142.897335,369.452919 140.636301,376.386756 135.963498,382.114708 C130.838488,388.596339 126.165685,392.666199 122.698766,395.077969 C119.684055,397.188267 119.533319,401.559599 122.397295,403.820633 C145.610575,421.607432 223.540873,480.092839 258.210057,489.890652 C299.360872,501.497292 337.195504,351.515385 348.651408,300.265286 C360.258049,248.864451 356.79113,209.371728 349.857293,195.202583 C341.717572,178.320197 304.485882,169.577533 304.485882,169.577533 Z" id="Path" fill="#FF9600"></path>
                        <path d="M236.654869,23.0625445 C212.537175,-4.52206756 173.948865,-4.37133197 151.489263,14.4706162 C124.356858,37.2316895 110.489184,43.7133197 104.911967,45.6728823 C103.10314,46.2758246 101.897256,48.2353873 102.349462,50.0442143 C104.007554,57.5809935 109.886242,74.3126435 130.687752,78.2317687 C163.54811,84.2611921 195.956261,55.0184886 195.956261,55.0184886 C198.518766,60.7464408 204.246718,87.4266394 201.232006,104.007554 C198.066559,121.945088 185.706241,129.632603 177.265048,131.139959 C167.768706,132.798051 162.492961,133.250257 158.573836,135.059084 C156.011331,136.264969 155.257653,139.581152 156.765009,141.842186 C159.176778,145.610575 162.945168,152.393677 164.753995,161.287076 C168.220913,178.018726 177.717255,183.445207 187.665804,175.757692 C195.956261,169.276062 202.437891,166.412086 209.220992,148.776023 C217.511449,127.070098 207.110694,80.7942737 208.015108,77.7795619 C210.728348,67.6802777 224.143815,70.0920471 226.555585,83.8089854 C228.515147,94.5112119 227.007791,101.595784 234.393835,112.599482 C242.232085,124.206122 251.125485,127.974512 254.441668,129.029661 C255.04461,129.180396 255.647552,128.72819 255.496817,128.125247 C255.346081,126.165685 255.346081,121.643617 257.607115,111.845804 C263.485803,87.577375 263.335067,53.6618683 236.654869,23.0625445 L236.654869,23.0625445 Z" id="Path" fill="#E83D7D"></path>
                        <path d="M291.824093,691.122658 C237.710018,691.122658 208.467314,677.254984 208.165843,677.104249 L208.768785,675.747628 C209.070257,675.898364 237.860753,689.615302 291.673357,689.615302 L295.140276,689.615302 C342.320514,689.163095 366.438208,673.938801 371.713953,668.210849 L372.769102,669.265998 C367.342621,675.295422 342.772721,690.821187 294.98954,691.273394 C294.085127,691.122658 293.029978,691.122658 291.824093,691.122658 L291.824093,691.122658 Z" id="Path" fill="#F7D84F"></path>
                        <path d="M289.563059,699.26238 C261.827711,699.26238 240.573994,695.49399 227.610734,692.177807 C212.838646,688.409417 205.000396,684.641028 205.000396,684.641028 L205.603338,683.284408 C205.904809,683.435143 235.901191,697.905759 289.563059,697.905759 L292.728506,697.905759 C348.349937,697.453553 372.015424,677.104249 372.316895,676.802777 L373.372044,678.008662 C373.070573,678.159398 348.95288,698.960908 292.879242,699.413115 C291.673357,699.26238 290.618208,699.26238 289.563059,699.26238 Z" id="Path" fill="#F7D84F"></path>
                        <path d="M277.504212,564.806238 C280.368188,574.905522 289.563059,600.2291 313.530017,610.931327 C315.338844,611.685005 316.393993,613.795303 316.092522,615.754865 L315.338844,619.221784 C314.886637,621.784289 312.324132,623.291645 309.761628,622.537967 C303.129262,620.578404 290.467473,615.453394 279.915982,601.887192 C269.364491,588.471724 265.897572,574.453315 264.842423,567.820949 C264.540952,565.559916 265.897572,563.449617 268.00787,562.846675 L272.077731,561.64079 C274.489501,561.188584 276.90127,562.545204 277.504212,564.806238 Z" id="Path" fill="#E83D7D"></path>
                        <path d="M309.610892,616.810015 C309.460156,616.810015 293.783655,610.629856 284.287314,597.968066 C273.585087,583.798921 270.871847,567.368743 270.871847,567.218007 L272.379202,566.916536 C272.379202,567.067271 275.092443,583.195979 285.493198,597.063653 C294.688069,609.273235 310.063099,615.302659 310.213834,615.302659 L309.610892,616.810015 L309.610892,616.810015 Z" id="Path" fill="#F7D84F"></path>
                        <path d="M123.60318,396.133118 C122.397295,396.886796 120.739204,396.73606 119.684055,395.831647 C118.025963,394.475026 111.393597,388.144132 111.393597,388.144132 C111.393597,388.144132 122.698766,382.868386 128.426719,375.030136 C135.963498,364.629381 135.20982,354.831567 135.20982,354.831567 L143.801748,362.368347 C145.158369,363.423496 146.062782,365.533794 145.761311,367.191885 C143.500277,383.320593 129.180396,392.967671 123.60318,396.133118 Z" id="Path" fill="#E83D7D"></path>
                        <path d="M118.779641,391.309579 L118.176699,389.952959 C118.176699,389.952959 125.713478,386.184569 131.592166,378.949261 C138.375267,370.658804 138.97821,362.368347 138.97821,362.217611 L140.485565,362.368347 C140.485565,362.669818 139.882623,371.261746 132.798051,380.00441 C126.617892,387.390454 119.081112,391.158844 118.779641,391.309579 L118.779641,391.309579 Z" id="Path" fill="#F7D84F"></path>
                        <path d="M51.4008345,625.100472 C51.4008345,625.100472 60.7464408,622.08576 72.9560232,628.868861 C85.1656056,635.651963 88.1803173,645.148305 88.1803173,645.148305 L79.2869178,660.523334 C79.2869178,660.523334 75.0663214,647.861545 57.4302579,641.832122 C46.878767,638.214468 45.9743535,641.078444 45.9743535,641.078444 L51.4008345,625.100472 Z" id="Path" fill="#E83D7D"></path>
                        <path d="M80.4928025,649.821108 C80.4928025,649.670372 76.7244129,641.379915 68.8861624,637.912996 C61.047912,634.144607 52.4559836,633.541664 52.4559836,633.541664 L52.6067192,632.034309 C52.9081904,632.034309 61.5001187,632.486515 69.6398403,636.405641 C77.9302975,640.17403 81.6986872,648.765959 81.8494227,649.06743 L80.4928025,649.821108 Z" id="Path" fill="#F7D84F"></path>
                    </g>
                    <g id="Group" transform="translate(24.983594, 414.522859)">
                        <path d="M96.1693033,74.3126435 L96.1693033,24.720636 L7.83825043,66.3236575 L11.9081112,75.217057 C13.2647315,78.0810331 16.4301788,80.1913313 19.5956261,80.1913313 L89.5369376,80.1913313 C93.003856,80.1913313 96.1693033,77.6288264 96.1693033,74.3126435 L96.1693033,74.3126435 Z" id="Path" fill="#4C1963"></path>
                        <path d="M85.01487,12.2095824 L44.0147909,12.2095824 C37.3824251,12.2095824 31.9559441,15.3750297 29.2427035,20.5000396 L5.57721665,66.9265998 C3.61765404,70.845725 7.98898601,76.2722061 13.1139959,76.2722061 L80.6435381,76.2722061 C86.5222259,76.2722061 91.195029,72.6545521 91.948707,67.3788066 L98.1288659,26.529463 C99.3347506,19.5956261 92.5516493,12.2095824 85.01487,12.2095824 L85.01487,12.2095824 Z" id="Path" fill="#5E0083"></path>
                        <path d="M83.0553074,12.2095824 L35.5735981,12.2095824 C28.4890256,12.2095824 22.7610734,15.5257653 20.349304,21.1029819 L1.0551491,66.1729219 C-0.753677926,70.3935183 5.1250099,76.4229417 11.0036977,76.4229417 L76.5736773,76.4229417 C82.4523651,76.4229417 86.9744326,73.1067588 87.8788462,68.1324845 L94.5112119,24.720636 C95.4156254,18.540477 89.5369376,12.2095824 83.0553074,12.2095824 L83.0553074,12.2095824 Z" id="Path" fill="#71009E"></path>
                        <path d="M77.1766196,71.7501385 L5.72795224,71.7501385 C4.22059638,71.7501385 2.56250495,71.1471962 1.35662027,70.2427827 C2.56250495,73.40823 7.38604367,76.2722061 11.3051689,76.2722061 L76.5736773,76.2722061 C82.4523651,76.2722061 87.577375,74.0111723 88.3310529,68.7354268 L88.3310529,63.9118881 C87.1251682,68.7354268 82.7538363,71.7501385 77.1766196,71.7501385 Z" id="Path" fill="#5E0083"></path>
                        <path d="M85.4670768,27.5846121 L86.6729615,22.6103378 C86.8236971,21.7059243 85.9192835,20.5000396 84.8641344,20.5000396 L60.2942341,20.5000396 C58.7868782,20.5000396 57.4302579,21.2537175 56.9780512,22.6103378 L55.1692242,27.8860833 C54.867753,28.7904968 55.9229021,30.147117 57.1287868,30.147117 L81.8494227,30.147117 C83.6582498,30.147117 85.01487,29.0919679 85.4670768,27.5846121 L85.4670768,27.5846121 Z" id="Path" fill="#C184D4"></path>
                        <path d="M40.5478724,2.26103378 C39.0405166,1.35662027 37.2316895,0.753677926 35.4228625,0.753677926 C33.4632999,0.753677926 30.5993238,0.753677926 29.2427035,1.0551491 C26.529463,1.80882702 24.5699004,3.46691846 23.3640157,6.48163016 L6.48163016,45.06994 C5.42648107,47.4817093 5.87868782,50.6471566 6.33089458,53.3603971 C6.63236575,55.0184886 6.93383692,57.2795224 7.68751484,59.0883494 C8.74266394,61.5001187 9.94854862,63.3089458 12.8125247,65.1177728 C14.6213518,66.3236575 17.0331211,67.228071 19.1434193,67.228071 L23.966958,67.228071 C30.2978526,67.228071 33.6140355,64.9670372 34.9706558,61.3493832 C39.9449301,47.3309737 43.7133197,35.5735981 48.687594,20.1985684 C50.9486278,12.6617892 46.5772958,5.87868782 40.5478724,2.26103378 L40.5478724,2.26103378 Z" id="Path" fill="#5E0083"></path>
                        <path d="M29.8456459,45.06994 L42.2059638,9.1948707 C44.0147909,4.37133197 40.5478724,0.753677926 35.1213913,0.753677926 L33.0110932,0.753677926 C27.1324053,0.753677926 25.4743139,2.26103378 23.3640157,6.78310133 L6.63236575,44.9192044 C4.82353873,48.8383296 7.53677926,53.6618683 13.4154671,53.6618683 L15.8272364,53.6618683 C26.0772562,53.8126039 27.8860833,50.496421 29.8456459,45.06994 Z" id="Path" fill="#71009E"></path>
                        <path d="M58.6361426,41.7537571 L55.0184886,41.7537571 C53.9633395,41.7537571 53.5111327,41.0000792 53.8126039,39.7941945 L54.4155462,37.8346319 C54.7170174,36.7794828 55.7721665,35.8750693 56.8273156,35.8750693 L60.4449697,35.8750693 C61.3493832,35.8750693 61.9523255,36.6287472 61.6508543,37.8346319 L61.047912,39.7941945 C60.7464408,41.0000792 59.6912917,41.7537571 58.6361426,41.7537571 Z M67.6802777,41.7537571 L64.0626237,41.7537571 C63.0074746,41.7537571 62.5552678,41.0000792 62.856739,39.7941945 L63.4596814,37.8346319 C63.7611525,36.7794828 64.8163016,35.8750693 65.8714507,35.8750693 L69.4891048,35.8750693 C70.3935183,35.8750693 70.9964606,36.6287472 70.6949894,37.8346319 L70.0920471,39.7941945 C69.7905759,41.0000792 68.7354268,41.7537571 67.6802777,41.7537571 Z M76.7244129,41.7537571 L73.1067588,41.7537571 C72.0516097,41.7537571 71.599403,41.0000792 71.9008741,39.7941945 L72.5038165,37.8346319 C72.8052876,36.7794828 73.8604367,35.8750693 74.9155858,35.8750693 L78.5332399,35.8750693 C79.4376534,35.8750693 80.0405957,36.6287472 79.7391246,37.8346319 L79.2869178,39.7941945 C78.834711,41.0000792 77.6288264,41.7537571 76.7244129,41.7537571 Z M56.3751089,48.9890652 L52.6067192,48.9890652 C51.5515701,48.9890652 51.0993634,48.2353873 51.4008345,47.0295026 L52.0037769,45.06994 C52.3052481,44.0147909 53.3603971,43.1103774 54.4155462,43.1103774 L58.0332003,43.1103774 C59.0883494,43.1103774 59.5405561,43.8640553 59.239085,45.06994 L58.6361426,47.0295026 C58.485407,48.2353873 57.4302579,48.9890652 56.3751089,48.9890652 Z M65.5699795,48.9890652 L61.8015899,48.9890652 C60.7464408,48.9890652 60.2942341,48.2353873 60.5957052,47.0295026 L61.1986476,45.06994 C61.5001187,44.0147909 62.5552678,43.1103774 63.6104169,43.1103774 L67.228071,43.1103774 C68.2832201,43.1103774 68.7354268,43.8640553 68.4339557,45.06994 L67.8310133,47.0295026 C67.6802777,48.2353873 66.4743931,48.9890652 65.5699795,48.9890652 Z M74.7648502,48.9890652 L70.9964606,48.9890652 C69.9413115,48.9890652 69.3383692,48.2353873 69.7905759,47.0295026 L70.3935183,45.06994 C70.6949894,44.0147909 71.7501385,43.1103774 72.8052876,43.1103774 L76.4229417,43.1103774 C77.4780908,43.1103774 77.9302975,43.8640553 77.7795619,45.06994 L77.3273552,47.0295026 C76.8751484,48.2353873 75.8199993,48.9890652 74.7648502,48.9890652 Z M53.9633395,56.2243733 L50.1949499,56.2243733 C49.1398008,56.2243733 48.5368584,55.4706953 48.9890652,54.2648107 L49.5920075,52.3052481 C49.8934787,51.250099 51.0993634,50.3456854 52.0037769,50.3456854 L55.7721665,50.3456854 C56.8273156,50.3456854 57.2795224,51.0993634 56.9780512,52.3052481 L56.3751089,54.2648107 C56.2243733,55.4706953 55.0184886,56.2243733 53.9633395,56.2243733 Z M63.4596814,56.2243733 L59.6912917,56.2243733 C58.6361426,56.2243733 58.0332003,55.4706953 58.485407,54.2648107 L59.0883494,52.3052481 C59.3898206,51.250099 60.4449697,50.3456854 61.5001187,50.3456854 L65.2685084,50.3456854 C66.3236575,50.3456854 66.9265998,51.0993634 66.4743931,52.3052481 L65.8714507,54.2648107 C65.5699795,55.4706953 64.5148305,56.2243733 63.4596814,56.2243733 Z M72.6545521,56.2243733 L68.8861624,56.2243733 C67.8310133,56.2243733 67.228071,55.4706953 67.5295422,54.2648107 L68.1324845,52.3052481 C68.4339557,51.250099 69.4891048,50.3456854 70.5442539,50.3456854 L74.3126435,50.3456854 C75.3677926,50.3456854 75.9707349,51.0993634 75.6692638,52.3052481 L75.217057,54.2648107 C74.7648502,55.4706953 73.7097011,56.2243733 72.6545521,56.2243733 Z M51.8530413,63.4596814 L48.0846517,63.4596814 C47.0295026,63.4596814 46.4265602,62.7060034 46.878767,61.5001187 L47.4817093,59.5405561 C47.7831805,58.485407 48.9890652,57.5809935 50.0442143,57.5809935 L53.8126039,57.5809935 C54.867753,57.5809935 55.4706953,58.3346715 55.0184886,59.5405561 L54.4155462,61.5001187 C53.9633395,62.7060034 52.9081904,63.4596814 51.8530413,63.4596814 Z M61.1986476,63.4596814 L57.4302579,63.4596814 C56.3751089,63.4596814 55.7721665,62.7060034 56.0736377,61.5001187 L56.67658,59.5405561 C56.9780512,58.485407 58.0332003,57.5809935 59.0883494,57.5809935 L62.856739,57.5809935 C63.9118881,57.5809935 64.5148305,58.3346715 64.2133593,59.5405561 L63.6104169,61.5001187 C63.4596814,62.7060034 62.2537967,63.4596814 61.1986476,63.4596814 Z M70.6949894,63.4596814 L66.9265998,63.4596814 C65.8714507,63.4596814 65.2685084,62.7060034 65.5699795,61.5001187 L66.1729219,59.5405561 C66.4743931,58.485407 67.5295422,57.5809935 68.5846913,57.5809935 L72.3530809,57.5809935 C73.40823,57.5809935 74.0111723,58.3346715 73.7097011,59.5405561 L73.2574944,61.5001187 C72.8052876,62.7060034 71.7501385,63.4596814 70.6949894,63.4596814 Z" id="Shape" fill="#4C1963"></path>
                        <path d="M58.1839359,40.698608 L54.5662818,40.698608 C53.5111327,40.698608 53.058926,39.9449301 53.3603971,38.7390454 L53.9633395,36.7794828 C54.2648107,35.7243337 55.3199598,34.8199202 56.3751089,34.8199202 L59.9927629,34.8199202 C60.8971764,34.8199202 61.5001187,35.5735981 61.1986476,36.7794828 L60.5957052,38.7390454 C60.2942341,39.7941945 59.239085,40.698608 58.1839359,40.698608 Z M67.228071,40.698608 L63.6104169,40.698608 C62.5552678,40.698608 62.1030611,39.9449301 62.4045323,38.7390454 L63.0074746,36.7794828 C63.3089458,35.7243337 64.3640949,34.8199202 65.419244,34.8199202 L69.036898,34.8199202 C69.9413115,34.8199202 70.5442539,35.5735981 70.2427827,36.7794828 L69.6398403,38.7390454 C69.3383692,39.7941945 68.2832201,40.698608 67.228071,40.698608 Z M76.2722061,40.698608 L72.6545521,40.698608 C71.599403,40.698608 71.1471962,39.9449301 71.4486674,38.7390454 L72.0516097,36.7794828 C72.3530809,35.7243337 73.40823,34.8199202 74.4633791,34.8199202 L78.0810331,34.8199202 C78.9854466,34.8199202 79.588389,35.5735981 79.2869178,36.7794828 L78.834711,38.7390454 C78.3825043,39.7941945 77.3273552,40.698608 76.2722061,40.698608 Z M55.9229021,47.9339161 L52.1545125,47.9339161 C51.0993634,47.9339161 50.6471566,47.1802382 50.9486278,45.9743535 L51.5515701,44.0147909 C51.8530413,42.9596418 52.9081904,42.0552283 53.9633395,42.0552283 L57.5809935,42.0552283 C58.6361426,42.0552283 59.0883494,42.8089062 58.7868782,44.0147909 L58.1839359,45.9743535 C58.0332003,47.0295026 56.9780512,47.9339161 55.9229021,47.9339161 Z M65.1177728,47.9339161 L61.3493832,47.9339161 C60.2942341,47.9339161 59.8420273,47.1802382 60.1434985,45.9743535 L60.7464408,44.0147909 C61.047912,42.9596418 62.1030611,42.0552283 63.1582102,42.0552283 L66.7758642,42.0552283 C67.8310133,42.0552283 68.2832201,42.8089062 67.9817489,44.0147909 L67.3788066,45.9743535 C67.228071,47.0295026 66.0221863,47.9339161 65.1177728,47.9339161 Z M74.3126435,47.9339161 L70.5442539,47.9339161 C69.4891048,47.9339161 68.8861624,47.1802382 69.3383692,45.9743535 L69.9413115,44.0147909 C70.2427827,42.9596418 71.2979318,42.0552283 72.3530809,42.0552283 L75.9707349,42.0552283 C77.025884,42.0552283 77.4780908,42.8089062 77.3273552,44.0147909 L76.8751484,45.9743535 C76.4229417,47.0295026 75.3677926,47.9339161 74.3126435,47.9339161 Z M53.6618683,55.1692242 L49.8934787,55.1692242 C48.8383296,55.1692242 48.2353873,54.4155462 48.687594,53.2096616 L49.2905363,51.250099 C49.5920075,50.1949499 50.7978922,49.2905363 51.7023057,49.2905363 L55.4706953,49.2905363 C56.5258444,49.2905363 56.9780512,50.0442143 56.67658,51.250099 L56.0736377,53.2096616 C55.7721665,54.2648107 54.5662818,55.1692242 53.6618683,55.1692242 Z M63.0074746,55.1692242 L59.239085,55.1692242 C58.1839359,55.1692242 57.5809935,54.4155462 58.0332003,53.2096616 L58.6361426,51.250099 C58.9376138,50.1949499 59.9927629,49.2905363 61.047912,49.2905363 L64.8163016,49.2905363 C65.8714507,49.2905363 66.4743931,50.0442143 66.0221863,51.250099 L65.419244,53.2096616 C65.1177728,54.2648107 64.0626237,55.1692242 63.0074746,55.1692242 Z M72.2023453,55.1692242 L68.4339557,55.1692242 C67.3788066,55.1692242 66.7758642,54.4155462 67.0773354,53.2096616 L67.6802777,51.250099 C67.9817489,50.1949499 69.036898,49.2905363 70.0920471,49.2905363 L73.8604367,49.2905363 C74.9155858,49.2905363 75.5185282,50.0442143 75.217057,51.250099 L74.7648502,53.2096616 C74.3126435,54.2648107 73.2574944,55.1692242 72.2023453,55.1692242 Z M51.4008345,62.4045323 L47.6324449,62.4045323 C46.5772958,62.4045323 45.9743535,61.6508543 46.4265602,60.4449697 L47.0295026,58.485407 C47.3309737,57.4302579 48.5368584,56.5258444 49.5920075,56.5258444 L53.3603971,56.5258444 C54.4155462,56.5258444 55.0184886,57.2795224 54.5662818,58.485407 L53.9633395,60.4449697 C53.5111327,61.5001187 52.4559836,62.4045323 51.4008345,62.4045323 Z M60.7464408,62.4045323 L56.9780512,62.4045323 C55.9229021,62.4045323 55.3199598,61.6508543 55.6214309,60.4449697 L56.2243733,58.485407 C56.5258444,57.4302579 57.5809935,56.5258444 58.6361426,56.5258444 L62.4045323,56.5258444 C63.4596814,56.5258444 64.0626237,57.2795224 63.7611525,58.485407 L63.1582102,60.4449697 C63.0074746,61.5001187 61.8015899,62.4045323 60.7464408,62.4045323 Z M70.2427827,62.4045323 L66.4743931,62.4045323 C65.419244,62.4045323 64.8163016,61.6508543 65.1177728,60.4449697 L65.7207151,58.485407 C66.0221863,57.4302579 67.0773354,56.5258444 68.1324845,56.5258444 L71.9008741,56.5258444 C72.9560232,56.5258444 73.5589656,57.2795224 73.2574944,58.485407 L72.8052876,60.4449697 C72.3530809,61.5001187 71.2979318,62.4045323 70.2427827,62.4045323 Z" id="Shape" fill="#9026B2"></path>
                    </g>
                </g>
            </g>
        </g>
    </g>
</svg>