<?xml version="1.0" encoding="utf-8"?>
<!-- Generator: Adobe Illustrator 24.3.0, SVG Export Plug-In . SVG Version: 6.00 Build 0)  -->
<svg version="1.1" id="Layer_1" xmlns="http://www.w3.org/2000/svg" xmlns:xlink="http://www.w3.org/1999/xlink" x="0px" y="0px"
	 viewBox="0 0 1920 703" style="enable-background:new 0 0 1920 703;" xml:space="preserve">
<style type="text/css">
	.st0{fill:#82C7E5;}
	.st1{fill:#00ABDB;}
	.st2{fill:url(#SVGID_1_);}
	.st3{fill:url(#SVGID_2_);}
	.st4{fill:url(#SVGID_3_);}
	.st5{fill:url(#SVGID_4_);}
	.st6{fill:url(#SVGID_5_);}
	.st7{fill:url(#SVGID_6_);}
	.st8{fill:url(#SVGID_7_);}
	.st9{fill:url(#SVGID_8_);}
	.st10{fill:#3385D6;}
	.st11{opacity:0.45;fill:url(#SVGID_9_);enable-background:new    ;}
	.st12{opacity:0.1;fill:#14001F;enable-background:new    ;}
	.st13{fill:#2E95CE;}
	.st14{fill:none;}
	.st15{opacity:5.000000e-02;fill:#170021;enable-background:new    ;}
	.st16{opacity:0.5;}
	.st17{fill:#3877D0;}
	.st18{fill:#FFFFFF;}
	.st19{fill:#660099;}
	.st20{fill:#8F24B2;}
	.st21{fill:#4C1863;}
	.st22{fill:#8300AA;}
	.st23{fill:#FA6324;}
	.st24{fill:#F18B0E;}
	.st25{fill:#FF9900;}
	.st26{fill:#B97D79;}
	.st27{fill:#FF5600;}
	.st28{fill:#B1747C;}
	.st29{fill:#EDCCB8;}
	.st30{fill:#FFDA1A;}
	.st31{fill:#F2C638;}
	.st32{fill:#EA522F;}
	.st33{fill:#F4D7BA;}
	.st34{fill:#FF9300;}
	.st35{fill:#461E5F;}
	.st36{fill:#8432AB;}
	.st37{fill:#55057F;}
	.st38{fill:#660097;}
	.st39{fill:#8533AD;}
	.st40{fill:#B787CE;}
	.st41{fill:#FADB4F;}
	.st42{fill:#321A4C;}
	.st43{fill:#F9DA4F;}
</style>
<g>
	<rect class="st0" width="1920" height="703"/>
</g>
<g>
	<g>
		<path class="st1" d="M1429.1,325V84.2c0-5.7-4.6-10.3-10.3-10.3h-195c-5.7,0-10.3,4.6-10.3,10.3V325H1429.1z"/>
	</g>
	<path class="st1" d="M1213.9,325V84.2c0-5.7-4.6-10.3-10.3-10.3h-195c-5.7,0-10.3,4.6-10.3,10.3V325H1213.9z"/>
	<g>
		<g>
			<linearGradient id="SVGID_1_" gradientUnits="userSpaceOnUse" x1="1110.5953" y1="-103.6769" x2="1115.2937" y2="356.7543">
				<stop  offset="1.521164e-02" style="stop-color:#82C7E5"/>
				<stop  offset="1" style="stop-color:#82C7E5;stop-opacity:0"/>
			</linearGradient>
			<path class="st2" d="M1213.9,325V213.2h-10v-30c0-1.3-1-2.3-2.3-2.3h-14.4c-0.3,0-0.5,0.1-0.7,0.1v-22.8c0-1.3-1-2.3-2.3-2.3
				h-3.3V137c0-0.4-0.3-0.8-0.8-0.8c-0.4,0-0.8,0.3-0.8,0.8v19h-3.3c-1.3,0-2.3,1-2.3,2.3v27.8h-6.4v-13c0-0.3-0.3-0.6-0.6-0.6h-2.1
				c-0.3,0-0.6,0.3-0.6,0.6v13h-6.1v-13c0-0.3-0.3-0.6-0.6-0.6h-2.1c-0.3,0-0.6,0.3-0.6,0.6v13h-15.9c-1.3,0-2.3,1-2.3,2.3v20.2
				h-16.2v-52.7c0-1.3-1-2.3-2.3-2.3h-16.7c-1.3,0-2.3,1-2.3,2.3v26.8h-5.9v-18.5c0-0.4-0.3-0.8-0.8-0.8c-0.4,0-0.8,0.3-0.8,0.8
				v18.5h-7.5c-1.3,0-2.3,1-2.3,2.3v15.6h-7.1c-1.3,0-2.3,1-2.3,2.3v17.2h-2.9v-27.3c0-1.3-1-2.3-2.3-2.3h-21.5
				c-1.3,0-2.3,1-2.3,2.3v27.3h-2.1v-21.5c0-1.3-1-2.3-2.3-2.3h-10.6c-1.3,0-2.3,1-2.3,2.3v21.5h-11v105h199L1213.9,325L1213.9,325z
				"/>
			
				<linearGradient id="SVGID_2_" gradientUnits="userSpaceOnUse" x1="1105.0303" y1="175.9739" x2="1111.1747" y2="309.3948" gradientTransform="matrix(1 -7.719664e-04 7.719664e-04 1 -4.0971 0.3818)">
				<stop  offset="1.521164e-02" style="stop-color:#82C7E5"/>
				<stop  offset="1" style="stop-color:#82C7E5;stop-opacity:0"/>
			</linearGradient>
			<path class="st3" d="M1213.9,324.9l-0.1-101h-16c-1.5,0-2.8,1.2-2.8,2.8v63.4h-19.5v-24.3c0-1.5-1.2-2.8-2.8-2.8h-7.3v-15.6
				c0-0.4-0.3-0.7-0.7-0.7h-2.6c-0.4,0-0.7,0.3-0.7,0.7V263h-7.8v-15.6c0-0.4-0.3-0.7-0.7-0.7h-2.6c-0.4,0-0.7,0.3-0.7,0.7V263h-7.4
				v-15.6c0-0.4-0.3-0.7-0.7-0.7h-2.6c-0.4,0-0.7,0.3-0.7,0.7V263h-7.7v-33.4c0-1.5-1.2-2.8-2.8-2.8h-4V204c0-0.5-0.4-0.9-0.9-0.9
				s-0.9,0.4-0.9,0.9v22.8h-4c-1.5,0-2.8,1.2-2.8,2.8V257c-0.3-0.1-0.6-0.2-0.9-0.2h-17.3c-1.5,0-2.8,1.2-2.8,2.8v36.1H1077
				c-0.2,0-0.5,0-0.7,0.1v-21.7c0-1.5-1.2-2.8-2.8-2.8h-18.2v-22c0-1.5-1.2-2.8-2.8-2.8h-25.9c-1.5,0-2.8,1.2-2.8,2.8v54.6h-26.2v21
				H1213.9z"/>
			<linearGradient id="SVGID_3_" gradientUnits="userSpaceOnUse" x1="1317.7151" y1="-103.2261" x2="1322.4093" y2="356.8103">
				<stop  offset="1.521164e-02" style="stop-color:#82C7E5"/>
				<stop  offset="1" style="stop-color:#82C7E5;stop-opacity:0"/>
			</linearGradient>
			<path class="st4" d="M1429.1,325V181h-10.8c-0.3,0-0.5,0.1-0.7,0.1v-22.8c0-1.3-1-2.3-2.3-2.3h-3.3v-18.9c0-0.4-0.3-0.8-0.8-0.8
				c-0.4,0-0.8,0.3-0.8,0.8V156h-3.3c-1.3,0-2.3,1-2.3,2.3v27.8h-6.3h-6.1c-1.3,0-2.3,1-2.3,2.3v20.2h-27.4v-52.7
				c0-1.3-1-2.3-2.3-2.3h-16.7c-1.3,0-2.3,1-2.3,2.3v26.8h-5.9v-18.5c0-0.4-0.3-0.8-0.8-0.8c-0.4,0-0.8,0.3-0.8,0.8v18.5h-7.5
				c-1.3,0-2.3,1-2.3,2.3v15.6h-7.1c-1.3,0-2.3,1-2.3,2.3v17.2h-2.9v-27.3c0-1.3-1-2.3-2.3-2.3H1288c-1.3,0-2.3,1-2.3,2.3v27.3h-2.1
				v-21.5c0-1.3-1-2.3-2.3-2.3h-10.6c-1.3,0-2.3,1-2.3,2.3v21.5h-11h-11.6v-45.4c0-1.3-1-2.3-2.3-2.3H1222c-1.3,0-2.3,1-2.3,2.3V193
				h-6.1v132H1429.1z"/>
			<linearGradient id="SVGID_4_" gradientUnits="userSpaceOnUse" x1="1320.9497" y1="146.7018" x2="1320.9497" y2="324.838">
				<stop  offset="1.521164e-02" style="stop-color:#82C7E5"/>
				<stop  offset="1" style="stop-color:#82C7E5;stop-opacity:0"/>
			</linearGradient>
			<path class="st5" d="M1429.1,325v-61.9h-3.7v-15.6c0-0.4-0.3-0.7-0.7-0.7h-2.6c-0.4,0-0.7,0.3-0.7,0.7v15.6h-7.7v-33.4
				c0-1.5-1.2-2.8-2.8-2.8h-4v-22.8c0-0.5-0.4-0.9-0.9-0.9s-0.9,0.4-0.9,0.9V227h-4c-1.5,0-2.8,1.2-2.8,2.8v27.4
				c-0.3-0.1-0.6-0.2-0.9-0.2h-17.3c-1.5,0-2.8,1.2-2.8,2.8v36.1h-17.1c-0.2,0-0.5,0-0.7,0.1v-21.7c0-1.5-1.2-2.8-2.8-2.8h-18.2v-22
				c0-1.5-1.2-2.8-2.8-2.8h-25.9c-1.5,0-2.8,1.2-2.8,2.8V304h-1.9h-13.3v-25.9c0-1.5-1.2-2.8-2.8-2.8h-12.8c-1.5,0-2.8,1.2-2.8,2.8
				V304h-2.6v-32.8c0-1.5-1.2-2.8-2.8-2.8h-25.9c-1.5,0-2.8,1.2-2.8,2.8V304h-3.5v-20.7c0-1.5-1.2-2.8-2.8-2.8h-8.6v-18.8
				c0-1.5-1.2-2.8-2.8-2.8h-8.8V325H1429.1z"/>
			<linearGradient id="SVGID_5_" gradientUnits="userSpaceOnUse" x1="1259.6259" y1="161.1055" x2="1266.8971" y2="272.2512">
				<stop  offset="1.521164e-02" style="stop-color:#82C7E5"/>
				<stop  offset="1" style="stop-color:#82C7E5;stop-opacity:0"/>
			</linearGradient>
			<path class="st6" d="M1228.2,277v-20.5c0-1,0.8-1.8,1.8-1.8h15c1,0,1.8-0.8,1.8-1.8v-9.3c0-1,0.8-1.8,1.8-1.8h10.9
				c1,0,1.8-0.8,1.8-1.8v-11.4c0-1,0.8-1.8,1.8-1.8h17.1c1,0,1.8,0.8,1.8,1.8v21.7c0,1,0.8,1.8,1.8,1.8h19.1c1,0,1.8,0.8,1.8,1.8
				v17.7"/>
			<linearGradient id="SVGID_6_" gradientUnits="userSpaceOnUse" x1="1141.4655" y1="230.3676" x2="1147.6383" y2="324.7239">
				<stop  offset="1.521164e-02" style="stop-color:#82C7E5"/>
				<stop  offset="1" style="stop-color:#82C7E5;stop-opacity:0"/>
			</linearGradient>
			<path class="st7" d="M1105,324.6V319c0-1.1,0.9-2,2-2h16.6c1.1,0,2-0.9,2-2v-10.3c0-1.1,0.9-2,2-2h12c1.1,0,2-0.9,2-2v-12.6
				c0-1.1,0.9-2,2-2h18.9c1.1,0,2,0.9,2,2v24c0,1.1,0.9,2,2,2h21.2c1.1,0,2,0.9,2,2v7.6"/>
			<linearGradient id="SVGID_7_" gradientUnits="userSpaceOnUse" x1="1077.4243" y1="154.4864" x2="1075.0754" y2="271.9298">
				<stop  offset="1.521164e-02" style="stop-color:#82C7E5"/>
				<stop  offset="1" style="stop-color:#82C7E5;stop-opacity:0"/>
			</linearGradient>
			<path class="st8" d="M1083.9,222.6h-17.2c-2,0-3.7,1.7-3.7,3.7v68.8c0,2,1.7,3.7,3.7,3.7h17.2c2,0,3.7-1.7,3.7-3.7v-68.8
				C1087.6,224.3,1085.9,222.6,1083.9,222.6z"/>
			<linearGradient id="SVGID_8_" gradientUnits="userSpaceOnUse" x1="1365.6051" y1="172.4443" x2="1363.7224" y2="266.5815">
				<stop  offset="1.521164e-02" style="stop-color:#82C7E5"/>
				<stop  offset="1" style="stop-color:#82C7E5;stop-opacity:0"/>
			</linearGradient>
			<path class="st9" d="M1370.8,227.1H1357c-1.6,0-3,1.3-3,3v55.2c0,1.6,1.3,3,3,3h13.8c1.6,0,3-1.3,3-3V230
				C1373.8,228.4,1372.5,227.1,1370.8,227.1z"/>
		</g>
		<g>
			<g>
				<path class="st10" d="M1433.2,329.1h-223.7V84.2c0-7.9,6.4-14.4,14.4-14.4h195c7.9,0,14.4,6.4,14.4,14.4v244.9L1433.2,329.1
					L1433.2,329.1z M1217.6,320.9H1425V84.2c0-3.4-2.8-6.2-6.2-6.2h-195c-3.4,0-6.2,2.8-6.2,6.2L1217.6,320.9L1217.6,320.9z"/>
			</g>
		</g>
		<path class="st10" d="M1218,329.1H994.3V84.2c0-7.9,6.4-14.4,14.4-14.4h195c7.9,0,14.4,6.4,14.4,14.4v244.9L1218,329.1L1218,329.1
			z M1002.5,320.9h207.3V84.2c0-3.4-2.8-6.2-6.2-6.2h-195c-3.4,0-6.2,2.8-6.2,6.2L1002.5,320.9L1002.5,320.9z"/>
	</g>
</g>
<radialGradient id="SVGID_9_" cx="1295.0841" cy="542.46" r="608.7865" gradientTransform="matrix(1.3398 0 0 0.1918 -732.2816 438.431)" gradientUnits="userSpaceOnUse">
	<stop  offset="1.246007e-07" style="stop-color:#00ABDB"/>
	<stop  offset="1" style="stop-color:#00ABDB;stop-opacity:0"/>
</radialGradient>
<rect x="104" y="538" class="st11" width="1794" height="159"/>
<g>
	<ellipse class="st12" cx="755.3" cy="543.9" rx="26.7" ry="2.4"/>
	<g>
		<path class="st13" d="M690.4,453c-0.6,2.5,0,5.2,1.4,7.8c0.2,0.4,0.8,0.6,1.2,0.2l2.1-1.4c0.7-0.4,1.4,0.1,1.2,0.9l-1.1,4.5
			c0,0.2,0,0.6,0.1,0.8c4.6,4.8,11.3,9,16.6,10.1c9.8,2.4,19.6-3.5,21.7-12.8c2.1-9.4-3.9-19-13.7-21.3
			C710.7,440,692.8,443.7,690.4,453z M765.8,413.2v-7.8c0-0.4,0.1-0.7,0.6-0.9c8.8-5.2,21.6-7.8,27.4-1.9c2.8,2.8,3.7,7.1,3.3,11.7
			c0,0.6-0.6,0.9-1.1,0.9h-2.8c-0.9,0-1.4,1.1-0.7,1.8l3.1,3.1c0.2,0.2,0.4,0.7,0.2,0.9c-0.9,3.3-2.4,6.2-3.9,9
			c-0.1,0.2-0.6,0.6-0.9,0.6h-7.8c-0.9,0-1.4,1.1-0.7,1.8l3.5,3.5c0.4,0.4,0.4,1.2-0.1,1.5c-7.4,5.9-18.4,5.3-25.2-1.5
			s-7.3-17.7-1.5-25.2c0.4-0.6,1.1-0.6,1.5-0.1l3.5,3.5C764.7,414.5,765.8,414.2,765.8,413.2L765.8,413.2z M699.5,373.5
			c-2.1,2.1-3.4,5.4-3.7,9c0,0.6,0.4,1.1,0.9,1.1h3.3c0.9,0,1.4,1.1,0.7,1.8l-4.1,4.1c-0.2,0.2-0.4,0.6-0.2,0.9
			c1.6,8.1,6,16.4,10.7,21.2c8.7,8.7,22.4,9,30.7,0.6c8.4-8.4,8.1-22.1-0.6-30.7C728.8,372.7,707.9,365.3,699.5,373.5L699.5,373.5z
			 M724,340.4l-10-4.6c-0.2-0.1-0.6-0.4-0.6-0.8c-1.2-13.1,2.5-29.8,12.7-33.6c4.8-1.8,10.5-0.4,15.8,2.8c0.4,0.2,0.7,0.8,0.4,1.4
			l-1.9,4.2c-0.4,0.8,0.4,1.8,1.2,1.4l6.1-2.1c0.4-0.1,0.8,0,1.1,0.1c3.4,2.9,6.2,6.2,8.7,9.8c0.2,0.2,0.2,0.7,0.1,0.9l-4.6,10
			c-0.4,0.8,0.4,1.8,1.2,1.4l6.9-2.5c0.6-0.2,1.2,0.1,1.4,0.7c2.9,12.1-3.7,24.9-15.5,29.1c-11.9,4.4-25.2-1.1-30.6-12.3
			c-0.2-0.6,0-1.2,0.6-1.4l6.9-2.5c0.5-0.2,0.7-0.8,0.5-1.4C724.5,340.8,724.4,340.5,724,340.4z"/>
		<path class="st1" d="M790,436.4c-0.4,0.9-1.5,0.9-1.9,0.1l-3.4-7.2c-0.2-0.4-0.7-0.7-1.2-0.6c-1.6,0.6-3.3,0.9-4.6,1.6
			c-10.1,4.8-14.6,17-9.9,27.3c4.8,10.1,17,14.6,27.3,9.9c10.1-4.8,23.2-21.1,18.5-31.3c-2.9-6.4-11.8-9-20.7-9
			c-0.4,0-0.8,0.2-0.9,0.7L790,436.4z M809.3,356.3c-8.4-8.4-29.3-0.8-37.8,7.8c-8.7,8.7-9,22.4-0.6,30.7c8.4,8.4,22.1,8.1,30.7-0.6
			c4.7-4.7,9.1-13.1,10.7-21.2c0.1-0.4,0-0.7-0.2-0.9L808,368c-0.7-0.7-0.2-1.8,0.7-1.8h3.3c0.6,0,0.9-0.6,0.9-1.1
			C812.7,361.7,811.6,358.5,809.3,356.3L809.3,356.3z M697.5,414c0.9,0,1.4,1.1,0.9,1.9l-4.4,4.4c-0.2,0.1-0.4,0.6-0.2,0.9
			c2,7.2,6,14.3,10.1,18.4c9.2,9.2,24.3,9.2,33.3,0c8.5-8.7,9.2-22.1,1.6-31.4c-0.4-0.6-1.1-0.6-1.5-0.1l-4.8,4.8
			c-0.7,0.7-1.8,0.2-1.8-0.7v-10.5c0-0.4-0.2-0.8-0.6-0.9c-10.8-6.4-26.9-9.9-34.2-2.5c-3.5,3.5-4.6,9-4.1,14.8
			c0.1,0.6,0.6,0.9,1.1,0.9L697.5,414L697.5,414z"/>
		<path class="st10" d="M758.6,501.9C758.8,501.9,758.8,501.9,758.6,501.9c0.2,0,0.4-0.1,0.4-0.4c-1.8-43.2-58.3-48.3-58.9-48.4
			c-0.2,0-0.4,0.1-0.4,0.4c0,0.2,0.1,0.4,0.4,0.4c0.6,0,56.3,5.1,58.1,47.6C758.3,501.8,758.4,501.9,758.6,501.9z M757.2,465.6
			c0.2,0,0.4-0.1,0.4-0.4c1.9-22,10-36.5,16.6-44.6c7.1-9,13.8-12.6,13.8-12.6c0.1-0.1,0.2-0.4,0.1-0.6c-0.1-0.1-0.4-0.2-0.6-0.1
			c-0.2,0.1-26.6,14.7-30.4,57.4C757.2,464.8,757,465.5,757.2,465.6z M757.2,450.1c0.2,0,0.2-0.6,0.2-0.7
			c-5.1-42.5-48.8-71-49.1-71.3c-0.1-0.1-0.4-0.1-0.6,0.1c-0.1,0.1-0.1,0.4,0.1,0.6c0.4,0.2,44.2,28.6,49.1,70.6
			C757,449.7,757.1,450.1,757.2,450.1z"/>
		<path class="st10" d="M755.2,502.6c0.2,0,0.4-0.1,0.4-0.4c0.1-1.2,12.7-126-28-195.1c-0.1-0.1-0.4-0.2-0.6-0.1
			c-0.1,0.1-0.2,0.4-0.1,0.6c40.9,69,28.3,193.4,28,194.7C754.6,502.3,754.9,502.6,755.2,502.6C755.1,502.6,755.1,502.6,755.2,502.6
			z"/>
		<path class="st10" d="M757.1,440.8c-0.2,0-0.4-0.2-0.4-0.4c-0.7-50.2,40.6-73.9,41.1-74.1c0.1-0.1,0.4,0,0.6,0.1
			c0.1,0.1,0,0.4-0.1,0.6c-0.4,0.2-41.7,23.1-41,72.8C757.1,440.1,757.3,440.8,757.1,440.8z M756.8,476.1c-0.1,0,0-0.4,0-0.6
			c-2.9-34.6-54.4-70.3-54.9-70.7c-0.2-0.1-0.2-0.4-0.1-0.6s0.4-0.2,0.6-0.1c0.6,0.4,51.9,36,54.9,71.1
			C757.1,475.4,757.1,476.1,756.8,476.1C757,476.1,757,476.1,756.8,476.1z M756.5,483.2c0.2,0,0.4-0.1,0.4-0.4c4.2-31,49-41,49.4-41
			c0.2,0,0.4-0.2,0.2-0.6c0-0.2-0.2-0.4-0.6-0.2c-0.4,0.1-45.1,9.7-49.5,41.2C756.8,482.5,756.2,483.1,756.5,483.2z"/>
		<path class="st1" d="M783.5,502.7l-6.5,37.6c-0.4,2.6-2.8,4.5-5.4,4.5h-31.8c-2.6,0-4.8-1.9-5.4-4.5l-6.5-37.6L783.5,502.7
			L783.5,502.7z"/>
		<path class="st13" d="M783.5,502.7l-1.9,11l-53.7-11H783.5z"/>
		<path class="st1" d="M724.8,502.7h61.7c1.8,0,3.4-1.5,3.4-3.4v-5.7c0-1.8-1.5-3.4-3.4-3.4h-61.7c-1.8,0-3.4,1.5-3.4,3.4v5.7
			C721.4,501.2,723,502.7,724.8,502.7z"/>
	</g>
</g>
<g>
	<path class="st13" d="M1702.7,231.3v-5.5c0-2.2-1.8-4-4-4h10.2c3.7,0,6.7,3,6.7,6.7l0,0c0,3.7-3,6.7-6.7,6.7h-10.2
		C1700.9,235.3,1702.7,233.5,1702.7,231.3z"/>
	<g>
		<path class="st1" d="M1639.7,180.5h2.8c0.6,0,1.1,0.5,1.1,1.1c0,0.4-0.2,0.7-0.5,0.9c-0.2,0.1-0.4,0.2-0.6,0.2h-2.8
			c-0.2,0-0.4-0.1-0.6-0.2c-0.3-0.2-0.5-0.5-0.5-0.9C1638.6,181,1639.1,180.5,1639.7,180.5z"/>
		<path class="st13" d="M1636.8,219.2l-2.4-8.1l3.7-12.6c0.6-2,0.9-4,0.9-6.1v-10c0.2,0.1,0.4,0.2,0.6,0.2h2.8
			c0.2,0,0.4-0.1,0.6-0.2v10c0,2.1,0.3,4.1,0.9,6.1l5.9,19.8c0.5,1.7-0.8,3.5-2.6,3.5h-12.4C1636.3,221.8,1637.2,220.5,1636.8,219.2
			z"/>
		<path class="st1" d="M1623.8,219.2l4.4-14.6c0.4-1.5,0.7-3,0.7-4.5v-7.5c0.1,0.1,0.3,0.1,0.5,0.1h2.1c0.2,0,0.3-0.1,0.5-0.1v7.5
			c0,1.5,0.2,3,0.7,4.5l1.9,6.5l2.4,8.1c0.4,1.3-0.6,2.6-1.9,2.6l0,0h-9.2C1624.4,221.8,1623.4,220.5,1623.8,219.2z"/>
		<path class="st13" d="M1629.3,191.1h2.1c0.4,0,0.8,0.4,0.8,0.8c0,0.3-0.1,0.5-0.3,0.7c-0.1,0.1-0.3,0.1-0.5,0.1h-2.1
			c-0.2,0-0.3-0.1-0.5-0.1c-0.2-0.1-0.3-0.4-0.3-0.7C1628.5,191.5,1628.8,191.1,1629.3,191.1z"/>
	</g>
	<path class="st13" d="M1618.8,204.2h-13.1c-0.4,0-0.7-0.3-0.7-0.7l0,0c0-0.4,0.3-0.7,0.7-0.7h13.1c0.4,0,0.7,0.3,0.7,0.7l0,0
		C1619.5,203.8,1619.2,204.2,1618.8,204.2z"/>
	<path class="st1" d="M1618.7,204.2c1,2.9,1.1,6.1,0.3,9l-2.5,8.6h-8.2l-2.5-8.6c-0.9-3-0.8-6.1,0.3-9H1618.7z"/>
	<path class="st14" d="M1672.6,225.7c0.1,0,0.3,0,0.4,0C1672.8,226,1672.7,225.9,1672.6,225.7z"/>
	<path class="st13" d="M1699.6,220.1l5.9-58.8c0-1-0.8-1.8-1.8-1.8h2c1.3,0,2.3,1,2.3,2.3l-5.9,57.7c0,1.3-1,2.3-2.3,2.3h-2
		C1698.8,221.9,1699.6,221.1,1699.6,220.1z"/>
	<path class="st1" d="M1653.4,220.1c0,1,0.8,1.8,1.8,1.8h3h39.6c1,0,1.8-0.8,1.8-1.8l5.9-58.8c0-1-0.8-1.8-1.8-1.8h-39.6h-3
		c-1,0-1.8,0.8-1.8,1.8L1653.4,220.1z M1656.1,217l5.9-52.7c0-0.6,0.5-1.1,1.1-1.1h39.2c0.6,0,1.1,0.5,1.1,1.1l-5.9,52.7
		c0,0.6-0.5,1.1-1.1,1.1h-39.2C1656.6,218.1,1656.1,217.6,1656.1,217z"/>
	<g>
		<polygon class="st1" points="1678.3,197.5 1691.6,197.5 1693.2,184.2 		"/>
		<polygon class="st13" points="1665.4,197.5 1678.7,197.5 1680.3,184.2 		"/>
		<polygon class="st13" points="1667.1,183.9 1680.4,183.9 1682.1,170.6 		"/>
		<polygon class="st13" points="1680,183.9 1693.3,183.9 1694.9,170.6 		"/>
		<polygon class="st13" points="1676.6,210.8 1689.9,210.8 1691.6,197.5 		"/>
		<polygon class="st1" points="1663.7,210.8 1677,210.8 1678.7,197.5 		"/>
	</g>
	<path class="st1" d="M1699.8,221.8h-124.4c-3.7,0-6.7,3-6.7,6.7l0,0c0,3.7,3,6.7,6.7,6.7h124.4c3.7,0,6.7-3,6.7-6.7l0,0
		C1706.6,224.8,1703.5,221.8,1699.8,221.8z"/>
</g>
<path class="st10" d="M1436.7,334.5H982.8c-3.6,0-6.5-2.9-6.5-6.5l0,0c0-3.6,2.9-6.5,6.5-6.5h453.9c3.6,0,6.5,2.9,6.5,6.5l0,0
	C1443.2,331.6,1440.3,334.5,1436.7,334.5z"/>
<g>
	<g>
		<path class="st15" d="M1727.7,557h-328.1c-2.1,0-3.8,1.8-3.8,3.8s1.8,3.8,3.8,3.8h328.1c2.1,0,3.8-1.8,3.8-3.8
			S1729.7,557,1727.7,557z"/>
		<path class="st10" d="M1685.1,538.5h-7.1l3.8,20.3c0.3,1.5,1.8,2.7,3.2,2.4c1.5-0.3,2.7-1.8,2.4-3.2L1685.1,538.5L1685.1,538.5z"
			/>
		<path class="st10" d="M1712.1,538.5h-7.1l5,20.6c0.3,1.5,1.8,2.4,3.2,2.1c1.5-0.3,2.7-1.8,2.4-3.2L1712.1,538.5L1712.1,538.5z"/>
		<path class="st10" d="M1448.6,538.5h7.1l-3.8,20.3c-0.3,1.5-1.8,2.7-3.2,2.4c-1.5-0.3-2.7-1.8-2.4-3.2L1448.6,538.5L1448.6,538.5z
			"/>
		<path class="st10" d="M1421.2,538.5h7.1l-5,20.6c-0.3,1.5-1.8,2.4-3.2,2.1c-1.5-0.3-2.7-1.8-2.4-3.2L1421.2,538.5L1421.2,538.5z"
			/>
		<path class="st13" d="M1712.1,379.2h-21.8c12.4,0,22.4,10,22.4,22.4v114.6c0,12.4-10,22.4-22.4,22.4h21.8
			c12.4,0,22.4-10,22.4-22.4V401.5C1734.5,389.2,1724.5,379.2,1712.1,379.2L1712.1,379.2z"/>
		<path class="st1" d="M1712.7,516.1V401.5c0-12.4-10-22.4-22.4-22.4h-273.5c-12.4,0-22.4,10-22.4,22.4v114.6
			c0,12.4,10,22.4,22.4,22.4h273.5C1702.7,538.8,1712.7,528.8,1712.7,516.1L1712.7,516.1z"/>
		<g>
			<g class="st16">
				<g>
					<path class="st13" d="M1538,517.7h-111.9c-2.9,0-5.1-2.2-5.1-5.1V405.7c0-2.9,2.2-5.1,5.1-5.1H1538c2.9,0,5.1,2.2,5.1,5.1
						v106.9C1543.1,515.5,1540.9,517.7,1538,517.7z M1426.1,402.5c-1.8,0-3.1,1.3-3.1,3.1v106.9c0,1.8,1.3,3.1,3.1,3.1H1538
						c1.8,0,3.1-1.3,3.1-3.1V405.7c0-1.8-1.3-3.1-3.1-3.1h-111.9V402.5z"/>
				</g>
			</g>
			<g class="st16">
				<g>
					<path class="st13" d="M1678.2,517.7h-111.9c-2.9,0-5.1-2.2-5.1-5.1V405.7c0-2.9,2.2-5.1,5.1-5.1h111.9c2.9,0,5.1,2.2,5.1,5.1
						v106.9C1683.3,515.5,1681.1,517.7,1678.2,517.7z M1566.2,402.5c-1.8,0-3.1,1.3-3.1,3.1v106.9c0,1.8,1.3,3.1,3.1,3.1h111.9
						c1.8,0,3.1-1.3,3.1-3.1V405.7c0-1.8-1.3-3.1-3.1-3.1h-111.9V402.5z"/>
				</g>
			</g>
		</g>
	</g>
	<g>
		<path class="st1" d="M1517.1,316.4c0.1-0.7,0.2-1.4,0.1-2.2c-0.2-5.5-4.6-10-10.1-10.3c-6.2-0.4-11.3,4.5-11.4,10.6
			c0,0.6,0,1.2,0.1,1.8c0.4,2.3-0.1,4.6-1.4,6.5c-0.7,1.1-1.2,2.2-1.6,3.4c-2.3,7.1,1.5,14.9,8.5,17.5c7.5,2.8,15.8-1,18.4-8.5
			c1.5-4.3,0.9-8.7-1.4-12.3C1517.2,321,1516.7,318.7,1517.1,316.4L1517.1,316.4z"/>
		<path class="st13" d="M1506.5,330c-0.1,0-0.2,0-0.2-0.1c-0.1-0.1-0.1-0.3,0-0.5l4.1-4c0.1-0.1,0.3-0.1,0.5,0
			c0.1,0.1,0.1,0.3,0,0.5l-4.1,4C1506.7,330,1506.6,330,1506.5,330z M1506.2,338.7c-0.1,0-0.2,0-0.2-0.1l-3.5-3.4
			c-0.1-0.1-0.1-0.3,0-0.5c0.1-0.1,0.3-0.1,0.5,0l3.5,3.4c0.1,0.1,0.1,0.3,0,0.5C1506.3,338.7,1506.2,338.7,1506.2,338.7
			L1506.2,338.7z M1506.5,320.7c-0.1,0-0.2,0-0.2-0.1l-3.5-3.4c-0.1-0.1-0.1-0.3,0-0.5c0.1-0.1,0.3-0.1,0.5,0l3.5,3.4
			c0.1,0.1,0.1,0.3,0,0.5C1506.7,320.7,1506.6,320.7,1506.5,320.7z"/>
		<path class="st13" d="M1506.4,352.2c-0.2,0-0.3-0.1-0.3-0.3v-38.3c0-0.2,0.1-0.3,0.3-0.3c0.2,0,0.3,0.1,0.3,0.3v38.3
			C1506.8,352.1,1506.6,352.2,1506.4,352.2z"/>
		<ellipse class="st13" cx="1506.7" cy="357.6" rx="13.5" ry="7"/>
		<path class="st1" d="M1513.8,380.1h-15.5c-1.5,0-2.8-1.2-2.8-2.8l-5.8-22.2c0-1.5,1.2-2.8,2.8-2.8h26.2c1.5,0,2.8,1.2,2.8,2.8
			l-4.9,22.2C1516.6,378.8,1515.4,380.1,1513.8,380.1L1513.8,380.1z"/>
		<path class="st13" d="M1513.8,352.4l-3.1,0.4l-3.4,27.3h6.5c1.5,0,2.8-1.2,2.8-2.8l4.9-22.2
			C1521.5,353.6,1515.4,352.4,1513.8,352.4z"/>
		<path class="st1" d="M1517.4,356h-27.3c-1,0-1.7-0.8-1.7-1.7v-0.2c0-1,0.8-1.7,1.7-1.7h27.3c1,0,1.7,0.8,1.7,1.7v0.2
			C1519.1,355.3,1518.4,356,1517.4,356z"/>
		<path class="st13" d="M1520.5,352.4h-9.8l0,0c0.9,0.1,1.6,0.9,1.6,1.8c0,1-0.8,1.8-1.8,1.8h10.1c1,0,1.8-0.8,1.8-1.8
			C1522.4,353.2,1521.6,352.4,1520.5,352.4z"/>
		<path class="st13" d="M1494.4,356h18.4v2.6l-18.4-2.1C1494,356.5,1494.1,356,1494.4,356L1494.4,356z"/>
	</g>
	<g>
		<g>
			<ellipse class="st12" cx="1602.6" cy="380.3" rx="15.3" ry="1.6"/>
			<path class="st10" d="M1606.4,353.2l-8.7,1c-0.8,0.1-1.3-0.4-1.4-1.1L1591,301c-0.1-0.8,0.4-1.3,1.1-1.4l8.7-1
				c0.8-0.1,1.3,0.4,1.4,1.1l5.3,52.1C1607.5,352.5,1607.1,353.1,1606.4,353.2z"/>
			<path class="st1" d="M1592.7,302.3c-0.2,0-0.3-0.1-0.3-0.3s0.1-0.3,0.2-0.3l3.1-0.3c0.2,0,0.3,0.1,0.3,0.2c0,0.2-0.1,0.3-0.2,0.3
				L1592.7,302.3C1592.8,302.3,1592.7,302.3,1592.7,302.3L1592.7,302.3z M1594.1,314.8c-0.2,0-0.3-0.1-0.3-0.3
				c0-0.2,0.1-0.3,0.2-0.3l3-0.3c0.2,0,0.3,0.1,0.3,0.2c0,0.2-0.1,0.3-0.2,0.3L1594.1,314.8L1594.1,314.8z M1592.9,304.8
				c-0.2,0-0.3-0.1-0.3-0.3c0-0.2,0.1-0.3,0.2-0.3l1.9-0.2c0.2,0,0.3,0.1,0.3,0.2c0,0.2-0.1,0.3-0.2,0.3L1592.9,304.8z
				 M1593.3,307.2c-0.2,0-0.3-0.1-0.3-0.3c0-0.2,0.1-0.3,0.2-0.3l1.9-0.2c0.2,0,0.3,0.1,0.3,0.2c0,0.2-0.1,0.3-0.2,0.3L1593.3,307.2
				L1593.3,307.2z M1593.6,309.7c-0.2,0-0.3-0.1-0.3-0.3s0.1-0.3,0.2-0.3l1.9-0.2c0.2,0,0.3,0.1,0.3,0.2c0,0.2-0.1,0.3-0.2,0.3
				L1593.6,309.7L1593.6,309.7z M1593.8,312.3c-0.2,0-0.3-0.1-0.3-0.3c0-0.2,0.1-0.3,0.2-0.3l1.9-0.2c0.2,0,0.3,0.1,0.3,0.2
				c0,0.2-0.1,0.3-0.2,0.3L1593.8,312.3L1593.8,312.3z M1597.8,352.2c-0.2,0-0.3-0.1-0.3-0.3c0-0.2,0.1-0.3,0.2-0.3l3-0.3
				c0.2,0,0.3,0.1,0.3,0.2c0,0.2-0.1,0.3-0.2,0.3L1597.8,352.2L1597.8,352.2z M1596.8,342.2c-0.2,0-0.3-0.1-0.3-0.3
				c0-0.2,0.1-0.3,0.2-0.3l1.9-0.2c0.2,0,0.3,0.1,0.3,0.2c0,0.2-0.1,0.3-0.2,0.3L1596.8,342.2z M1597,344.7c-0.2,0-0.3-0.1-0.3-0.3
				c0-0.2,0.1-0.3,0.2-0.3l1.9-0.2c0.2,0,0.3,0.1,0.3,0.2c0,0.2-0.1,0.3-0.2,0.3L1597,344.7z M1597.3,347.2c-0.2,0-0.3-0.1-0.3-0.3
				s0.1-0.3,0.2-0.3l1.9-0.2c0.2,0,0.3,0.1,0.3,0.2c0,0.2-0.1,0.3-0.2,0.3L1597.3,347.2z M1597.5,349.7c-0.2,0-0.3-0.1-0.3-0.3
				c0-0.2,0.1-0.3,0.2-0.3l1.9-0.2c0.2,0,0.3,0.1,0.3,0.2c0,0.2-0.1,0.3-0.2,0.3L1597.5,349.7z M1596.6,339.6
				c-0.2,0-0.3-0.1-0.3-0.3s0.1-0.3,0.2-0.3l3-0.3c0.2,0,0.3,0.1,0.3,0.2c0,0.2-0.1,0.3-0.2,0.3L1596.6,339.6L1596.6,339.6z
				 M1595.4,329.7c-0.2,0-0.3-0.1-0.3-0.3s0.1-0.3,0.2-0.3l1.9-0.2c0.2,0,0.3,0.1,0.3,0.2c0,0.2-0.1,0.3-0.2,0.3L1595.4,329.7
				C1595.5,329.7,1595.4,329.7,1595.4,329.7z M1595.7,332.2c-0.2,0-0.3-0.1-0.3-0.3s0.1-0.3,0.2-0.3l1.9-0.2c0.2,0,0.3,0.1,0.3,0.2
				c0,0.2-0.1,0.3-0.2,0.3L1595.7,332.2z M1596,334.7c-0.2,0-0.3-0.1-0.3-0.3c0-0.2,0.1-0.3,0.2-0.3l1.9-0.2c0.2,0,0.3,0.1,0.3,0.2
				c0,0.2-0.1,0.3-0.2,0.3L1596,334.7z M1596.3,337.1c-0.2,0-0.3-0.1-0.3-0.3c0-0.2,0.1-0.3,0.2-0.3l1.9-0.2c0.2,0,0.3,0.1,0.3,0.2
				c0,0.2-0.1,0.3-0.2,0.3L1596.3,337.1z M1595.3,327.3c-0.2,0-0.3-0.1-0.3-0.3c0-0.2,0.1-0.3,0.2-0.3l3-0.3c0.2,0,0.3,0.1,0.3,0.2
				c0,0.2-0.1,0.3-0.2,0.3L1595.3,327.3L1595.3,327.3z M1594.3,317.3c-0.2,0-0.3-0.1-0.3-0.3c0-0.2,0.1-0.3,0.2-0.3l1.9-0.2
				c0.2,0,0.3,0.1,0.3,0.2c0,0.2-0.1,0.3-0.2,0.3L1594.3,317.3z M1594.6,319.8c-0.2,0-0.3-0.1-0.3-0.3c0-0.2,0.1-0.3,0.2-0.3
				l1.9-0.2c0.2,0,0.3,0.1,0.3,0.2c0,0.2-0.1,0.3-0.2,0.3L1594.6,319.8z M1594.8,322.3c-0.2,0-0.3-0.1-0.3-0.3
				c0-0.2,0.1-0.3,0.2-0.3l1.9-0.2c0.2,0,0.3,0.1,0.3,0.2c0,0.2-0.1,0.3-0.2,0.3L1594.8,322.3z M1595,324.7c-0.2,0-0.3-0.1-0.3-0.3
				c0-0.2,0.1-0.3,0.2-0.3l1.9-0.2c0.2,0,0.3,0.1,0.3,0.2c0,0.2-0.1,0.3-0.2,0.3L1595,324.7z"/>
			<path class="st13" d="M1595.6,349.6l-0.3,0.1c-1.2,0.3-2.5-0.3-2.9-1.6l-4.9-16.5c-0.3-1.2,0.3-2.5,1.6-2.9l0.3-0.1
				c1.2-0.3,2.5,0.3,2.9,1.6l4.9,16.5C1597.5,347.9,1596.8,349.2,1595.6,349.6z"/>
			<path class="st13" d="M1590.2,339.5l-0.2,0.1c-0.5,0.2-1-0.2-1.1-0.6l-1.8-6c-0.2-0.5,0.2-1,0.6-1.1l0.2-0.1
				c0.5-0.2,1,0.2,1.1,0.6l1.8,6C1590.9,339,1590.6,339.4,1590.2,339.5z"/>
			<path class="st13" d="M1603.1,355l-0.4-0.1c-1.6-0.3-2.6-1.8-2.3-3.4l5-27.7c0.3-1.6,1.8-2.6,3.4-2.3l0.4,0.1
				c1.6,0.3,2.6,1.8,2.3,3.4l-5,27.7C1606.2,354.2,1604.7,355.3,1603.1,355z"/>
			<path class="st10" d="M1609.8,321.8c1.1,0.3,1.9,1.3,1.7,2.5l-5.3,29.2c-0.3,1.1-1.3,1.9-2.5,1.7"/>
			<path class="st1" d="M1609,336.2h-0.3l-4.8-0.9c-1-0.2-1.5-1-1.3-1.9s1-1.5,1.9-1.3l4.8,0.9c1,0.2,1.5,1,1.3,1.9
				C1610.4,335.6,1609.7,336.2,1609,336.2z M1604.2,331.8l-0.2-0.1c-0.5-0.1-1-0.6-0.8-1.1l1.2-7.1c0.1-0.5,0.6-1,1.1-0.8l0.2,0.1
				c0.5,0.1,1,0.6,0.8,1.1l-1.2,7.1C1605.2,331.6,1604.7,331.9,1604.2,331.8z"/>
			<path class="st1" d="M1618.6,329.7l-11.1,23c-0.3,0.7-1.1,1-1.7,0.6c-0.7-0.3-1-1.1-0.6-1.7l11.1-23"/>
			<path class="st13" d="M1617.8,329.2l1,0.4l-11.2,23c-0.3,0.7-1.1,1-1.7,0.6"/>
			<path class="st1" d="M1593.6,380.7h18c2.2,0,4.1-1.8,4.1-4.1v-28.1c0-3.5-2.9-6.4-6.4-6.4h-13.2c-3.5,0-6.4,2.9-6.4,6.4v28.1
				C1589.5,378.9,1591.3,380.7,1593.6,380.7L1593.6,380.7z"/>
			<path class="st13" d="M1609.3,342.1h-2.5c3.7,0,6.8,2.6,6.8,5.9v25.8c0,2.1-2,3.8-4.3,3.8h-19c-0.2,0-0.3,0-0.5,0
				c0.3,1.8,1.9,3.2,3.9,3.2h18c2.2,0,4.1-1.8,4.1-4.1v-28.1C1615.7,345,1612.8,342.1,1609.3,342.1z"/>
			<path class="st13" d="M1615.2,347l-25.5,4.9V347H1615.2z"/>
			<path class="st1" d="M1590.5,347.4h24.2c1.5,0,2.6-1.1,2.6-2.5v-0.3c0-1.4-1.2-2.5-2.6-2.5h-24.2c-1.5,0-2.6,1.1-2.6,2.5v0.3
				C1587.7,346.5,1589,347.4,1590.5,347.4L1590.5,347.4z"/>
		</g>
		<path class="st13" d="M1569,274c0.3-0.9-0.6-1.8-1.5-1.8h-5c-0.9,0-1.5,0.9-1.5,1.8l0.9,5h6.2L1569,274L1569,274z"/>
		<path class="st1" d="M1572.5,298.2c-1.5-0.6-2.7-1.5-3.2-2.7v-10.9h0.9c0.3,0,0.6-0.3,0.6-0.6v-1.5c0-2.1-1.2-3.5-2.7-3.5h-6.2
			c-1.5,0-2.7,1.5-2.7,3.5v1.5c0,0.3,0.3,0.6,0.6,0.6h0.9v11.2c-0.6,0.9-1.8,1.8-2.9,2.4h-0.3c-6.2,2.4-10,8.5-10,15v63
			c0,1.8,1.2,2.9,2.9,2.9h29.2c1.8,0,2.9-1.2,2.9-2.9v-63C1582.5,306.7,1578.7,300.5,1572.5,298.2L1572.5,298.2z"/>
		<path class="st13" d="M1550.4,379.2h29.2c1.6,0,2.9-1.3,2.9-2.9v-63c0-3.4-1-6.6-2.9-9.3v68c0,2.5-2,4.5-4.5,4.5h-27.7v0.4
			C1547.7,378.2,1548.8,379.2,1550.4,379.2z"/>
	</g>
</g>
<g>
	<path class="st12" d="M1413.7,657.9H797.4c-5.5,0-7.4-7.2-2.7-10c0.8-0.5,1.8-0.8,2.7-0.8h616.3c5.5,0,7.4,7.2,2.7,10
		C1415.6,657.6,1414.7,657.9,1413.7,657.9z"/>
	<g>
		<path class="st17" d="M1126.3,647.2c0,5-2.4,9.1-5.3,9.6h-11c-3.2,0-5.8-4.3-5.8-9.6s2.6-9.6,5.8-9.6h11
			C1123.9,638.1,1126.3,642.2,1126.3,647.2z"/>
		<ellipse class="st1" cx="1121.2" cy="647.2" rx="5.8" ry="9.6"/>
		<path class="st17" d="M1247.9,645.7c0,5.1-4.1,9.3-9.1,9.6h-5.6c-5.3,0-9.6-4.3-9.6-9.6s4.3-9.6,9.6-9.6h5.6
			C1243.9,636.3,1247.9,640.4,1247.9,645.7z"/>
		<circle class="st1" cx="1238.8" cy="645.7" r="9.6"/>
		<path class="st18" d="M1234.6,645.7c0-2.3,1.9-4.2,4.2-4.2c2.3,0,4.2,1.9,4.2,4.2s-1.8,4.2-4.2,4.2
			C1236.5,649.9,1234.6,647.9,1234.6,645.7z M1235.7,645.5c0,1.7,1.4,3.1,3.1,3.1s3.1-1.4,3.1-3.1c0-1.7-1.4-3.1-3.1-3.1
			C1237.1,642.5,1235.7,643.8,1235.7,645.5z"/>
		<path class="st17" d="M1061.5,645.7c0,5.1-4.1,9.3-9.1,9.6h-5.6c-5.3,0-9.6-4.3-9.6-9.6s4.3-9.6,9.6-9.6h5.6
			C1057.4,636.3,1061.5,640.4,1061.5,645.7z"/>
		<circle class="st1" cx="1052.4" cy="645.7" r="9.6"/>
		<path class="st18" d="M1048.2,645.7c0-2.3,1.9-4.2,4.2-4.2c2.3,0,4.2,1.9,4.2,4.2s-1.9,4.2-4.2,4.2
			C1050,649.9,1048.2,647.9,1048.2,645.7z M1049.3,645.5c0,1.7,1.4,3.1,3.1,3.1s3.1-1.4,3.1-3.1c0-1.7-1.4-3.1-3.1-3.1
			C1050.7,642.5,1049.3,643.8,1049.3,645.5z"/>
		<path class="st18" d="M1119.2,647.1c0-2.4,1-4.2,2.5-4.2s2.5,1.8,2.5,4.2s-1.1,4.2-2.5,4.2S1119.2,649.5,1119.2,647.1z
			 M1120.4,647.1c0,1.7,0.7,3.1,1.4,3.1s1.4-1.4,1.4-3.1c0-1.7-0.7-3.1-1.4-3.1C1121.2,644.1,1120.4,645.4,1120.4,647.1z"/>
	</g>
	<path class="st19" d="M1150.5,607.6h-8.5c-5.6,0-10-4.6-10-10v-18.2c0-5.6,4.6-10,10-10h8.5c5.6,0,10,4.6,10,10v18.2
		C1160.5,603.2,1156,607.6,1150.5,607.6z"/>
	<path class="st19" d="M1145.6,599.2l99.6,25.8c1.8,0.5,3,2,3,3.9v5.3c0,2.6-2.5,4.6-5,3.9l-97.6-24.7"/>
	<path class="st19" d="M1146.4,599.2l-100.5,26.1c-1.3,0.3-2.2,1.5-2.2,2.8v7.6c0,1.9,1.8,3.3,3.6,2.8l99-25"/>
	<path class="st19" d="M1136.2,602.3l-28.3,31.2c-0.5,0.6-0.7,1.3-0.7,1.9c0,1.8,1.5,3.3,3.3,3.3h12.3c1,0,2-0.6,2.7-1.4l26.1-29"/>
	<path class="st19" d="M1138.7,607.5h16V443.2h-16V607.5z"/>
	<path class="st20" d="M1215.9,422.8l25.6-154.9c3.8-21.6-8.5-42.1-27.5-50.3c-1.6-0.2-3.3-0.2-5-0.2h-51.7c-21.4,0-39.4,15-43,36
		l-32.4,193.8h104.9C1201.3,447,1213.4,436.9,1215.9,422.8L1215.9,422.8z"/>
	<path class="st21" d="M1100,174c-8.2,13.6,6,15.9,3.2,40c-1.3,11.3,11.3,15.5,7.8,27.9c-2.8,9.8,4.4,5.9,4.4,5.9l24.7-10.5
		l-5.2-33.5L1100,174z"/>
	<path class="st22" d="M1194.5,438.4c-7.2,6.5-12.9,8.1-20.3,8.6h-13.4c-0.7-0.6-0.9-1.5-1-2.4c-0.9-5.1-2.8-9.1-5.5-12.5
		c21.2-6.8,41.9-16.3,32-39.7c-2.7-7.9-13.2-14.3-26.2-19.9c-19.6-1.7-40.1-4.1-57-14c1.1,0.7,14.2-36.5,14.1-40.7
		c-0.3-12.4-6.7-24.4-5.3-36.9c1.4-12.4,9.7-22.6,17.1-32.1c4.2-5.3,8-9.8,13.9-12.9c12.4-6.4,27.8-20.3,42.3-11
		c11.6,7.3,21.1,25.3,27,37.3c6.8,13.9,3.9,31.3,1.8,46c-1.4,10.4-2.5,20.7-2,31.2c0.3,8.6,4.2,16.8,4,25.4
		c-0.2,5.6-3.4,9.9-4.6,15.1c-0.9,4.1-1,7.7-0.3,11.8l0.3,2.4C1212.7,410.5,1206.7,427.5,1194.5,438.4L1194.5,438.4z"/>
	<path class="st19" d="M1214,217.5c19,8.2,31.4,28.8,27.5,50.3l-25.6,155c-2.5,14.1-14.6,24.4-29,24.4H1082l-0.1,0.8h-79.2
		c-4,0-7.4,3-7.5,6.9c-0.1,4.2,3.3,7.6,7.5,7.6h189.7c17.4,0,32-12.2,35.1-29.2l27.4-161.8C1259.4,245,1240,220.3,1214,217.5z"/>
	<path class="st20" d="M1082,447.6h104.9c14.7,0,27.1-10.5,29.6-24.8l25.6-154.8c3.5-19.9-6.8-40.3-25.2-49.6
		c-0.2-0.1-0.6,0-0.8,0.2c-0.1,0.2,0,0.6,0.2,0.8c17.9,9.1,28,29,24.6,48.5l-25.6,154.9c-2.4,13.8-14.5,23.8-28.5,23.8H1082
		c-0.3,0-0.6,0.2-0.6,0.6C1081.4,447.5,1081.6,447.6,1082,447.6L1082,447.6z"/>
	<path class="st23" d="M915.3,367.8c16.4,0,16.8,15.1,16.8,15.1l3.5-18.7L915.3,367.8L915.3,367.8z"/>
	<g>
		<path class="st24" d="M936.6,360.2L880,650.4c-0.6,2.2-2.5,3.8-4.8,3.8c-3.1,0-5.5-2.8-4.8-5.9l48.5-289
			C924.8,359.5,930.6,359.9,936.6,360.2z M1400.3,648.1c0.6,3.1-1.7,5.9-4.8,5.9c-2.3,0-4.2-1.6-4.8-3.8L1333.8,358
			c3-0.3,5.8-0.7,8.8-1c2.8-0.3,5.8-0.7,8.6-0.9L1400.3,648.1z"/>
		<path class="st25" d="M1292,361.9c-5.9,0.2-11.8,0.1-17.6-0.2l56.1,288.6c0.6,2.2,2.5,3.8,4.8,3.8c3.1,0,5.3-2.8,4.8-5.9
			L1292,361.9z"/>
		<path class="st25" d="M860.7,357.7L812,648.2c-0.7,3.1,1.7,5.9,4.8,5.9c2.3,0,4.2-1.6,4.8-3.8l56.9-292.4
			C872.6,357.7,866.6,357.7,860.7,357.7L860.7,357.7z"/>
	</g>
	<path class="st23" d="M856.8,367.8l20.4-3.5l-3.7,19.3C873.5,383.6,873.2,367.8,856.8,367.8L856.8,367.8z M1330.6,366.9l22.1-2.2
		l3.9,24.2l-0.5-1.9C1354,376,1343.3,367.7,1330.6,366.9L1330.6,366.9z M1270.4,366.9l22.1-2.2l3.9,24.2l-0.5-1.9
		C1293.8,376,1283.1,367.7,1270.4,366.9L1270.4,366.9z"/>
	<g>
		<path class="st26" d="M1043.3,414.4c-14.1,9-26.7,15.8-28.6,33.1c-1.2,10.7,7.9,52.6,15.4,95.4c7.7,43.9,17.3,64.2,11.6,82.8
			s-17.8,30.7-22,33c-3.1,1.7,9,7,19.2,1.7c6.5-3.4,7.9-13.8,16.9-19.7c18-11.8,3.1-17.7,2.5-26.8c-0.2-3.4,2.5-40,5.4-70.4
			s2.1-30.5,2.7-49c1.1-34.4-7.7-46.6-7.7-46.6s63.1,4.9,96.4-14.1c25.4-14.5,20.3-53.5-1.7-58S1043.3,414.4,1043.3,414.4z"/>
		<path class="st27" d="M1059.5,617.8c0.9,4.3-4.1,14.5-7.9,21.6s-11.1,12.2-16.2,13s-6.6-1.3-4.9-4.1c0,0-2.3,2.8-7.3,6.8
			c-3.4,2.6-7,4.7-5.8,6.4s6.2,2.3,12,1.9c5.7-0.4,11.5-1.5,14.8-7.1c3.4-5.6,9.4-13.9,13.3-16.2s4.1,3.6,2.8,6.9
			c-1.3,3.3,1.9,1.6,2.5-1s3.4-10.7,2.6-16C1064.7,624.5,1059.5,617.8,1059.5,617.8z"/>
	</g>
	<path class="st28" d="M1067,435.8c-1.4-5.4-5.2-6.7-5.2-6.7l36.7-1.3c-4.3,13-9.2,18.4-14.1,20.6c-14.9,0.4-25.7-0.5-25.7-0.5
		s8.8,12.1,7.7,46.6c-0.4,11.9-0.2,16.2-0.8,25.8c-0.1-4.2-2-62-13.5-73.8C1052.2,446.4,1068.4,441.2,1067,435.8z"/>
	<g>
		<path class="st26" d="M1116.8,409.1c-29.3,19.2-39.4,38.3-37.2,49.6c2.3,11.3,13.7,33.4,30.8,78.5c17.1,45,21.6,57.7,27.8,77.4
			c6.2,19.7,11.1,25.9,3.6,35.7c-7.6,9.9-3,9.2,9.8,4.3c8.7-3.3,8.8-11,7.5-27.4c-0.8-10.4,4.2-10.7,3.4-15.5
			c-0.7-4.2-3.6-5.7-8.7-9.6c-7.9-6-12.6-20.8-11.5-71.9c1.1-51.5-14.5-81.2-4.8-82.8c11.6-1.9,29.6-7.4,29.6-7.4l-30-20.6
			L1116.8,409.1z"/>
		<path class="st27" d="M1145.3,643.5c-0.6,1.4-2.2,5.6-5.7,8.6s-5.4,5.6,0.2,6.8c5.6,1.1,15.4-2.6,18.6-7.1
			c3.9-5.4,2.4-16.4,3.3-20.9c0.8-4.5,3.1,5.6,4.5,4.8s-0.8-10.1-2-17.8c-1.1-7.6-2-10.4-5.4-12.7s-5.1-3.1-5.1-3.1s2,12.4,1.7,24.8
			c-0.3,12.4-1.3,21.1-8.5,22.1C1143.3,649.4,1145.3,643.5,1145.3,643.5z"/>
	</g>
	<path class="st28" d="M1142.3,523.5c-0.2-2.4-0.5-5-0.8-7.8c-3-30-13.7-58.8-17.6-64s3-12.9,11.3-15.6l13.6,0.1l-0.3,8.9
		c-3.8,0.9-7.7,1.8-11,2.3C1128.2,448.9,1142,476.2,1142.3,523.5z"/>
	<path class="st29" d="M1199.6,397.8c-5.6-20.4-26.9-22.1-43.2-14c-18.6,9.1-39.3,19.2-56.3,31.9c20.6-0.8,44.5,14.3,48.3,31.3
		c3.9-0.2,7.6-0.5,11.5-0.8c12.6-1.5,29.5-6.1,36-18.3C1200.7,418.4,1202.5,408.2,1199.6,397.8z"/>
	<path class="st30" d="M1206.1,390.8c-0.8-3-1.8-5.9-3.1-8.9c-7.4-16.6-23.7-28.5-41.2-32.1c-31.8-6.7-41.2,12.7-66.3,28.5
		c-17.1,10.7-44.3,28.3-66.9,41.9c-2.3,1.4-4.6,7.7-4.7,8.7c3-3,9.9-6.6,43.1,6.8c12.4,5,15.4-8.4,47.2-8.1
		c19.5,0.2,26.9,16.9,22.6,20.1c10.7-1.3,29-3.8,39.6-5.1c3.3-0.3,14.9-8.4,17.6-11.2C1206.1,418.8,1210.1,406.6,1206.1,390.8z"/>
	<path class="st31" d="M1114.8,364c9.3-7.5,17.7-13.7,29.3-15.2c5.6-0.5,11.5-0.2,17.7,1.1c17.5,3.6,33.8,15.5,41.2,32.1
		c1.3,3,2.3,5.9,3.1,8.9c2.2,8.9,2.1,18-0.5,26.5c-2.1,6.7-8.3,17.7-25.8,25c-9.8,4.2-30.3,3.6-41,4.9c2.2-1.7,0.8-6.7-3.6-11.3
		c23-7.3,59.1-24.3,48.3-44.7C1176.8,376.6,1141.2,369.1,1114.8,364z"/>
	<path class="st17" d="M1129.1,233c-15.2,3.4-20.3,14.6-23.6,26.4c-3.6,13.1-8,57.4-10.9,59s-33,2.5-35.9,6s5.5,15.8,5.5,15.8
		s33.4-0.3,40.2-1.3c6.8-1,10.7-14.8,10.7-14.8L1129.1,233z"/>
	<polygon class="st17" points="1128.7,306.2 1124.8,346.9 1114.3,345.3 1112.2,301.2 	"/>
	<path class="st27" d="M1143.9,230.2c11.4-0.5,26.6,0.8,37.6,3.9c8.5,2.5,13.3,5.8,15.4,12.7c1.7,5.8-1.1,10-0.8,16
		c0.3,7.4-0.2,14.9-0.9,22.3c-1.9,22.9-5.8,47.2,0.7,69.8c1.9,6.8,2.3,14.4,5,20.7c-6.1,2-9.7,1.8-16.3,2.5
		c-4.8,0.5-9.8,0.8-14.9,0.9s-11.4,0.1-16.5-0.2c-15.7-1-30.6-1.8-45.6-6c-1.4-0.5-2.8-1.1-4.1-1.7c-2.2-0.9-1.9-2-0.9-3.6
		c2.6-3.9,5-6.8,7.6-10.8s5.5-9.1,7.6-13.5c4.6-9.3,7.9-21.3,4.7-31.6c-1.5-4.8-7.3-6.6-10.1-10.2c-3.1-4-5.1-8.9-5-13.9
		c0.1-7.5,4.6-14,6.1-21.3c1.4-6.1,2.2-10.9,3.7-17C1120.7,235,1131.2,230.7,1143.9,230.2L1143.9,230.2z"/>
	<path class="st1" d="M1139,230.6c-8.6,9-17.2,16.3-20.2,57.9c-1.4,18.8,3.9,37.8,1.7,57.9c-1.9,18.1-10.1,30.7-11.7,33.1
		c-0.2,0.3-0.5,0.4-0.8,0.4c-1,0-3.3-0.1-5.9-0.8c-2.7-0.7-3.9-2.2-4.5-3.3c-0.4-0.8-0.2-1.7,0.3-2.4c2.9-3.8,14.1-19.8,14.4-41.1
		c0.4-24.5-7.7-32.2-4.7-48.5s6-31.8,7.7-36.1C1122.7,229.4,1139,230.6,1139,230.6z"/>
	<g>
		<path class="st13" d="M1107.8,376.4c-0.1,0-0.2,0-0.3-0.1c-0.2-0.2-0.3-0.5-0.1-0.7c0.1-0.1,9.3-13.6,9.8-32.5
			c0.2-6.1-1.2-29.1-2.1-40.9c-0.9-11.2,0.4-26.1,3.9-43c3.2-15.7,12.9-25.3,13-25.4c0.2-0.2,0.5-0.2,0.7,0s0.2,0.5,0,0.7
			c-0.1,0.1-9.6,9.4-12.7,24.8c-3.4,16.8-4.8,31.5-3.9,42.7c1,11.8,2.3,34.9,2.1,41c-0.5,19.2-9.8,32.9-9.9,33
			C1108.2,376.3,1108,376.4,1107.8,376.4z"/>
	</g>
	<g>
		<path class="st26" d="M1148.3,190.4c-1.3,0-3,0.5-5.1,1.5c-4.6,2.2-16.4,6.8-14,12.9c0.5,1.3,1.8,2.4,2.4,3.6
			c0.8,1.6,1.4,3.3,1.8,5c1.6,6.3,4.3,13.5,2.2,20.3c-0.8,2.6-1.7,5.9-0.7,8.4c1.1,2.5,3.6,4.4,6.5,5.3c4.3,1.5,9.8,0.9,14.2-1
			c4.9-2.2,9.8-7.4,9.4-12.3c-0.2-2.3-1.3-2.7-6.6-11.5c-3.4-5.5-4.6-12.4-5.1-18.4C1152.7,198,1153.7,190.4,1148.3,190.4
			L1148.3,190.4z"/>
		<path class="st28" d="M1133.4,213.4c1.5,5.8,3.9,12.5,2.5,18.9c2.2,0.2,6.4-4.1,8-6.4c5.9-8.3,5.7-16.3,7.2-24.6
			c-0.6-3.2-1.5-7.4-4.4-8.3c-3.3-1-9.9,1.6-12.5,3.4c-2.6,1.8-5.8,5.5-4.8,8.2c0.5,1.3,1.8,2.4,2.4,3.6
			C1132.4,210,1132.9,211.7,1133.4,213.4L1133.4,213.4z"/>
		<path class="st21" d="M1099.1,177.7c-0.5,4.8,0.9,9.6,4,13.2c1.9,2.3,3.5,4.4,5,7.1c1,1.8,2.7,3.8,4.9,3.6
			c11.5-0.3,10.6-22.9,9.8-30c-0.5-3.9-0.7-7.7-5-9.2c-2.8-0.9-6-0.2-8.6,1c-4.9,2.4-8.5,7.2-9.7,12.4
			C1099.4,176.4,1099.3,177,1099.1,177.7L1099.1,177.7z"/>
		<path class="st26" d="M1151,204.5c0.7-1,1.4-2,1.9-3.2c4.7-8.1,8.3-17.1,4.1-25.9c-3-6.3-8.6-9.7-15.3-12.3
			c-6.9-2.7-10-4.2-17.5-3.9c-6.6,0.3-12.5,4.8-16,10.2c-4.2,6.7-3.8,14.6-2.3,21.9c1.1,5.1,2.4,10.4,4.6,15
			c2.2,4.8,5.3,9.2,9.7,12.1c3.8,2.5,9,3.9,13.3,1.7C1140.6,216.8,1146.6,211,1151,204.5L1151,204.5z"/>
	</g>
	<path class="st32" d="M1198.5,363.5c-1-2.8-2-5.6-2.8-8.6c-6.4-22.5-2.6-46.9-0.7-69.8c0.6-6.9,1.1-13.9,0.9-20.8
		c-0.3-0.3-0.7-0.6-1.1-0.9c-3.1-2-7.1-2.7-10.7-1.9c-5.6,1.3-10.1,5.5-13.7,10c-1.5,2-2.8,4.2-3.8,6.6c-3,8.5-3.5,17.8-12.9,22.3
		c-3.4,1.6-9,2.7-10.2,6.8c-1.5,4.9,6.7,7.1,8.9,10.6c3.8,5.9,2.2,13.3,6.7,18.9c4.3,5.2,11.7,6.9,15.5,12.5c1.3,1.8,1.8,4.1,3.1,6
		c1.9,3.2,5.3,5.2,8.9,6.5C1190.3,363,1194.7,363.8,1198.5,363.5z"/>
	<path class="st1" d="M1165.1,230.6c-3.9-0.4-12.7,25.3-13.7,44c-0.6,11.1,1.9,68.7,2.4,82.4c0.3,10.7-0.4,23.7-0.7,29
		c-0.1,1.4,0.8,2.6,2.2,2.9c6.4,1.3,24.8,4.3,39.1,0.1c4.5-1.3,7.7-2.9,9.5-4.1c1.2-0.7,1.6-2.3,1-3.5c-3-6-11.2-23.9-10.5-42.1
		c0.9-22.3,13.2-68,6-88S1175,231.7,1165.1,230.6z"/>
	<g>
		<path class="st13" d="M1155.8,385.4L1155.8,385.4c-0.3,0-0.5-0.3-0.5-0.6c0-0.1,1.6-11.6,1-20.2c-0.7-9.8-3.2-78.4-1.3-94.7
			c2.9-24.3,12.6-37.5,12.7-37.6c0.2-0.2,0.5-0.3,0.7-0.1s0.3,0.5,0.1,0.7c-0.1,0.1-9.6,13.1-12.5,37.1c-1.9,16.3,0.6,84.8,1.3,94.5
			c0.6,8.6-1,20.3-1,20.4C1156.3,385.2,1156,385.4,1155.8,385.4z"/>
	</g>
	<path class="st13" d="M1193.5,318.2c4.5-21.3,13.3-56,2.8-74.8c1.6,2.2,2.9,4.8,4,7.8c7.2,19.9-5.2,65.7-6,88
		c-0.7,18.7,7.9,37.1,10.7,42.6c0.5,1,0.2,2.2-0.7,2.8c-1.8,1.2-5,2.9-10,4.4c-3,0.9-6.1,1.4-9.3,1.8c10-4.6,6.7-12.1,4.6-22.8
		C1187.5,356.8,1188.7,340.5,1193.5,318.2z"/>
	<path class="st33" d="M1183.5,338.4c3.3-3.5,4.2-10.8,5.1-15c2.7-13.3,5-29.4,5.9-41.7c0.9-12.2,1.3-22.2-6-30.6
		c-3.6-4.2-8.6-3.5-12.9-1.7c-4.2,1.8-5.5,6.8-5.8,11.2c-0.6,5.7-0.2,11.5-0.5,17.1c-0.5,13.2-1.5,26.3-2.6,39.4
		c-0.1,0.8-0.1,1.5-0.2,2.4c-0.3,6.6-1.6,14.7,4,19.6C1173.8,342,1180.2,341.9,1183.5,338.4L1183.5,338.4z"/>
	<path class="st33" d="M1182.3,339.6c0.7-0.5,1.1-1,1.6-1.5c2.4-3.1,3.4-8.8,0.2-12.3c-5.8-6.3-9.8-6.8-18.1-5.8
		c-5.8,0.7-16,4.7-23.3,7.2c-17.9,6.4-23.6,7.9-38.5,11.7c-1.1,0.3-2.4,1.1-3.3,2c-1.1,1.3-1.5,3.2-0.8,4.7s2.2,2.6,3.8,2.8
		c1.1,0.2,2.2,0.1,3.3,0c19.5-0.6,31.3-0.9,52.1-3C1165.6,345.1,1177.8,343.1,1182.3,339.6L1182.3,339.6z"/>
	<path class="st17" d="M1178.8,240c-6.8,3.5-12,11.6-12.8,28.8s0.7,48.1,0.7,48.1s-19.2,8.1-32.9,12.4c-13.7,4.3-26.4,8.6-26.4,8.6
		s6.3,2,6.1,10.4c0,0,26.8,0.7,41.4,0.7s31.3-5.2,33.5-12c2.1-6.9,9-55.4,9.9-68.2c0.9-12.9-2.1-22.3-6.9-26.6
		C1186.6,237.9,1178.8,240,1178.8,240z"/>
	<g>
		<path class="st1" d="M1236,315.6l-5.4-20.6c-0.2-0.7,0.3-1.3,1-1.3h0.4c0.4,0,0.9,0.3,1,0.8l6.2,22.7"/>
		<path class="st27" d="M1226.1,316.3h23.9c1.3,0,2.3,1.2,2.1,2.5l-4.4,32c-0.3,1.6-1.6,2.7-3.2,2.7h-12.6c-1.6,0-3-1.1-3.2-2.7
			l-4.5-32C1223.9,317.5,1224.8,316.3,1226.1,316.3z"/>
		<path class="st34" d="M1223.7,318.8h28.8c0.6,0,1-0.4,1-1v-3.2c0-0.6-0.4-1-1-1h-28.9c-0.6,0-1,0.4-1,1v3.2
			C1222.6,318.3,1223.1,318.8,1223.7,318.8L1223.7,318.8z"/>
		<path class="st32" d="M1224.9,318.8h27.2l-4.4,31.4l-0.3-9c-0.3-10.8-8.2-19.9-18.8-21.7L1224.9,318.8L1224.9,318.8z"/>
	</g>
	<path class="st26" d="M1114.3,345.3c0.5,1.1,0.5,2.2-0.8,3.1c-0.8,0.6-1.8,0.8-2.8,0.9c-4.7,0.6-8.8-0.7-13.2-2
		c-5.3-1.7-9.7,3.1-14.8,3.3c-0.3,0-0.6,0-0.9-0.1c-0.2-0.1-0.5-0.3-0.6-0.7c0-0.5,0.5-0.8,0.8-1c1-0.7,2.2-1.3,3.2-1.9
		c0.8-0.5,1.5-1.1,2.4-1.5c-2.4,0.9-4.7,1.7-7.1,2.6c-1.1,0.5-2.4,0.9-3.5,1.4c-0.9,0.3-1.7,0.6-2.5-0.1c-0.3-0.2-0.6-0.7-0.5-1
		c0-0.3,0.3-0.7,0.7-0.9c0.3-0.2,0.7-0.3,1.1-0.3c-0.6,0.1-1.3,0.2-1.9,0s-1.1-0.8-0.9-1.5c0.1-0.5,0.7-0.8,1.1-1
		c0-0.2,1.9-0.9,2.2-1c0.7-0.3,1.3-0.6,1.9-1.1c-0.8,0.1-1.7,0.2-2.5,0.5c-0.6,0.2-1,0.6-1.7,0.6s-1.5-0.6-1.4-1.3
		c0-0.7,0.8-1,1.4-1.3c3.5-1.5,7.1-2.7,10.7-3.8c8.9-2.5,23.2-2.5,28.7,6.4C1113.6,344,1114.1,344.7,1114.3,345.3L1114.3,345.3z"/>
	<path class="st34" d="M1376,367.9H834.3c-3.9,0-6.9-3.1-6.9-6.9v-0.7c0-3.9,3.1-6.9,6.9-6.9H1376c3.9,0,6.9,3.1,6.9,6.9v0.7
		C1383,364.9,1379.9,367.9,1376,367.9L1376,367.9z"/>
	<path class="st27" d="M1376.8,367.9h-121c-3.9,0-6.9-3.1-6.9-6.9v-0.7c0-3.9,3.1-6.9,6.9-6.9h121c3.9,0,6.9,3.1,6.9,6.9v0.7
		C1383.8,364.9,1380.7,367.9,1376.8,367.9z"/>
	<path class="st20" d="M1071.1,353.5H957.4c-0.9,0-1.7-0.6-2.2-1.4l-35.8-75.6c-0.8-1.6,0.3-3.4,2.2-3.4h113.7
		c0.9,0,1.7,0.6,2.2,1.4l35.8,75.6C1074,351.7,1072.9,353.5,1071.1,353.5z"/>
	<path class="st19" d="M1074.1,353.5c1.8,0,3-1.8,2.2-3.4l-35.8-75.6c-0.5-0.8-1.3-1.4-2.2-1.4h-2.8c-1.8,0-3,1.8-2.2,3.4l35.8,75.6
		c0.5,0.8,1.3,1.4,2.2,1.4H1074.1L1074.1,353.5z M983.5,316.7c-1.4-3-1.4-5.8,0-7.9c1.3-1.9,3.3-3,6-3c5.6,0,11.9,4.3,14.5,9.9
		c1.4,3,1.4,5.8,0,7.9c-1.3,1.9-3.3,3-6,3C992.4,326.6,986,322.3,983.5,316.7z M989.4,308.3c-1.8,0-3.3,0.6-4.1,1.8
		c-0.9,1.4-0.8,3.4,0.2,5.7c2.2,4.7,7.7,8.5,12.4,8.5c1.8,0,3.3-0.6,4.1-1.8c0.9-1.4,0.8-3.4-0.2-5.7
		C999.7,312.1,994.1,308.3,989.4,308.3z"/>
	<path class="st19" d="M1136.1,346h-62.6c-1.9,0-3.5,1.6-3.5,3.5v0.3c0,1.9,1.6,3.5,3.5,3.5h62.6c1.9,0,3.5-1.6,3.5-3.5v-0.3
		C1139.8,347.6,1138.2,346,1136.1,346L1136.1,346z"/>
	<path class="st21" d="M1197.9,234.8c-0.9-1.6-4.6-9.1-5.3-11.1c-3-8.1,8.5-15.4-1.3-22.6c-8.4-6.2-8.9-9.4-13.3-23.9
		c-4.1-13.5-16.4-25.5-34.3-28.9c-3.8-1.1-7.9-1.5-12-1.2c-8.4,0.6-20.3,3.8-25.5,10.9l-0.3,0.3l0,0l0,0
		c-9.4,9.6-2.8,22.7,14.8,25.9c16.2,2.9,22,0.1,22.8-0.3c1,0,1.8-0.4,2.1-1.5c0.9-3.3,1.8-7.1,6-6.7c1.7,0.3,3.1,1.8,3.6,3.4
		c0.6,1.7,0.5,3.4,0.2,5.2c-0.2,0.9-0.6,2.8-1,5c-1.4,4-3.3,8.1-4.3,12c-2.6,10.1-8.2,18.7-1.9,23.8c6.3,5.1,0,13.6,3.2,20.6
		s15.9,1.2,22-8.9c4.1-6.8,15.2,1.3,18.7,2.9C1195.1,241,1200.7,239.8,1197.9,234.8z"/>
</g>
<g>
	<g>
		<g>
			<g>
				<circle class="st35" cx="901.5" cy="343.9" r="0.3"/>
			</g>
			<g>
				<circle class="st35" cx="902.5" cy="343.9" r="0.3"/>
			</g>
			<g>
				<circle class="st35" cx="903.5" cy="343.9" r="0.3"/>
			</g>
		</g>
		<g>
			<path class="st36" d="M901.3,345.7h2.2c0.1,0,0.2-0.1,0.2-0.2s-0.1-0.2-0.2-0.2h-2.2c-0.6,0-1-0.5-1-1c0-0.1-0.1-0.2-0.2-0.2
				c-0.1,0-0.2,0.1-0.2,0.2C899.8,345,900.5,345.7,901.3,345.7z"/>
		</g>
		<g>
			<path class="st37" d="M904.9,344c0.1,0,0.2-0.1,0.2-0.2c0-0.8-0.7-1.5-1.5-1.5h-2.2c-0.1,0-0.2,0.1-0.2,0.2s0.1,0.2,0.2,0.2h2.2
				c0.6,0,1,0.5,1,1C904.7,343.9,904.8,344,904.9,344z"/>
		</g>
	</g>
	<path class="st38" d="M878.7,340.2h33.8c3,0,5.4,2.4,5.4,5.4v0.9c0,3-2.4,5.4-5.4,5.4h-33.8c-3,0-5.4-2.4-5.4-5.4v-0.9
		C873.3,342.6,875.7,340.2,878.7,340.2z"/>
	<g>
		<rect x="904.9" y="340.1" class="st37" width="8.8" height="4.7"/>
	</g>
	<path class="st37" d="M892.9,291.1h6.8c3.2,0,5.9,2.6,5.9,5.8v5.7c0,3.5,0,31,0,35.1v5.7c0,3.2-2.6,5.8-5.8,5.8H893
		c-3.2,0-5.8-2.6-5.8-5.8v-5.7c0-4.1,0-31.6,0-35.1v-5.7C887.1,293.6,889.7,291.1,892.9,291.1z"/>
	<path class="st19" d="M895.6,291.1h6.8c3.2,0,5.9,2.6,5.9,5.8v5.7c0,3.5,0,31,0,35.1v5.7c0,3.2-2.6,5.8-5.8,5.8h-6.8
		c-3.2,0-5.8-2.6-5.8-5.8v-5.7c0-4.1,0-31.6,0-35.1v-5.7C889.8,293.6,892.4,291.1,895.6,291.1z"/>
	<g>
		<path class="st38" d="M912.4,349.6h1.2c0.7,0,1.1,0.6,1,1.3l-0.4,1.7c-0.1,0.4-0.5,0.8-1,0.8h-0.3c-0.5,0-0.9-0.3-1-0.8l-0.4-1.7
			C911.2,350.2,911.7,349.6,912.4,349.6z"/>
		<path class="st38" d="M885.2,349.6h1.2c0.7,0,1.1,0.6,1,1.3l-0.4,1.7c-0.1,0.4-0.5,0.8-1,0.8h-0.3c-0.5,0-0.9-0.3-1-0.8l-0.4-1.7
			C884,350.2,884.5,349.6,885.2,349.6z"/>
		<path class="st38" d="M905.5,349.6h1.2c0.7,0,1.1,0.6,1,1.3l-0.4,1.7c-0.1,0.4-0.5,0.8-1,0.8H906c-0.5,0-0.9-0.3-1-0.8l-0.4-1.7
			C904.4,350.2,904.8,349.6,905.5,349.6z"/>
		<path class="st38" d="M878.3,349.6h1.2c0.7,0,1.1,0.6,1,1.3l-0.4,1.7c-0.1,0.4-0.5,0.8-1,0.8h-0.3c-0.5,0-0.9-0.3-1-0.8l-0.4-1.7
			C877.2,350.2,877.7,349.6,878.3,349.6z"/>
	</g>
	<path class="st39" d="M887.6,340.2h3.8v0.1h0.1l0.6,0.7c1,1.2,2.5,1.8,4,1.8h11.4c1.6,0,3-0.7,4.1-1.8l0.5-0.6v-0.1h3.8
		c3,0,5.4,2.4,5.4,5.4v0.9c0,3-2.4,5.4-5.4,5.4h-28.3c-3,0-5.4-2.4-5.4-5.4v-0.9C882.1,342.6,884.6,340.2,887.6,340.2z"/>
	<g>
		<g>
			<path class="st40" d="M906.3,347.2h2.1c0.3,0,0.6-0.3,0.6-0.6l0,0c0-0.3-0.3-0.6-0.6-0.6h-2.1c-0.3,0-0.6,0.3-0.6,0.6l0,0
				C905.7,346.9,906,347.2,906.3,347.2z"/>
		</g>
		<g>
			<path class="st40" d="M895.1,347.2h2.1c0.3,0,0.6-0.3,0.6-0.6l0,0c0-0.3-0.3-0.6-0.6-0.6h-2.1c-0.3,0-0.6,0.3-0.6,0.6l0,0
				C894.5,346.9,894.7,347.2,895.1,347.2z"/>
		</g>
	</g>
	<g>
		<g>
			<circle class="st35" cx="898" cy="296.3" r="0.3"/>
		</g>
		<g>
			<circle class="st35" cx="899" cy="296.3" r="0.3"/>
		</g>
		<g>
			<circle class="st35" cx="900" cy="296.3" r="0.3"/>
		</g>
	</g>
	<path class="st40" d="M892.7,301.4h12.6c0.8,0,1.4,0.6,1.4,1.4v7.7c0,0.8-0.6,1.4-1.4,1.4h-12.6c-0.8,0-1.4-0.6-1.4-1.4v-7.7
		C891.3,302,891.9,301.4,892.7,301.4z"/>
	<g>
		<g>
			<path class="st36" d="M899,299.5c0.4,0,0.8-0.1,1.2-0.2c0.1,0,0.2-0.2,0.1-0.3c0-0.1-0.2-0.2-0.3-0.1c-0.3,0.1-0.7,0.2-1,0.2
				c-1.5,0-2.8-1.2-2.8-2.8c0-0.3,0.1-0.7,0.2-1c0-0.1,0-0.2-0.1-0.3c-0.1,0-0.2,0-0.3,0.1c-0.1,0.4-0.2,0.8-0.2,1.2
				C895.8,298,897.3,299.5,899,299.5z"/>
		</g>
		<g>
			<path class="st37" d="M901.8,297.5c0.1,0,0.2-0.1,0.2-0.1c0.1-0.4,0.2-0.7,0.2-1.1c0-1.8-1.4-3.2-3.2-3.2c-0.4,0-0.8,0.1-1.1,0.2
				c-0.1,0-0.2,0.2-0.1,0.3c0,0.1,0.2,0.2,0.3,0.1c0.3-0.1,0.6-0.2,1-0.2c1.5,0,2.8,1.2,2.8,2.8c0,0.3-0.1,0.7-0.2,1
				C901.6,297.4,901.7,297.5,901.8,297.5L901.8,297.5z"/>
		</g>
	</g>
	<g>
		<path class="st35" d="M902.3,318.7h1.9c0.4,0,0.8,0.4,0.8,0.8v1.3c0,0.4-0.4,0.8-0.8,0.8h-1.9c-0.4,0-0.8-0.4-0.8-0.8v-1.3
			C901.5,319.1,901.8,318.7,902.3,318.7z"/>
		<path class="st35" d="M897.5,318.7h1.9c0.4,0,0.8,0.4,0.8,0.8v1.3c0,0.4-0.4,0.8-0.8,0.8h-1.9c-0.4,0-0.8-0.4-0.8-0.8v-1.3
			C896.7,319.1,897,318.7,897.5,318.7z"/>
		<path class="st35" d="M892.7,318.7h1.9c0.4,0,0.8,0.4,0.8,0.8v1.3c0,0.4-0.4,0.8-0.8,0.8h-1.9c-0.4,0-0.8-0.4-0.8-0.8v-1.3
			C891.9,319.1,892.3,318.7,892.7,318.7z"/>
		<path class="st35" d="M902.3,322.7h1.9c0.4,0,0.8,0.4,0.8,0.8v1.3c0,0.4-0.4,0.8-0.8,0.8h-1.9c-0.4,0-0.8-0.4-0.8-0.8v-1.3
			C901.5,323.1,901.8,322.7,902.3,322.7z"/>
		<path class="st35" d="M897.5,322.7h1.9c0.4,0,0.8,0.4,0.8,0.8v1.3c0,0.4-0.4,0.8-0.8,0.8h-1.9c-0.4,0-0.8-0.4-0.8-0.8v-1.3
			C896.7,323.1,897,322.7,897.5,322.7z"/>
		<path class="st35" d="M892.7,322.7h1.9c0.4,0,0.8,0.4,0.8,0.8v1.3c0,0.4-0.4,0.8-0.8,0.8h-1.9c-0.4,0-0.8-0.4-0.8-0.8v-1.3
			C891.9,323.1,892.3,322.7,892.7,322.7z"/>
		<path class="st35" d="M902.3,326.7h1.9c0.4,0,0.8,0.4,0.8,0.8v1.3c0,0.4-0.4,0.8-0.8,0.8h-1.9c-0.4,0-0.8-0.4-0.8-0.8v-1.3
			C901.5,327.1,901.8,326.7,902.3,326.7z"/>
		<path class="st35" d="M897.5,326.7h1.9c0.4,0,0.8,0.4,0.8,0.8v1.3c0,0.4-0.4,0.8-0.8,0.8h-1.9c-0.4,0-0.8-0.4-0.8-0.8v-1.3
			C896.7,327.1,897,326.7,897.5,326.7z"/>
		<path class="st35" d="M892.7,326.7h1.9c0.4,0,0.8,0.4,0.8,0.8v1.3c0,0.4-0.4,0.8-0.8,0.8h-1.9c-0.4,0-0.8-0.4-0.8-0.8v-1.3
			C891.9,327.1,892.3,326.7,892.7,326.7z"/>
		<path class="st35" d="M902.3,330.7h1.9c0.4,0,0.8,0.4,0.8,0.8v1.3c0,0.4-0.4,0.8-0.8,0.8h-1.9c-0.4,0-0.8-0.4-0.8-0.8v-1.3
			C901.5,331.1,901.8,330.7,902.3,330.7z"/>
		<path class="st35" d="M897.5,330.7h1.9c0.4,0,0.8,0.4,0.8,0.8v1.3c0,0.4-0.4,0.8-0.8,0.8h-1.9c-0.4,0-0.8-0.4-0.8-0.8v-1.3
			C896.7,331.1,897,330.7,897.5,330.7z"/>
		<path class="st35" d="M892.7,330.7h1.9c0.4,0,0.8,0.4,0.8,0.8v1.3c0,0.4-0.4,0.8-0.8,0.8h-1.9c-0.4,0-0.8-0.4-0.8-0.8v-1.3
			C891.9,331.1,892.3,330.7,892.7,330.7z"/>
		<path class="st35" d="M902.3,334.7h1.9c0.4,0,0.8,0.4,0.8,0.8v1.3c0,0.4-0.4,0.8-0.8,0.8h-1.9c-0.4,0-0.8-0.4-0.8-0.8v-1.3
			C901.5,335,901.8,334.7,902.3,334.7z"/>
		<path class="st35" d="M897.5,334.7h1.9c0.4,0,0.8,0.4,0.8,0.8v1.3c0,0.4-0.4,0.8-0.8,0.8h-1.9c-0.4,0-0.8-0.4-0.8-0.8v-1.3
			C896.7,335,897,334.7,897.5,334.7z"/>
		<path class="st35" d="M892.7,334.7h1.9c0.4,0,0.8,0.4,0.8,0.8v1.3c0,0.4-0.4,0.8-0.8,0.8h-1.9c-0.4,0-0.8-0.4-0.8-0.8v-1.3
			C891.9,335,892.3,334.7,892.7,334.7z"/>
		<path class="st35" d="M895.4,314.4c0-0.5,0.4-1,1-1h4.3c0.5,0,1,0.4,1,1v2c0,0.5-0.4,1-1,1h-4.3c-0.5,0-1-0.4-1-1V314.4z"/>
		<path class="st35" d="M904.5,315h-1.6c-0.3,0-0.5-0.2-0.5-0.5V314c0-0.3,0.2-0.5,0.5-0.5h1.6c0.3,0,0.5,0.2,0.5,0.5v0.5
			C905,314.8,904.8,315,904.5,315z"/>
		<path class="st35" d="M904.5,317.3h-1.6c-0.3,0-0.5-0.2-0.5-0.5v-0.5c0-0.3,0.2-0.5,0.5-0.5h1.6c0.3,0,0.5,0.2,0.5,0.5v0.5
			C905,317.1,904.8,317.3,904.5,317.3z"/>
		<path class="st35" d="M894,315h-1.6c-0.3,0-0.5-0.2-0.5-0.5V314c0-0.3,0.2-0.5,0.5-0.5h1.6c0.3,0,0.5,0.2,0.5,0.5v0.5
			C894.5,314.8,894.3,315,894,315z"/>
		<path class="st35" d="M894,317.3h-1.6c-0.3,0-0.5-0.2-0.5-0.5v-0.5c0-0.3,0.2-0.5,0.5-0.5h1.6c0.3,0,0.5,0.2,0.5,0.5v0.5
			C894.5,317.1,894.3,317.3,894,317.3z"/>
	</g>
	<g>
		<path class="st36" d="M902.9,318.7h1.9c0.4,0,0.8,0.4,0.8,0.8v1.3c0,0.4-0.4,0.8-0.8,0.8h-1.9c-0.4,0-0.8-0.4-0.8-0.8v-1.3
			C902.1,319.1,902.4,318.7,902.9,318.7z"/>
		<path class="st36" d="M898.1,318.7h1.9c0.4,0,0.8,0.4,0.8,0.8v1.3c0,0.4-0.4,0.8-0.8,0.8h-1.9c-0.4,0-0.8-0.4-0.8-0.8v-1.3
			C897.3,319.1,897.6,318.7,898.1,318.7z"/>
		<path class="st36" d="M893.3,318.7h1.9c0.4,0,0.8,0.4,0.8,0.8v1.3c0,0.4-0.4,0.8-0.8,0.8h-1.9c-0.4,0-0.8-0.4-0.8-0.8v-1.3
			C892.5,319.1,892.8,318.7,893.3,318.7z"/>
		<path class="st36" d="M902.9,322.7h1.9c0.4,0,0.8,0.4,0.8,0.8v1.3c0,0.4-0.4,0.8-0.8,0.8h-1.9c-0.4,0-0.8-0.4-0.8-0.8v-1.3
			C902.1,323.1,902.4,322.7,902.9,322.7z"/>
		<path class="st36" d="M898.1,322.7h1.9c0.4,0,0.8,0.4,0.8,0.8v1.3c0,0.4-0.4,0.8-0.8,0.8h-1.9c-0.4,0-0.8-0.4-0.8-0.8v-1.3
			C897.3,323.1,897.6,322.7,898.1,322.7z"/>
		<path class="st36" d="M893.3,322.7h1.9c0.4,0,0.8,0.4,0.8,0.8v1.3c0,0.4-0.4,0.8-0.8,0.8h-1.9c-0.4,0-0.8-0.4-0.8-0.8v-1.3
			C892.5,323.1,892.8,322.7,893.3,322.7z"/>
		<path class="st36" d="M902.9,326.7h1.9c0.4,0,0.8,0.4,0.8,0.8v1.3c0,0.4-0.4,0.8-0.8,0.8h-1.9c-0.4,0-0.8-0.4-0.8-0.8v-1.3
			C902.1,327.1,902.4,326.7,902.9,326.7z"/>
		<path class="st36" d="M898.1,326.7h1.9c0.4,0,0.8,0.4,0.8,0.8v1.3c0,0.4-0.4,0.8-0.8,0.8h-1.9c-0.4,0-0.8-0.4-0.8-0.8v-1.3
			C897.3,327.1,897.6,326.7,898.1,326.7z"/>
		<path class="st36" d="M893.3,326.7h1.9c0.4,0,0.8,0.4,0.8,0.8v1.3c0,0.4-0.4,0.8-0.8,0.8h-1.9c-0.4,0-0.8-0.4-0.8-0.8v-1.3
			C892.5,327.1,892.8,326.7,893.3,326.7z"/>
		<path class="st36" d="M902.9,330.7h1.9c0.4,0,0.8,0.4,0.8,0.8v1.3c0,0.4-0.4,0.8-0.8,0.8h-1.9c-0.4,0-0.8-0.4-0.8-0.8v-1.3
			C902.1,331.1,902.4,330.7,902.9,330.7z"/>
		<path class="st36" d="M898.1,330.7h1.9c0.4,0,0.8,0.4,0.8,0.8v1.3c0,0.4-0.4,0.8-0.8,0.8h-1.9c-0.4,0-0.8-0.4-0.8-0.8v-1.3
			C897.3,331.1,897.6,330.7,898.1,330.7z"/>
		<path class="st36" d="M893.3,330.7h1.9c0.4,0,0.8,0.4,0.8,0.8v1.3c0,0.4-0.4,0.8-0.8,0.8h-1.9c-0.4,0-0.8-0.4-0.8-0.8v-1.3
			C892.5,331.1,892.8,330.7,893.3,330.7z"/>
		<path class="st36" d="M902.9,334.7h1.9c0.4,0,0.8,0.4,0.8,0.8v1.3c0,0.4-0.4,0.8-0.8,0.8h-1.9c-0.4,0-0.8-0.4-0.8-0.8v-1.3
			C902.1,335,902.4,334.7,902.9,334.7z"/>
		<path class="st36" d="M898.1,334.7h1.9c0.4,0,0.8,0.4,0.8,0.8v1.3c0,0.4-0.4,0.8-0.8,0.8h-1.9c-0.4,0-0.8-0.4-0.8-0.8v-1.3
			C897.3,335,897.6,334.7,898.1,334.7z"/>
		<path class="st36" d="M893.3,334.7h1.9c0.4,0,0.8,0.4,0.8,0.8v1.3c0,0.4-0.4,0.8-0.8,0.8h-1.9c-0.4,0-0.8-0.4-0.8-0.8v-1.3
			C892.5,335,892.8,334.7,893.3,334.7z"/>
		<path class="st36" d="M895.9,314.4c0-0.5,0.4-1,1-1h4.3c0.5,0,1,0.4,1,1v2c0,0.5-0.4,1-1,1h-4.3c-0.5,0-1-0.4-1-1V314.4z"/>
		<path class="st36" d="M905.1,315h-1.6c-0.3,0-0.5-0.2-0.5-0.5V314c0-0.3,0.2-0.5,0.5-0.5h1.6c0.3,0,0.5,0.2,0.5,0.5v0.5
			C905.6,314.8,905.4,315,905.1,315z"/>
		<path class="st36" d="M905.1,317.3h-1.6c-0.3,0-0.5-0.2-0.5-0.5v-0.5c0-0.3,0.2-0.5,0.5-0.5h1.6c0.3,0,0.5,0.2,0.5,0.5v0.5
			C905.6,317.1,905.4,317.3,905.1,317.3z"/>
		<path class="st36" d="M894.6,315H893c-0.3,0-0.5-0.2-0.5-0.5V314c0-0.3,0.2-0.5,0.5-0.5h1.6c0.3,0,0.5,0.2,0.5,0.5v0.5
			C895.1,314.8,894.9,315,894.6,315z"/>
		<path class="st36" d="M894.6,317.3H893c-0.3,0-0.5-0.2-0.5-0.5v-0.5c0-0.3,0.2-0.5,0.5-0.5h1.6c0.3,0,0.5,0.2,0.5,0.5v0.5
			C895.1,317.1,894.9,317.3,894.6,317.3z"/>
	</g>
</g>
<g>
	<circle class="st27" cx="989.6" cy="195.4" r="38.6"/>
	<circle class="st27" cx="861.5" cy="252" r="38.6"/>
	<g>
		<path class="st41" d="M970.2,209.5h38.7c0.5,0,0.9-0.4,0.9-0.9v-24.5c0-0.5-0.4-0.9-0.9-0.9h-38.7c-0.5,0-0.9,0.4-0.9,0.9v24.5
			C969.3,209.1,969.7,209.5,970.2,209.5z"/>
		<path class="st25" d="M984.8,196.2l-12.8-9.8c-0.3-0.2-0.3-0.6-0.1-0.9c0.2-0.3,0.6-0.3,0.9-0.1l16.8,12.8l17-12.9
			c0.3-0.2,0.7-0.2,0.9,0.1c0.2,0.3,0.2,0.7-0.1,0.9l-12.8,9.8l12.8,9.8c0.3,0.2,0.3,0.6,0.1,0.9c-0.1,0.2-0.3,0.3-0.5,0.3
			c-0.1,0-0.3,0-0.4-0.1l-13.1-10l-3.4,2.6c-0.1,0.1-0.3,0.1-0.4,0.1c-0.1,0-0.3,0-0.4-0.1l-3.2-2.5l-13.1,10
			c-0.1,0.1-0.3,0.1-0.4,0.1c-0.2,0-0.4-0.1-0.5-0.3c-0.2-0.3-0.2-0.7,0.1-0.9L984.8,196.2z"/>
	</g>
	<g>
		<path class="st41" d="M846,243.3c0-9.3,8-16.6,17.4-15.5c7.2,0.8,13,6.7,13.8,14c0.5,5.1-1.5,9.9-4.9,13c-2.7,2.6-4.4,5.9-4.4,9.7
			v1.6c0,1.1-0.9,2.1-2.1,2.1h-8.4c-1.1,0-2.1-0.9-2.1-2.1v-1.7c0-3.7-1.7-7.2-4.3-9.8C847.9,251.8,846,247.9,846,243.3z"/>
		<path class="st25" d="M859.6,265.6c-0.4,0-0.6-0.2-0.4-0.8c0-4.4-0.4-8.9-1.1-12.1c-2.4,0.1-3.5-1.1-3.9-1.6
			c-0.6-0.9-0.7-2.1-0.3-2.9c0.3-0.5,1-0.9,1.7-0.8c0.6,0.1,2.1,0.7,3.2,4.2h0.2c1-0.2,1.9-1,2.6-1.8c-0.8-1.7-1.2-4-0.6-5.1
			c0.3-0.7,1.1-1.1,1.9-1c0.5,0.1,1.4,0.4,1.4,2.1c0,1.4-0.6,3-1.5,4.3c0.2,0.3,0.4,0.6,0.7,0.8c0.5,0.4,1.2,0.7,1.9,0.8
			c0.1-0.2,0.2-0.3,0.3-0.5c1.7-3.1,3.5-3.6,4.4-3.2c0.8,0.3,1.1,1.4,0.8,2.4s-1.2,1.8-2.7,2.2c-0.7,0.1-1.5,0.2-2.3,0.2
			c-2,4.8-1.8,11.9-1.8,12c0,0.3-0.2,0.5-0.5,0.5s-0.5-0.2-0.5-0.5s-0.2-7.1,1.8-12.1c-0.8-0.2-1.6-0.5-2.2-1
			c-0.2-0.2-0.5-0.5-0.7-0.8c-0.8,1-1.8,1.7-3,1.9l0,0c0.7,2.6,1.1,6.4,1.1,12.2C860.1,265.4,859.9,265.6,859.6,265.6L859.6,265.6z
			 M866.5,251.8C866.4,251.8,866.4,251.9,866.5,251.8c0.5,0.1,1,0,1.4-0.1c1.1-0.4,1.8-0.9,2-1.5c0.1-0.5,0-1-0.3-1.1h-0.2
			C868.8,249.2,867.7,249.8,866.5,251.8z M855.3,248.8c-0.3,0-0.5,0.1-0.6,0.4c-0.2,0.4-0.3,1.2,0.2,1.8c0.5,0.7,1.5,1.1,2.7,1.1
			C857.1,250.1,856.3,248.9,855.3,248.8L855.3,248.8z M861.8,245.2c-0.4,0.9-0.2,2.5,0.3,3.9c0.6-1,0.9-2.3,0.9-3.2
			c0-0.3,0-0.9-0.4-1h-0.2C862.1,244.9,861.8,245,861.8,245.2z"/>
		<path class="st37" d="M855.5,270v-0.2c0-0.9,0.8-1.6,1.6-1.6h9.2c0.9,0,1.6,0.8,1.6,1.6v0.2c0,0.9-0.8,1.6-1.6,1.6h-9.2
			C856.2,271.6,855.6,271,855.5,270z M855.5,273.4v-0.2c0-0.9,0.8-1.6,1.6-1.6h9.2c0.9,0,1.6,0.8,1.6,1.6v0.2c0,0.9-0.8,1.6-1.6,1.6
			h-9.2C856.2,274.9,855.6,274.2,855.5,273.4z"/>
		<path class="st42" d="M860.4,279.7h2.6c0.4,0,0.8-0.2,1.1-0.6l0.9-1.4h-6.6l0.9,1.4C859.6,279.5,860,279.7,860.4,279.7z"/>
		<path class="st37" d="M857.1,278h9.2c0.8,0,1.6-0.7,1.6-1.6v-0.2c0-0.8-0.7-1.6-1.6-1.6h-9.2c-0.8,0-1.6,0.7-1.6,1.6v0.2
			C855.6,277.3,856.2,278,857.1,278z"/>
		<path class="st43" d="M848.8,244c-0.3,0-0.5-0.2-0.6-0.5c0-1,0.2-2.2,0.4-3.2c0.1-0.3,0.3-0.5,0.6-0.4s0.5,0.3,0.4,0.6
			c-0.2,1-0.3,2-0.3,3C849.3,243.8,849.1,244,848.8,244L848.8,244z M850,238.4c-0.2-0.2-0.3-0.5-0.2-0.7c2.3-4.7,7.1-7.7,12.3-7.7
			c0.3,0,0.5,0.2,0.5,0.5s-0.2,0.5-0.5,0.5c-4.8,0-9.2,2.7-11.4,7.1c-0.1,0.2-0.3,0.3-0.5,0.3C850.1,238.4,850,238.3,850,238.4z"/>
		<path class="st42" d="M857.3,271.6c0-0.3,0.2-0.5,0.5-0.5h7.7c0.3,0,0.5,0.2,0.5,0.5s-0.2,0.5-0.5,0.5h-7.7
			C857.5,272.1,857.3,271.9,857.3,271.6z M857.3,274.9c0-0.3,0.2-0.5,0.5-0.5h7.7c0.3,0,0.5,0.2,0.5,0.5s-0.2,0.5-0.5,0.5h-7.7
			C857.5,275.4,857.3,275.2,857.3,274.9z"/>
	</g>
	<polygon class="st27" points="997.7,228.9 989.6,245.9 981.4,228.9 	"/>
	<polygon class="st27" points="896.6,251 911.4,262.8 892.9,266.9 	"/>
	<g>
		<circle class="st27" cx="887.3" cy="159.7" r="28.5"/>
		<rect x="894.7" y="153.3" class="st25" width="7" height="4.1"/>
		<rect x="880.6" y="162.9" class="st25" width="7" height="9.4"/>
		<g>
			<rect x="872.6" y="146.9" class="st41" width="30.1" height="5.5"/>
			<path class="st41" d="M901.4,153.6v18.2H874v-18.2H901.4 M902.7,152.2h-30.1v20.9h30.1V152.2L902.7,152.2z"/>
			<g>
				<rect x="894" y="152.9" class="st41" width="1.4" height="19"/>
			</g>
			<g>
				<rect x="887" y="152.9" class="st41" width="1.4" height="19"/>
			</g>
			<g>
				<rect x="879.9" y="152.9" class="st41" width="1.4" height="19"/>
			</g>
			<g>
				<rect x="873.5" y="157.2" class="st41" width="28.3" height="1.3"/>
			</g>
			<g>
				<rect x="873.5" y="161.9" class="st41" width="28.3" height="1.3"/>
			</g>
			<g>
				<rect x="873.5" y="166.7" class="st41" width="28.3" height="1.3"/>
			</g>
		</g>
		<polygon class="st27" points="906.4,172.4 910.6,190.9 893.6,182.6 		"/>
	</g>
</g>
</svg>
