<svg width="942" height="791" viewBox="0 0 942 791" fill="none" xmlns="http://www.w3.org/2000/svg">
<g clip-path="url(#clip0)">
<path d="M942 0H0V791H942V0Z" fill="#F1F1F1"/>
<path opacity="0.51" d="M811.3 181.1C761.6 204.3 740.3 251.3 721.6 294.3C703 337.3 679.2 384.1 627.5 404.6C574.8 425.5 509.7 412.1 453.6 426.7C406 439 370.7 469.8 332.8 495.6C286.4 527.2 260 572 166 596C103 612.1 42.4 592.7 0 547.4V791H942V166.9C897.2 163.5 849.8 163.1 811.3 181.1Z" fill="url(#paint0_linear)"/>
<path d="M385.5 449.6C385.1 449.6 384.8 449.3 384.6 449C374.9 455.4 365.6 462.1 356.3 468.7C349 473.9 341.4 479.4 333.9 484.5C320.9 493.3 309.7 503 297.8 513.3C267 540 235 567.6 167.2 584.9C135.4 593 102.9 592.2 73.2 582.5C45.7 573.5 20.5 557 0 534.6V536.1C20.5 558.3 45.5 574.6 72.9 583.5C89.2 588.8 106.3 591.5 123.7 591.5C138.2 591.5 152.9 589.6 167.4 585.9C235.4 568.5 267.5 540.8 298.5 514.1C310.4 503.9 321.6 494.2 334.5 485.4C342 480.3 349.6 474.8 357 469.6C366.3 462.8 375.8 456 385.5 449.6Z" fill="url(#paint1_linear)"/>
<path d="M812.4 170C761.3 193.9 739.8 243.6 722.5 283.5C704.1 326 680.2 373.1 628.7 393.6C599.7 405.1 566.3 406.2 533.9 407.3C507.4 408.2 480.1 409.1 454.8 415.6C430.6 421.9 409.5 433 389.7 445.7C389.5 446.2 389.4 446.7 389.2 447.2C409.2 434.3 430.6 422.9 455.1 416.6C480.2 410.1 507.5 409.2 533.9 408.3C566.3 407.2 599.8 406.1 629 394.5C680.8 373.9 704.9 326.6 723.3 283.9C740.5 244.1 761.9 194.6 812.7 170.9C850.4 153.3 896.7 153.3 941.8 156.7V155.7C896.7 152.3 850.3 152.3 812.4 170Z" fill="url(#paint2_linear)"/>
<path d="M761.13 316.819H478.27V504.096C478.27 508.491 481.904 512.125 486.299 512.125H753.185C757.58 512.125 761.214 508.491 761.214 504.096V384.09V332.2V316.904H761.13V316.819Z" fill="#F1F1F1"/>
<path opacity="0.6" d="M761.13 316.819H478.27V504.096C478.27 508.491 481.904 512.125 486.299 512.125H753.185C757.58 512.125 761.214 508.491 761.214 504.096V384.09V332.2V316.904H761.13V316.819Z" fill="url(#paint3_linear)"/>
<path opacity="0.61" d="M320.91 334.398C320.91 333.046 322.009 331.947 323.361 331.947C324.544 331.947 325.558 332.792 325.727 333.891V334.652C325.558 335.75 324.544 336.595 323.361 336.595C322.009 336.764 320.91 335.666 320.91 334.398Z" fill="url(#paint4_linear)"/>
<path opacity="0.61" d="M311.107 334.398C311.107 333.046 312.206 331.947 313.558 331.947C314.91 331.947 316.009 333.046 316.009 334.398C316.009 335.75 314.91 336.849 313.558 336.849C312.121 336.764 311.107 335.666 311.107 334.398Z" fill="url(#paint5_linear)"/>
<path opacity="0.61" d="M301.135 334.398C301.135 333.046 302.233 331.947 303.585 331.947C304.938 331.947 306.036 333.046 306.036 334.398C306.036 335.75 304.938 336.849 303.585 336.849C302.233 336.764 301.135 335.666 301.135 334.398Z" fill="url(#paint6_linear)"/>
<path opacity="0.6" d="M266.231 435.812C254.231 435.812 243.413 441.305 236.399 450.009C235.131 451.531 233.187 452.376 231.244 452.122C230.145 451.953 229.046 451.953 227.863 451.953C215.44 451.953 204.623 458.883 199.045 469.024C197.946 470.968 195.918 472.236 193.636 472.236C193.552 472.236 193.467 472.236 193.467 472.236C182.565 472.236 173.438 479.926 171.241 490.237C170.733 492.688 172.593 494.969 175.044 494.969H271.471V436.15C269.781 435.981 268.006 435.812 266.231 435.812Z" fill="url(#paint7_linear)"/>
<path opacity="0.6" d="M295.303 546.014C286.176 546.014 278.739 538.577 278.739 529.45V260.197C277.218 260.535 275.612 260.704 274.007 260.704C273.161 260.704 272.316 260.619 271.471 260.535V313.016H272.57C275.866 313.016 278.486 315.636 278.486 318.932V375.808V387.893C278.486 391.865 274.852 394.316 271.471 393.725V436.149V494.969V529.45C271.471 534.605 273.838 539.338 277.556 542.296C280.345 544.577 284.063 546.014 288.035 546.014H295.303Z" fill="url(#paint8_linear)"/>
<path opacity="0.6" d="M621.433 262.14C622.785 262.14 623.63 260.619 622.785 259.521C620.926 256.985 617.968 255.295 614.587 255.295C613.827 255.295 613.066 255.38 612.305 255.549C610.784 255.887 609.094 255.211 608.333 253.858C605.46 248.534 599.798 244.985 593.29 244.985C592.192 244.985 591.178 245.069 590.079 245.323C588.22 245.661 586.445 244.478 585.938 242.703C582.557 229.688 570.641 220.223 556.528 220.73C556.443 220.73 556.443 220.73 556.443 220.73V262.225H621.433V262.14Z" fill="url(#paint9_linear)"/>
<path opacity="0.6" d="M847.247 380.203C845.726 376.823 842.43 374.541 838.542 374.541C836.767 374.541 835.077 373.611 834.232 372.005C831.021 365.414 824.26 360.85 816.485 360.85C816.4 360.85 816.4 360.85 816.4 360.85C814.964 341.919 799.16 327.045 779.891 327.045C773.046 327.045 766.623 328.905 761.214 332.201V384.091H844.796C846.74 384.091 848.092 382.062 847.247 380.203Z" fill="url(#paint10_linear)"/>
<path opacity="0.6" d="M418.098 279.212H418.014C415.14 279.212 412.774 276.845 412.774 273.972V259.774C412.858 259.774 412.858 259.69 412.858 259.69V239.999H397.393V245.745C397.393 247.774 395.703 249.464 393.674 249.464H332.066C330.037 249.464 328.347 247.774 328.347 245.745V239.999H296.909C296.74 239.999 296.571 239.999 296.402 239.999C295.726 247.013 291.923 253.182 286.345 256.816V528.182C286.345 534.013 291.078 538.746 296.909 538.746H429.169C435 538.746 439.733 534.013 439.733 528.182V478.067H364.856C361.983 478.067 359.701 475.785 359.701 472.912V443.248C359.701 440.375 361.983 438.093 364.856 438.093H439.649V279.212H418.098ZM391.646 390.429C391.646 393.302 389.28 395.668 386.406 395.668H345.165C342.291 395.668 339.925 393.302 339.925 390.429V349.272C339.925 346.398 342.291 344.032 345.165 344.032H386.406C389.28 344.032 391.646 346.398 391.646 349.272V390.429Z" fill="url(#paint11_linear)"/>
<path opacity="0.6" d="M439.818 528.351C439.818 534.183 435.085 538.915 429.254 538.915H296.993C291.162 538.915 286.43 534.183 286.43 528.351V256.985C284.148 258.507 281.528 259.605 278.739 260.197V529.534C278.739 538.662 286.176 546.099 295.303 546.099H423.253H430.521C434.493 546.099 438.127 544.746 441.001 542.38C444.719 539.338 447.086 534.69 447.086 529.534V478.236H439.818V528.351Z" fill="url(#paint12_linear)"/>
<path opacity="0.6" d="M296.571 240.083C296.74 240.083 296.909 240.083 297.078 240.083H328.516V245.83C328.516 247.858 330.206 249.549 332.235 249.549H393.843C395.872 249.549 397.562 247.858 397.562 245.83V240.083H413.027V232.9H296.064C296.486 234.59 296.655 236.28 296.655 238.055C296.655 238.816 296.571 239.492 296.571 240.083ZM342.46 243.126C341.446 243.126 340.686 242.281 340.686 241.351C340.686 240.337 341.531 239.576 342.46 239.576C343.475 239.576 344.235 240.421 344.235 241.351C344.235 242.365 343.475 243.126 342.46 243.126ZM382.603 242.112H352.179C351.757 242.112 351.419 241.774 351.419 241.351C351.419 240.928 351.757 240.59 352.179 240.59H382.603C383.026 240.59 383.364 240.928 383.364 241.351C383.364 241.774 383.026 242.112 382.603 242.112Z" fill="url(#paint13_linear)"/>
<path opacity="0.6" d="M386.322 343.948H345.081C342.207 343.948 339.841 346.314 339.841 349.187V390.429C339.841 393.302 342.207 395.669 345.081 395.669H386.322C389.195 395.669 391.562 393.302 391.562 390.429V349.272C391.646 346.314 389.28 343.948 386.322 343.948Z" fill="url(#paint14_linear)"/>
<path opacity="0.6" d="M761.13 309.383C761.13 304.988 757.496 301.354 753.101 301.354H486.215C481.82 301.354 478.186 304.988 478.186 309.383V316.82H761.13V309.383V309.383ZM489.933 312.509C488.074 312.509 486.553 310.988 486.553 309.129C486.553 307.27 488.074 305.749 489.933 305.749C491.792 305.749 493.314 307.27 493.314 309.129C493.229 311.073 491.708 312.509 489.933 312.509ZM501.68 312.509C499.821 312.509 498.3 310.988 498.3 309.129C498.3 307.27 499.821 305.749 501.68 305.749C503.539 305.749 505.061 307.27 505.061 309.129C504.976 311.073 503.455 312.509 501.68 312.509ZM513.427 312.509C511.568 312.509 510.047 310.988 510.047 309.129C510.047 307.27 511.568 305.749 513.427 305.749C515.286 305.749 516.808 307.27 516.808 309.129C516.723 311.073 515.202 312.509 513.427 312.509Z" fill="url(#paint15_linear)"/>
<path opacity="0.6" d="M637.912 407.923C637.912 410.712 635.631 412.909 632.926 412.909H614.925H557.289H506.582H495.004C492.215 412.909 490.018 410.627 490.018 407.923V344.033C490.018 341.244 492.299 339.046 495.004 339.046H633.011C635.8 339.046 637.997 341.328 637.997 344.033V407.923H637.912Z" fill="url(#paint16_linear)"/>
<path opacity="0.6" d="M278.486 387.978V375.893V318.932C278.486 315.636 275.866 313.017 272.57 313.017H271.471H153.916C150.62 313.017 148 315.636 148 318.932V369.893C148 373.189 150.62 375.809 153.916 375.809H249.667C251.273 375.809 252.794 376.485 253.808 377.499L268.344 392.035C269.274 392.964 270.372 393.471 271.471 393.64C274.852 394.401 278.486 391.95 278.486 387.978ZM169.973 354.85C164.142 354.85 159.325 350.117 159.325 344.201C159.325 338.37 164.057 333.553 169.973 333.553C175.804 333.553 180.621 338.285 180.621 344.201C180.621 350.117 175.804 354.85 169.973 354.85ZM265.302 356.286H190.678C190.171 356.286 189.749 355.864 189.749 355.357C189.749 354.85 190.171 354.427 190.678 354.427H265.302C265.809 354.427 266.231 354.85 266.231 355.357C266.147 355.864 265.809 356.286 265.302 356.286ZM265.302 345.215H190.678C190.171 345.215 189.749 344.793 189.749 344.286C189.749 343.779 190.171 343.356 190.678 343.356H265.302C265.809 343.356 266.231 343.779 266.231 344.286C266.147 344.793 265.809 345.215 265.302 345.215ZM265.302 334.144H190.678C190.171 334.144 189.749 333.722 189.749 333.215C189.749 332.708 190.171 332.285 190.678 332.285H265.302C265.809 332.285 266.231 332.708 266.231 333.215C266.147 333.722 265.809 334.144 265.302 334.144Z" fill="url(#paint17_linear)"/>
<path opacity="0.6" d="M265.302 332.201H190.678C190.171 332.201 189.749 332.623 189.749 333.13C189.749 333.637 190.171 334.06 190.678 334.06H265.302C265.809 334.06 266.231 333.637 266.231 333.13C266.147 332.623 265.809 332.201 265.302 332.201Z" fill="url(#paint18_linear)"/>
<path opacity="0.6" d="M265.302 343.356H190.678C190.171 343.356 189.749 343.779 189.749 344.286C189.749 344.793 190.171 345.216 190.678 345.216H265.302C265.809 345.216 266.231 344.793 266.231 344.286C266.147 343.779 265.809 343.356 265.302 343.356Z" fill="url(#paint19_linear)"/>
<path opacity="0.6" d="M265.302 354.427H190.678C190.171 354.427 189.749 354.849 189.749 355.356C189.749 355.863 190.171 356.286 190.678 356.286H265.302C265.809 356.286 266.231 355.863 266.231 355.356C266.147 354.849 265.809 354.427 265.302 354.427Z" fill="url(#paint20_linear)"/>
<path opacity="0.6" d="M169.973 354.85C175.804 354.85 180.621 350.117 180.621 344.201C180.621 338.37 175.889 333.553 169.973 333.553C164.142 333.553 159.324 338.285 159.324 344.201C159.324 350.117 164.142 354.85 169.973 354.85Z" fill="url(#paint21_linear)"/>
<path opacity="0.6" d="M412.858 259.775C414.549 258.507 416.408 257.324 418.352 256.479C434.24 250.14 453.339 267.465 468.382 259.183C477.087 254.366 480.129 242.703 488.75 237.802C500.919 230.787 517.145 240.675 530.329 235.604C540.64 231.632 546.133 219.463 556.443 215.575V215.491H556.528V211.941C556.528 209.068 554.161 206.701 551.288 206.701H418.098C415.225 206.701 412.858 209.068 412.858 211.941V232.9V240.083V259.775Z" fill="url(#paint22_linear)"/>
<path opacity="0.6" d="M556.443 273.973V215.575C546.049 219.463 540.64 231.632 530.329 235.604C517.146 240.675 501.004 230.787 488.75 237.802C480.13 242.788 477.087 254.366 468.383 259.183C453.424 267.465 434.24 250.14 418.352 256.479C416.324 257.324 414.549 258.422 412.859 259.775C412.774 259.775 412.774 259.859 412.774 259.859V274.057C412.774 276.93 415.14 279.297 418.014 279.297H418.098H439.818H447.086H551.204C554.162 279.212 556.443 276.846 556.443 273.973Z" fill="url(#paint23_linear)"/>
<path opacity="0.6" d="M391.731 446.122H373.476C371.87 446.122 370.518 447.474 370.518 449.079V467.334C370.518 468.94 371.87 470.292 373.476 470.292H391.731C393.336 470.292 394.689 468.94 394.689 467.334V449.079C394.773 447.474 393.421 446.122 391.731 446.122Z" fill="url(#paint24_linear)"/>
<path opacity="0.6" d="M278.739 260.197C281.528 259.606 284.148 258.507 286.43 256.986C292.007 253.267 295.895 247.182 296.486 240.168C296.571 239.492 296.571 238.816 296.571 238.14C296.571 236.365 296.317 234.675 295.979 232.985C293.698 223.012 284.739 215.575 274.006 215.575C261.499 215.575 251.442 225.717 251.442 238.14C251.442 249.718 260.147 259.268 271.471 260.535C272.316 260.62 273.161 260.704 274.006 260.704C275.697 260.704 277.302 260.535 278.739 260.197ZM271.049 224.956C271.049 223.35 272.316 222.083 273.922 222.083C275.528 222.083 276.795 223.35 276.795 224.956V239.745C276.795 241.351 275.528 242.619 273.922 242.619C272.316 242.619 271.049 241.351 271.049 239.745V224.956ZM270.457 249.211C270.457 247.267 272.063 245.577 274.091 245.577C276.035 245.577 277.725 247.182 277.725 249.211C277.725 251.154 276.119 252.845 274.091 252.845C272.063 252.76 270.457 251.154 270.457 249.211Z" fill="url(#paint25_linear)"/>
<path opacity="0.6" d="M273.922 242.534C275.528 242.534 276.795 241.267 276.795 239.661V224.956C276.795 223.35 275.528 222.083 273.922 222.083C272.316 222.083 271.049 223.35 271.049 224.956V239.745C271.049 241.267 272.316 242.534 273.922 242.534Z" fill="url(#paint26_linear)"/>
<path opacity="0.6" d="M274.091 252.76C276.119 252.76 277.725 251.154 277.725 249.126C277.725 247.098 276.119 245.492 274.091 245.492C272.063 245.492 270.457 247.098 270.457 249.126C270.457 251.154 272.063 252.76 274.091 252.76Z" fill="url(#paint27_linear)"/>
<g opacity="0.45">
<path opacity="0.45" d="M655.237 343.018H732.903C733.41 343.018 733.833 342.596 733.833 342.089C733.833 341.582 733.41 341.159 732.903 341.159H655.237C654.73 341.159 654.308 341.582 654.308 342.089C654.308 342.511 654.73 343.018 655.237 343.018Z" fill="#A078B4"/>
<path opacity="0.45" d="M732.903 352.23H655.152C654.645 352.23 654.223 352.653 654.223 353.16C654.223 353.667 654.645 354.089 655.152 354.089H732.903C733.41 354.089 733.832 353.667 733.832 353.16C733.832 352.653 733.494 352.23 732.903 352.23Z" fill="#A078B4"/>
<path opacity="0.45" d="M732.903 363.301H655.152C654.645 363.301 654.223 363.724 654.223 364.231C654.223 364.738 654.645 365.161 655.152 365.161H732.903C733.41 365.161 733.832 364.738 733.832 364.231C733.832 363.724 733.494 363.301 732.903 363.301Z" fill="#A078B4"/>
<path opacity="0.45" d="M732.903 374.372H655.152C654.645 374.372 654.223 374.794 654.223 375.301C654.223 375.808 654.645 376.231 655.152 376.231H732.903C733.41 376.231 733.832 375.808 733.832 375.301C733.832 374.879 733.494 374.372 732.903 374.372Z" fill="#A078B4"/>
<path opacity="0.45" d="M732.903 385.527H655.152C654.645 385.527 654.223 385.95 654.223 386.457C654.223 386.964 654.645 387.387 655.152 387.387H732.903C733.41 387.387 733.832 386.964 733.832 386.457C733.832 385.95 733.494 385.527 732.903 385.527Z" fill="#A078B4"/>
<path opacity="0.45" d="M732.903 396.599H655.152C654.645 396.599 654.223 397.021 654.223 397.528C654.223 398.035 654.645 398.458 655.152 398.458H732.903C733.41 398.458 733.832 398.035 733.832 397.528C733.832 397.021 733.494 396.599 732.903 396.599Z" fill="#A078B4"/>
<path opacity="0.45" d="M701.211 407.669H655.152C654.645 407.669 654.223 408.092 654.223 408.599C654.223 409.106 654.645 409.529 655.152 409.529H701.211C701.718 409.529 702.141 409.106 702.141 408.599C702.141 408.092 701.718 407.669 701.211 407.669Z" fill="#A078B4"/>
</g>
<path opacity="0.6" d="M575.712 457.87C580.107 457.87 583.741 454.32 583.741 449.841C583.741 445.362 580.191 441.812 575.712 441.812C571.318 441.812 567.684 445.362 567.684 449.841C567.684 454.32 571.233 457.87 575.712 457.87Z" fill="url(#paint28_linear)"/>
<path opacity="0.6" d="M590.501 447.728H623.122C623.629 447.728 624.052 447.306 624.052 446.799C624.052 446.292 623.629 445.869 623.122 445.869H590.501C589.994 445.869 589.571 446.292 589.571 446.799C589.571 447.306 589.994 447.728 590.501 447.728Z" fill="url(#paint29_linear)"/>
<path opacity="0.6" d="M590.501 453.898H610.192C610.699 453.898 611.122 453.475 611.122 452.968C611.122 452.461 610.699 452.039 610.192 452.039H590.501C589.994 452.039 589.571 452.461 589.571 452.968C589.571 453.475 589.994 453.898 590.501 453.898Z" fill="url(#paint30_linear)"/>
<path opacity="0.6" d="M575.712 481.448C580.106 481.448 583.74 477.899 583.74 473.42C583.74 469.025 580.191 465.391 575.712 465.391C571.317 465.391 567.683 468.941 567.683 473.42C567.683 477.814 571.233 481.448 575.712 481.448Z" fill="url(#paint31_linear)"/>
<path opacity="0.6" d="M623.122 469.363H590.501C589.994 469.363 589.571 469.786 589.571 470.293C589.571 470.8 589.994 471.223 590.501 471.223H623.122C623.629 471.223 624.052 470.8 624.052 470.293C624.052 469.786 623.629 469.363 623.122 469.363Z" fill="url(#paint32_linear)"/>
<path opacity="0.6" d="M681.435 459.307H667.66C666.054 459.307 664.702 460.659 664.702 462.265V500.379H684.478V462.265C684.393 460.659 683.041 459.307 681.435 459.307Z" fill="url(#paint33_linear)"/>
<path opacity="0.6" d="M709.324 449.926H695.549C693.943 449.926 692.591 451.278 692.591 452.884V500.379H712.366V452.884C712.366 451.193 711.014 449.926 709.324 449.926Z" fill="url(#paint34_linear)"/>
<path opacity="0.6" d="M632.926 338.962H495.004C492.215 338.962 490.018 341.244 490.018 343.948V407.839C490.018 410.628 492.299 412.825 495.004 412.825H506.582L543.598 356.794C544.781 355.019 547.401 355.019 548.584 356.794L571.487 391.359L583.656 372.935C584.839 371.161 587.459 371.161 588.642 372.935L614.925 412.825H632.926C635.715 412.825 637.912 410.543 637.912 407.839V343.948C637.912 341.244 635.715 338.962 632.926 338.962ZM610.193 369.301C604.361 369.301 599.544 364.569 599.544 358.653C599.544 352.737 604.277 348.005 610.193 348.005C616.024 348.005 620.841 352.737 620.841 358.653C620.841 364.569 616.108 369.301 610.193 369.301Z" fill="url(#paint35_linear)"/>
<path opacity="0.6" d="M548.584 356.963C547.401 355.188 544.781 355.188 543.597 356.963L506.582 412.994H557.288L571.402 391.613L548.584 356.963Z" fill="url(#paint36_linear)"/>
<path opacity="0.6" d="M583.656 373.104L571.486 391.528L557.373 412.909H615.009L588.726 373.02C587.374 371.245 584.754 371.245 583.656 373.104Z" fill="url(#paint37_linear)"/>
<path opacity="0.6" d="M610.193 369.302C616.024 369.302 620.841 364.569 620.841 358.653C620.841 352.822 616.109 348.005 610.193 348.005C604.362 348.005 599.544 352.738 599.544 358.653C599.629 364.569 604.362 369.302 610.193 369.302Z" fill="url(#paint38_linear)"/>
<path opacity="0.6" d="M465.086 438.178H447.17H439.902H365.11C362.236 438.178 359.954 440.46 359.954 443.333V472.997C359.954 475.87 362.236 478.152 365.11 478.152H439.902H447.17H465.086C467.96 478.152 470.242 475.87 470.242 472.997V443.333C470.242 440.545 467.875 438.178 465.086 438.178ZM394.773 467.335C394.773 468.94 393.421 470.293 391.815 470.293H373.561C371.955 470.293 370.603 468.94 370.603 467.335V449.08C370.603 447.474 371.955 446.122 373.561 446.122H391.815C393.421 446.122 394.773 447.474 394.773 449.08V467.335ZM460.354 466.997H405.506C405.252 466.997 404.999 466.743 404.999 466.49C404.999 466.236 405.252 465.982 405.506 465.982H460.354C460.607 465.982 460.861 466.236 460.861 466.49C460.861 466.743 460.607 466.997 460.354 466.997ZM460.354 458.714H405.506C405.252 458.714 404.999 458.461 404.999 458.207C404.999 457.954 405.252 457.7 405.506 457.7H460.354C460.607 457.7 460.861 457.954 460.861 458.207C460.861 458.461 460.607 458.714 460.354 458.714ZM460.354 450.348H405.506C405.252 450.348 404.999 450.094 404.999 449.841C404.999 449.587 405.252 449.334 405.506 449.334H460.354C460.607 449.334 460.861 449.587 460.861 449.841C460.861 450.179 460.607 450.348 460.354 450.348Z" fill="url(#paint39_linear)"/>
<path opacity="0.6" d="M722.508 495.73C722.508 498.266 720.395 500.463 717.775 500.463H712.282H692.506H684.309H664.533H658.533C655.998 500.463 653.8 498.35 653.8 495.73V436.572C653.8 434.037 655.913 431.84 658.533 431.84H717.691C720.226 431.84 722.423 433.953 722.423 436.572V495.73H722.508Z" fill="url(#paint40_linear)"/>
<path opacity="0.6" d="M635.292 500.886C635.292 503.674 633.01 505.956 630.221 505.956H624.306H603.009H594.135H572.838H566.331C563.542 505.956 561.26 503.674 561.26 500.886V436.995C561.26 434.206 563.542 431.924 566.331 431.924H630.221C633.01 431.924 635.292 434.206 635.292 436.995V500.886V500.886Z" fill="url(#paint41_linear)"/>
<path opacity="0.6" d="M575.712 528.183C571.318 528.183 567.684 524.549 567.684 520.154C567.684 515.759 571.318 512.125 575.712 512.125C580.107 512.125 583.741 515.759 583.741 520.154C583.741 524.549 580.107 528.183 575.712 528.183ZM575.712 504.942C571.318 504.942 567.684 501.308 567.684 496.913C567.684 492.519 571.318 488.885 575.712 488.885C580.107 488.885 583.741 492.519 583.741 496.913C583.741 501.308 580.107 504.942 575.712 504.942ZM575.712 481.448C571.318 481.448 567.684 477.814 567.684 473.419C567.684 469.025 571.318 465.391 575.712 465.391C580.107 465.391 583.741 469.025 583.741 473.419C583.741 477.814 580.107 481.448 575.712 481.448ZM575.712 457.869C571.318 457.869 567.684 454.235 567.684 449.841C567.684 445.446 571.318 441.812 575.712 441.812C580.107 441.812 583.741 445.446 583.741 449.841C583.741 454.32 580.107 457.869 575.712 457.869ZM610.193 524.126H590.502C589.995 524.126 589.572 523.703 589.572 523.196C589.572 522.689 589.995 522.267 590.502 522.267H610.193C610.7 522.267 611.122 522.689 611.122 523.196C611.207 523.703 610.7 524.126 610.193 524.126ZM623.123 518.041H590.502C589.995 518.041 589.572 517.619 589.572 517.112C589.572 516.605 589.995 516.182 590.502 516.182H623.123C623.63 516.182 624.053 516.605 624.053 517.112C624.053 517.619 623.63 518.041 623.123 518.041ZM589.572 500.04C589.572 499.533 589.995 499.111 590.502 499.111H610.193C610.7 499.111 611.122 499.533 611.122 500.04C611.122 500.547 610.7 500.97 610.193 500.97H590.502C589.995 500.885 589.572 500.547 589.572 500.04ZM623.123 494.716H590.502C589.995 494.716 589.572 494.294 589.572 493.786C589.572 493.279 589.995 492.857 590.502 492.857H623.123C623.63 492.857 624.053 493.279 624.053 493.786C624.053 494.294 623.63 494.716 623.123 494.716ZM589.572 476.462C589.572 475.955 589.995 475.532 590.502 475.532H610.193C610.7 475.532 611.122 475.955 611.122 476.462C611.122 476.969 610.7 477.391 610.193 477.391H590.502C589.995 477.476 589.572 476.969 589.572 476.462ZM623.123 471.306H590.502C589.995 471.306 589.572 470.884 589.572 470.377C589.572 469.87 589.995 469.447 590.502 469.447H623.123C623.63 469.447 624.053 469.87 624.053 470.377C624.053 470.884 623.63 471.306 623.123 471.306ZM589.572 452.968C589.572 452.46 589.995 452.038 590.502 452.038H610.193C610.7 452.038 611.122 452.46 611.122 452.968C611.122 453.475 610.7 453.897 610.193 453.897H590.502C589.995 453.897 589.572 453.475 589.572 452.968ZM623.123 447.728H590.502C589.995 447.728 589.572 447.305 589.572 446.798C589.572 446.291 589.995 445.869 590.502 445.869H623.123C623.63 445.869 624.053 446.291 624.053 446.798C624.053 447.305 623.63 447.728 623.123 447.728Z" fill="url(#paint42_linear)"/>
<path opacity="0.6" d="M487.8 259.4C490.1 259.4 492 257.5 492 255.2C492 252.9 490.1 251 487.8 251C485.5 251 483.6 252.9 483.6 255.2C483.6 257.5 485.4 259.4 487.8 259.4Z" fill="#E5D5ED"/>
<path opacity="0.6" d="M503.4 259.3C505.7 258.9 507.3 256.7 506.9 254.4C506.5 252.1 504.3 250.5 502 250.9C499.7 251.3 498.1 253.5 498.5 255.8C498.9 258.2 501.1 259.7 503.4 259.3Z" fill="#E5D5ED"/>
<path opacity="0.6" d="M517.6 259.4C519.9 259.4 521.8 257.5 521.8 255.2C521.8 252.9 519.9 251 517.6 251C515.3 251 513.4 252.9 513.4 255.2C513.4 257.5 515.3 259.4 517.6 259.4Z" fill="#E5D5ED"/>
<path opacity="0.6" d="M450.2 433.3H380.5C380.2 433.3 379.9 433.6 379.9 433.9C379.9 434.2 380.2 434.5 380.5 434.5H450.2C450.5 434.5 450.8 434.2 450.8 433.9C450.8 433.6 450.6 433.3 450.2 433.3Z" fill="url(#paint43_linear)"/>
<path opacity="0.6" d="M615.6 468.8H640.6C641.3 468.8 641.8 468.3 641.8 467.6C641.8 466.9 641.3 466.4 640.6 466.4H615.6C614.9 466.4 614.4 466.9 614.4 467.6C614.4 468.3 614.9 468.8 615.6 468.8Z" fill="url(#paint44_linear)"/>
<path opacity="0.6" d="M596.8 503.8C602.4 503.8 607 499.2 607 493.6C607 488 602.4 483.4 596.8 483.4C591.2 483.4 586.6 488 586.6 493.6C586.6 499.2 591.1 503.8 596.8 503.8Z" fill="url(#paint45_linear)"/>
<path opacity="0.6" d="M657 488.5H615.6C614.9 488.5 614.4 489 614.4 489.7C614.4 490.4 614.9 490.9 615.6 490.9H657C657.7 490.9 658.2 490.4 658.2 489.7C658.2 489 657.7 488.5 657 488.5Z" fill="url(#paint46_linear)"/>
<path opacity="0.6" d="M615.6 498.6H640.6C641.3 498.6 641.8 498.1 641.8 497.4C641.8 496.7 641.3 496.2 640.6 496.2H615.6C614.9 496.2 614.4 496.7 614.4 497.4C614.4 498.1 614.9 498.6 615.6 498.6Z" fill="url(#paint47_linear)"/>
<path opacity="0.6" d="M596.8 533.3C602.4 533.3 607 528.7 607 523.1C607 517.5 602.4 512.9 596.8 512.9C591.2 512.9 586.6 517.5 586.6 523.1C586.6 528.7 591.1 533.3 596.8 533.3Z" fill="url(#paint48_linear)"/>
<path opacity="0.6" d="M657 518H615.6C614.9 518 614.4 518.5 614.4 519.2C614.4 519.9 614.9 520.4 615.6 520.4H657C657.7 520.4 658.2 519.9 658.2 519.2C658.2 518.6 657.7 518 657 518Z" fill="url(#paint49_linear)"/>
<path opacity="0.6" d="M640.6 525.8H615.6C614.9 525.8 614.4 526.3 614.4 527C614.4 527.7 614.9 528.2 615.6 528.2H640.6C641.3 528.2 641.8 527.7 641.8 527C641.8 526.4 641.3 525.8 640.6 525.8Z" fill="url(#paint50_linear)"/>
<path d="M652.3 466.6L649.3 466C649.2 466 649.1 465.8 649.1 465.7C649.1 465.6 649.2 465.5 649.4 465.5L652.3 466.1C652.4 466.1 652.5 466.3 652.5 466.4C652.5 466.5 652.4 466.6 652.3 466.6Z" fill="#461E5F"/>
<path opacity="0.1" d="M229.656 710.658H784.86C789.795 710.658 791.491 704.184 787.327 701.64C786.634 701.255 785.708 700.946 784.86 700.946H229.656C224.722 700.946 223.025 707.421 227.189 709.965C227.883 710.427 228.731 710.658 229.656 710.658Z" fill="#14001F"/>
<path d="M466.742 654.004H474.452C479.463 654.004 483.472 649.918 483.472 644.985V628.567C483.472 623.557 479.386 619.549 474.452 619.549H466.742C461.73 619.549 457.721 623.634 457.721 628.567V644.908C457.721 649.995 461.73 654.004 466.742 654.004Z" fill="#660099"/>
<path d="M471.214 646.374L381.468 669.652C379.849 670.037 378.77 671.502 378.77 673.12V677.976C378.77 680.366 381.006 682.062 383.319 681.445L471.291 659.169" fill="#660099"/>
<path d="M470.442 646.374L560.959 669.883C562.115 670.191 562.886 671.193 562.886 672.427V679.287C562.886 681.059 561.267 682.293 559.571 681.83L470.365 659.246" fill="#660099"/>
<path d="M479.618 649.148L505.138 677.205C505.524 677.745 505.755 678.361 505.755 678.978C505.755 680.597 504.444 681.984 502.748 681.984H491.646C490.72 681.984 489.795 681.444 489.178 680.751L465.663 654.621" fill="#660099"/>
<path d="M492.725 695.858C492.725 700.406 494.883 704.029 497.505 704.491H507.451C510.304 704.491 512.694 700.56 512.694 695.858C512.694 691.002 510.304 687.226 507.451 687.226H497.505C494.883 687.688 492.725 691.388 492.725 695.858Z" fill="#3877D0"/>
<path d="M497.351 704.491C500.246 704.491 502.594 700.626 502.594 695.858C502.594 691.091 500.246 687.226 497.351 687.226C494.455 687.226 492.108 691.091 492.108 695.858C492.108 700.626 494.455 704.491 497.351 704.491Z" fill="#00ABDB"/>
<path d="M379.001 694.471C379.001 699.096 382.702 702.873 387.174 703.104H392.185C396.965 703.104 400.821 699.173 400.821 694.471C400.821 689.692 396.888 685.838 392.185 685.838H387.174C382.625 686.069 379.001 689.769 379.001 694.471Z" fill="#3877D0"/>
<path d="M387.25 703.104C392.019 703.104 395.885 699.239 395.885 694.471C395.885 689.703 392.019 685.838 387.25 685.838C382.481 685.838 378.615 689.703 378.615 694.471C378.615 699.239 382.481 703.104 387.25 703.104Z" fill="#00ABDB"/>
<path d="M387.251 698.248C385.092 698.248 383.473 696.475 383.473 694.471C383.473 692.467 385.246 690.694 387.251 690.694C389.255 690.694 391.029 692.467 391.029 694.471C391.029 696.475 389.255 698.248 387.251 698.248ZM387.251 691.619C385.709 691.619 384.475 692.853 384.475 694.394C384.475 695.936 385.709 697.169 387.251 697.169C388.793 697.169 390.026 695.936 390.026 694.394C390.026 692.853 388.716 691.619 387.251 691.619Z" fill="white"/>
<path d="M546.926 694.471C546.926 699.096 550.627 702.873 555.099 703.104H560.111C564.891 703.104 568.746 699.173 568.746 694.471C568.746 689.692 564.814 685.838 560.111 685.838H555.099C550.627 686.069 546.926 689.769 546.926 694.471Z" fill="#3877D0"/>
<path d="M555.176 703.104C559.945 703.104 563.811 699.239 563.811 694.471C563.811 689.703 559.945 685.838 555.176 685.838C550.407 685.838 546.541 689.703 546.541 694.471C546.541 699.239 550.407 703.104 555.176 703.104Z" fill="#00ABDB"/>
<path d="M555.176 698.248C553.094 698.248 551.398 696.475 551.398 694.471C551.398 692.467 553.171 690.694 555.176 690.694C557.258 690.694 558.954 692.467 558.954 694.471C558.954 696.475 557.335 698.248 555.176 698.248ZM555.176 691.619C553.634 691.619 552.4 692.853 552.4 694.394C552.4 695.936 553.634 697.169 555.176 697.169C556.718 697.169 557.952 695.936 557.952 694.394C557.952 692.853 556.718 691.619 555.176 691.619Z" fill="white"/>
<path d="M496.811 699.558C495.578 699.558 494.575 697.939 494.575 695.781C494.575 693.623 495.5 692.004 496.811 692.004C498.122 692.004 499.047 693.623 499.047 695.781C499.047 697.939 498.045 699.558 496.811 699.558ZM496.811 693.006C496.194 693.006 495.578 694.239 495.578 695.781C495.578 697.322 496.194 698.556 496.811 698.556C497.428 698.556 498.045 697.322 498.045 695.781C498.045 694.239 497.351 693.006 496.811 693.006Z" fill="white"/>
<path d="M414.236 553.414L465.2 536.302L465.817 538.229L414.853 555.341L414.236 553.414Z" fill="#660099"/>
<path d="M395.5 564.899C395.114 564.899 394.652 564.822 394.343 564.59C393.727 564.282 393.187 563.742 393.033 563.049L392.108 560.043C391.722 558.732 392.416 557.268 393.727 556.728L411.691 550.716C413.002 550.33 414.544 551.024 415.006 552.335L416.009 555.418C416.24 556.034 416.24 556.728 415.932 557.345C415.623 557.961 415.084 558.501 414.39 558.655L396.348 564.59C396.04 564.822 395.808 564.899 395.5 564.899ZM412.462 552.72H412.231L394.266 558.732C393.958 558.809 393.881 559.118 393.958 559.426L394.883 562.432C394.883 562.509 394.96 562.663 395.192 562.74C395.269 562.817 395.5 562.817 395.577 562.74L413.619 556.805C413.696 556.805 413.85 556.728 413.927 556.497C414.004 556.266 414.004 556.189 413.927 556.111L412.925 553.028C412.925 552.797 412.771 552.72 412.462 552.72Z" fill="#660099"/>
<path d="M477.382 653.927H462.964V505.934H477.382V653.927Z" fill="#660099"/>
<path d="M407.837 487.511L384.783 347.997C381.391 328.495 392.494 310.073 409.61 302.674C411.075 302.442 412.617 302.442 414.159 302.442H460.728C480.003 302.442 496.194 316.008 499.51 334.816L528.577 509.479H434.051C420.944 509.325 410.073 500.229 407.837 487.511Z" fill="#00ABDB"/>
<path d="M427.111 501.54C433.588 507.398 438.677 508.786 445.384 509.325H457.489C458.106 508.786 458.337 508.015 458.414 507.167C459.263 502.542 460.959 498.997 463.349 495.913C444.305 489.747 425.647 481.268 434.513 460.148C436.98 453.057 446.387 447.199 458.106 442.189C475.762 440.647 494.189 438.489 509.455 429.548C508.453 430.164 496.657 396.634 496.734 392.858C497.042 381.681 502.748 370.89 501.514 359.636C500.28 348.46 492.802 339.21 486.171 330.731C482.393 325.952 479 321.944 473.68 319.169C462.501 313.465 448.7 300.901 435.515 309.226C425.03 315.778 416.549 331.964 411.229 342.833C405.061 355.32 407.759 371.044 409.61 384.225C410.843 393.551 411.846 402.878 411.46 412.282C411.152 420.067 407.682 427.466 407.836 435.174C408.068 440.185 410.92 444.116 411.923 448.818C412.771 452.517 412.848 455.755 412.231 459.455L411.923 461.613C410.689 476.412 416.163 491.674 427.111 501.54Z" fill="#2E95CE"/>
<path d="M409.533 302.597C392.416 309.996 381.237 328.496 384.706 347.92L407.759 487.511C409.995 500.23 420.867 509.479 433.897 509.479H528.422L528.5 510.173H599.895C603.519 510.173 606.526 512.871 606.68 516.416C606.757 520.193 603.673 523.277 599.895 523.277H429.039C413.388 523.277 400.204 512.331 397.428 496.915L372.756 351.157C368.669 327.416 386.094 305.14 409.533 302.597Z" fill="#2E95CE"/>
<path d="M528.499 509.864H433.974C420.712 509.864 409.61 500.461 407.297 487.511L384.244 348.151C381.082 330.191 390.412 311.846 406.911 303.444C407.143 303.367 407.451 303.444 407.605 303.676C407.682 303.907 407.605 304.215 407.374 304.369C391.26 312.54 382.162 330.499 385.246 347.997L408.299 487.511C410.458 499.921 421.329 508.94 433.897 508.94H528.422C528.731 508.94 528.962 509.171 528.962 509.479C528.962 509.787 528.808 509.864 528.499 509.864Z" fill="#82C7E5"/>
<path d="M675.3 430.241L719.017 700.946C719.633 703.721 717.475 706.264 714.699 706.264C712.617 706.264 710.921 704.8 710.381 702.873L659.417 431.166C664.892 430.858 670.057 430.55 675.3 430.241ZM285.94 427.466C288.485 427.698 291.183 428.006 293.728 428.314C296.426 428.623 298.97 428.931 301.592 429.239L250.32 702.719C249.78 704.646 248.084 706.11 246.002 706.11C243.226 706.11 241.222 703.567 241.684 700.792L285.94 427.466Z" fill="#EB3C7D"/>
<path d="M339.216 432.707C344.536 432.939 349.856 432.784 355.099 432.476L304.598 702.718C304.058 704.645 302.362 706.11 300.28 706.11C297.505 706.11 295.5 703.566 295.963 700.791L339.216 432.707Z" fill="#F06496"/>
<path d="M678.614 438.026C663.888 438.026 663.425 451.669 663.425 451.669L660.264 434.865L678.614 438.026Z" fill="#CD1E5A"/>
<path d="M727.805 428.854L771.676 700.869C772.292 703.643 770.134 706.187 767.358 706.187C765.276 706.187 763.58 704.723 763.04 702.796L711.845 429.085C717.165 428.854 722.485 428.854 727.805 428.854Z" fill="#F06496"/>
<path d="M731.275 438.026C716.549 438.026 716.086 451.669 716.086 451.669L712.925 434.865L731.275 438.026ZM304.444 437.178C293.033 437.871 283.396 445.348 281.468 455.291L281.083 457.064L284.552 435.251L304.444 437.178ZM358.723 437.178C347.312 437.871 337.675 445.348 335.747 455.291L335.362 457.064L338.831 435.251L358.723 437.178Z" fill="#CD1E5A"/>
<path d="M459.495 455.909C467.821 454.598 476.303 455.909 484.629 457.528C501.052 460.688 517.243 464.773 533.203 469.86C541.838 472.635 550.242 475.487 558.955 478.262C570.983 482.039 581.931 487.897 587.559 499.767C591.569 508.246 590.643 518.189 588.87 527.439C585.478 545.553 579.926 562.973 576.765 581.164C574.529 593.651 571.137 605.983 568.438 618.393C565.971 629.57 563.581 640.746 561.653 652C559.109 666.183 556.41 683.757 571.06 691.696C574.992 693.777 576.457 693.623 579.695 696.629C580.851 697.631 581.623 699.327 581.16 700.869C580.312 703.104 577.382 703.567 574.992 703.644C568.053 703.721 560.959 703.875 553.943 704.029C549.394 704.106 543.072 703.952 541.607 698.711C540.373 694.471 543.072 688.228 543.226 683.988C543.843 669.96 543.149 655.623 541.684 641.671C538.677 612.689 530.427 582.551 536.364 553.415C539.063 540.003 545.925 528.749 552.324 516.956C544.768 515.723 537.444 515.029 530.967 513.95C522.178 512.485 514.082 511.406 505.061 510.327C497.043 509.402 489.256 509.171 481.16 508.709C465.354 507.552 446.619 503.313 438.06 488.128C429.271 472.25 444.768 458.298 459.495 455.909Z" fill="#F4D7BA"/>
<path d="M541.221 700.406C540.605 702.487 540.836 703.952 542.609 705.417C544.383 706.881 555.023 709.193 560.265 708.037C565.508 706.881 572.447 705.879 577.767 706.804C583.01 707.652 592.339 706.033 593.188 704.26C594.036 702.487 592.571 699.404 592.571 699.404L541.221 700.406Z" fill="#F18B0E"/>
<path d="M543.38 683.911C540.296 688.073 539.911 693.391 541.222 699.481C542.07 703.566 547.236 704.645 554.098 703.951C560.882 703.258 573.45 703.566 580.774 703.258C588.099 702.949 593.496 702.564 593.188 699.481C592.571 694.239 581.931 693.006 576.996 691.31C571.985 689.537 564.66 686.917 563.812 682.831C562.964 678.746 543.38 683.911 543.38 683.911Z" fill="#660099"/>
<path d="M560.187 685.606C562.423 688.072 564.119 690.154 568.822 692.158C571.752 693.391 573.217 693.314 575.453 692.929C576.532 692.774 577.072 691.233 577.072 691.233C577.072 691.233 567.203 687.456 565.121 684.45L560.187 685.606Z" fill="#55057F"/>
<path d="M552.17 516.802C552.247 516.802 552.401 516.725 552.478 516.725C555.485 516.34 547.544 537.768 544.383 549.253C541.299 560.198 540.296 573.302 539.063 584.709C537.906 595.269 537.521 605.829 538.138 616.389C534.976 595.346 531.969 574.072 536.21 553.338C538.986 539.849 545.848 528.595 552.17 516.802ZM459.495 455.909C467.821 454.598 476.303 455.909 484.629 457.528C501.052 460.688 517.243 464.773 533.203 469.86C541.838 472.635 550.242 475.487 558.955 478.262C566.973 480.806 575.454 484.12 581.237 490.672C581.237 490.672 581.237 490.749 581.314 490.749C574.067 486.432 566.048 485.508 557.49 489.13C544.46 494.526 540.99 506.011 537.983 514.721C536.518 514.49 534.514 514.181 533.049 514.027C509.533 510.713 499.202 509.711 481.16 508.477C465.354 507.321 446.619 503.082 438.06 487.897C429.271 472.25 444.768 458.298 459.495 455.909Z" fill="#EDCCB8"/>
<path d="M504.135 435.482C504.135 435.482 507.682 457.836 538.522 469.166C569.362 480.497 585.168 488.051 588.406 502.234C592.647 520.425 588.021 527.901 585.168 558.579C582.547 586.636 569.594 657.704 567.975 683.603C567.975 683.603 551.783 692.313 536.517 681.676C535.901 680.365 528.422 599.74 533.279 566.364C538.137 532.989 541.144 520.27 528.268 513.796C513.31 506.319 486.325 504.777 473.68 479.803C461.036 454.829 465.585 445.426 465.585 445.426L504.135 435.482Z" fill="#0054A1"/>
<path d="M541.761 498.842C521.561 483.888 500.975 468.087 494.267 459.531L479.618 472.789L486.017 495.065C499.587 505.933 517.166 508.245 528.268 513.795C541.144 520.27 538.137 532.988 533.28 566.364C530.427 585.865 531.815 621.476 533.588 647.991C533.588 647.375 533.588 646.835 533.588 646.218C532.972 613.999 543.534 552.489 549.394 536.688C555.254 520.809 552.401 506.704 541.761 498.842Z" fill="#2D4891"/>
<path d="M536.595 681.676L536.518 681.521C536.518 681.599 536.518 681.676 536.595 681.676Z" fill="#2D4891"/>
<path d="M425.107 455.215C430.119 436.87 446.695 445.04 461.499 452.363C478.23 460.533 496.888 469.706 512.231 481.036C514.776 482.886 517.243 484.813 519.633 486.894C533.588 498.765 532.355 520.81 527.343 536.611C516.241 571.451 500.358 612.226 489.795 647.375C487.328 655.468 484.398 663.485 483.01 671.886C481.545 680.596 487.096 687.071 491.106 694.239C492.416 696.629 502.131 703.951 502.902 710.657C502.208 710.118 499.355 726.305 477.15 717.286C470.674 714.203 466.202 694.162 467.204 687.379C467.821 683.294 469.055 677.821 469.44 673.736C470.288 665.951 469.749 659.399 469.749 651.614V638.819C469.98 620.243 470.443 600.896 472.601 583.553C474.76 567.058 479.232 550.717 483.087 534.53C485.015 526.436 492.031 510.558 478.384 509.71C475.223 509.479 472.062 509.402 468.823 509.171C465.354 508.939 463.581 507.937 460.111 507.629C448.7 506.319 433.665 498.688 427.806 487.742C423.257 479.264 419.941 474.33 422.563 464.927L425.107 455.215Z" fill="#F4D7BA"/>
<path d="M503.904 710.042C506.217 713.973 508.067 719.137 504.135 722.76C501.283 725.303 487.173 727.462 479.926 723.531C471.984 719.214 470.519 707.113 468.206 701.64C465.893 696.167 482.624 706.727 482.624 706.727L503.904 710.042Z" fill="#F18B0E"/>
<path d="M466.819 686.994C466.819 686.994 464.66 691.465 467.744 701.254C470.905 711.043 470.983 716.362 480.62 719.445C488.639 721.988 494.73 720.755 500.512 718.828C504.059 717.672 507.143 712.97 501.283 705.57C495.424 698.171 489.795 695.781 488.947 687.611C488.716 684.913 490.72 693.469 481.545 693.469C474.067 693.469 466.819 686.994 466.819 686.994Z" fill="#660099"/>
<path d="M475.146 694.24C475.146 694.24 473.373 687.225 476.148 685.453C478.924 683.68 486.094 683.68 487.868 687.225C489.641 690.771 487.868 693.854 487.868 693.854L475.146 694.24Z" fill="#660099"/>
<path d="M481.622 693.468C480.234 693.468 478.923 693.237 477.612 692.929C477.844 695.087 479 702.487 482.624 704.799C486.942 707.497 493.572 705.185 493.726 703.643C493.881 702.179 487.481 696.32 486.787 692.081C485.631 692.852 484.012 693.468 481.622 693.468Z" fill="#55057F"/>
<path d="M424.875 443.036C424.875 443.036 416.934 473.328 431.044 492.675C445.153 512.022 479.309 510.789 483.472 513.487C487.636 516.185 477.535 534.299 474.22 555.804C469.825 584.478 467.05 625.638 464.737 644.754C462.501 663.716 463.272 687.611 463.272 687.611C463.272 687.611 467.667 694.471 479.694 695.396C490.72 696.321 495.114 693.083 495.114 693.083C495.114 693.083 499.895 659.708 505.754 628.644C511.229 599.431 533.973 528.44 533.125 514.104C532.277 499.767 532.046 497.069 523.796 488.282C515.546 479.572 488.638 460.071 482.47 450.667C475.685 440.338 424.875 443.036 424.875 443.036Z" fill="#0054A1"/>
<path d="M495.501 509.093C496.657 505.548 483.242 504.083 469.363 500.538C445.154 494.294 435.439 481.884 426.418 470.862C427.189 472.48 422.332 475.332 422.486 477.105C426.804 518.497 479.387 510.866 483.473 513.564C487.636 516.262 477.536 534.376 474.221 555.881C469.826 584.555 467.05 625.715 464.737 644.831C462.501 663.793 463.272 687.688 463.272 687.688C463.272 687.688 467.976 609.374 474.375 575.999C480.851 542.469 494.267 512.639 495.501 509.093Z" fill="#2D4891"/>
<path d="M573.295 413.438C572.909 414.363 572.755 415.365 573.911 416.29C574.605 416.906 575.531 417.137 576.456 417.292C580.696 418.139 584.32 417.214 588.483 416.29C593.418 415.133 596.965 419.604 601.591 420.066H602.439C602.67 419.989 602.978 419.758 602.978 419.527C603.056 419.141 602.67 418.833 602.362 418.525L599.586 416.675C598.892 416.135 598.275 415.519 597.504 415.133L603.672 417.908C604.675 418.448 605.754 418.833 606.756 419.373C607.604 419.758 608.298 419.989 608.992 419.373C609.301 419.141 609.532 418.833 609.532 418.448C609.532 418.139 609.224 417.831 608.992 417.6C608.684 417.369 608.376 417.292 608.067 417.214C608.607 417.292 609.224 417.523 609.686 417.292C610.149 417.06 610.689 416.598 610.611 416.058C610.534 415.519 610.072 415.365 609.686 415.056C609.686 414.825 608.067 414.131 607.836 413.9C607.219 413.592 606.679 413.283 606.217 412.744C606.911 412.975 607.759 413.052 608.376 413.283C608.915 413.515 609.301 413.823 609.84 413.9C610.457 413.9 611.151 413.515 611.151 412.898C611.151 412.281 610.534 411.973 609.995 411.665C606.911 410.123 603.827 408.813 600.588 407.657C592.801 404.882 579.848 403.957 574.451 411.742C573.989 412.281 573.603 412.898 573.295 413.438Z" fill="#EDCCB8"/>
<path d="M540.166 322.047C539.954 322.576 539.954 323.212 539.954 323.741C539.954 325.012 540.06 326.282 540.166 327.553C540.166 327.87 540.272 328.294 540.483 328.611C540.801 329.035 541.224 329.141 541.754 329.141C543.236 329.141 544.189 327.87 545.035 326.706C546.094 325.223 550.646 319.824 547.576 318.236C545.776 317.283 540.801 320.247 540.166 322.047Z" fill="#B2807B"/>
<path d="M511.053 393.626C512.112 391.614 514.335 389.179 515.711 387.273C525.768 372.345 535.189 352.652 546.093 336.559C550.01 338.465 553.503 338.465 557.526 340.371C551.28 358.687 539.741 392.143 537.836 396.272C534.448 403.578 528.838 415.012 519.416 414.906C514.017 414.8 508.936 410.777 508.406 405.378C507.877 401.143 509.147 397.225 511.053 393.626Z" fill="#B2807B"/>
<path d="M548.529 342.693C546.094 342.058 544.4 338.775 543.553 336.658C543.024 335.282 542.812 333.693 543.236 332.211C543.765 330.411 545.247 329.247 546.411 327.87C547.682 326.388 548.423 324.906 549.481 323.318C550.963 321.094 554.033 320.671 556.574 321.306C558.797 321.835 560.703 323.424 562.926 324.059C564.619 324.588 566.207 324.588 566.737 326.812C567.054 328.188 566.631 329.67 565.678 330.835C564.831 331.894 563.667 332.741 563.137 334.011C562.926 334.54 562.82 335.07 562.608 335.599C561.973 337.399 560.597 338.881 558.903 339.94C557.209 340.999 555.41 341.528 553.61 342.163C552.234 342.587 550.328 343.116 548.846 342.905C548.846 342.799 548.634 342.693 548.529 342.693Z" fill="#B2807B"/>
<path d="M573.194 305.848L555.939 330.517C554.986 332.105 553.186 332.74 551.598 332.528L541.753 335.175C541.012 335.069 540.483 334.646 540.165 334.222C539.954 334.011 538.789 331.575 538.683 331.364C538.366 330.623 538.366 329.881 538.789 328.929L553.822 301.719C554.774 300.131 556.362 299.601 558.162 299.813L570.548 300.448C571.077 300.554 571.606 300.978 571.924 301.401C571.924 301.613 573.3 303.836 573.3 304.048C573.512 304.577 573.512 305.107 573.194 305.848Z" fill="#660099"/>
<path d="M573.194 306.059L557.42 333.587C556.468 335.175 554.774 335.704 553.08 335.598C550.328 335.387 541.753 335.281 541.753 335.281C540.165 334.857 539.318 332.952 539.953 331.575L555.091 304.577C556.044 302.989 557.526 302.671 559.432 302.671C559.432 302.671 568.43 303.095 571.817 303.307C573.194 303.201 573.935 304.789 573.194 306.059Z" fill="#7850A0"/>
<path d="M562.396 318.765C563.455 319.718 564.513 320.671 565.678 321.624C561.549 318.024 555.938 317.6 551.069 316.753C550.963 316.753 550.751 316.647 550.645 316.753C550.328 316.753 550.116 317.071 550.116 317.283C550.01 317.6 550.116 317.812 550.222 318.13C550.328 318.553 550.645 318.871 550.963 319.188C550.54 319.4 549.904 319.083 549.481 319.4C549.058 319.718 549.058 320.459 549.163 320.882C549.269 321.094 549.481 321.306 549.587 321.518C550.857 322.788 552.551 323.106 554.245 323.318C555.092 323.423 555.833 323.423 556.574 323.847C557.738 324.482 558.585 325.435 559.432 326.388C560.491 327.447 561.443 328.611 562.502 329.776C560.385 328.929 558.585 327.764 556.68 326.6C556.044 326.176 555.409 325.859 554.774 325.541C554.139 325.329 553.504 325.223 552.869 325.117C551.916 324.906 550.963 324.8 550.01 324.588C549.693 324.482 549.269 324.482 549.058 324.8C548.952 324.906 548.952 325.012 548.952 325.223C548.952 326.176 549.587 327.023 550.328 327.447C551.069 327.976 552.127 328.188 553.08 328.294C553.504 328.294 553.927 328.4 554.351 328.505C554.88 328.717 555.197 329.247 555.515 329.776C556.044 330.623 556.574 331.364 557.103 332.211C557.421 332.635 558.691 334.011 558.585 334.54C558.479 335.07 557.844 334.964 557.421 335.07C556.68 335.281 555.938 335.599 555.621 336.34C555.092 337.399 554.668 339.093 555.515 340.152C556.362 341.21 558.056 340.258 559.008 339.728C560.067 339.093 560.914 338.458 561.973 337.928C563.031 337.399 563.56 336.446 564.407 335.599C565.36 334.646 567.054 334.223 567.583 332.846C567.901 331.999 567.583 330.941 567.795 329.988C568.007 328.929 569.065 328.4 569.595 327.553C570.759 326.07 569.489 324.8 569.383 323.106C569.277 322.047 570.336 321.306 570.441 320.247C570.547 318.659 568.43 317.6 567.266 316.647C565.678 315.377 564.196 314.212 562.608 313.048C562.078 312.624 561.549 312.201 560.914 311.989C559.961 311.671 558.691 311.883 557.632 311.883C556.15 311.883 554.774 311.883 553.292 311.883C552.233 311.883 551.069 313.048 551.704 314.001C552.233 314.848 553.927 315.059 554.88 315.271C556.044 315.377 557.209 315.483 558.373 315.8C559.961 316.224 560.914 317.6 562.396 318.765Z" fill="#B2807B"/>
<path d="M504.983 408.889C502.439 405.883 500.357 400.102 499.047 396.402C495.346 384.378 490.103 370.503 487.25 362.487C484.243 354.085 480.08 343.14 483.858 336.28C485.785 332.811 489.717 330.576 493.495 331.27C497.273 331.886 499.509 335.586 501.051 339.055C502.979 343.68 504.521 348.613 506.063 353.392C509.764 364.568 513.233 375.822 515.7 387.384C515.778 388.078 516.009 388.848 516.086 389.465C517.088 394.244 519.17 403.339 515.7 407.425C513.619 409.814 507.605 411.895 504.983 408.889Z" fill="#B2807B"/>
<path d="M514.776 361.1C514.853 361.331 515.007 361.485 515.084 361.64C511.306 364.954 506.603 366.727 501.746 368.191C497.814 369.348 493.881 371.043 489.872 371.583C489.024 371.66 488.099 371.814 487.482 371.197C486.865 370.658 486.865 369.733 486.865 368.962C486.942 362.179 486.248 355.396 484.706 348.767C483.164 342.447 478.693 336.743 475.377 331.116C472.987 326.876 469.209 321.25 473.835 317.241C477.767 313.85 485.555 315.7 489.949 317.319C492.802 318.321 495.038 320.402 497.197 322.637C506.68 332.966 508.531 348.844 514.776 361.1Z" fill="#94BA3C"/>
<path d="M472.756 314.081C462.501 313.696 448.777 314.775 438.908 317.55C431.198 319.785 426.881 322.791 425.03 329.034C423.488 334.276 426.032 338.053 425.724 343.448C425.416 350.077 425.955 356.86 426.572 363.566C426.032 379.368 417.783 450.821 422.177 478.801C443.534 471.247 456.179 464.926 498.97 474.638C510.844 477.336 514.853 463.616 528.423 464.618C517.397 457.527 509.764 437.332 509.147 433.092C502.208 385.149 510.921 362.487 500.127 329.112C496.117 316.393 484.09 314.466 472.756 314.081Z" fill="#99CC33"/>
<path d="M472.756 314.081C462.501 313.696 448.777 314.775 438.908 317.55C431.198 319.785 426.881 322.791 425.03 329.034C423.488 334.276 426.032 338.053 425.724 343.448C425.416 350.077 425.955 356.86 426.572 363.566C426.032 379.368 417.783 450.821 422.177 478.801C443.534 471.247 456.179 464.926 498.97 474.638C510.844 477.336 514.853 463.616 528.423 464.618C517.397 457.527 509.764 437.332 509.147 433.092C502.208 385.149 510.921 362.487 500.127 329.112C496.117 316.393 484.09 314.466 472.756 314.081Z" fill="#99CC33"/>
<path d="M505.986 474.331C504.059 474.485 501.746 474.562 498.97 474.639C501.669 475.256 503.905 475.025 505.986 474.331Z" fill="#94BA3C"/>
<path d="M457.952 460.303C441.144 458.761 434.899 466.161 434.436 460.148C433.974 454.136 427.883 430.241 449.702 425.54C471.599 420.838 476.456 421.531 476.456 421.531L477.459 403.341C477.459 403.341 464.968 397.483 458.723 393.166C452.478 388.85 455.177 361.563 449.317 341.368L438.831 334.971L425.261 338.054C425.57 339.75 425.878 341.522 425.724 343.527C425.416 350.155 425.955 356.938 426.572 363.644C426.032 379.446 417.783 450.899 422.177 478.879C441.453 472.096 453.635 466.315 487.174 472.327C477.999 468.473 469.98 461.382 457.952 460.303Z" fill="#94BA3C"/>
<path d="M468.745 278.239C469.902 278.239 471.444 278.624 473.371 279.549C477.458 281.476 488.097 285.716 486.016 291.111C485.63 292.267 484.397 293.269 483.857 294.426C483.163 295.89 482.623 297.432 482.238 298.973C480.773 304.6 478.306 311.152 480.31 317.241C481.004 319.631 485.245 337.513 482.7 338.361C478.768 339.671 453.556 319.939 453.865 315.545C454.019 314.543 454.867 315.237 459.724 307.375C462.808 302.442 463.811 296.198 464.35 290.803C464.736 285.099 463.888 278.239 468.745 278.239Z" fill="#B2807B"/>
<path d="M482.161 298.896C480.85 304.138 478.692 310.15 479.925 315.931C477.998 316.162 474.22 312.231 472.755 310.227C467.435 302.75 467.666 295.582 466.278 288.105C466.818 285.253 467.589 281.476 470.288 280.628C473.294 279.703 479.231 282.093 481.544 283.712C483.934 285.33 486.787 288.645 485.862 291.111C485.476 292.267 484.243 293.269 483.703 294.426C483.086 295.813 482.547 297.355 482.161 298.896Z" fill="#AA777D"/>
<path d="M511.074 266.831C511.459 271.147 510.226 275.464 507.45 278.701C505.677 280.782 504.289 282.709 502.901 285.022C501.976 286.64 500.434 288.413 498.506 288.336C488.175 288.028 488.946 267.756 489.717 261.281C490.102 257.812 490.334 254.344 494.266 252.956C496.81 252.109 499.663 252.725 502.053 253.881C506.448 256.04 509.763 260.356 510.765 265.058C510.843 265.752 510.997 266.214 511.074 266.831Z" fill="#461E5F"/>
<path d="M466.278 290.88C465.662 289.955 465.045 289.03 464.505 288.028C460.264 280.783 457.026 272.689 460.804 264.673C463.503 259.046 468.591 255.963 474.528 253.574C480.773 251.107 483.549 249.797 490.334 250.105C496.271 250.413 501.591 254.421 504.752 259.355C508.53 265.367 508.144 272.458 506.833 279.01C505.831 283.635 504.675 288.337 502.747 292.576C500.82 296.893 497.042 304.678 493.109 307.221C489.717 309.457 482.701 307.838 478.769 305.911C472.446 302.905 468.36 298.126 466.278 290.88Z" fill="#B2807B"/>
<path d="M517.474 258.507C514.93 273.846 501.9 264.134 489.024 263.594C484.166 263.44 476.765 266.986 474.914 281.554C474.143 282.016 471.984 281.168 472.139 280.012C472.37 277.314 471.907 272.921 471.291 270.917C470.442 267.91 469.671 264.596 465.893 264.904C464.351 265.213 463.118 266.523 462.578 267.988C462.038 269.529 462.193 271.071 462.347 272.689C462.732 275.156 466.433 289.262 464.197 290.726C463.503 291.266 463.812 286.024 458.106 278.239C454.405 273.152 450.011 258.121 461.267 245.711C467.281 240.008 474.76 236.616 486.171 238.543C505.755 241.78 507.605 257.659 517.474 258.507Z" fill="#461E5F"/>
<path d="M437.057 411.433C434.05 408.273 433.279 401.721 432.431 397.867C429.964 385.843 427.882 371.429 427.111 360.329C426.263 349.384 425.955 340.365 432.508 332.735C435.823 328.958 440.295 329.574 444.073 331.193C447.851 332.812 449.008 337.359 449.316 341.213C449.856 346.301 449.547 351.542 449.702 356.552C450.087 368.423 451.012 380.216 452.092 392.009C452.169 392.703 452.169 393.319 452.323 394.167C452.632 400.102 453.788 407.425 448.699 411.819C445.77 414.748 439.987 414.593 437.057 411.433Z" fill="#B2807B"/>
<path d="M432.972 399.023C431.507 393.011 429.657 383.068 428.963 377.672C428.038 371.12 427.421 365.185 427.112 360.252C426.496 349.923 425.879 340.134 432.509 332.658C435.902 328.958 440.219 329.651 444.075 331.039C445.925 331.655 446.927 333.505 447.852 335.047C448.161 335.432 448.161 336.049 448.161 336.666C449.703 346.069 449.317 355.704 449.934 365.262C450.166 368.037 450.243 370.812 450.474 373.587C447.467 371.429 444.46 369.887 440.836 371.043C429.117 374.897 432.047 388.155 432.972 399.023Z" fill="#AA777D"/>
<path d="M438.061 412.59C437.444 412.204 437.058 411.665 436.596 411.279C434.437 408.505 433.512 403.417 436.364 400.18C441.607 394.553 445.154 394.014 452.633 394.939C457.876 395.555 467.051 399.178 473.681 401.413C489.795 407.117 494.884 408.505 508.3 411.973C509.302 412.282 510.458 412.975 511.307 413.823C512.309 414.979 512.617 416.675 512 418.063C511.384 419.373 510.073 420.452 508.608 420.606C507.606 420.837 506.68 420.683 505.601 420.606C488.099 420.067 477.382 419.758 458.647 417.908C453.172 417.523 442.147 415.75 438.061 412.59Z" fill="#B2807B"/>
<path d="M441.221 322.869C454.637 327.417 452.941 369.965 452.941 369.965C452.941 369.965 436.981 374.358 423.796 372.123C423.796 372.123 424.182 361.332 422.64 338.516C422.717 322.252 432.817 320.094 441.221 322.869Z" fill="#99CC33"/>
<path d="M499.356 417.676C498.97 418.678 498.97 419.603 500.049 420.451C500.743 420.99 501.669 421.145 502.594 421.299C506.834 421.838 510.458 420.682 514.467 419.449C519.248 417.907 523.18 422.224 527.806 422.455C528.114 422.455 528.346 422.455 528.654 422.378C528.885 422.301 529.039 422.07 529.194 421.761C529.194 421.376 528.808 421.067 528.5 420.836C527.574 420.22 526.572 419.68 525.647 419.063C524.953 418.678 524.336 418.061 523.488 417.753C525.647 418.601 527.729 419.295 529.81 420.143C530.813 420.528 531.969 420.99 532.972 421.376C533.82 421.684 534.514 421.915 535.207 421.299C535.516 421.067 535.747 420.682 535.593 420.374C535.593 420.065 535.285 419.757 534.976 419.526C534.668 419.295 534.359 419.218 533.974 419.218C534.514 419.295 535.13 419.449 535.747 419.218C536.287 418.986 536.75 418.524 536.595 417.907C536.518 417.522 535.979 417.213 535.593 416.982C535.593 416.751 533.82 416.134 533.665 416.057C533.049 415.749 532.509 415.518 531.892 415.055C532.586 415.132 533.434 415.286 534.128 415.441C534.668 415.672 535.053 415.98 535.67 415.98C536.287 415.98 536.981 415.441 536.904 414.824C536.904 414.207 536.21 413.899 535.67 413.668C532.509 412.357 529.348 411.201 526.032 410.276C518.014 408.041 505.138 408.041 500.204 415.98C499.972 416.597 499.587 417.213 499.356 417.676Z" fill="#B2807B"/>
<path d="M263.58 438.103H751.629C755.099 438.103 757.875 435.328 757.875 431.86V431.243C757.875 427.774 755.099 425 751.629 425H263.58C260.111 425 257.335 427.774 257.335 431.243V431.86C257.335 435.328 260.111 438.103 263.58 438.103Z" fill="#EB3C7D"/>
<path d="M262.809 438.103H371.83C375.3 438.103 378.075 435.328 378.075 431.86V431.243C378.075 427.774 375.3 425 371.83 425H262.809C259.34 425 256.564 427.774 256.564 431.243V431.86C256.564 435.328 259.34 438.103 262.809 438.103Z" fill="#CD1E5A"/>
<path d="M538.214 425.077H640.604C641.452 425.077 642.146 424.537 642.531 423.844L674.837 355.782C675.53 354.317 674.528 352.699 672.909 352.699H570.519C569.671 352.699 568.977 353.238 568.591 353.932L536.286 421.994C535.669 423.458 536.672 425.077 538.214 425.077Z" fill="#8533AD"/>
<path d="M535.592 425.077H538.137C538.985 425.077 539.679 424.537 540.064 423.844L572.369 355.782C573.063 354.317 572.061 352.699 570.442 352.699H567.897C567.049 352.699 566.355 353.238 565.97 353.932L533.665 421.994C532.894 423.458 533.896 425.077 535.592 425.077ZM604.135 400.874C601.668 400.874 599.817 399.949 598.738 398.176C597.504 396.326 597.504 393.782 598.738 391.085C600.974 386.074 606.756 382.143 611.768 382.143C614.235 382.143 616.086 383.068 617.165 384.841C618.399 386.691 618.399 389.235 617.165 391.932C614.929 397.02 609.147 400.874 604.135 400.874ZM600.665 392.087C599.74 394.168 599.663 396.018 600.434 397.174C601.128 398.33 602.516 398.793 604.135 398.793C608.375 398.793 613.387 395.324 615.315 391.085C616.24 389.003 616.317 387.153 615.546 385.997C614.852 384.841 613.464 384.379 611.845 384.379C607.682 384.379 602.593 387.77 600.665 392.087Z" fill="#660099"/>
<path d="M479.694 418.293H536.055C537.828 418.293 539.216 419.757 539.216 421.453V421.762C539.216 423.534 537.751 424.922 536.055 424.922H479.694C477.921 424.922 476.533 423.457 476.533 421.762V421.453C476.379 419.757 477.844 418.293 479.694 418.293Z" fill="#660099"/>
<path d="M702.285 406.732L736.44 338.747L738.291 339.672L704.135 407.657L702.285 406.732Z" fill="#660099"/>
<path d="M694.498 406.655L728.653 338.67L730.504 339.595L696.348 407.58L694.498 406.655Z" fill="#660099"/>
<path d="M702.285 265.213L704.135 264.288L738.291 332.273L736.44 333.198L702.285 265.213Z" fill="#660099"/>
<path d="M694.421 265.213L696.271 264.288L730.427 332.273L728.577 333.198L694.421 265.213Z" fill="#660099"/>
<path d="M733.742 343.526C738.511 343.526 742.378 339.661 742.378 334.893C742.378 330.125 738.511 326.26 733.742 326.26C728.973 326.26 725.107 330.125 725.107 334.893C725.107 339.661 728.973 343.526 733.742 343.526Z" fill="#8533AD"/>
<path d="M674.297 291.729C681.792 291.729 687.867 285.655 687.867 278.163C687.867 270.67 681.792 264.597 674.297 264.597C666.803 264.597 660.728 270.67 660.728 278.163C660.728 285.655 666.803 291.729 674.297 291.729Z" fill="#FADB4F"/>
<path d="M720.25 401.413C715.546 397.944 709.764 396.017 703.519 396.017C691.414 396.017 681.159 403.571 677.15 414.285C675.994 417.368 675.3 420.76 675.3 424.228H731.584C731.738 414.825 727.189 406.5 720.25 401.413Z" fill="#8533AD"/>
<path d="M731.737 424.151C731.737 414.824 727.188 406.654 720.249 401.489C720.018 402.645 719.401 403.648 718.476 404.495C707.373 415.595 691.722 415.441 677.227 414.207C676.07 417.291 675.376 420.682 675.376 424.151H731.737Z" fill="#660099"/>
<path d="M733.125 424.846H673.988C671.907 424.846 670.288 423.227 670.288 421.146V420.838C670.288 418.756 671.907 417.138 673.988 417.138H733.125C735.207 417.138 736.826 418.756 736.826 420.838V421.146C736.903 423.15 735.207 424.846 733.125 424.846Z" fill="#660099"/>
<path d="M733.742 338.824C735.913 338.824 737.674 337.064 737.674 334.893C737.674 332.722 735.913 330.962 733.742 330.962C731.57 330.962 729.81 332.722 729.81 334.893C729.81 337.064 731.57 338.824 733.742 338.824Z" fill="#660099"/>
<path d="M698.353 246.405C700.589 251.184 699.818 257.273 695.809 261.281L694.267 262.823L687.328 258.738C686.942 258.507 686.48 259.046 686.788 259.354L687.79 260.588C691.491 264.981 693.419 270.762 692.802 276.389C692.185 282.555 689.487 288.491 684.938 293.192L651.938 260.125C659.649 252.417 670.52 250.182 680.235 253.188L684.244 249.18C688.022 245.634 693.65 244.709 698.353 246.405Z" fill="#8533AD"/>
<path d="M687.096 258.353L694.035 262.438L695.577 260.896C699.586 256.888 699.972 251.03 697.736 246.251C699.355 246.868 701.282 247.715 702.67 249.026C707.759 254.113 707.759 262.438 702.67 267.602L698.661 271.61C701.668 281.245 699.278 292.191 691.722 299.899L684.86 293.038C689.486 288.337 692.107 282.247 692.724 276.235C693.341 270.531 691.413 264.75 687.713 260.434L686.71 259.2C686.171 258.661 686.633 258.044 687.096 258.353Z" fill="#660099"/>
<path d="M546.926 687.457C546.926 687.457 549.162 690.694 549.702 695.087C550.319 699.481 549.702 701.716 549.702 701.716" stroke="#55057F" stroke-miterlimit="10" stroke-linecap="round" stroke-linejoin="round"/>
<path d="M563.349 685.452C566.279 684.527 568.052 683.602 568.052 683.602C569.594 658.628 581.622 591.877 584.86 561.893C580.388 581.163 573.372 604.287 569.363 635.581C565.277 667.415 563.812 680.287 563.349 685.452Z" fill="#2D4891"/>
<g clip-path="url(#clip1)">
<path d="M330.637 415.664C330.802 415.664 330.937 415.525 330.937 415.354C330.937 415.182 330.802 415.043 330.637 415.043C330.471 415.043 330.337 415.182 330.337 415.354C330.337 415.525 330.471 415.664 330.637 415.664Z" fill="#461E5F"/>
<path d="M329.705 415.664C329.871 415.664 330.005 415.525 330.005 415.354C330.005 415.182 329.871 415.043 329.705 415.043C329.54 415.043 329.406 415.182 329.406 415.354C329.406 415.525 329.54 415.664 329.705 415.664Z" fill="#461E5F"/>
<path d="M328.774 415.664C328.939 415.664 329.074 415.525 329.074 415.354C329.074 415.182 328.939 415.043 328.774 415.043C328.608 415.043 328.474 415.182 328.474 415.354C328.474 415.525 328.608 415.664 328.774 415.664Z" fill="#461E5F"/>
<path d="M328.714 416.869H330.797C331.466 416.869 332.007 416.308 332.007 415.616" stroke="#8432AB" stroke-width="5.1634" stroke-miterlimit="10" stroke-linecap="round" stroke-linejoin="round"/>
<path d="M330.688 413.99H328.604C327.936 413.99 327.395 414.552 327.395 415.244" stroke="#55057F" stroke-width="5.1634" stroke-miterlimit="10" stroke-linecap="round" stroke-linejoin="round"/>
<path d="M352.127 423.202H320.271C317.445 423.202 315.155 420.829 315.155 417.901V417.032C315.155 414.104 317.445 411.73 320.271 411.73H352.127C354.953 411.73 357.243 414.104 357.243 417.032V417.901C357.243 420.828 354.953 423.202 352.127 423.202Z" fill="#660097"/>
<path d="M327.362 411.725H319.106V416.281H327.362V411.725Z" fill="#55057F"/>
<path d="M319.967 424.615H319.692C319.259 424.615 318.88 424.31 318.773 423.874L318.356 422.164C318.204 421.544 318.657 420.941 319.275 420.941H320.385C321.003 420.941 321.455 421.544 321.304 422.164L320.887 423.874C320.779 424.31 320.401 424.615 319.967 424.615Z" fill="#660097"/>
<path d="M345.604 424.615H345.329C344.896 424.615 344.517 424.31 344.41 423.874L343.993 422.164C343.841 421.544 344.294 420.941 344.912 420.941H346.022C346.639 420.941 347.092 421.544 346.941 422.164L346.524 423.874C346.416 424.31 346.038 424.615 345.604 424.615Z" fill="#660097"/>
<path d="M338.727 420.402C341.753 420.418 344.218 417.888 344.234 414.752V409.195C344.234 405.227 344.262 378.327 344.262 374.926V369.369C344.247 366.232 341.753 363.702 338.727 363.717H332.324C329.297 363.702 326.804 366.232 326.789 369.368V374.924C326.789 378.325 326.817 405.225 326.817 409.194V414.75C326.832 417.887 329.297 420.416 332.324 420.4H338.727V420.402Z" fill="#55057F"/>
<path d="M336.149 420.402C339.176 420.418 341.641 417.888 341.656 414.752V409.195C341.656 405.227 341.684 378.327 341.684 374.926V369.369C341.669 366.232 339.175 363.702 336.149 363.717H329.746C326.72 363.702 324.227 366.232 324.211 369.368V374.924C324.211 378.325 324.239 405.225 324.239 409.194V414.75C324.255 417.887 326.72 420.416 329.746 420.4H336.149V420.402Z" fill="#660099"/>
<path d="M326.444 424.615H326.17C325.736 424.615 325.358 424.31 325.251 423.874L324.833 422.164C324.682 421.544 325.134 420.941 325.752 420.941H326.862C327.48 420.941 327.932 421.544 327.781 422.164L327.364 423.874C327.256 424.31 326.878 424.615 326.444 424.615Z" fill="#660097"/>
<path d="M352.081 424.615H351.807C351.373 424.615 350.994 424.31 350.888 423.874L350.47 422.164C350.319 421.544 350.771 420.941 351.389 420.941H352.499C353.117 420.941 353.569 421.544 353.418 422.164L353.001 423.874C352.893 424.31 352.515 424.615 352.081 424.615Z" fill="#660097"/>
<path d="M343.78 411.73H340.161V411.804H340.098L339.549 412.448C338.587 413.575 337.205 414.222 335.754 414.222H324.995C323.529 414.222 322.135 413.563 321.173 412.417L320.659 411.804V411.73H317.04C314.214 411.73 311.924 414.105 311.924 417.032V417.901C311.924 420.829 314.214 423.202 317.04 423.202H343.78C346.605 423.202 348.896 420.829 348.896 417.901V417.032C348.896 414.105 346.605 411.73 343.78 411.73Z" fill="#8533AD"/>
<path d="M326.113 418.583H324.12C323.817 418.583 323.568 418.326 323.568 418.011C323.568 417.697 323.817 417.439 324.12 417.439H326.113C326.416 417.439 326.665 417.697 326.665 418.011C326.665 418.326 326.416 418.583 326.113 418.583Z" fill="#B787CE"/>
<path d="M336.699 418.583H334.706C334.403 418.583 334.155 418.326 334.155 418.011C334.155 417.697 334.403 417.439 334.706 417.439H336.699C337.003 417.439 337.251 417.697 337.251 418.011C337.252 418.326 337.004 418.583 336.699 418.583Z" fill="#B787CE"/>
<path d="M333.879 369.123C334.044 369.123 334.179 368.984 334.179 368.813C334.179 368.641 334.044 368.502 333.879 368.502C333.713 368.502 333.579 368.641 333.579 368.813C333.579 368.984 333.713 369.123 333.879 369.123Z" fill="#461E5F"/>
<path d="M332.947 369.123C333.113 369.123 333.247 368.984 333.247 368.813C333.247 368.641 333.113 368.502 332.947 368.502C332.782 368.502 332.648 368.641 332.648 368.813C332.648 368.984 332.782 369.123 332.947 369.123Z" fill="#461E5F"/>
<path d="M332.016 369.123C332.182 369.123 332.316 368.984 332.316 368.813C332.316 368.641 332.182 368.502 332.016 368.502C331.85 368.502 331.716 368.641 331.716 368.813C331.716 368.984 331.85 369.123 332.016 369.123Z" fill="#461E5F"/>
<path d="M326.983 384.107H338.913C339.644 384.107 340.236 383.493 340.236 382.736V375.165C340.236 374.408 339.644 373.794 338.913 373.794H326.983C326.252 373.794 325.66 374.408 325.66 375.165V382.736C325.66 383.493 326.252 384.107 326.983 384.107Z" fill="#B787CE"/>
<path d="M331.041 378.606C331.066 378.67 331.066 378.734 331.04 378.797C331.04 378.8 331.037 378.807 331.031 378.819L330.119 380.493C330.093 380.545 330.057 380.585 330.01 380.612C329.964 380.641 329.915 380.657 329.863 380.66H329.65C329.596 380.657 329.545 380.641 329.499 380.612C329.452 380.584 329.416 380.545 329.39 380.493L328.479 378.819C328.472 378.807 328.47 378.8 328.47 378.797C328.444 378.734 328.443 378.671 328.468 378.606C328.492 378.541 328.535 378.495 328.596 378.468L328.839 378.355C328.906 378.326 328.972 378.325 329.039 378.354C329.106 378.382 329.153 378.431 329.183 378.5L329.752 379.682H329.761L330.33 378.5C330.359 378.431 330.406 378.381 330.473 378.354C330.54 378.325 330.606 378.326 330.674 378.355L330.917 378.468C330.974 378.496 331.016 378.541 331.041 378.606Z" fill="#8533AD"/>
<path d="M332.185 377.677C332.185 377.74 332.173 377.799 332.15 377.857C332.126 377.914 332.095 377.963 332.055 378.003C332.014 378.044 331.967 378.076 331.914 378.1C331.86 378.124 331.803 378.136 331.742 378.136C331.681 378.136 331.625 378.124 331.571 378.1C331.517 378.076 331.47 378.044 331.43 378.003C331.39 377.962 331.357 377.914 331.335 377.857C331.311 377.8 331.3 377.74 331.3 377.677C331.3 377.613 331.311 377.555 331.335 377.499C331.358 377.443 331.39 377.395 331.43 377.353C331.47 377.311 331.518 377.278 331.571 377.255C331.625 377.23 331.681 377.218 331.742 377.218C331.803 377.218 331.86 377.23 331.914 377.255C331.967 377.279 332.014 377.311 332.055 377.353C332.095 377.395 332.127 377.444 332.15 377.499C332.173 377.555 332.185 377.613 332.185 377.677ZM331.855 378.365C331.931 378.365 331.995 378.393 332.048 378.448C332.102 378.503 332.128 378.569 332.128 378.648V380.375C332.128 380.454 332.101 380.52 332.048 380.575C331.994 380.631 331.931 380.658 331.855 380.658H331.629C331.554 380.658 331.489 380.63 331.436 380.575C331.382 380.52 331.356 380.454 331.356 380.375V378.648C331.356 378.569 331.383 378.503 331.436 378.448C331.49 378.392 331.554 378.365 331.629 378.365H331.855V378.365Z" fill="#8533AD"/>
<path d="M335.018 378.606C335.042 378.67 335.042 378.734 335.016 378.797C335.016 378.8 335.013 378.807 335.007 378.819L334.095 380.493C334.069 380.545 334.033 380.585 333.987 380.612C333.94 380.641 333.892 380.657 333.839 380.66H333.627C333.572 380.657 333.521 380.641 333.475 380.612C333.428 380.584 333.393 380.545 333.367 380.493L332.455 378.819C332.449 378.807 332.446 378.8 332.446 378.797C332.42 378.734 332.419 378.671 332.444 378.606C332.468 378.541 332.511 378.495 332.572 378.468L332.816 378.355C332.882 378.326 332.948 378.325 333.016 378.354C333.082 378.382 333.13 378.431 333.159 378.5L333.728 379.682H333.737L334.306 378.5C334.335 378.431 334.382 378.381 334.45 378.354C334.516 378.325 334.583 378.326 334.65 378.355L334.893 378.468C334.95 378.496 334.993 378.541 335.018 378.606Z" fill="#8533AD"/>
<path d="M336.318 378.343C336.474 378.343 336.621 378.373 336.758 378.435C336.896 378.496 337.015 378.58 337.117 378.685C337.218 378.79 337.298 378.914 337.358 379.056C337.417 379.198 337.447 379.351 337.447 379.513C337.447 379.674 337.417 379.827 337.358 379.969C337.299 380.112 337.218 380.235 337.117 380.34C337.015 380.445 336.896 380.528 336.758 380.59C336.621 380.651 336.474 380.682 336.318 380.682C336.162 380.682 336.015 380.651 335.877 380.59C335.74 380.528 335.621 380.444 335.519 380.34C335.418 380.235 335.338 380.112 335.278 379.969C335.219 379.827 335.189 379.674 335.189 379.513C335.189 379.351 335.219 379.198 335.278 379.056C335.337 378.914 335.418 378.79 335.519 378.685C335.621 378.58 335.74 378.497 335.877 378.435C336.015 378.373 336.162 378.343 336.318 378.343ZM336.318 379.971C336.379 379.971 336.435 379.959 336.489 379.935C336.543 379.911 336.59 379.878 336.63 379.836C336.671 379.794 336.703 379.745 336.725 379.69C336.749 379.634 336.76 379.576 336.76 379.513C336.76 379.449 336.749 379.391 336.725 379.335C336.702 379.279 336.671 379.231 336.63 379.189C336.59 379.147 336.542 379.114 336.489 379.09C336.435 379.066 336.379 379.054 336.318 379.054C336.257 379.054 336.2 379.066 336.146 379.09C336.093 379.115 336.046 379.147 336.006 379.189C335.965 379.231 335.933 379.28 335.91 379.335C335.887 379.391 335.875 379.449 335.875 379.513C335.875 379.576 335.887 379.634 335.91 379.69C335.934 379.746 335.965 379.794 336.006 379.836C336.046 379.878 336.094 379.912 336.146 379.935C336.199 379.96 336.257 379.971 336.318 379.971Z" fill="#8533AD"/>
<path d="M335.584 367.756C335.706 368.084 335.773 368.44 335.773 368.812C335.773 370.429 334.508 371.741 332.948 371.741C332.574 371.741 332.218 371.665 331.892 371.53" stroke="#8432AB" stroke-width="4.4634" stroke-miterlimit="10" stroke-linecap="round" stroke-linejoin="round"/>
<path d="M330.299 369.834C330.185 369.516 330.122 369.172 330.122 368.813C330.122 367.196 331.387 365.885 332.948 365.885C333.294 365.885 333.626 365.95 333.933 366.068" stroke="#55057F" stroke-width="4.4634" stroke-miterlimit="10" stroke-linecap="round" stroke-linejoin="round"/>
<path d="M329.877 393.577H328.068C327.648 393.577 327.308 393.224 327.308 392.789V391.532C327.308 391.097 327.648 390.744 328.068 390.744H329.877C330.297 390.744 330.637 391.097 330.637 391.532V392.789C330.636 393.224 330.296 393.577 329.877 393.577Z" fill="#461E5F"/>
<path d="M334.407 393.577H332.599C332.179 393.577 331.839 393.224 331.839 392.789V391.532C331.839 391.097 332.179 390.744 332.599 390.744H334.407C334.827 390.744 335.167 391.097 335.167 391.532V392.789C335.167 393.224 334.826 393.577 334.407 393.577Z" fill="#461E5F"/>
<path d="M338.926 393.577H337.117C336.698 393.577 336.357 393.224 336.357 392.789V391.532C336.357 391.097 336.698 390.744 337.117 390.744H338.926C339.346 390.744 339.686 391.097 339.686 391.532V392.789C339.686 393.224 339.346 393.577 338.926 393.577Z" fill="#461E5F"/>
<path d="M329.877 397.48H328.068C327.648 397.48 327.308 397.128 327.308 396.692V395.435C327.308 395 327.648 394.647 328.068 394.647H329.877C330.297 394.647 330.637 395 330.637 395.435V396.692C330.636 397.127 330.296 397.48 329.877 397.48Z" fill="#461E5F"/>
<path d="M334.407 397.48H332.599C332.179 397.48 331.839 397.128 331.839 396.692V395.435C331.839 395 332.179 394.647 332.599 394.647H334.407C334.827 394.647 335.167 395 335.167 395.435V396.692C335.167 397.127 334.826 397.48 334.407 397.48Z" fill="#461E5F"/>
<path d="M338.926 397.48H337.117C336.698 397.48 336.357 397.128 336.357 396.692V395.435C336.357 395 336.698 394.647 337.117 394.647H338.926C339.346 394.647 339.686 395 339.686 395.435V396.692C339.686 397.127 339.346 397.48 338.926 397.48Z" fill="#461E5F"/>
<path d="M329.877 401.382H328.068C327.648 401.382 327.308 401.029 327.308 400.594V399.337C327.308 398.902 327.648 398.549 328.068 398.549H329.877C330.297 398.549 330.637 398.902 330.637 399.337V400.594C330.636 401.029 330.296 401.382 329.877 401.382Z" fill="#461E5F"/>
<path d="M334.407 401.382H332.599C332.179 401.382 331.839 401.029 331.839 400.594V399.337C331.839 398.902 332.179 398.549 332.599 398.549H334.407C334.827 398.549 335.167 398.902 335.167 399.337V400.594C335.167 401.029 334.826 401.382 334.407 401.382Z" fill="#461E5F"/>
<path d="M338.926 401.382H337.117C336.698 401.382 336.357 401.029 336.357 400.594V399.337C336.357 398.902 336.698 398.549 337.117 398.549H338.926C339.346 398.549 339.686 398.902 339.686 399.337V400.594C339.686 401.029 339.346 401.382 338.926 401.382Z" fill="#461E5F"/>
<path d="M329.877 405.284H328.068C327.648 405.284 327.308 404.932 327.308 404.497V403.239C327.308 402.804 327.648 402.452 328.068 402.452H329.877C330.297 402.452 330.637 402.804 330.637 403.239V404.497C330.636 404.932 330.296 405.284 329.877 405.284Z" fill="#461E5F"/>
<path d="M334.407 405.284H332.599C332.179 405.284 331.839 404.932 331.839 404.497V403.239C331.839 402.804 332.179 402.452 332.599 402.452H334.407C334.827 402.452 335.167 402.804 335.167 403.239V404.497C335.167 404.932 334.826 405.284 334.407 405.284Z" fill="#461E5F"/>
<path d="M338.926 405.284H337.117C336.698 405.284 336.357 404.932 336.357 404.497V403.239C336.357 402.804 336.698 402.452 337.117 402.452H338.926C339.346 402.452 339.686 402.804 339.686 403.239V404.497C339.686 404.932 339.346 405.284 338.926 405.284Z" fill="#461E5F"/>
<path d="M329.877 409.186H328.068C327.648 409.186 327.308 408.834 327.308 408.398V407.141C327.308 406.706 327.648 406.354 328.068 406.354H329.877C330.297 406.354 330.637 406.706 330.637 407.141V408.398C330.636 408.834 330.296 409.186 329.877 409.186Z" fill="#461E5F"/>
<path d="M334.407 409.186H332.599C332.179 409.186 331.839 408.834 331.839 408.398V407.141C331.839 406.706 332.179 406.354 332.599 406.354H334.407C334.827 406.354 335.167 406.706 335.167 407.141V408.398C335.167 408.834 334.826 409.186 334.407 409.186Z" fill="#461E5F"/>
<path d="M338.926 409.186H337.117C336.698 409.186 336.357 408.834 336.357 408.398V407.141C336.357 406.706 336.698 406.354 337.117 406.354H338.926C339.346 406.354 339.686 406.706 339.686 407.141V408.398C339.686 408.834 339.346 409.186 338.926 409.186Z" fill="#461E5F"/>
<path d="M335.516 389.479H331.489C330.994 389.479 330.592 389.062 330.592 388.549V386.565C330.592 386.052 330.994 385.635 331.489 385.635H335.516C336.011 385.635 336.413 386.052 336.413 386.565V388.549C336.413 389.062 336.012 389.479 335.516 389.479Z" fill="#461E5F"/>
<path d="M329.294 387.085H327.756C327.509 387.085 327.308 386.878 327.308 386.621V386.098C327.308 385.843 327.508 385.634 327.756 385.634H329.294C329.541 385.634 329.742 385.842 329.742 386.098V386.621C329.741 386.878 329.541 387.085 329.294 387.085Z" fill="#461E5F"/>
<path d="M329.294 389.351H327.756C327.509 389.351 327.308 389.144 327.308 388.887V388.364C327.308 388.109 327.508 387.9 327.756 387.9H329.294C329.541 387.9 329.742 388.108 329.742 388.364V388.887C329.741 389.143 329.541 389.351 329.294 389.351Z" fill="#461E5F"/>
<path d="M339.217 387.085H337.679C337.432 387.085 337.231 386.878 337.231 386.621V386.098C337.231 385.843 337.431 385.634 337.679 385.634H339.217C339.463 385.634 339.664 385.842 339.664 386.098V386.621C339.663 386.878 339.463 387.085 339.217 387.085Z" fill="#461E5F"/>
<path d="M339.217 389.351H337.679C337.432 389.351 337.231 389.144 337.231 388.887V388.364C337.231 388.109 337.431 387.9 337.679 387.9H339.217C339.463 387.9 339.664 388.108 339.664 388.364V388.887C339.663 389.143 339.463 389.351 339.217 389.351Z" fill="#461E5F"/>
<path d="M329.338 393.577H327.53C327.11 393.577 326.77 393.224 326.77 392.789V391.532C326.77 391.097 327.11 390.744 327.53 390.744H329.338C329.758 390.744 330.098 391.097 330.098 391.532V392.789C330.097 393.224 329.757 393.577 329.338 393.577Z" fill="#8432AB"/>
<path d="M333.868 393.577H332.061C331.641 393.577 331.301 393.224 331.301 392.789V391.532C331.301 391.097 331.641 390.744 332.061 390.744H333.869C334.289 390.744 334.629 391.097 334.629 391.532V392.789C334.628 393.224 334.288 393.577 333.868 393.577Z" fill="#8432AB"/>
<path d="M338.387 393.577H336.579C336.159 393.577 335.819 393.224 335.819 392.789V391.532C335.819 391.097 336.159 390.744 336.579 390.744H338.387C338.807 390.744 339.147 391.097 339.147 391.532V392.789C339.147 393.224 338.807 393.577 338.387 393.577Z" fill="#8432AB"/>
<path d="M329.338 397.48H327.53C327.11 397.48 326.77 397.128 326.77 396.692V395.435C326.77 395 327.11 394.647 327.53 394.647H329.338C329.758 394.647 330.098 395 330.098 395.435V396.692C330.097 397.127 329.757 397.48 329.338 397.48Z" fill="#8432AB"/>
<path d="M333.868 397.48H332.061C331.641 397.48 331.301 397.128 331.301 396.692V395.435C331.301 395 331.641 394.647 332.061 394.647H333.869C334.289 394.647 334.629 395 334.629 395.435V396.692C334.628 397.127 334.288 397.48 333.868 397.48Z" fill="#8432AB"/>
<path d="M338.387 397.48H336.579C336.159 397.48 335.819 397.128 335.819 396.692V395.435C335.819 395 336.159 394.647 336.579 394.647H338.387C338.807 394.647 339.147 395 339.147 395.435V396.692C339.147 397.127 338.807 397.48 338.387 397.48Z" fill="#8432AB"/>
<path d="M329.338 401.382H327.53C327.11 401.382 326.77 401.029 326.77 400.594V399.337C326.77 398.902 327.11 398.549 327.53 398.549H329.338C329.758 398.549 330.098 398.902 330.098 399.337V400.594C330.097 401.029 329.757 401.382 329.338 401.382Z" fill="#8432AB"/>
<path d="M333.868 401.382H332.061C331.641 401.382 331.301 401.029 331.301 400.594V399.337C331.301 398.902 331.641 398.549 332.061 398.549H333.869C334.289 398.549 334.629 398.902 334.629 399.337V400.594C334.628 401.029 334.288 401.382 333.868 401.382Z" fill="#8432AB"/>
<path d="M338.387 401.382H336.579C336.159 401.382 335.819 401.029 335.819 400.594V399.337C335.819 398.902 336.159 398.549 336.579 398.549H338.387C338.807 398.549 339.147 398.902 339.147 399.337V400.594C339.147 401.029 338.807 401.382 338.387 401.382Z" fill="#8432AB"/>
<path d="M329.338 405.284H327.53C327.11 405.284 326.77 404.932 326.77 404.497V403.239C326.77 402.804 327.11 402.452 327.53 402.452H329.338C329.758 402.452 330.098 402.804 330.098 403.239V404.497C330.097 404.932 329.757 405.284 329.338 405.284Z" fill="#8432AB"/>
<path d="M333.868 405.284H332.061C331.641 405.284 331.301 404.932 331.301 404.497V403.239C331.301 402.804 331.641 402.452 332.061 402.452H333.869C334.289 402.452 334.629 402.804 334.629 403.239V404.497C334.628 404.932 334.288 405.284 333.868 405.284Z" fill="#8432AB"/>
<path d="M338.387 405.284H336.579C336.159 405.284 335.819 404.932 335.819 404.497V403.239C335.819 402.804 336.159 402.452 336.579 402.452H338.387C338.807 402.452 339.147 402.804 339.147 403.239V404.497C339.147 404.932 338.807 405.284 338.387 405.284Z" fill="#8432AB"/>
<path d="M329.338 409.186H327.53C327.11 409.186 326.77 408.834 326.77 408.398V407.141C326.77 406.706 327.11 406.354 327.53 406.354H329.338C329.758 406.354 330.098 406.706 330.098 407.141V408.398C330.097 408.834 329.757 409.186 329.338 409.186Z" fill="#8432AB"/>
<path d="M333.868 409.186H332.061C331.641 409.186 331.301 408.834 331.301 408.398V407.141C331.301 406.706 331.641 406.354 332.061 406.354H333.869C334.289 406.354 334.629 406.706 334.629 407.141V408.398C334.628 408.834 334.288 409.186 333.868 409.186Z" fill="#8432AB"/>
<path d="M338.387 409.186H336.579C336.159 409.186 335.819 408.834 335.819 408.398V407.141C335.819 406.706 336.159 406.354 336.579 406.354H338.387C338.807 406.354 339.147 406.706 339.147 407.141V408.398C339.147 408.834 338.807 409.186 338.387 409.186Z" fill="#8432AB"/>
<path d="M334.977 389.479H330.951C330.455 389.479 330.053 389.062 330.053 388.549V386.565C330.053 386.052 330.455 385.635 330.951 385.635H334.977C335.473 385.635 335.875 386.052 335.875 386.565V388.549C335.875 389.062 335.474 389.479 334.977 389.479Z" fill="#8432AB"/>
<path d="M328.756 387.085H327.218C326.971 387.085 326.77 386.878 326.77 386.621V386.098C326.77 385.843 326.97 385.634 327.218 385.634H328.756C329.003 385.634 329.204 385.842 329.204 386.098V386.621C329.203 386.878 329.003 387.085 328.756 387.085Z" fill="#8432AB"/>
<path d="M328.756 389.351H327.218C326.971 389.351 326.77 389.144 326.77 388.887V388.364C326.77 388.109 326.97 387.9 327.218 387.9H328.756C329.003 387.9 329.204 388.108 329.204 388.364V388.887C329.203 389.143 329.003 389.351 328.756 389.351Z" fill="#8432AB"/>
<path d="M338.678 387.085H337.14C336.893 387.085 336.692 386.878 336.692 386.621V386.098C336.692 385.843 336.892 385.634 337.14 385.634H338.678C338.925 385.634 339.126 385.842 339.126 386.098V386.621C339.125 386.878 338.925 387.085 338.678 387.085Z" fill="#8432AB"/>
<path d="M338.678 389.351H337.14C336.893 389.351 336.692 389.144 336.692 388.887V388.364C336.692 388.109 336.892 387.9 337.14 387.9H338.678C338.925 387.9 339.126 388.108 339.126 388.364V388.887C339.125 389.143 338.925 389.351 338.678 389.351Z" fill="#8432AB"/>
</g>
</g>
<defs>
<linearGradient id="paint0_linear" x1="422.983" y1="284.276" x2="550.651" y2="801.878" gradientUnits="userSpaceOnUse">
<stop stop-color="#9E78B2"/>
<stop offset="1" stop-color="#BE83E1" stop-opacity="0"/>
</linearGradient>
<linearGradient id="paint1_linear" x1="152.578" y1="329.896" x2="212.943" y2="574.629" gradientUnits="userSpaceOnUse">
<stop stop-color="#9E78B2"/>
<stop offset="1" stop-color="#BE83E1" stop-opacity="0"/>
</linearGradient>
<linearGradient id="paint2_linear" x1="642.848" y1="208.969" x2="703.212" y2="453.702" gradientUnits="userSpaceOnUse">
<stop stop-color="#9E78B2"/>
<stop offset="1" stop-color="#BE83E1" stop-opacity="0"/>
</linearGradient>
<linearGradient id="paint3_linear" x1="666.035" y1="569.993" x2="578.863" y2="270.78" gradientUnits="userSpaceOnUse">
<stop stop-color="#A178B5"/>
<stop offset="1" stop-color="#C186E4" stop-opacity="0"/>
</linearGradient>
<linearGradient id="paint4_linear" x1="323.307" y1="321.882" x2="323.307" y2="347.589" gradientUnits="userSpaceOnUse">
<stop stop-color="#A178B5"/>
<stop offset="1" stop-color="#C186E4" stop-opacity="0"/>
</linearGradient>
<linearGradient id="paint5_linear" x1="313.506" y1="321.882" x2="313.506" y2="347.589" gradientUnits="userSpaceOnUse">
<stop stop-color="#A178B5"/>
<stop offset="1" stop-color="#C186E4" stop-opacity="0"/>
</linearGradient>
<linearGradient id="paint6_linear" x1="303.587" y1="321.882" x2="303.587" y2="347.589" gradientUnits="userSpaceOnUse">
<stop stop-color="#A178B5"/>
<stop offset="1" stop-color="#C186E4" stop-opacity="0"/>
</linearGradient>
<linearGradient id="paint7_linear" x1="598.463" y1="465.404" x2="47.1909" y2="465.404" gradientUnits="userSpaceOnUse">
<stop stop-color="#A178B5"/>
<stop offset="1" stop-color="#C186E4" stop-opacity="0"/>
</linearGradient>
<linearGradient id="paint8_linear" x1="212.843" y1="403.12" x2="585.176" y2="403.12" gradientUnits="userSpaceOnUse">
<stop stop-color="#A178B5"/>
<stop offset="1" stop-color="#C186E4" stop-opacity="0"/>
</linearGradient>
<linearGradient id="paint9_linear" x1="-99.081" y1="241.397" x2="689.345" y2="241.397" gradientUnits="userSpaceOnUse">
<stop stop-color="#A178B5"/>
<stop offset="1" stop-color="#C186E4" stop-opacity="0"/>
</linearGradient>
<linearGradient id="paint10_linear" x1="-19.3858" y1="355.567" x2="999.351" y2="355.567" gradientUnits="userSpaceOnUse">
<stop stop-color="#A178B5"/>
<stop offset="1" stop-color="#C186E4" stop-opacity="0"/>
</linearGradient>
<linearGradient id="paint11_linear" x1="-554.113" y1="389.503" x2="568.482" y2="389.503" gradientUnits="userSpaceOnUse">
<stop stop-color="#A178B5"/>
<stop offset="1" stop-color="#C186E4" stop-opacity="0"/>
</linearGradient>
<linearGradient id="paint12_linear" x1="-67.3748" y1="401.536" x2="917.474" y2="401.536" gradientUnits="userSpaceOnUse">
<stop stop-color="#A178B5"/>
<stop offset="1" stop-color="#C186E4" stop-opacity="0"/>
</linearGradient>
<linearGradient id="paint13_linear" x1="-67.3742" y1="241.278" x2="917.474" y2="241.278" gradientUnits="userSpaceOnUse">
<stop stop-color="#A178B5"/>
<stop offset="1" stop-color="#C186E4" stop-opacity="0"/>
</linearGradient>
<linearGradient id="paint14_linear" x1="16.6051" y1="369.827" x2="760.797" y2="369.827" gradientUnits="userSpaceOnUse">
<stop stop-color="#A178B5"/>
<stop offset="1" stop-color="#C186E4" stop-opacity="0"/>
</linearGradient>
<linearGradient id="paint15_linear" x1="619.673" y1="433.899" x2="619.673" y2="29.4104" gradientUnits="userSpaceOnUse">
<stop stop-color="#A178B5"/>
<stop offset="1" stop-color="#C186E4" stop-opacity="0"/>
</linearGradient>
<linearGradient id="paint16_linear" x1="227.913" y1="375.972" x2="1178.24" y2="375.972" gradientUnits="userSpaceOnUse">
<stop stop-color="#A178B5"/>
<stop offset="1" stop-color="#C186E4" stop-opacity="0"/>
</linearGradient>
<linearGradient id="paint17_linear" x1="-162.494" y1="353.456" x2="426.596" y2="353.456" gradientUnits="userSpaceOnUse">
<stop stop-color="#A178B5"/>
<stop offset="1" stop-color="#C186E4" stop-opacity="0"/>
</linearGradient>
<linearGradient id="paint18_linear" x1="-18.5296" y1="333.172" x2="631.642" y2="333.172" gradientUnits="userSpaceOnUse">
<stop stop-color="#A178B5"/>
<stop offset="1" stop-color="#C186E4" stop-opacity="0"/>
</linearGradient>
<linearGradient id="paint19_linear" x1="-18.5296" y1="344.263" x2="631.642" y2="344.263" gradientUnits="userSpaceOnUse">
<stop stop-color="#A178B5"/>
<stop offset="1" stop-color="#C186E4" stop-opacity="0"/>
</linearGradient>
<linearGradient id="paint20_linear" x1="-18.5296" y1="355.396" x2="631.642" y2="355.396" gradientUnits="userSpaceOnUse">
<stop stop-color="#A178B5"/>
<stop offset="1" stop-color="#C186E4" stop-opacity="0"/>
</linearGradient>
<linearGradient id="paint21_linear" x1="-18.5296" y1="344.263" x2="631.642" y2="344.263" gradientUnits="userSpaceOnUse">
<stop stop-color="#A178B5"/>
<stop offset="1" stop-color="#C186E4" stop-opacity="0"/>
</linearGradient>
<linearGradient id="paint22_linear" x1="-60.5184" y1="234.113" x2="743.789" y2="234.113" gradientUnits="userSpaceOnUse">
<stop stop-color="#A178B5"/>
<stop offset="1" stop-color="#C186E4" stop-opacity="0"/>
</linearGradient>
<linearGradient id="paint23_linear" x1="2.03719" y1="247.401" x2="1084.63" y2="247.401" gradientUnits="userSpaceOnUse">
<stop stop-color="#A178B5"/>
<stop offset="1" stop-color="#C186E4" stop-opacity="0"/>
</linearGradient>
<linearGradient id="paint24_linear" x1="140.003" y1="458.231" x2="947.237" y2="458.231" gradientUnits="userSpaceOnUse">
<stop stop-color="#A178B5"/>
<stop offset="1" stop-color="#C186E4" stop-opacity="0"/>
</linearGradient>
<linearGradient id="paint25_linear" x1="274.007" y1="583.773" x2="274.007" y2="155.923" gradientUnits="userSpaceOnUse">
<stop stop-color="#A178B5"/>
<stop offset="1" stop-color="#C186E4" stop-opacity="0"/>
</linearGradient>
<linearGradient id="paint26_linear" x1="44.0268" y1="232.328" x2="581.787" y2="232.328" gradientUnits="userSpaceOnUse">
<stop stop-color="#A178B5"/>
<stop offset="1" stop-color="#C186E4" stop-opacity="0"/>
</linearGradient>
<linearGradient id="paint27_linear" x1="44.0272" y1="249.2" x2="581.786" y2="249.2" gradientUnits="userSpaceOnUse">
<stop stop-color="#A178B5"/>
<stop offset="1" stop-color="#C186E4" stop-opacity="0"/>
</linearGradient>
<linearGradient id="paint28_linear" x1="-27.0988" y1="449.904" x2="862.876" y2="449.904" gradientUnits="userSpaceOnUse">
<stop stop-color="#A178B5"/>
<stop offset="1" stop-color="#C186E4" stop-opacity="0"/>
</linearGradient>
<linearGradient id="paint29_linear" x1="-27.0985" y1="446.82" x2="862.875" y2="446.82" gradientUnits="userSpaceOnUse">
<stop stop-color="#A178B5"/>
<stop offset="1" stop-color="#C186E4" stop-opacity="0"/>
</linearGradient>
<linearGradient id="paint30_linear" x1="-27.0972" y1="452.987" x2="862.875" y2="452.987" gradientUnits="userSpaceOnUse">
<stop stop-color="#A178B5"/>
<stop offset="1" stop-color="#C186E4" stop-opacity="0"/>
</linearGradient>
<linearGradient id="paint31_linear" x1="-27.0993" y1="473.412" x2="862.876" y2="473.412" gradientUnits="userSpaceOnUse">
<stop stop-color="#A178B5"/>
<stop offset="1" stop-color="#C186E4" stop-opacity="0"/>
</linearGradient>
<linearGradient id="paint32_linear" x1="-27.0985" y1="470.329" x2="862.875" y2="470.329" gradientUnits="userSpaceOnUse">
<stop stop-color="#A178B5"/>
<stop offset="1" stop-color="#C186E4" stop-opacity="0"/>
</linearGradient>
<linearGradient id="paint33_linear" x1="206.844" y1="479.857" x2="1174.62" y2="479.857" gradientUnits="userSpaceOnUse">
<stop stop-color="#A178B5"/>
<stop offset="1" stop-color="#C186E4" stop-opacity="0"/>
</linearGradient>
<linearGradient id="paint34_linear" x1="497.344" y1="475.168" x2="1325.31" y2="475.168" gradientUnits="userSpaceOnUse">
<stop stop-color="#A178B5"/>
<stop offset="1" stop-color="#C186E4" stop-opacity="0"/>
</linearGradient>
<linearGradient id="paint35_linear" x1="-27.9552" y1="375.972" x2="902.777" y2="375.972" gradientUnits="userSpaceOnUse">
<stop stop-color="#A178B5"/>
<stop offset="1" stop-color="#C186E4" stop-opacity="0"/>
</linearGradient>
<linearGradient id="paint36_linear" x1="217.127" y1="384.269" x2="1157.63" y2="384.269" gradientUnits="userSpaceOnUse">
<stop stop-color="#A178B5"/>
<stop offset="1" stop-color="#C186E4" stop-opacity="0"/>
</linearGradient>
<linearGradient id="paint37_linear" x1="414.222" y1="392.34" x2="1147.59" y2="392.34" gradientUnits="userSpaceOnUse">
<stop stop-color="#A178B5"/>
<stop offset="1" stop-color="#C186E4" stop-opacity="0"/>
</linearGradient>
<linearGradient id="paint38_linear" x1="285.682" y1="358.694" x2="1030.38" y2="358.694" gradientUnits="userSpaceOnUse">
<stop stop-color="#A178B5"/>
<stop offset="1" stop-color="#C186E4" stop-opacity="0"/>
</linearGradient>
<linearGradient id="paint39_linear" x1="-65.6604" y1="458.232" x2="689.456" y2="458.232" gradientUnits="userSpaceOnUse">
<stop stop-color="#A178B5"/>
<stop offset="1" stop-color="#C186E4" stop-opacity="0"/>
</linearGradient>
<linearGradient id="paint40_linear" x1="238.019" y1="466.197" x2="1171.64" y2="466.197" gradientUnits="userSpaceOnUse">
<stop stop-color="#A178B5"/>
<stop offset="1" stop-color="#C186E4" stop-opacity="0"/>
</linearGradient>
<linearGradient id="paint41_linear" x1="112.162" y1="468.932" x2="1120.28" y2="468.932" gradientUnits="userSpaceOnUse">
<stop stop-color="#A178B5"/>
<stop offset="1" stop-color="#C186E4" stop-opacity="0"/>
</linearGradient>
<linearGradient id="paint42_linear" x1="225.943" y1="485.038" x2="1020.48" y2="485.038" gradientUnits="userSpaceOnUse">
<stop stop-color="#A178B5"/>
<stop offset="1" stop-color="#C186E4" stop-opacity="0"/>
</linearGradient>
<linearGradient id="paint43_linear" x1="43.297" y1="433.918" x2="1068.74" y2="433.918" gradientUnits="userSpaceOnUse">
<stop stop-color="#A178B5"/>
<stop offset="1" stop-color="#C186E4" stop-opacity="0"/>
</linearGradient>
<linearGradient id="paint44_linear" x1="-168.972" y1="467.644" x2="961.572" y2="467.644" gradientUnits="userSpaceOnUse">
<stop stop-color="#A178B5"/>
<stop offset="1" stop-color="#C186E4" stop-opacity="0"/>
</linearGradient>
<linearGradient id="paint45_linear" x1="-168.977" y1="493.591" x2="961.574" y2="493.591" gradientUnits="userSpaceOnUse">
<stop stop-color="#A178B5"/>
<stop offset="1" stop-color="#C186E4" stop-opacity="0"/>
</linearGradient>
<linearGradient id="paint46_linear" x1="-168.975" y1="489.674" x2="961.573" y2="489.674" gradientUnits="userSpaceOnUse">
<stop stop-color="#A178B5"/>
<stop offset="1" stop-color="#C186E4" stop-opacity="0"/>
</linearGradient>
<linearGradient id="paint47_linear" x1="-168.972" y1="497.454" x2="961.572" y2="497.454" gradientUnits="userSpaceOnUse">
<stop stop-color="#A178B5"/>
<stop offset="1" stop-color="#C186E4" stop-opacity="0"/>
</linearGradient>
<linearGradient id="paint48_linear" x1="-168.977" y1="523.128" x2="961.574" y2="523.128" gradientUnits="userSpaceOnUse">
<stop stop-color="#A178B5"/>
<stop offset="1" stop-color="#C186E4" stop-opacity="0"/>
</linearGradient>
<linearGradient id="paint49_linear" x1="-168.975" y1="519.212" x2="961.573" y2="519.212" gradientUnits="userSpaceOnUse">
<stop stop-color="#A178B5"/>
<stop offset="1" stop-color="#C186E4" stop-opacity="0"/>
</linearGradient>
<linearGradient id="paint50_linear" x1="-168.972" y1="527.045" x2="961.572" y2="527.045" gradientUnits="userSpaceOnUse">
<stop stop-color="#A178B5"/>
<stop offset="1" stop-color="#C186E4" stop-opacity="0"/>
</linearGradient>
<clipPath id="clip0">
<rect width="942" height="791" fill="white"/>
</clipPath>
<clipPath id="clip1">
<rect x="311.924" y="363.717" width="45.319" height="60.8975" fill="white"/>
</clipPath>
</defs>
</svg>
