<svg version="1.1" id="Camada_1" xmlns="http://www.w3.org/2000/svg" x="0" y="0" viewBox="0 0 320 320" xml:space="preserve"><style>.st1{fill:#06c}.st2{fill:#00abdb}.st3{fill:#f90}</style><path d="M56.4 129.4c.9 3.6 1.8 6.6-.6 13.2s-18.9 41-18.9 41-5.7 12 8.4 18c14.1 6 20.4 2.4 25.1-7.8 4.5-9 12.6-26.6 14.1-30.2 0-.3.3-.6.3-.9.3-.9 1.5-3.9 4.8-4.5 4.2-.6 5.7 1.2 7.5 2.4 1.5 1.2 26.9 20.1 28.7 21.3s6 3.3 10.2 2.7c4.2-.3 8.1-2.4 10.5-5.1 2.4-2.7 5.1-6.6 6-8.7.6-2.1 2.1-5.4.6-9.6-1.5-4.2-3.3-6.3-7.5-9.3-4.5-3-30.5-21.9-35.3-25.4 0 0-4.5-3-5.4-9-.9-6 .9-9.3 6-12 4.5-2.4 19.5-10.5 23.6-12.9.9-.3 1.8-.9 2.4-1.8 2.7-2.7 8.1-10.2 3.6-18.6l-3-5.4s-6-12.9-21.9-4.2C102.4 69.5 94.3 74 91.4 75.5c-1.5.6-2.7 1.2-4.2 1.2s-3.3-.3-4.2-2.1c-1.8-3.6-1.2-5.7.9-7.5 2.4-1.5 15.9-13.2 12.6-33.8C93.2 12.4 72-1.4 50.4 4 28.9 9.7 17.5 30.4 22 47.4s18.3 25.7 27.8 27.8c5.4 1.2 5.1 6 5.1 6s0 4.8-5.4 4.8-31.1.6-31.1.6-15.6 1.2-15.3 16.8c0 15.9 9.9 19.2 16.2 19.2 5.4 0 21.6-.3 26.6-.3 1.5 0 3 .3 4.2.9 2.1 1.2 5.1 3.3 6.3 6.2z" fill="#eb3d7d"/><path class="st1" d="M201.3 310V134.2c0-8.4-6.9-15.3-15.3-15.3h-74.8c-8.4 0-15.3 6.9-15.3 15.3V310c0 3.6 3 6.6 6.6 6.6H195c3.6-.1 6.6-3.1 6.3-6.6z"/><path class="st2" d="M175.9 310V134.2c0-8.4-6.9-15.3-15.3-15.3H85.7c-8.4 0-15.3 6.9-15.3 15.3V310c0 3.6 3 6.6 6.6 6.6h92.5c3.7-.1 6.6-3.1 6.4-6.6z"/><path class="st1" d="M315.9 310V96.5c0-8.4-6.9-15.3-15.3-15.3h-74.8c-8.4 0-15.3 6.9-15.3 15.3V310c0 3.6 3 6.6 6.6 6.6h92.5c3.7-.1 6.6-3.1 6.3-6.6z"/><path class="st2" d="M294.1 310V96.5c0-8.4-6.9-15.3-15.3-15.3H204c-8.4 0-15.3 6.9-15.3 15.3V310c0 3.6 3 6.6 6.6 6.6h92.5c3.6-.1 6.6-3.1 6.3-6.6z"/><path class="st3" d="M156.7 162.7v-20.4c0-1.8-1.2-3-3-3h-5.4c-1.8 0-3 1.2-3 3v20.4c0 1.8 1.2 3 3 3h5.4c1.8 0 3-1.5 3-3zM119.6 199.8v-20.4c0-1.8-1.2-3-3-3h-5.4c-1.8 0-3 1.2-3 3v20.4c0 1.8 1.2 3 3 3h5.4c1.8 0 3-1.5 3-3zM138.1 199.8v-20.4c0-1.8-1.2-3-3-3h-5.4c-1.8 0-3 1.2-3 3v20.4c0 1.8 1.2 3 3 3h5.4c1.8 0 3-1.5 3-3zM101 236.9v-20.4c0-1.8-1.2-3-3-3h-5.4c-1.8 0-3 1.2-3 3v20.4c0 1.8 1.2 3 3 3H98c1.8 0 3-1.5 3-3zM156.7 274v-20.4c0-1.8-1.2-3-3-3h-5.4c-1.8 0-3 1.2-3 3V274c0 1.8 1.2 3 3 3h5.4c1.8 0 3-1.5 3-3zM275.2 162.7v-20.4c0-1.8-1.2-3-3-3h-5.4c-1.8 0-3 1.2-3 3v20.4c0 1.8 1.2 3 3 3h5.4c1.8 0 3-1.5 3-3zM219.6 124.4V104c0-1.8-1.2-3-3-3h-5.4c-1.8 0-3 1.2-3 3v20.4c0 1.8 1.2 3 3 3h5.4c1.5 0 3-1.2 3-3zM238.1 124.4V104c0-1.8-1.2-3-3-3h-5.4c-1.8 0-3 1.2-3 3v20.4c0 1.8 1.2 3 3 3h5.4c1.5 0 3-1.2 3-3zM256.7 124.4V104c0-1.8-1.2-3-3-3h-5.4c-1.8 0-3 1.2-3 3v20.4c0 1.8 1.2 3 3 3h5.4c1.5 0 3-1.2 3-3zM219.6 199.8v-20.4c0-1.8-1.2-3-3-3h-5.4c-1.8 0-3 1.2-3 3v20.4c0 1.8 1.2 3 3 3h5.4c1.5 0 3-1.5 3-3zM238.1 199.8v-20.4c0-1.8-1.2-3-3-3h-5.4c-1.8 0-3 1.2-3 3v20.4c0 1.8 1.2 3 3 3h5.4c1.5 0 3-1.5 3-3zM275.2 236.9v-20.4c0-1.8-1.2-3-3-3h-5.4c-1.8 0-3 1.2-3 3v20.4c0 1.8 1.2 3 3 3h5.4c1.8 0 3-1.5 3-3zM238.1 274v-20.4c0-1.8-1.2-3-3-3h-5.4c-1.8 0-3 1.2-3 3V274c0 1.8 1.2 3 3 3h5.4c1.5 0 3-1.5 3-3z"/><path class="st1" d="M101 162.7v-20.4c0-1.8-1.2-3-3-3h-5.4c-1.8 0-3 1.2-3 3v20.4c0 1.8 1.2 3 3 3H98c1.8 0 3-1.5 3-3zM119.6 162.7v-20.4c0-1.8-1.2-3-3-3h-5.4c-1.8 0-3 1.2-3 3v20.4c0 1.8 1.2 3 3 3h5.4c1.8 0 3-1.5 3-3zM138.1 162.7v-20.4c0-1.8-1.2-3-3-3h-5.4c-1.8 0-3 1.2-3 3v20.4c0 1.8 1.2 3 3 3h5.4c1.8 0 3-1.5 3-3zM101 199.8v-20.4c0-1.8-1.2-3-3-3h-5.4c-1.8 0-3 1.2-3 3v20.4c0 1.8 1.2 3 3 3H98c1.8 0 3-1.5 3-3zM156.7 199.8v-20.4c0-1.8-1.2-3-3-3h-5.4c-1.8 0-3 1.2-3 3v20.4c0 1.8 1.2 3 3 3h5.4c1.8 0 3-1.5 3-3zM119.6 236.9v-20.4c0-1.8-1.2-3-3-3h-5.4c-1.8 0-3 1.2-3 3v20.4c0 1.8 1.2 3 3 3h5.4c1.8 0 3-1.5 3-3zM138.1 236.9v-20.4c0-1.8-1.2-3-3-3h-5.4c-1.8 0-3 1.2-3 3v20.4c0 1.8 1.2 3 3 3h5.4c1.8 0 3-1.5 3-3zM156.7 236.9v-20.4c0-1.8-1.2-3-3-3h-5.4c-1.8 0-3 1.2-3 3v20.4c0 1.8 1.2 3 3 3h5.4c1.8 0 3-1.5 3-3zM101 274v-20.4c0-1.8-1.2-3-3-3h-5.4c-1.8 0-3 1.2-3 3V274c0 1.8 1.2 3 3 3H98c1.8 0 3-1.5 3-3zM119.6 274v-20.4c0-1.8-1.2-3-3-3h-5.4c-1.8 0-3 1.2-3 3V274c0 1.8 1.2 3 3 3h5.4c1.8 0 3-1.5 3-3zM138.1 274v-20.4c0-1.8-1.2-3-3-3h-5.4c-1.8 0-3 1.2-3 3V274c0 1.8 1.2 3 3 3h5.4c1.8 0 3-1.5 3-3zM219.6 162.7v-20.4c0-1.8-1.2-3-3-3h-5.4c-1.8 0-3 1.2-3 3v20.4c0 1.8 1.2 3 3 3h5.4c1.5 0 3-1.5 3-3zM238.1 162.7v-20.4c0-1.8-1.2-3-3-3h-5.4c-1.8 0-3 1.2-3 3v20.4c0 1.8 1.2 3 3 3h5.4c1.5 0 3-1.5 3-3zM256.7 162.7v-20.4c0-1.8-1.2-3-3-3h-5.4c-1.8 0-3 1.2-3 3v20.4c0 1.8 1.2 3 3 3h5.4c1.5 0 3-1.5 3-3zM275.2 124.4V104c0-1.8-1.2-3-3-3h-5.4c-1.8 0-3 1.2-3 3v20.4c0 1.8 1.2 3 3 3h5.4c1.8 0 3-1.2 3-3zM256.7 199.8v-20.4c0-1.8-1.2-3-3-3h-5.4c-1.8 0-3 1.2-3 3v20.4c0 1.8 1.2 3 3 3h5.4c1.5 0 3-1.5 3-3zM275.2 199.8v-20.4c0-1.8-1.2-3-3-3h-5.4c-1.8 0-3 1.2-3 3v20.4c0 1.8 1.2 3 3 3h5.4c1.8 0 3-1.5 3-3zM219.6 236.9v-20.4c0-1.8-1.2-3-3-3h-5.4c-1.8 0-3 1.2-3 3v20.4c0 1.8 1.2 3 3 3h5.4c1.5 0 3-1.5 3-3zM238.1 236.9v-20.4c0-1.8-1.2-3-3-3h-5.4c-1.8 0-3 1.2-3 3v20.4c0 1.8 1.2 3 3 3h5.4c1.5 0 3-1.5 3-3zM256.7 236.9v-20.4c0-1.8-1.2-3-3-3h-5.4c-1.8 0-3 1.2-3 3v20.4c0 1.8 1.2 3 3 3h5.4c1.5 0 3-1.5 3-3zM219.6 274v-20.4c0-1.8-1.2-3-3-3h-5.4c-1.8 0-3 1.2-3 3V274c0 1.8 1.2 3 3 3h5.4c1.5 0 3-1.5 3-3zM256.7 274v-20.4c0-1.8-1.2-3-3-3h-5.4c-1.8 0-3 1.2-3 3V274c0 1.8 1.2 3 3 3h5.4c1.5 0 3-1.5 3-3zM275.2 274v-20.4c0-1.8-1.2-3-3-3h-5.4c-1.8 0-3 1.2-3 3V274c0 1.8 1.2 3 3 3h5.4c1.8 0 3-1.5 3-3zM111.5 290.2h23.6c1.5 0 3 1.2 3 3v23.3h-29.9v-23.3c0-1.5 1.5-3 3.3-3zM231.8 290.2h23.6c1.5 0 3 1.2 3 3v23.3h-29.9v-23.3c0-1.5 1.2-3 3.3-3z"/></svg>