<svg version="1.1" id="Camada_1" xmlns="http://www.w3.org/2000/svg" x="0" y="0" viewBox="0 0 320 320" xml:space="preserve"><style>.st0{fill:#06c}.st6{fill:#fadb4f}</style><path class="st0" d="M249.6 261.6V124c0-10.1-8.3-18.3-18.3-18.3H39.8c-10.1 0-18.3 8.3-18.3 18.3v173.4c0 10.1 8.3 18.3 18.3 18.3h241.9c1.8 0 3.2-1.2 3.6-2.7.4-1.3 1.3-11.6.1-12.7L260.1 286c-6.7-6.3-10.5-15.1-10.5-24.4z"/><path d="M250 251.3V113.8c0-10.1-8.3-18.3-18.3-18.3H40.3c-10.1 0-18.3 8.3-18.3 18.3v173.4c0 10.1 8.3 18.3 18.3 18.3h241.9c3.4 0 5.1-4.2 2.6-6.5l-24.2-23.1c-6.8-6.4-10.6-15.3-10.6-24.6z" fill="#00abdb"/><path class="st0" d="M187.4 174.4c0 20.3-10.5 37.9-41.4 42.6v2.3c0 7.3-5.4 12.6-12.6 12.6h-7.3c-7.3 0-12.9-5-12.9-12.9v-12.9c0-7.3 4.6-12.7 11.8-13.5 19.1-2.4 26.7-5.9 26.7-15 0-8.2-9.2-10.9-21.3-10.9-8.4 0-17.8 2.3-27.5 6.7-7.8 3.2-14 .9-17-5.3l-3.5-7c-3.2-6.8-1.1-13.2 5.4-17.1 12.6-7.9 30.2-10.3 42.8-10.3 31.3.2 56.8 11.4 56.8 40.7zM108.6 262c0-11.5 8.6-20.3 20.2-20.3S149 250.5 149 262s-8.6 19.7-20.2 19.7-20.2-8.3-20.2-19.7z"/><path d="M187.4 167.8c0 20.3-10.5 37.9-41.4 42.6v2.3c0 7.3-5.4 12.6-12.6 12.6h-7.3c-7.3 0-12.9-5-12.9-12.9v-12.9c0-7.3 4.6-12.7 11.8-13.5 19.1-2.4 26.7-5.9 26.7-15 0-8.2-9.2-10.9-21.3-10.9-8.4 0-17.8 2.3-27.5 6.7-7.8 3.2-14 .9-17-5.3l-3.5-7c-3.2-6.8-1.1-13.2 5.4-17.1 12.6-7.9 30.2-10.3 42.8-10.3 31.3.1 56.8 11.3 56.8 40.7zm-78.8 87.5c0-11.5 8.6-20.3 20.2-20.3s20.2 8.8 20.2 20.3-8.6 19.7-20.2 19.7-20.2-8.3-20.2-19.7z" fill="#609"/><path d="M231.7 95.5h-57.8c-.4 5.3-.3 10.5.3 15.6.7 5.4-1 10.8-4.3 15.1L153.8 147c-1.6 2.1.1 5 2.7 4.7l22.6-2.9c6.4-.8 12.7 1.4 17.3 5.8 11.2 10.6 26 17.8 42.8 19.4 3.6.4 7.2.4 10.7.2v-60.3c.1-10.2-8.1-18.4-18.2-18.4z" fill="#2e95ce"/><path d="M164.5 133.2L153.9 147c-1.6 2.1.1 5 2.7 4.7l22.6-2.9c1.2-.2 2.4-.2 3.6-.1-4.1-7-10.4-12.1-18.3-15.5z" fill="#55057f"/><path d="M233.5 6.2C196.6 9.1 166.7 39 163.7 76c-.8 10.4.5 20.4 3.4 29.7 1.7 5.4 1 11.3-1.6 16.3L153 146.5c-1.2 2.4 1.1 5.1 3.7 4.3l22.7-7.3c6.4-2 13.3-1 19 2.7 13.6 8.8 30.1 13.4 47.8 11.9 37.8-3.1 68-34.6 69.7-72.5 1.9-45.7-36.4-83-82.4-79.4z" fill="#eb3d7d"/><circle class="st6" cx="207.9" cy="83.9" r="9.9"/><circle class="st6" cx="240.7" cy="83.9" r="9.9"/><circle class="st6" cx="273.4" cy="83.9" r="9.9"/></svg>