<svg version="1.1" id="Camada_1" xmlns="http://www.w3.org/2000/svg" x="0" y="0" viewBox="0 0 320 320" xml:space="preserve"><style>.st2{fill:#f4d7ba}</style><path d="M1.7 276.8c0-70.9 40.1-76.5 84.5-77.7 40.4-1.1 58-2.8 80.2 4.8 41.5 14.2 43 42.4 41.5 80.8-.9 23.6-62.6 21.1-112.1 21.3-49.4.3-94.1-5.9-94.1-29.2z" fill="#609"/><path d="M86.8 196.8l-6.3 1.7s-12.2 9.4-.9 22.2c10.2 11.4 41 14.5 56.6.6 5.1-4.6 6.3-10.2 6-13.9-.3-7.4-7.1-11.4-7.1-11.4l-48.3.8z" fill="#00abdb"/><path class="st2" d="M80.6 129.1c-.3-1.7 53.2-21.6 52.4-5.7-1.1 16.8-1.4 36.7.6 53.8 1.1 8.5 5.4 22.5 5.4 22.5 2.6 10.2-3.1 20.8-17.6 24.2-21.9 4.8-35.9-2-40.4-7.7-2.8-3.4-3.1-9.1-2.6-11.4 1.4-5.7 4.3-16.5 3.7-38.1-.4-18 .2-19.1-1.5-37.6z"/><path d="M80.6 129.1c.6 5.7.9 9.7.9 13.1.6 9.7.9 19.6.6 29.3 0 12.8-1.1 21.6-2.3 27.3 3.7-2 10.8-9.7 12.8-12.5 13.7-17.6 31.9-42.7 39-66.3-7.5-8.8-51.3 7.4-51 9.1z" fill="#edccb8"/><path class="st2" d="M144.3 63.3c-14.2-37.8-52.6-47-81.1-35.3-42.7 17.4-26.7 37-34.4 68-3.4 16.5-11.1 22.8-4.8 26.2 3.1 1.7 7.1-.3 9.7 1.7 1.7 1.4 9.7 37.6 12.8 40.7 5.7 5.7 18.8 5.1 25.9 4.3 15.4-1.7 30.7-6 43.5-13.9 18.5-11.4 29.3-30.2 32.2-50.9 1.6-13.7 1-27.7-3.8-40.8z"/><path d="M33 17.5c-6 4.8-10.2 11.1-11.7 19.3-2 12.8 8 24.2 17.1 31.9 5.7 4.8 27 11.7 15.9-3.4 9.4 1.7 18.8 2.3 28.2 1.4 1.7 0 2.8 1.1 3.4 2.6 5.7 16.2 6.5 18.8 6.3 27.9-.3 5.4-.9 7.1 1.1 9.7 1.1 1.4 2.8 2 4.8 2 1.7 0 3.4-.6 5.1-1.1.6-5.1.6-11.7 4.3-15.4 3.7-2.8 9.1-3.1 13.1-.9 6 3.7 7.1 12.8 6.3 19.1-.9 5.4-2 10.5-2 15.9 0 2.8 1.1 7.1 2.6 9.7.3.6.6 1.4.9 2.3 1.1 2.8 4.3 4.8 7.4 4 1.1-.3 2.6-.6 3.1-.6 6 .3 10.8-10.8 13.7-15.1 4.6-6.8 8.5-14.5 11.4-22.2 6.3-15.4 9.4-32.2 9.1-48.7-.3-12.2-3.1-25.6-17.6-27.3-.6 0-1.4 0-2-.3-1.1-.6-1.7-2.3-2-3.7-2.8-11.1-14.8-15.9-25-18.5C103 .2 78.3.5 55 6.7 47.6 9 39.6 12.1 33 17.5z" fill="#461e5f"/><circle cx="177.8" cy="263.5" r="54.8" fill="#eb3d7d"/><path d="M200.7 272.6h-45.9c-4.9 0-8.9-4-8.9-8.9v-.3c0-4.9 4-8.9 8.9-8.9h45.9c4.9 0 8.9 4 8.9 8.9v.3c0 4.9-4 8.9-8.9 8.9z" fill="#fff"/></svg>